<svg width="56" height="56" viewBox="0 0 56 56" fill="none" xmlns="http://www.w3.org/2000/svg">
<rect x="0.5" y="0.5" width="55" height="55" rx="7.5" fill="white" stroke="#E1E9F0"/>
<path d="M27.9994 46.9999C24.2416 46.9996 20.5682 45.8851 17.4438 43.7973C14.3194 41.7094 11.8842 38.742 10.4462 35.2703C9.00822 31.7986 8.63199 27.9785 9.36508 24.293C10.0982 20.6075 11.9077 17.2221 14.5648 14.5649C16.329 12.8007 18.4236 11.4011 20.7288 10.4463C23.0339 9.49148 25.5046 9.00003 27.9998 9C30.4949 8.99997 32.9656 9.49138 35.2708 10.4462C37.576 11.401 39.6705 12.8004 41.4349 14.5646C43.1992 16.3289 44.5988 18.4233 45.5536 20.7284C46.5085 23.0335 47 25.5041 47 27.9992C47 30.4942 46.5086 32.9648 45.5538 35.2699C44.599 37.5751 43.1994 39.6695 41.4352 41.4338C39.675 43.2039 37.5811 44.6073 35.2749 45.5627C32.9686 46.5182 30.4957 47.0067 27.9994 46.9999ZM30.1939 35.7536V42.7483C33.7279 42.2206 36.955 40.4415 39.2876 37.7348C41.6203 35.0281 42.9034 31.5738 42.9034 28.0007C42.9034 24.4276 41.6203 20.9734 39.2876 18.2667C36.955 15.56 33.7279 13.7809 30.1939 13.2532V20.2468H32.5354C33.7367 20.2475 34.8887 20.7247 35.7386 21.5738C36.5884 22.4228 37.0668 23.5742 37.0687 24.7755V31.2221C37.0672 32.4238 36.5891 33.5759 35.7392 34.4255C34.8894 35.2752 33.7372 35.753 32.5354 35.7541L30.1939 35.7536ZM25.8099 13.2532C22.2746 13.7793 19.0459 15.5577 16.7119 18.2646C14.3779 20.9715 13.094 24.4266 13.094 28.0007C13.094 31.5748 14.3779 35.03 16.7119 37.7369C19.0459 40.4438 22.2746 42.2222 25.8099 42.7483V35.7541H23.4618C22.2601 35.7531 21.1079 35.2753 20.2581 34.4256C19.4084 33.5759 18.9306 32.4238 18.9296 31.2221V24.7772C18.9306 23.5757 19.4085 22.4237 20.2582 21.5742C21.108 20.7248 22.2602 20.2474 23.4618 20.2468H25.8099V13.2532ZM23.4705 24.3449C23.3541 24.3449 23.2425 24.3911 23.1602 24.4734C23.0779 24.5557 23.0316 24.6673 23.0316 24.7837V31.2188C23.0316 31.3352 23.0779 31.4469 23.1602 31.5292C23.2425 31.6115 23.3541 31.6577 23.4705 31.6577H32.5294C32.6458 31.6577 32.7574 31.6115 32.8397 31.5292C32.922 31.4469 32.9683 31.3352 32.9683 31.2188V24.7821C32.9683 24.6657 32.922 24.5541 32.8397 24.4718C32.7574 24.3894 32.6458 24.3432 32.5294 24.3432L23.4705 24.3449Z" fill="#C51938"/>
</svg>
