<svg width="134" height="32" viewBox="0 0 134 32" fill="none" xmlns="http://www.w3.org/2000/svg">
<path fill-rule="evenodd" clip-rule="evenodd" d="M8.73909 3.41286C8.48965 3.53362 8.46624 3.90766 8.69395 4.13537C8.92835 4.36977 9.2455 4.31429 9.40208 4.01152C9.61368 3.60231 9.17184 3.20332 8.73909 3.41286ZM6.33582 6.987C6.37347 7.0385 6.41519 7.09118 6.42858 7.10406C6.44202 7.11693 6.47606 7.18015 6.50434 7.24453C6.68953 7.66661 7.8182 8.97583 8.47412 9.52944C9.2611 10.1937 10.5209 10.957 11.47 11.2628C11.573 11.296 11.6427 11.3462 11.6807 11.3583C11.7363 11.3583 13.4003 11.185 13.5437 11.1162C13.8597 10.9648 13.6736 10.7507 13.1086 10.6157C10.7131 10.0435 8.21611 8.85203 7.22366 7.80765C7.04891 7.62377 6.28553 6.91816 6.33582 6.987ZM2.62278 9.10359C3.09154 10.1636 4.75443 11.823 5.94541 12.5022C6.79374 12.9859 7.50153 13.2093 8.70807 13.3684C9.58439 13.484 9.89474 13.8587 9.48067 14.3283C9.39836 14.4217 9.39452 14.434 9.46513 14.3783C9.51663 14.3377 9.70321 14.3049 9.79901 14.2689C9.86706 14.2434 10.1778 14.1183 10.478 13.986C10.7794 13.8531 11.6074 13.6237 12.1637 13.519C12.7587 13.4071 12.8909 13.3242 12.8158 13.1104C12.7467 12.9136 12.5203 12.8375 11.8125 12.7735C9.34402 12.5501 6.9341 11.8373 5.3975 10.876C4.61393 10.3858 3.98994 9.90221 3.37256 9.30674C3.22459 9.16402 2.79116 8.96311 2.69035 8.92008C2.50703 8.84188 2.50703 8.84188 2.62278 9.10359ZM10.1394 11.3507C10.1849 11.3626 10.2482 11.3618 10.2799 11.349C10.3116 11.3362 10.2743 11.3265 10.197 11.3274C10.1198 11.3284 10.0938 11.3388 10.1394 11.3507ZM6.64809 14.3979C6.55414 14.4044 5.66196 15.2896 5.19622 15.9906C4.95074 16.3601 4.80404 16.563 4.5875 16.9505C4.48175 17.1397 4.42545 17.2476 4.32996 17.4422C4.07661 17.9585 4.03078 18.1494 3.77507 18.8063C3.11989 20.4892 2.80898 22.187 2.805 24.1035C2.80247 25.3053 2.70996 25.5476 2.92522 25.496C3.20073 25.4301 4.74899 25.3924 5.1728 25.4492C6.63636 25.6453 8.47394 26.6667 9.19972 27.3924C9.32738 27.5201 9.47246 27.637 9.59774 27.767C9.71896 27.8928 9.81895 27.9564 9.92551 28.0948C10.6895 29.0873 11.2142 29.9395 11.4643 30.8906C11.5857 31.3519 11.5787 31.3474 12.1754 31.3546C12.6425 31.3603 12.6382 31.3729 12.3919 30.7134C11.4973 28.3184 9.73586 26.6718 7.14453 25.8084C6.63835 25.6397 6.63835 25.6397 6.34439 24.8919C4.76686 20.8795 5.88542 16.6352 9.12026 14.5467C9.18835 14.5028 9.1905 14.4956 9.12949 14.5156C8.87251 14.6002 7.37266 14.5213 6.80041 14.333C6.76075 14.32 6.69225 14.3492 6.64809 14.3979Z" fill="#D8D5FF"/>
<path fill-rule="evenodd" clip-rule="evenodd" d="M4.65659 0.0780335C4.35907 0.215839 4.29932 0.3919 4.335 1.02563C4.36085 1.48465 4.35401 1.54674 4.25226 1.77688C3.48232 3.51783 3.88352 5.69799 5.37044 7.85328C5.71362 8.3507 5.70931 8.34195 5.57712 8.27279C4.19752 7.55103 2.58301 5.51368 2.18902 3.99726C2.02954 3.38349 1.85975 3.17081 1.52922 3.17081C0.739704 3.17081 0.718257 4.1922 1.47668 5.67382C2.8316 8.32087 5.44845 10.3263 8.50971 11.0636C9.53208 11.3099 12.0258 11.4453 11.366 11.2187C9.87015 10.705 8.27666 9.58528 7.24043 8.31961C6.96931 7.98842 6.37918 7.171 6.37918 7.12661C6.37918 7.11523 6.30824 6.99489 6.22152 6.85915C5.60213 5.88997 5.15748 4.60205 5.08893 3.57889C5.05025 3.00172 5.05713 2.99063 5.2463 3.32584C6.29167 5.17814 8.20488 6.41436 11.8855 7.61593C14.4032 8.43784 15.0749 8.71055 16.2592 9.39166C19.2799 11.1289 21.4027 14.1963 21.7186 17.2805C21.7511 17.598 21.7511 17.598 21.6157 17.5603C19.5183 16.9768 17.6855 19.662 18.8987 21.5409C19.2257 22.0474 19.8487 22.5151 20.2903 22.5858C20.526 22.6234 20.5245 22.6333 20.1961 23.2017C19.6225 24.1945 18.6382 25.2687 17.7483 25.8731C17.4394 26.0829 17.4393 26.0681 17.7536 26.5767C18.2573 27.3917 18.6619 28.4078 18.8862 29.4213C18.991 29.8947 18.991 29.8947 19.4864 29.6135C25.5089 26.1953 27.7177 18.8235 24.5726 12.6391C22.1551 7.88573 15.6612 5.85309 12.5894 5.99357C11.6302 6.03743 11.2363 5.92333 10.5944 5.76766C7.74703 5.07715 5.88705 2.89529 5.56022 0.814025C5.44976 0.110717 5.13669 -0.14429 4.65659 0.0780335ZM12.2036 1.31112C11.7866 1.69325 12.0397 2.42161 12.5894 2.42161C12.8702 2.42161 13.0547 2.31743 13.1683 2.09473C13.4898 1.46465 12.7191 0.838701 12.2036 1.31112ZM16.0866 3.26212C15.627 3.54236 15.8395 4.34143 16.3736 4.34143C16.5819 4.34143 16.8476 4.1745 16.9361 3.98804C17.1833 3.46697 16.5867 2.95719 16.0866 3.26212ZM1.90278 8.83178C1.45903 9.10238 1.54317 9.62157 2.18308 10.5613C2.43719 10.9345 2.43719 10.9345 2.27888 11.1696C2.09364 11.4446 1.60306 12.2491 1.60306 12.2778C1.60306 12.2887 1.54425 12.3985 1.47237 12.522C1.1099 13.1445 0.667218 14.3116 0.403127 15.3409C-1.51032 22.7994 3.59625 30.2682 11.3069 31.2887C11.5683 31.3233 11.5685 31.318 11.3362 30.581C10.3137 27.3368 6.70574 24.9923 3.40843 25.4295C3.10079 25.4702 2.83741 25.4919 2.82312 25.4776C2.73917 25.3936 2.80458 22.6495 2.906 22.002C3.37219 19.025 4.52642 16.5374 6.28254 14.7253C6.73037 14.2632 6.73037 14.2632 6.99385 14.3549C7.95863 14.6906 9.23427 14.6697 9.53428 14.3132C9.93955 13.8316 9.56326 13.4546 8.53312 13.3101C7.51927 13.1678 7.08347 13.0456 6.39323 12.7097C5.06701 12.0642 3.59526 10.6357 2.90422 9.32302C2.59673 8.73888 2.29658 8.59166 1.90278 8.83178ZM14.3911 16.309C13.0174 16.6784 12.3683 18.3765 13.1617 19.5249C14.3697 21.2734 17.0552 20.4737 17.0552 18.3654C17.0552 16.9796 15.7226 15.951 14.3911 16.309ZM15.1729 17.4713C15.7543 17.7739 15.6607 18.6638 15.0418 18.717C14.7381 18.743 14.6507 18.7146 14.4786 18.5337C13.9726 18.0017 14.5358 17.1398 15.1729 17.4713ZM21.7737 18.9284C22.2876 19.2319 22.2722 20.9018 21.7467 21.8728C21.5687 22.2016 21.4905 22.2673 21.4666 22.1081C21.4306 21.8676 21.3954 21.7912 21.2419 21.6213C21.1309 21.4984 20.9963 21.4122 20.8334 21.3597C19.8337 21.0374 19.5425 20.1512 20.1613 19.3142C20.4911 18.8681 21.3313 18.667 21.7737 18.9284Z" fill="#0A1136"/>
<circle cx="10.5122" cy="22.5696" r="3.18408" fill="url(#paint0_linear_1172_3324)"/>
<path d="M34.6364 13.1307V11.3636H43.9205V13.1307H40.3239V23H38.233V13.1307H34.6364ZM45.6193 23V14.2727H47.6761V23H45.6193ZM46.6534 13.0341C46.3277 13.0341 46.0473 12.9261 45.8125 12.7102C45.5777 12.4905 45.4602 12.2273 45.4602 11.9205C45.4602 11.6098 45.5777 11.3466 45.8125 11.1307C46.0473 10.911 46.3277 10.8011 46.6534 10.8011C46.983 10.8011 47.2633 10.911 47.4943 11.1307C47.7292 11.3466 47.8466 11.6098 47.8466 11.9205C47.8466 12.2273 47.7292 12.4905 47.4943 12.7102C47.2633 12.9261 46.983 13.0341 46.6534 13.0341ZM51.848 17.8864V23H49.7912V14.2727H51.7571V15.7557H51.8594C52.0601 15.267 52.3802 14.8788 52.8196 14.5909C53.2628 14.303 53.8101 14.1591 54.4616 14.1591C55.0639 14.1591 55.5885 14.2879 56.0355 14.5455C56.4863 14.803 56.8348 15.1761 57.081 15.6648C57.331 16.1534 57.4541 16.7462 57.4503 17.4432V23H55.3935V17.7614C55.3935 17.178 55.242 16.7216 54.9389 16.392C54.6397 16.0625 54.2249 15.8977 53.6946 15.8977C53.3348 15.8977 53.0147 15.9773 52.7344 16.1364C52.4579 16.2917 52.2401 16.517 52.081 16.8125C51.9257 17.108 51.848 17.4659 51.848 17.8864ZM62.8054 11.3636H65.1861L68.0327 16.5114H68.1463L70.9929 11.3636H73.3736L69.1406 18.6591V23H67.0384V18.6591L62.8054 11.3636ZM75.7869 23.1761C75.2339 23.1761 74.7358 23.0777 74.2926 22.8807C73.8532 22.6799 73.5047 22.3845 73.2472 21.9943C72.9934 21.6042 72.8665 21.1231 72.8665 20.5511C72.8665 20.0587 72.9574 19.6515 73.1392 19.3295C73.321 19.0076 73.5691 18.75 73.8835 18.5568C74.1979 18.3636 74.5521 18.2178 74.946 18.1193C75.3438 18.017 75.7547 17.9432 76.179 17.8977C76.6903 17.8447 77.1051 17.7973 77.4233 17.7557C77.7415 17.7102 77.9725 17.642 78.1165 17.5511C78.2642 17.4564 78.3381 17.3106 78.3381 17.1136V17.0795C78.3381 16.6515 78.2112 16.3201 77.9574 16.0852C77.7036 15.8504 77.3381 15.733 76.8608 15.733C76.357 15.733 75.9574 15.8428 75.6619 16.0625C75.3703 16.2822 75.1733 16.5417 75.071 16.8409L73.1506 16.5682C73.3021 16.0379 73.5521 15.5947 73.9006 15.2386C74.2491 14.8788 74.6752 14.6098 75.179 14.4318C75.6828 14.25 76.2396 14.1591 76.8494 14.1591C77.2699 14.1591 77.6884 14.2083 78.1051 14.3068C78.5218 14.4053 78.9025 14.5682 79.2472 14.7955C79.5919 15.0189 79.8684 15.3239 80.0767 15.7102C80.2888 16.0966 80.3949 16.5795 80.3949 17.1591V23H78.4176V21.8011H78.3494C78.2244 22.0436 78.0483 22.2708 77.821 22.483C77.5975 22.6913 77.3153 22.8598 76.9744 22.9886C76.6373 23.1136 76.2415 23.1761 75.7869 23.1761ZM76.321 21.6648C76.7339 21.6648 77.0919 21.5833 77.3949 21.4205C77.6979 21.2538 77.9309 21.0341 78.0938 20.7614C78.2604 20.4886 78.3438 20.1913 78.3438 19.8693V18.8409C78.2794 18.8939 78.1695 18.9432 78.0142 18.9886C77.8627 19.0341 77.6922 19.0739 77.5028 19.108C77.3134 19.142 77.1259 19.1723 76.9403 19.1989C76.7547 19.2254 76.5938 19.2481 76.4574 19.267C76.1506 19.3087 75.8759 19.3769 75.6335 19.4716C75.3911 19.5663 75.1998 19.6989 75.0597 19.8693C74.9195 20.036 74.8494 20.2519 74.8494 20.517C74.8494 20.8958 74.9877 21.1818 75.2642 21.375C75.5407 21.5682 75.893 21.6648 76.321 21.6648ZM86.821 14.2727V15.8636H81.804V14.2727H86.821ZM83.0426 12.1818H85.0994V20.375C85.0994 20.6515 85.1411 20.8636 85.2244 21.0114C85.3116 21.1553 85.4252 21.2538 85.5653 21.3068C85.7055 21.3598 85.8608 21.3864 86.0312 21.3864C86.16 21.3864 86.2775 21.3769 86.3835 21.358C86.4934 21.339 86.5767 21.322 86.6335 21.3068L86.9801 22.9148C86.8703 22.9527 86.7131 22.9943 86.5085 23.0398C86.3078 23.0852 86.0616 23.1117 85.7699 23.1193C85.2547 23.1345 84.7907 23.0568 84.3778 22.8864C83.965 22.7121 83.6373 22.4432 83.3949 22.0795C83.1563 21.7159 83.0388 21.2614 83.0426 20.7159V12.1818ZM92.6009 23V11.3636H94.7088V16.7102H94.8509L99.3906 11.3636H101.964L97.4645 16.5852L102.004 23H99.4702L95.9986 18.0114L94.7088 19.5341V23H92.6009ZM104.139 23L101.673 14.2727H103.77L105.304 20.4091H105.384L106.952 14.2727H109.026L110.594 20.375H110.679L112.19 14.2727H114.293L111.821 23H109.679L108.043 17.1023H107.923L106.287 23H104.139ZM119.286 23.1705C118.433 23.1705 117.695 22.983 117.07 22.608C116.445 22.233 115.96 21.7083 115.615 21.0341C115.274 20.3598 115.104 19.572 115.104 18.6705C115.104 17.7689 115.274 16.9792 115.615 16.3011C115.96 15.6231 116.445 15.0966 117.07 14.7216C117.695 14.3466 118.433 14.1591 119.286 14.1591C120.138 14.1591 120.876 14.3466 121.501 14.7216C122.126 15.0966 122.609 15.6231 122.95 16.3011C123.295 16.9792 123.467 17.7689 123.467 18.6705C123.467 19.572 123.295 20.3598 122.95 21.0341C122.609 21.7083 122.126 22.233 121.501 22.608C120.876 22.983 120.138 23.1705 119.286 23.1705ZM119.297 21.5227C119.759 21.5227 120.145 21.3958 120.456 21.142C120.767 20.8845 120.998 20.5398 121.149 20.108C121.304 19.6761 121.382 19.1951 121.382 18.6648C121.382 18.1307 121.304 17.6477 121.149 17.2159C120.998 16.7803 120.767 16.4337 120.456 16.1761C120.145 15.9186 119.759 15.7898 119.297 15.7898C118.823 15.7898 118.429 15.9186 118.115 16.1761C117.804 16.4337 117.571 16.7803 117.416 17.2159C117.265 17.6477 117.189 18.1307 117.189 18.6648C117.189 19.1951 117.265 19.6761 117.416 20.108C117.571 20.5398 117.804 20.8845 118.115 21.142C118.429 21.3958 118.823 21.5227 119.297 21.5227ZM127.088 20.2614L127.082 17.7784H127.412L130.548 14.2727H132.952L129.094 18.5682H128.668L127.088 20.2614ZM125.213 23V11.3636H127.27V23H125.213ZM130.69 23L127.849 19.0284L129.236 17.5795L133.151 23H130.69Z" fill="#0A1136"/>
<defs>
<linearGradient id="paint0_linear_1172_3324" x1="12.6193" y1="20.2049" x2="8.47533" y2="24.8874" gradientUnits="userSpaceOnUse">
<stop stop-color="#F14674"/>
<stop offset="1" stop-color="#F1A561"/>
</linearGradient>
</defs>
</svg>
