<svg width="100" height="40" viewBox="0 0 100 40" fill="none" xmlns="http://www.w3.org/2000/svg">
<g clip-path="url(#clip0_1080_17986)">
<path d="M0 37.2148H19.3876V39.9902H0V37.2148Z" fill="#666D80"/>
<path d="M0 31.8916H19.3876V34.6767H0V31.8916Z" fill="#666D80"/>
<path d="M5.53125 26.5776H13.8473V29.3628H5.53125V26.5776Z" fill="#666D80"/>
<path d="M5.53125 21.2642H13.8473V24.0494H5.53125V21.2642Z" fill="#666D80"/>
<path d="M5.53125 15.9507H13.8473V18.7359H5.53125V15.9507Z" fill="#666D80"/>
<path d="M5.53125 10.627H13.8473V13.4122H5.53125V10.627Z" fill="#666D80"/>
<path d="M19.3876 5.31348H0V8.09868H19.3876V5.31348Z" fill="#666D80"/>
<path d="M19.3876 0H0V2.7852H19.3876V0Z" fill="#666D80"/>
<path d="M22.1523 34.6763H51.9696C52.4732 33.8171 52.8486 32.8788 53.0758 31.8911H22.1523V34.6763Z" fill="#666D80"/>
<path d="M49.6469 21.2642H27.6914V24.0494H51.968C51.3358 22.9826 50.5555 22.0444 49.6469 21.2642Z" fill="#666D80"/>
<path d="M27.6914 15.9507V18.7359H49.6469C50.5754 17.9556 51.3555 17.0173 51.968 15.9507H27.6914Z" fill="#666D80"/>
<path d="M51.9697 5.31348H22.1523V8.09868H53.0758C52.8191 7.11101 52.4437 6.17281 51.9697 5.31348Z" fill="#666D80"/>
<path d="M42.8042 0H22.1523V2.7852H49.9252C48.0684 1.06664 45.5499 0 42.8042 0Z" fill="#666D80"/>
<path d="M35.9975 10.627H27.6914V13.4122H35.9975V10.627Z" fill="#666D80"/>
<path d="M44.3164 13.4122H53.0077C53.2546 12.5233 53.3831 11.585 53.3831 10.627H44.3164V13.4122Z" fill="#666D80"/>
<path d="M27.6914 26.5776H35.9975V29.3628H27.6914V26.5776Z" fill="#666D80"/>
<path d="M44.3164 26.5776V29.3628H53.3831C53.3831 28.4048 53.2546 27.4666 53.0077 26.5776H44.3164Z" fill="#666D80"/>
<path d="M22.1523 39.9704L42.8042 40C45.5697 40 48.0684 38.9334 49.935 37.2148H22.1523V39.9704Z" fill="#666D80"/>
<path d="M55.3984 37.2148H69.2453V39.9902H55.3984V37.2148Z" fill="#666D80"/>
<path d="M55.3984 31.8916H69.2453V34.6767H55.3984V31.8916Z" fill="#666D80"/>
<path d="M60.9297 26.5776H69.2457V29.3628H60.9297V26.5776Z" fill="#666D80"/>
<path d="M60.9297 21.2642H69.2457V24.0494H60.9297V21.2642Z" fill="#666D80"/>
<path d="M73.0972 5.31348H55.3984V8.09868H74.0551L73.0972 5.31348Z" fill="#666D80"/>
<path d="M71.2601 0H55.3984V2.7852H72.2181L71.2601 0Z" fill="#666D80"/>
<path d="M85.8594 37.2148H99.7162V39.9902H85.8594V37.2148Z" fill="#666D80"/>
<path d="M85.8594 31.8916H99.7162V34.6767H85.8594V31.8916Z" fill="#666D80"/>
<path d="M85.8594 26.5776H94.1754V29.3628H85.8594V26.5776Z" fill="#666D80"/>
<path d="M85.8594 21.2642H94.1754V24.0494H85.8594V21.2642Z" fill="#666D80"/>
<path d="M85.8581 18.7359H94.1741V15.9507H85.8581H78.3322L77.5519 18.2026L76.7717 15.9507H69.2457H60.9297V18.7359H69.2457V16.1778L70.1248 18.7359H84.9791L85.8581 16.1778V18.7359Z" fill="#666D80"/>
<path d="M94.1739 10.627H80.169L79.2109 13.4122H94.1739V10.627Z" fill="#666D80"/>
<path d="M83.8526 0L82.8945 2.7852H99.7143V0H83.8526Z" fill="#666D80"/>
<path d="M77.5518 39.9704L78.5097 37.2148H76.5938L77.5518 39.9704Z" fill="#666D80"/>
<path d="M75.7161 34.6767H79.3901L80.3778 31.8916H74.7383L75.7161 34.6767Z" fill="#666D80"/>
<path d="M73.8489 29.3628H81.2563L82.2341 26.5776H72.8711L73.8489 29.3628Z" fill="#666D80"/>
<path d="M71.9893 24.0494H83.1201L84.0683 21.2642H71.0312L71.9893 24.0494Z" fill="#666D80"/>
<path d="M60.9297 13.4122H75.8926L74.9347 10.627H60.9297V13.4122Z" fill="#666D80"/>
<path d="M81.0586 8.09868H99.7154V5.31348H82.0068L81.0586 8.09868Z" fill="#666D80"/>
</g>
<defs>
<clipPath id="clip0_1080_17986">
<rect width="99.7136" height="40" fill="white"/>
</clipPath>
</defs>
</svg>
