<svg width="100" height="40" viewBox="0 0 100 40" fill="none" xmlns="http://www.w3.org/2000/svg">
<g clip-path="url(#clip0_135_86)">
<path d="M0 37.2148H19.3876V39.9902H0V37.2148Z" fill="#1F70C1"/>
<path d="M0 31.8914H19.3876V34.6765H0V31.8914Z" fill="#1F70C1"/>
<path d="M5.53101 26.5778H13.847V29.363H5.53101V26.5778Z" fill="#1F70C1"/>
<path d="M5.53101 21.2642H13.847V24.0494H5.53101V21.2642Z" fill="#1F70C1"/>
<path d="M5.53101 15.9506H13.847V18.7358H5.53101V15.9506Z" fill="#1F70C1"/>
<path d="M5.53101 10.6272H13.847V13.4124H5.53101V10.6272Z" fill="#1F70C1"/>
<path d="M19.3876 5.31348H0V8.09868H19.3876V5.31348Z" fill="#1F70C1"/>
<path d="M19.3876 0H0V2.7852H19.3876V0Z" fill="#1F70C1"/>
<path d="M22.1531 34.6764H51.9703C52.474 33.8172 52.8493 32.8789 53.0765 31.8912H22.1531V34.6764Z" fill="#1F70C1"/>
<path d="M49.6494 21.2642H27.6938V24.0494H51.9704C51.3382 22.9826 50.558 22.0444 49.6494 21.2642Z" fill="#1F70C1"/>
<path d="M27.6938 15.9506V18.7358H49.6494C50.5778 17.9555 51.358 17.0172 51.9704 15.9506H27.6938Z" fill="#1F70C1"/>
<path d="M51.9704 5.31348H22.1531V8.09868H53.0765C52.8198 7.11101 52.4445 6.17281 51.9704 5.31348Z" fill="#1F70C1"/>
<path d="M42.805 0H22.1531V2.7852H49.9259C48.0691 1.06664 45.5507 0 42.805 0Z" fill="#1F70C1"/>
<path d="M36 10.6272H27.6938V13.4124H36V10.6272Z" fill="#1F70C1"/>
<path d="M44.3159 13.4124H53.0073C53.2541 12.5236 53.3826 11.5852 53.3826 10.6272H44.3159V13.4124Z" fill="#1F70C1"/>
<path d="M27.6938 26.5778H36V29.363H27.6938V26.5778Z" fill="#1F70C1"/>
<path d="M44.3159 26.5778V29.363H53.3826C53.3826 28.4049 53.2541 27.4667 53.0073 26.5778H44.3159Z" fill="#1F70C1"/>
<path d="M22.1531 39.9704L42.805 40C45.5704 40 48.0691 38.9334 49.9358 37.2148H22.1531V39.9704Z" fill="#1F70C1"/>
<path d="M55.3975 37.2148H69.2443V39.9902H55.3975V37.2148Z" fill="#1F70C1"/>
<path d="M55.3975 31.8914H69.2443V34.6765H55.3975V31.8914Z" fill="#1F70C1"/>
<path d="M60.9282 26.5778H69.2442V29.363H60.9282V26.5778Z" fill="#1F70C1"/>
<path d="M60.9282 21.2642H69.2442V24.0494H60.9282V21.2642Z" fill="#1F70C1"/>
<path d="M73.0962 5.31348H55.3975V8.09868H74.0542L73.0962 5.31348Z" fill="#1F70C1"/>
<path d="M71.2591 0H55.3975V2.7852H72.2171L71.2591 0Z" fill="#1F70C1"/>
<path d="M85.8567 37.2148H99.7135V39.9902H85.8567V37.2148Z" fill="#1F70C1"/>
<path d="M85.8567 31.8914H99.7135V34.6765H85.8567V31.8914Z" fill="#1F70C1"/>
<path d="M85.8567 26.5778H94.1727V29.363H85.8567V26.5778Z" fill="#1F70C1"/>
<path d="M85.8567 21.2642H94.1727V24.0494H85.8567V21.2642Z" fill="#1F70C1"/>
<path d="M85.8566 18.7358H94.1726V15.9506H85.8566H78.3307L77.5505 18.2025L76.7702 15.9506H69.2442H60.9282V18.7358H69.2442V16.1777L70.1233 18.7358H84.9776L85.8566 16.1777V18.7358Z" fill="#1F70C1"/>
<path d="M94.1726 10.6272H80.1678L79.2097 13.4124H94.1726V10.6272Z" fill="#1F70C1"/>
<path d="M83.8516 0L82.8936 2.7852H99.7133V0H83.8516Z" fill="#1F70C1"/>
<path d="M77.5506 39.9704L78.5085 37.2148H76.5925L77.5506 39.9704Z" fill="#1F70C1"/>
<path d="M75.7134 34.6765H79.3874L80.3751 31.8914H74.7356L75.7134 34.6765Z" fill="#1F70C1"/>
<path d="M73.8467 29.363H81.2541L82.2319 26.5778H72.8689L73.8467 29.363Z" fill="#1F70C1"/>
<path d="M71.99 24.0494H83.1209L84.069 21.2642H71.032L71.99 24.0494Z" fill="#1F70C1"/>
<path d="M60.9282 13.4124H75.8911L74.9332 10.6272H60.9282V13.4124Z" fill="#1F70C1"/>
<path d="M81.0566 8.09868H99.7134V5.31348H82.0048L81.0566 8.09868Z" fill="#1F70C1"/>
</g>
<defs>
<clipPath id="clip0_135_86">
<rect width="99.7136" height="40" fill="white"/>
</clipPath>
</defs>
</svg>
