<svg width="169" height="156" viewBox="0 0 169 156" fill="none" xmlns="http://www.w3.org/2000/svg">
<g clip-path="url(#clip0_407_24)">
<g opacity="0.21">
<path d="M238.386 1.44264L241.456 15.3722C244.525 29.3017 250.45 57.3232 242.924 67.0591C235.183 76.9574 213.991 68.57 199.417 69.4066C185.058 70.0808 177.317 79.9791 173.696 94.893C170.074 109.807 170.142 130.061 165.544 143.681C160.731 157.463 151.253 164.609 135.703 164.151C120.368 163.531 98.9616 155.306 88.5074 161.159C78.0532 167.011 78.1208 187.265 76.4516 204.768C74.567 222.434 70.9455 237.347 56.3715 238.184C42.0128 238.858 16.7016 225.455 4.15363 218.673L-8.3943 211.89" stroke="#00AAF0" stroke-width="2"/>
<path d="M185.227 -69.0554L182.991 -57.233C180.54 -45.2481 176.069 -21.6032 164.56 -6.84319C153.051 7.91685 134.936 13.4672 113.681 15.3026C92.4267 17.1379 68.4639 14.9335 50.1331 20.6462C31.8023 26.359 19.5343 39.6642 12.8982 60.8865C6.26221 82.1089 5.68898 110.924 -1.92161 130.854C-9.53221 150.783 -23.7493 161.504 -31.0733 167.026L-38.1819 172.386" stroke="#00AAF0" stroke-width="2"/>
<path d="M233.779 -4.66703L236.359 8.33835L237.46 54.8326C230.299 64.9532 211 60.1709 196.781 62.5741C183.394 64.0134 175.683 73.3679 171.488 86.9854C167.293 100.603 166.229 118.772 160.947 130.961C154.293 143.397 143.208 149.508 127.368 149.761C111.72 149.87 91.3646 144.085 81.336 151.647C71.677 158.031 71.505 177.383 69.7818 194.279C67.8671 211.319 64.4012 225.904 51.0383 227.775C37.4433 230.607 13.4137 219.949 1.47077 214.566L-10.4482 209.165" stroke="#00AAF0" stroke-width="2"/>
<path d="M228.818 -11.247L230.954 0.896353L231.836 42.3953C225.27 52.7574 207.802 51.4986 193.912 55.4333C181.468 57.6012 173.8 66.4269 169.064 78.7918C164.328 91.1567 162.188 107.313 156.247 118.106C147.777 129.228 135.078 134.294 118.912 135.21C102.913 136 83.5431 132.567 73.9396 141.838C65.0725 148.75 64.721 167.278 62.9925 183.632C61.0964 200.112 57.8234 214.418 45.6455 217.287C32.7902 222.245 9.95185 214.213 -1.43144 210.17L-12.7669 206.09" stroke="#00AAF0" stroke-width="2"/>
<path d="M223.856 -17.8267L225.486 -6.62764L225.962 29.6275C219.965 40.1958 204.386 42.5376 190.852 48.0399C179.383 50.9777 171.744 59.2569 166.429 70.3187C161.114 81.3806 157.835 95.4418 151.21 104.804C140.905 114.589 126.618 118.644 110.178 120.292C93.8809 121.831 75.5747 120.855 66.3828 131.817C58.3045 139.252 57.6899 156.846 55.8868 172.566C53.94 188.394 50.8047 202.347 39.8378 206.249C27.7394 213.357 6.20356 208.097 -4.56432 205.468L-15.2604 202.784" stroke="#00AAF0" stroke-width="2"/>
<path d="M218.54 -24.8767L219.753 -14.5047L220.082 16.8506C214.697 27.6831 200.942 33.5399 187.732 40.5664C177.197 44.2209 169.605 51.9771 163.761 61.8018C157.916 71.6265 153.58 83.7001 146.301 91.6719C134.175 100.138 118.25 103.116 101.459 105.394C84.7872 107.581 67.4404 108.922 58.6903 121.615C51.4111 129.587 50.6556 146.41 48.8804 161.631C46.9855 176.943 44.0709 190.653 34.2847 195.549C22.9302 204.788 2.54497 202.1 -7.68355 200.784L-17.8163 199.395" stroke="#00AAF0" stroke-width="2"/>
<path d="M213.225 -31.9265L213.968 -22.4515L213.996 3.79996C209.197 14.8611 197.303 24.2807 184.434 32.8563C174.858 37.2584 167.302 44.4778 160.899 53.0268C154.496 61.5758 149.055 71.5988 141.104 78.1575C127.152 85.2954 109.621 87.2388 92.5242 90.2073C75.5236 93.1036 59.1974 96.8445 50.8696 111.243C44.3826 119.742 43.4129 135.696 41.6039 150.337C39.6992 165.051 36.9551 178.452 28.3668 184.364C17.7624 195.743 -1.38243 195.746 -11.0266 195.801L-20.5512 195.767" stroke="#00AAF0" stroke-width="2"/>
<path d="M207.2 -39.9163L207.494 -31.3115L207.272 -10.097C203.074 1.2152 193.048 14.207 180.521 24.3313C171.898 29.4755 164.382 36.1616 157.427 43.4429C150.472 50.7242 143.934 58.7088 135.311 63.853C119.521 69.6489 100.356 70.5212 82.9338 74.1529C65.5835 77.7305 50.2632 83.851 42.3778 99.981C36.6922 109.021 35.54 124.147 33.7252 138.246C31.8387 152.398 29.2896 165.523 21.9003 172.453C12.0566 185.986 -5.87465 188.643 -14.948 190.053L-23.8777 191.355" stroke="#00AAF0" stroke-width="2"/>
<path d="M200.821 -48.3761L200.607 -40.7188L200.004 -24.7136C196.349 -13.2307 188.132 3.25724 175.936 14.9149C168.271 20.8066 160.788 26.9524 153.272 32.9551C145.757 38.9578 138.113 44.8896 128.834 48.6415C111.26 53.1667 90.5663 53.1074 72.8844 57.49C55.2503 61.8365 40.9628 70.3723 33.4396 88.1278C28.5174 97.6569 27.0849 111.827 25.1759 125.265C23.219 138.739 20.7857 151.482 14.5785 159.407C5.44191 175.023 -11.212 180.42 -19.6825 183.227L-27.9855 185.908" stroke="#00AAF0" stroke-width="2"/>
<path d="M193.478 -58.1146L192.822 -51.3179L191.982 -40.3323C188.939 -28.5852 182.605 -8.50546 170.754 4.70622C164.044 11.3414 156.601 16.9542 148.532 21.688C140.463 26.4219 131.721 30.3129 121.765 32.6437C102.342 35.8119 79.9959 34.6568 61.9788 39.6902C43.9856 44.7056 30.7038 55.6207 23.6376 75.1274C19.5238 85.206 17.9223 98.5667 16.0202 111.479C14.0941 124.409 11.8674 136.891 6.86419 145.84C-1.50029 163.624 -16.9458 171.67 -24.8481 175.828L-32.5589 179.842" stroke="#00AAF0" stroke-width="2"/>
</g>
</g>
<defs>
<clipPath id="clip0_407_24">
<rect width="169" height="156" rx="78" fill="white"/>
</clipPath>
</defs>
</svg>
