<svg width="71" height="71" viewBox="0 0 71 71" fill="none" xmlns="http://www.w3.org/2000/svg">
<rect x="0.5" y="0.5" width="70" height="70" rx="15.5" fill="white" stroke="#CEDCF1"/>
<path d="M24.6562 51.2227C28.1295 51.2227 30.4527 52.5556 31.4777 53.3072C31.8545 53.5217 32.9223 54.1661 33.1518 54.1872V21.7043C31.792 19.1047 27.7946 17 23.6518 17C18.4196 17 13.9839 20.0937 13 22.1773V52.5134C13 53.9315 13.8161 54.4686 14.8 54.4686C15.5946 54.4686 16.1179 54.1891 16.6205 53.7591C17.8554 52.6206 20.7634 51.2227 24.6562 51.2227Z" fill="#3F8EFF"/>
<path d="M53.9306 54.0134C52.6752 52.8749 49.7868 51.4779 45.8949 51.4779C42.4208 51.4779 40.0975 52.8098 39.0931 53.5615C38.6958 53.798 37.6288 54.4635 37.3984 54.4855V21.9568C38.7583 19.3571 42.7556 17.2524 46.8984 17.2524C52.1306 17.2524 56.5458 20.3453 57.5297 22.4298V52.7677C57.5297 54.1857 56.7136 54.722 55.7297 54.722C54.935 54.722 54.4109 54.4213 53.9306 54.0134Z" fill="#2574E5"/>
</svg>
