<svg width="71" height="71" viewBox="0 0 71 71" fill="none" xmlns="http://www.w3.org/2000/svg">
<rect width="71" height="71" rx="24" fill="white"/>
<path d="M35.491 13L16 24.253V46.759L35.491 58.012L54.9821 46.759V24.253L35.491 13ZM52.561 25.651V43.963L49.1021 41.963V27.648L35.492 19.791L23.092 26.949L19.632 24.949L35.491 15.793L52.561 25.651ZM18.421 33.597L45.468 49.456L41.5081 51.742L18.421 38.479V33.597ZM18.421 30.789V27.049L51.349 46.06L47.88 48.06L18.421 30.789ZM46.6791 40.567L43.22 38.567V31.042L35.491 26.58L28.973 30.343L25.513 28.343L35.491 22.583L46.6791 29.042V40.567ZM40.797 37.167L31.397 31.738L35.497 29.373L40.803 32.437L40.797 37.167ZM18.421 45.356V41.267L39.083 53.138L35.492 55.213L18.421 45.356Z" fill="#1E1B41"/>
<path d="M35.7203 13.093L55.2114 24.346L35.7203 13.093ZM52.7903 25.744V44.056L49.3314 42.056V27.741L35.7213 19.884L23.3214 27.042L19.8613 25.042L35.7203 15.886L52.7903 25.744ZM46.9084 40.66L43.4493 38.66V31.135L35.7203 26.673L29.2023 30.436L25.7423 28.436L35.7203 22.676L46.9084 29.135V40.66ZM41.0263 37.26L31.6263 31.831L35.7263 29.466L41.0323 32.53L41.0263 37.26Z" fill="#40CAF4"/>
</svg>
