<svg width="120" height="120" viewBox="0 0 120 120" fill="none" xmlns="http://www.w3.org/2000/svg">
<g filter="url(#filter0_d_607_36)">
<rect x="30" y="18" width="60" height="60" rx="12" fill="white"/>
<g filter="url(#filter1_b_607_36)">
<path d="M66.984 34.1365C68.4993 32.6212 70.9601 32.6212 72.4754 34.1365L74.8635 36.5266C76.3788 38.0415 76.3788 40.5001 74.8635 42.0155L71.9299 44.9494L64.0503 37.0704L66.984 34.1365ZM70.5601 46.3194L56.4253 60.4492C55.795 61.0797 55.0131 61.5464 54.1585 61.795L46.865 63.9408C46.3547 64.0923 45.8025 63.9529 45.4261 63.5225C45.0497 63.2013 44.9089 62.6497 45.0591 62.1344L47.2044 54.8421C47.4566 53.9874 47.9191 53.2055 48.55 52.5751L62.6805 38.4415L70.5601 46.3194Z" fill="#40CAF4"/>
<path d="M62.6807 39.8557L69.1457 46.3193L55.7184 59.742L55.7182 59.7422C55.2048 60.2556 54.5694 60.634 53.8792 60.8347L53.8762 60.8356L46.5828 62.9815L46.5804 62.9822C46.4315 63.0264 46.2889 62.99 46.1788 62.8642L46.1308 62.8093L46.0753 62.7619C46.0386 62.7306 45.9637 62.6058 46.0189 62.4152C46.019 62.4149 46.0191 62.4146 46.0192 62.4143L48.1636 55.1251C48.1636 55.1249 48.1637 55.1248 48.1637 55.1246C48.369 54.429 48.7453 53.7935 49.2568 53.2825L49.2572 53.2821L62.6807 39.8557ZM74.1561 37.2334L74.1565 37.2338C75.2811 38.358 75.2813 40.1835 74.1564 41.3084L71.9298 43.5352L65.4645 37.0703L67.6911 34.8436C67.6911 34.8436 67.6911 34.8436 67.6911 34.8436C68.8159 33.7188 70.6435 33.7188 71.7683 34.8436L74.1561 37.2334Z" stroke="#161042" stroke-width="2"/>
</g>
</g>
<defs>
<filter id="filter0_d_607_36" x="0" y="0" width="120" height="120" filterUnits="userSpaceOnUse" color-interpolation-filters="sRGB">
<feFlood flood-opacity="0" result="BackgroundImageFix"/>
<feColorMatrix in="SourceAlpha" type="matrix" values="0 0 0 0 0 0 0 0 0 0 0 0 0 0 0 0 0 0 127 0" result="hardAlpha"/>
<feOffset dy="12"/>
<feGaussianBlur stdDeviation="15"/>
<feComposite in2="hardAlpha" operator="out"/>
<feColorMatrix type="matrix" values="0 0 0 0 0.0862745 0 0 0 0 0.0627451 0 0 0 0 0.258824 0 0 0 0.1 0"/>
<feBlend mode="normal" in2="BackgroundImageFix" result="effect1_dropShadow_607_36"/>
<feBlend mode="normal" in="SourceGraphic" in2="effect1_dropShadow_607_36" result="shape"/>
</filter>
<filter id="filter1_b_607_36" x="25" y="13" width="71" height="71" filterUnits="userSpaceOnUse" color-interpolation-filters="sRGB">
<feFlood flood-opacity="0" result="BackgroundImageFix"/>
<feGaussianBlur in="BackgroundImageFix" stdDeviation="10"/>
<feComposite in2="SourceAlpha" operator="in" result="effect1_backgroundBlur_607_36"/>
<feBlend mode="normal" in="SourceGraphic" in2="effect1_backgroundBlur_607_36" result="shape"/>
</filter>
</defs>
</svg>
