<svg width="130" height="130" viewBox="0 0 130 130" fill="none" xmlns="http://www.w3.org/2000/svg">
<g filter="url(#filter0_d_607_36)">
<rect x="30" y="18" width="70" height="70" rx="12" fill="white"/>
<g filter="url(#filter1_b_607_36)">
<path d="M72.9481 35.3931C74.8055 33.5356 77.8221 33.5356 79.6795 35.3931L82.6069 38.323C84.4644 40.1798 84.4644 43.1937 82.6069 45.0513L79.0108 48.6477L69.352 38.9895L72.9481 35.3931ZM77.3317 50.3269L60.0053 67.6475C59.2326 68.4202 58.2741 68.9924 57.2265 69.297L48.2861 71.9274C47.6606 72.1132 46.9837 71.9423 46.5223 71.4147C46.0609 71.0209 45.8884 70.3447 46.0725 69.7131L48.7022 60.7742C49.0113 59.7265 49.5782 58.768 50.3516 57.9952L67.6729 40.6703L77.3317 50.3269Z" fill="#40CAF4"/>
<path d="M81.8995 39.0298L81.8999 39.0302C83.3666 40.4964 83.3668 42.877 81.8998 44.3442L79.0108 47.2334L70.7662 38.9894L73.6552 36.1002C73.6552 36.1002 73.6552 36.1002 73.6552 36.1002C75.1222 34.6333 77.5055 34.6333 78.9724 36.1002L81.8995 39.0298ZM67.673 42.0845L75.9173 50.3269L59.2983 66.9402L59.2981 66.9404C58.6424 67.5962 57.8304 68.08 56.9473 68.3368L56.9442 68.3377L48.0039 70.9681L48.0015 70.9688C47.7374 71.0472 47.4701 70.9794 47.275 70.7564L47.227 70.7015L47.1715 70.6541C47.0499 70.5503 46.9432 70.3011 47.0322 69.9941C47.0323 69.9938 47.0324 69.9934 47.0325 69.993L49.6614 61.0572C49.6614 61.057 49.6614 61.0569 49.6615 61.0567C49.9237 60.1681 50.4045 59.3561 51.0584 58.7027L51.0588 58.7023L67.673 42.0845Z" stroke="#161042" stroke-width="2"/>
</g>
</g>
<defs>
<filter id="filter0_d_607_36" x="0" y="0" width="130" height="130" filterUnits="userSpaceOnUse" color-interpolation-filters="sRGB">
<feFlood flood-opacity="0" result="BackgroundImageFix"/>
<feColorMatrix in="SourceAlpha" type="matrix" values="0 0 0 0 0 0 0 0 0 0 0 0 0 0 0 0 0 0 127 0" result="hardAlpha"/>
<feOffset dy="12"/>
<feGaussianBlur stdDeviation="15"/>
<feComposite in2="hardAlpha" operator="out"/>
<feColorMatrix type="matrix" values="0 0 0 0 0.0862745 0 0 0 0 0.0627451 0 0 0 0 0.258824 0 0 0 0.1 0"/>
<feBlend mode="normal" in2="BackgroundImageFix" result="effect1_dropShadow_607_36"/>
<feBlend mode="normal" in="SourceGraphic" in2="effect1_dropShadow_607_36" result="shape"/>
</filter>
<filter id="filter1_b_607_36" x="26" y="14" width="78" height="78" filterUnits="userSpaceOnUse" color-interpolation-filters="sRGB">
<feFlood flood-opacity="0" result="BackgroundImageFix"/>
<feGaussianBlur in="BackgroundImageFix" stdDeviation="10"/>
<feComposite in2="SourceAlpha" operator="in" result="effect1_backgroundBlur_607_36"/>
<feBlend mode="normal" in="SourceGraphic" in2="effect1_backgroundBlur_607_36" result="shape"/>
</filter>
</defs>
</svg>
