<svg width="192" height="113" viewBox="0 0 192 113" fill="none" xmlns="http://www.w3.org/2000/svg">
<g clip-path="url(#clip0_135_463)">
<path d="M80.4941 111.436V41.4333L96.4306 1.56421L112.367 41.4333V111.436" stroke="white" stroke-width="2.5" stroke-linecap="round" stroke-linejoin="round"/>
<path d="M80.4941 41.4333C81.3322 43.5482 83.3962 45.0373 85.8104 45.0373C88.2247 45.0373 90.2761 43.5482 91.1268 41.4333C91.9649 43.5482 94.0288 45.0373 96.4431 45.0373C98.8573 45.0373 100.909 43.5482 101.759 41.4333C102.597 43.5482 104.661 45.0373 107.076 45.0373C109.49 45.0373 111.541 43.5482 112.392 41.4333" stroke="white" stroke-width="2.5" stroke-linecap="round" stroke-linejoin="round"/>
<path d="M89.5508 18.7957H103.323" stroke="white" stroke-width="2.5" stroke-linecap="round" stroke-linejoin="round"/>
<path d="M91.127 41.4333V111.436" stroke="white" stroke-width="2.5" stroke-linecap="round" stroke-linejoin="round"/>
<path d="M101.747 41.4333V111.436" stroke="white" stroke-width="2.5" stroke-linecap="round" stroke-linejoin="round"/>
<path d="M37.4131 111.436V63.4702H69.2859V111.436" stroke="white" stroke-width="2.5" stroke-linecap="round" stroke-linejoin="round"/>
<path d="M53.3496 23.6011V34.4756" stroke="white" stroke-width="2.5" stroke-linecap="round" stroke-linejoin="round"/>
<path d="M39.7021 63.4702L53.3494 34.4756L66.9967 63.4702" stroke="white" stroke-width="2.5" stroke-linecap="round" stroke-linejoin="round"/>
<path d="M123.587 111.436L126.001 89.2361H153.046L155.46 111.436" stroke="white" stroke-width="2.5" stroke-linecap="round" stroke-linejoin="round"/>
<path d="M144.589 67.0366L153.045 89.2362H126.001L134.457 67.0366" stroke="white" stroke-width="2.5" stroke-linecap="round" stroke-linejoin="round"/>
<path d="M152.495 57.4635C150.757 64.246 143.852 68.3381 137.059 66.5986C130.28 64.8592 125.276 58.8901 126.127 49.1543C127.465 33.8374 138.023 24.8775 148.08 23.6011C135.471 42.3593 156.423 42.109 152.483 57.4635H152.495Z" stroke="white" stroke-width="2.5" stroke-linecap="round" stroke-linejoin="round"/>
<path d="M131.63 89.2361L130.054 111.436" stroke="white" stroke-width="2.5" stroke-linecap="round" stroke-linejoin="round"/>
<path d="M2 111.436H190.873" stroke="white" stroke-width="2.5" stroke-linecap="round" stroke-linejoin="round"/>
</g>
<defs>
<clipPath id="clip0_135_463">
<rect width="192" height="113" fill="white"/>
</clipPath>
</defs>
</svg>
