<svg width="16" height="16" viewBox="0 0 16 16" fill="none" xmlns="http://www.w3.org/2000/svg">
<g clip-path="url(#clip0_307_156)">
<path d="M2.48162 1.75821C1.84136 2.07834 -0.399518 4.31922 -0.0793917 5.91985C-0.719594 6.66681 -2 8.54488 -2 10.0815C-2 12.0022 -0.719496 12.0022 -0.719496 13.2827C0.881135 14.2076 2.99872 15.2035 4.72265 15.2035C6.6434 15.2035 8.45745 15.4169 9.52454 15.2035C11.7654 15.5236 17.2076 13.2827 17.5277 12.0022C17.8383 10.76 17.8478 8.80098 17.5277 7.52048C17.2076 6.23997 15.6069 3.03871 14.9667 3.03871C14.3264 3.03871 15.6069 1.75821 15.6069 0.79783C15.6069 -0.162553 15.6069 -0.482674 14.9667 -0.482674C15.6069 -1.44305 15.9271 -2.40343 14.9667 -3.04368C14.0063 -3.68394 14.3264 -2.40343 13.6862 -2.40343C14.0063 -3.3638 13.3661 -5.28456 12.0855 -4.96443C10.805 -4.64431 11.1252 -3.3638 10.1648 -2.40343C9.20441 -1.44305 3.12187 1.43809 2.48162 1.75821Z" fill="#FCEC97" stroke="#7F3E42"/>
<path d="M15.9267 8.12515C15.9267 9.53956 14.7801 10.6862 13.3657 10.6862C11.9513 10.6862 10.8047 9.53956 10.8047 8.12515C11.4449 6.52452 12.5915 5.24402 14.0059 5.24402C15.4204 5.24402 15.9267 6.71075 15.9267 8.12515Z" fill="#FF8F71"/>
<ellipse cx="9.28956" cy="5.86436" rx="1.2805" ry="1.60063" transform="rotate(16.6832 9.28956 5.86436)" fill="#7F3E42"/>
<ellipse cx="8.83547" cy="5.27049" rx="0.449142" ry="0.561428" transform="rotate(16.6832 8.83547 5.27049)" fill="white"/>
<ellipse cx="4.16846" cy="5.2241" rx="1.2805" ry="1.60063" transform="rotate(16.6832 4.16846 5.2241)" fill="#7F3E42"/>
<ellipse cx="3.71437" cy="4.63024" rx="0.449142" ry="0.561428" transform="rotate(16.6832 3.71437 4.63024)" fill="white"/>
<path fill-rule="evenodd" clip-rule="evenodd" d="M-1.86426 9.13671C-1.51999 9.30885 -1.13152 9.40571 -0.720424 9.40571C0.693982 9.40571 1.84058 8.25911 1.84058 6.8447C1.84058 5.60226 1.44987 4.31944 0.396176 4.02588C0.0296457 4.65906 -0.197675 5.33255 -0.0802164 5.91985C-0.593223 6.5184 -1.51731 7.84325 -1.86426 9.13671Z" fill="#FF8F71"/>
<path d="M7.6036 10.3362C7.6036 9.57986 6.73053 8.44531 6.14849 8.44531C5.85746 8.44531 4.40234 9.95804 4.40234 10.7144C4.40234 11.4708 4.98439 11.8489 5.56644 12.2271C6.14849 12.6053 7.6036 11.0926 7.6036 10.3362Z" fill="#F7B46D" stroke="#7F3E42"/>
<path d="M8.24386 9.38081C8.24386 8.75051 7.19617 7.80505 6.49771 7.80505C6.14849 7.80505 4.40234 9.06566 4.40234 9.69596C4.40234 10.3263 5.1008 10.6414 5.79926 10.9566C6.49771 11.2717 8.24386 10.0111 8.24386 9.38081Z" fill="#F7B46D" stroke="#7F3E42"/>
</g>
<defs>
<clipPath id="clip0_307_156">
<rect width="16" height="16" fill="white"/>
</clipPath>
</defs>
</svg>
