<svg width="794" height="369" viewBox="0 0 794 369" fill="none" xmlns="http://www.w3.org/2000/svg">
<g clip-path="url(#clip0_1100_24334)">
<mask id="mask0_1100_24334" style="mask-type:alpha" maskUnits="userSpaceOnUse" x="10" y="69" width="769" height="769">
<circle cx="394.5" cy="453.5" r="384.5" fill="url(#paint0_radial_1100_24334)"/>
</mask>
<g mask="url(#mask0_1100_24334)">
<circle cx="11.5" cy="355.5" r="1.5" fill="#C2C5D4"/>
<circle cx="26.5" cy="355.5" r="1.5" fill="#C2C5D4"/>
<circle cx="41.5" cy="355.5" r="1.5" fill="#C2C5D4"/>
<circle cx="56.5" cy="355.5" r="1.5" fill="#C2C5D4"/>
<circle cx="71.5" cy="355.5" r="1.5" fill="#C2C5D4"/>
<circle cx="86.5" cy="355.5" r="1.5" fill="#C2C5D4"/>
<circle cx="101.5" cy="355.5" r="1.5" fill="#C2C5D4"/>
<circle cx="116.5" cy="355.5" r="1.5" fill="#C2C5D4"/>
<circle cx="131.5" cy="355.5" r="1.5" fill="#C2C5D4"/>
<circle cx="146.5" cy="355.5" r="1.5" fill="#C2C5D4"/>
<circle cx="161.5" cy="355.5" r="1.5" fill="#C2C5D4"/>
<circle cx="176.5" cy="355.5" r="1.5" fill="#C2C5D4"/>
<circle cx="191.5" cy="355.5" r="1.5" fill="#C2C5D4"/>
<circle cx="206.5" cy="355.5" r="1.5" fill="#C2C5D4"/>
<circle cx="221.5" cy="355.5" r="1.5" fill="#C2C5D4"/>
<circle cx="236.5" cy="355.5" r="1.5" fill="#C2C5D4"/>
<circle cx="251.5" cy="355.5" r="1.5" fill="#C2C5D4"/>
<circle cx="266.5" cy="355.5" r="1.5" fill="#C2C5D4"/>
<circle cx="281.5" cy="355.5" r="1.5" fill="#C2C5D4"/>
<circle cx="296.5" cy="355.5" r="1.5" fill="#C2C5D4"/>
<circle cx="311.5" cy="355.5" r="1.5" fill="#C2C5D4"/>
<circle cx="326.5" cy="355.5" r="1.5" fill="#C2C5D4"/>
<circle cx="341.5" cy="355.5" r="1.5" fill="#C2C5D4"/>
<circle cx="356.5" cy="355.5" r="1.5" fill="#C2C5D4"/>
<circle cx="611.5" cy="355.5" r="1.5" fill="#C2C5D4"/>
<circle cx="371.5" cy="355.5" r="1.5" fill="#C2C5D4"/>
<circle cx="626.5" cy="355.5" r="1.5" fill="#C2C5D4"/>
<circle cx="386.5" cy="355.5" r="1.5" fill="#C2C5D4"/>
<circle cx="641.5" cy="355.5" r="1.5" fill="#C2C5D4"/>
<circle cx="401.5" cy="355.5" r="1.5" fill="#C2C5D4"/>
<circle cx="656.5" cy="355.5" r="1.5" fill="#C2C5D4"/>
<circle cx="416.5" cy="355.5" r="1.5" fill="#C2C5D4"/>
<circle cx="671.5" cy="355.5" r="1.5" fill="#C2C5D4"/>
<circle cx="431.5" cy="355.5" r="1.5" fill="#C2C5D4"/>
<circle cx="686.5" cy="355.5" r="1.5" fill="#C2C5D4"/>
<circle cx="446.5" cy="355.5" r="1.5" fill="#C2C5D4"/>
<circle cx="701.5" cy="355.5" r="1.5" fill="#C2C5D4"/>
<circle cx="461.5" cy="355.5" r="1.5" fill="#C2C5D4"/>
<circle cx="716.5" cy="355.5" r="1.5" fill="#C2C5D4"/>
<circle cx="476.5" cy="355.5" r="1.5" fill="#C2C5D4"/>
<circle cx="731.5" cy="355.5" r="1.5" fill="#C2C5D4"/>
<circle cx="491.5" cy="355.5" r="1.5" fill="#C2C5D4"/>
<circle cx="746.5" cy="355.5" r="1.5" fill="#C2C5D4"/>
<circle cx="506.5" cy="355.5" r="1.5" fill="#C2C5D4"/>
<circle cx="761.5" cy="355.5" r="1.5" fill="#C2C5D4"/>
<circle cx="521.5" cy="355.5" r="1.5" fill="#C2C5D4"/>
<circle cx="776.5" cy="355.5" r="1.5" fill="#C2C5D4"/>
<circle cx="536.5" cy="355.5" r="1.5" fill="#C2C5D4"/>
<circle cx="551.5" cy="355.5" r="1.5" fill="#C2C5D4"/>
<circle cx="566.5" cy="355.5" r="1.5" fill="#C2C5D4"/>
<circle cx="581.5" cy="355.5" r="1.5" fill="#C2C5D4"/>
<circle cx="596.5" cy="355.5" r="1.5" fill="#C2C5D4"/>
<circle cx="11.5" cy="340.5" r="1.5" fill="#C2C5D4"/>
<circle cx="26.5" cy="340.5" r="1.5" fill="#C2C5D4"/>
<circle cx="41.5" cy="340.5" r="1.5" fill="#C2C5D4"/>
<circle cx="56.5" cy="340.5" r="1.5" fill="#C2C5D4"/>
<circle cx="71.5" cy="340.5" r="1.5" fill="#C2C5D4"/>
<circle cx="86.5" cy="340.5" r="1.5" fill="#C2C5D4"/>
<circle cx="101.5" cy="340.5" r="1.5" fill="#C2C5D4"/>
<circle cx="116.5" cy="340.5" r="1.5" fill="#C2C5D4"/>
<circle cx="131.5" cy="340.5" r="1.5" fill="#C2C5D4"/>
<circle cx="146.5" cy="340.5" r="1.5" fill="#C2C5D4"/>
<circle cx="161.5" cy="340.5" r="1.5" fill="#C2C5D4"/>
<circle cx="176.5" cy="340.5" r="1.5" fill="#C2C5D4"/>
<circle cx="191.5" cy="340.5" r="1.5" fill="#C2C5D4"/>
<circle cx="206.5" cy="340.5" r="1.5" fill="#C2C5D4"/>
<circle cx="221.5" cy="340.5" r="1.5" fill="#C2C5D4"/>
<circle cx="236.5" cy="340.5" r="1.5" fill="#C2C5D4"/>
<circle cx="251.5" cy="340.5" r="1.5" fill="#C2C5D4"/>
<circle cx="266.5" cy="340.5" r="1.5" fill="#C2C5D4"/>
<circle cx="281.5" cy="340.5" r="1.5" fill="#C2C5D4"/>
<circle cx="296.5" cy="340.5" r="1.5" fill="#C2C5D4"/>
<circle cx="311.5" cy="340.5" r="1.5" fill="#C2C5D4"/>
<circle cx="326.5" cy="340.5" r="1.5" fill="#C2C5D4"/>
<circle cx="341.5" cy="340.5" r="1.5" fill="#C2C5D4"/>
<circle cx="356.5" cy="340.5" r="1.5" fill="#C2C5D4"/>
<circle cx="611.5" cy="340.5" r="1.5" fill="#C2C5D4"/>
<circle cx="371.5" cy="340.5" r="1.5" fill="#C2C5D4"/>
<circle cx="626.5" cy="340.5" r="1.5" fill="#C2C5D4"/>
<circle cx="386.5" cy="340.5" r="1.5" fill="#C2C5D4"/>
<circle cx="641.5" cy="340.5" r="1.5" fill="#C2C5D4"/>
<circle cx="401.5" cy="340.5" r="1.5" fill="#C2C5D4"/>
<circle cx="656.5" cy="340.5" r="1.5" fill="#C2C5D4"/>
<circle cx="416.5" cy="340.5" r="1.5" fill="#C2C5D4"/>
<circle cx="671.5" cy="340.5" r="1.5" fill="#C2C5D4"/>
<circle cx="431.5" cy="340.5" r="1.5" fill="#C2C5D4"/>
<circle cx="686.5" cy="340.5" r="1.5" fill="#C2C5D4"/>
<circle cx="446.5" cy="340.5" r="1.5" fill="#C2C5D4"/>
<circle cx="701.5" cy="340.5" r="1.5" fill="#C2C5D4"/>
<circle cx="461.5" cy="340.5" r="1.5" fill="#C2C5D4"/>
<circle cx="716.5" cy="340.5" r="1.5" fill="#C2C5D4"/>
<circle cx="476.5" cy="340.5" r="1.5" fill="#C2C5D4"/>
<circle cx="731.5" cy="340.5" r="1.5" fill="#C2C5D4"/>
<circle cx="491.5" cy="340.5" r="1.5" fill="#C2C5D4"/>
<circle cx="746.5" cy="340.5" r="1.5" fill="#C2C5D4"/>
<circle cx="506.5" cy="340.5" r="1.5" fill="#C2C5D4"/>
<circle cx="761.5" cy="340.5" r="1.5" fill="#C2C5D4"/>
<circle cx="521.5" cy="340.5" r="1.5" fill="#C2C5D4"/>
<circle cx="776.5" cy="340.5" r="1.5" fill="#C2C5D4"/>
<circle cx="536.5" cy="340.5" r="1.5" fill="#C2C5D4"/>
<circle cx="551.5" cy="340.5" r="1.5" fill="#C2C5D4"/>
<circle cx="566.5" cy="340.5" r="1.5" fill="#C2C5D4"/>
<circle cx="581.5" cy="340.5" r="1.5" fill="#C2C5D4"/>
<circle cx="596.5" cy="340.5" r="1.5" fill="#C2C5D4"/>
<circle cx="11.5" cy="325.5" r="1.5" fill="#C2C5D4"/>
<circle cx="26.5" cy="325.5" r="1.5" fill="#C2C5D4"/>
<circle cx="41.5" cy="325.5" r="1.5" fill="#C2C5D4"/>
<circle cx="56.5" cy="325.5" r="1.5" fill="#C2C5D4"/>
<circle cx="71.5" cy="325.5" r="1.5" fill="#C2C5D4"/>
<circle cx="86.5" cy="325.5" r="1.5" fill="#C2C5D4"/>
<circle cx="101.5" cy="325.5" r="1.5" fill="#C2C5D4"/>
<circle cx="116.5" cy="325.5" r="1.5" fill="#C2C5D4"/>
<circle cx="131.5" cy="325.5" r="1.5" fill="#C2C5D4"/>
<circle cx="146.5" cy="325.5" r="1.5" fill="#C2C5D4"/>
<circle cx="161.5" cy="325.5" r="1.5" fill="#C2C5D4"/>
<circle cx="176.5" cy="325.5" r="1.5" fill="#C2C5D4"/>
<circle cx="191.5" cy="325.5" r="1.5" fill="#C2C5D4"/>
<circle cx="206.5" cy="325.5" r="1.5" fill="#C2C5D4"/>
<circle cx="221.5" cy="325.5" r="1.5" fill="#C2C5D4"/>
<circle cx="236.5" cy="325.5" r="1.5" fill="#C2C5D4"/>
<circle cx="251.5" cy="325.5" r="1.5" fill="#C2C5D4"/>
<circle cx="266.5" cy="325.5" r="1.5" fill="#C2C5D4"/>
<circle cx="281.5" cy="325.5" r="1.5" fill="#C2C5D4"/>
<circle cx="296.5" cy="325.5" r="1.5" fill="#C2C5D4"/>
<circle cx="311.5" cy="325.5" r="1.5" fill="#C2C5D4"/>
<circle cx="326.5" cy="325.5" r="1.5" fill="#C2C5D4"/>
<circle cx="341.5" cy="325.5" r="1.5" fill="#C2C5D4"/>
<circle cx="356.5" cy="325.5" r="1.5" fill="#C2C5D4"/>
<circle cx="611.5" cy="325.5" r="1.5" fill="#C2C5D4"/>
<circle cx="371.5" cy="325.5" r="1.5" fill="#C2C5D4"/>
<circle cx="626.5" cy="325.5" r="1.5" fill="#C2C5D4"/>
<circle cx="386.5" cy="325.5" r="1.5" fill="#C2C5D4"/>
<circle cx="641.5" cy="325.5" r="1.5" fill="#C2C5D4"/>
<circle cx="401.5" cy="325.5" r="1.5" fill="#C2C5D4"/>
<circle cx="656.5" cy="325.5" r="1.5" fill="#C2C5D4"/>
<circle cx="416.5" cy="325.5" r="1.5" fill="#C2C5D4"/>
<circle cx="671.5" cy="325.5" r="1.5" fill="#C2C5D4"/>
<circle cx="431.5" cy="325.5" r="1.5" fill="#C2C5D4"/>
<circle cx="686.5" cy="325.5" r="1.5" fill="#C2C5D4"/>
<circle cx="446.5" cy="325.5" r="1.5" fill="#C2C5D4"/>
<circle cx="701.5" cy="325.5" r="1.5" fill="#C2C5D4"/>
<circle cx="461.5" cy="325.5" r="1.5" fill="#C2C5D4"/>
<circle cx="716.5" cy="325.5" r="1.5" fill="#C2C5D4"/>
<circle cx="476.5" cy="325.5" r="1.5" fill="#C2C5D4"/>
<circle cx="731.5" cy="325.5" r="1.5" fill="#C2C5D4"/>
<circle cx="491.5" cy="325.5" r="1.5" fill="#C2C5D4"/>
<circle cx="746.5" cy="325.5" r="1.5" fill="#C2C5D4"/>
<circle cx="506.5" cy="325.5" r="1.5" fill="#C2C5D4"/>
<circle cx="761.5" cy="325.5" r="1.5" fill="#C2C5D4"/>
<circle cx="521.5" cy="325.5" r="1.5" fill="#C2C5D4"/>
<circle cx="776.5" cy="325.5" r="1.5" fill="#C2C5D4"/>
<circle cx="536.5" cy="325.5" r="1.5" fill="#C2C5D4"/>
<circle cx="551.5" cy="325.5" r="1.5" fill="#C2C5D4"/>
<circle cx="566.5" cy="325.5" r="1.5" fill="#C2C5D4"/>
<circle cx="581.5" cy="325.5" r="1.5" fill="#C2C5D4"/>
<circle cx="596.5" cy="325.5" r="1.5" fill="#C2C5D4"/>
<circle cx="11.5" cy="310.5" r="1.5" fill="#C2C5D4"/>
<circle cx="26.5" cy="310.5" r="1.5" fill="#C2C5D4"/>
<circle cx="41.5" cy="310.5" r="1.5" fill="#C2C5D4"/>
<circle cx="56.5" cy="310.5" r="1.5" fill="#C2C5D4"/>
<circle cx="71.5" cy="310.5" r="1.5" fill="#C2C5D4"/>
<circle cx="86.5" cy="310.5" r="1.5" fill="#C2C5D4"/>
<circle cx="101.5" cy="310.5" r="1.5" fill="#C2C5D4"/>
<circle cx="116.5" cy="310.5" r="1.5" fill="#C2C5D4"/>
<circle cx="131.5" cy="310.5" r="1.5" fill="#C2C5D4"/>
<circle cx="146.5" cy="310.5" r="1.5" fill="#C2C5D4"/>
<circle cx="161.5" cy="310.5" r="1.5" fill="#C2C5D4"/>
<circle cx="176.5" cy="310.5" r="1.5" fill="#C2C5D4"/>
<circle cx="191.5" cy="310.5" r="1.5" fill="#C2C5D4"/>
<circle cx="206.5" cy="310.5" r="1.5" fill="#C2C5D4"/>
<circle cx="221.5" cy="310.5" r="1.5" fill="#C2C5D4"/>
<circle cx="236.5" cy="310.5" r="1.5" fill="#C2C5D4"/>
<circle cx="251.5" cy="310.5" r="1.5" fill="#C2C5D4"/>
<circle cx="266.5" cy="310.5" r="1.5" fill="#C2C5D4"/>
<circle cx="281.5" cy="310.5" r="1.5" fill="#C2C5D4"/>
<circle cx="296.5" cy="310.5" r="1.5" fill="#C2C5D4"/>
<circle cx="311.5" cy="310.5" r="1.5" fill="#C2C5D4"/>
<circle cx="326.5" cy="310.5" r="1.5" fill="#C2C5D4"/>
<circle cx="341.5" cy="310.5" r="1.5" fill="#C2C5D4"/>
<circle cx="356.5" cy="310.5" r="1.5" fill="#C2C5D4"/>
<circle cx="611.5" cy="310.5" r="1.5" fill="#C2C5D4"/>
<circle cx="371.5" cy="310.5" r="1.5" fill="#C2C5D4"/>
<circle cx="626.5" cy="310.5" r="1.5" fill="#C2C5D4"/>
<circle cx="386.5" cy="310.5" r="1.5" fill="#C2C5D4"/>
<circle cx="641.5" cy="310.5" r="1.5" fill="#C2C5D4"/>
<circle cx="401.5" cy="310.5" r="1.5" fill="#C2C5D4"/>
<circle cx="656.5" cy="310.5" r="1.5" fill="#C2C5D4"/>
<circle cx="416.5" cy="310.5" r="1.5" fill="#C2C5D4"/>
<circle cx="671.5" cy="310.5" r="1.5" fill="#C2C5D4"/>
<circle cx="431.5" cy="310.5" r="1.5" fill="#C2C5D4"/>
<circle cx="686.5" cy="310.5" r="1.5" fill="#C2C5D4"/>
<circle cx="446.5" cy="310.5" r="1.5" fill="#C2C5D4"/>
<circle cx="701.5" cy="310.5" r="1.5" fill="#C2C5D4"/>
<circle cx="461.5" cy="310.5" r="1.5" fill="#C2C5D4"/>
<circle cx="716.5" cy="310.5" r="1.5" fill="#C2C5D4"/>
<circle cx="476.5" cy="310.5" r="1.5" fill="#C2C5D4"/>
<circle cx="731.5" cy="310.5" r="1.5" fill="#C2C5D4"/>
<circle cx="491.5" cy="310.5" r="1.5" fill="#C2C5D4"/>
<circle cx="746.5" cy="310.5" r="1.5" fill="#C2C5D4"/>
<circle cx="506.5" cy="310.5" r="1.5" fill="#C2C5D4"/>
<circle cx="761.5" cy="310.5" r="1.5" fill="#C2C5D4"/>
<circle cx="521.5" cy="310.5" r="1.5" fill="#C2C5D4"/>
<circle cx="776.5" cy="310.5" r="1.5" fill="#C2C5D4"/>
<circle cx="536.5" cy="310.5" r="1.5" fill="#C2C5D4"/>
<circle cx="551.5" cy="310.5" r="1.5" fill="#C2C5D4"/>
<circle cx="566.5" cy="310.5" r="1.5" fill="#C2C5D4"/>
<circle cx="581.5" cy="310.5" r="1.5" fill="#C2C5D4"/>
<circle cx="596.5" cy="310.5" r="1.5" fill="#C2C5D4"/>
<circle cx="11.5" cy="295.5" r="1.5" fill="#C2C5D4"/>
<circle cx="26.5" cy="295.5" r="1.5" fill="#C2C5D4"/>
<circle cx="41.5" cy="295.5" r="1.5" fill="#C2C5D4"/>
<circle cx="56.5" cy="295.5" r="1.5" fill="#C2C5D4"/>
<circle cx="71.5" cy="295.5" r="1.5" fill="#C2C5D4"/>
<circle cx="86.5" cy="295.5" r="1.5" fill="#C2C5D4"/>
<circle cx="101.5" cy="295.5" r="1.5" fill="#C2C5D4"/>
<circle cx="116.5" cy="295.5" r="1.5" fill="#C2C5D4"/>
<circle cx="131.5" cy="295.5" r="1.5" fill="#C2C5D4"/>
<circle cx="146.5" cy="295.5" r="1.5" fill="#C2C5D4"/>
<circle cx="161.5" cy="295.5" r="1.5" fill="#C2C5D4"/>
<circle cx="176.5" cy="295.5" r="1.5" fill="#C2C5D4"/>
<circle cx="191.5" cy="295.5" r="1.5" fill="#C2C5D4"/>
<circle cx="206.5" cy="295.5" r="1.5" fill="#C2C5D4"/>
<circle cx="221.5" cy="295.5" r="1.5" fill="#C2C5D4"/>
<circle cx="236.5" cy="295.5" r="1.5" fill="#C2C5D4"/>
<circle cx="251.5" cy="295.5" r="1.5" fill="#C2C5D4"/>
<circle cx="266.5" cy="295.5" r="1.5" fill="#C2C5D4"/>
<circle cx="281.5" cy="295.5" r="1.5" fill="#C2C5D4"/>
<circle cx="296.5" cy="295.5" r="1.5" fill="#C2C5D4"/>
<circle cx="311.5" cy="295.5" r="1.5" fill="#C2C5D4"/>
<circle cx="326.5" cy="295.5" r="1.5" fill="#C2C5D4"/>
<circle cx="341.5" cy="295.5" r="1.5" fill="#C2C5D4"/>
<circle cx="356.5" cy="295.5" r="1.5" fill="#C2C5D4"/>
<circle cx="611.5" cy="295.5" r="1.5" fill="#C2C5D4"/>
<circle cx="371.5" cy="295.5" r="1.5" fill="#C2C5D4"/>
<circle cx="626.5" cy="295.5" r="1.5" fill="#C2C5D4"/>
<circle cx="386.5" cy="295.5" r="1.5" fill="#C2C5D4"/>
<circle cx="641.5" cy="295.5" r="1.5" fill="#C2C5D4"/>
<circle cx="401.5" cy="295.5" r="1.5" fill="#C2C5D4"/>
<circle cx="656.5" cy="295.5" r="1.5" fill="#C2C5D4"/>
<circle cx="416.5" cy="295.5" r="1.5" fill="#C2C5D4"/>
<circle cx="671.5" cy="295.5" r="1.5" fill="#C2C5D4"/>
<circle cx="431.5" cy="295.5" r="1.5" fill="#C2C5D4"/>
<circle cx="686.5" cy="295.5" r="1.5" fill="#C2C5D4"/>
<circle cx="446.5" cy="295.5" r="1.5" fill="#C2C5D4"/>
<circle cx="701.5" cy="295.5" r="1.5" fill="#C2C5D4"/>
<circle cx="461.5" cy="295.5" r="1.5" fill="#C2C5D4"/>
<circle cx="716.5" cy="295.5" r="1.5" fill="#C2C5D4"/>
<circle cx="476.5" cy="295.5" r="1.5" fill="#C2C5D4"/>
<circle cx="731.5" cy="295.5" r="1.5" fill="#C2C5D4"/>
<circle cx="491.5" cy="295.5" r="1.5" fill="#C2C5D4"/>
<circle cx="746.5" cy="295.5" r="1.5" fill="#C2C5D4"/>
<circle cx="506.5" cy="295.5" r="1.5" fill="#C2C5D4"/>
<circle cx="761.5" cy="295.5" r="1.5" fill="#C2C5D4"/>
<circle cx="521.5" cy="295.5" r="1.5" fill="#C2C5D4"/>
<circle cx="776.5" cy="295.5" r="1.5" fill="#C2C5D4"/>
<circle cx="536.5" cy="295.5" r="1.5" fill="#C2C5D4"/>
<circle cx="551.5" cy="295.5" r="1.5" fill="#C2C5D4"/>
<circle cx="566.5" cy="295.5" r="1.5" fill="#C2C5D4"/>
<circle cx="581.5" cy="295.5" r="1.5" fill="#C2C5D4"/>
<circle cx="596.5" cy="295.5" r="1.5" fill="#C2C5D4"/>
<circle cx="11.5" cy="280.5" r="1.5" fill="#C2C5D4"/>
<circle cx="26.5" cy="280.5" r="1.5" fill="#C2C5D4"/>
<circle cx="41.5" cy="280.5" r="1.5" fill="#C2C5D4"/>
<circle cx="56.5" cy="280.5" r="1.5" fill="#C2C5D4"/>
<circle cx="71.5" cy="280.5" r="1.5" fill="#C2C5D4"/>
<circle cx="86.5" cy="280.5" r="1.5" fill="#C2C5D4"/>
<circle cx="101.5" cy="280.5" r="1.5" fill="#C2C5D4"/>
<circle cx="116.5" cy="280.5" r="1.5" fill="#C2C5D4"/>
<circle cx="131.5" cy="280.5" r="1.5" fill="#C2C5D4"/>
<circle cx="146.5" cy="280.5" r="1.5" fill="#C2C5D4"/>
<circle cx="161.5" cy="280.5" r="1.5" fill="#C2C5D4"/>
<circle cx="176.5" cy="280.5" r="1.5" fill="#C2C5D4"/>
<circle cx="191.5" cy="280.5" r="1.5" fill="#C2C5D4"/>
<circle cx="206.5" cy="280.5" r="1.5" fill="#C2C5D4"/>
<circle cx="221.5" cy="280.5" r="1.5" fill="#C2C5D4"/>
<circle cx="236.5" cy="280.5" r="1.5" fill="#C2C5D4"/>
<circle cx="251.5" cy="280.5" r="1.5" fill="#C2C5D4"/>
<circle cx="266.5" cy="280.5" r="1.5" fill="#C2C5D4"/>
<circle cx="281.5" cy="280.5" r="1.5" fill="#C2C5D4"/>
<circle cx="296.5" cy="280.5" r="1.5" fill="#C2C5D4"/>
<circle cx="311.5" cy="280.5" r="1.5" fill="#C2C5D4"/>
<circle cx="326.5" cy="280.5" r="1.5" fill="#C2C5D4"/>
<circle cx="341.5" cy="280.5" r="1.5" fill="#C2C5D4"/>
<circle cx="356.5" cy="280.5" r="1.5" fill="#C2C5D4"/>
<circle cx="611.5" cy="280.5" r="1.5" fill="#C2C5D4"/>
<circle cx="371.5" cy="280.5" r="1.5" fill="#C2C5D4"/>
<circle cx="626.5" cy="280.5" r="1.5" fill="#C2C5D4"/>
<circle cx="386.5" cy="280.5" r="1.5" fill="#C2C5D4"/>
<circle cx="641.5" cy="280.5" r="1.5" fill="#C2C5D4"/>
<circle cx="401.5" cy="280.5" r="1.5" fill="#C2C5D4"/>
<circle cx="656.5" cy="280.5" r="1.5" fill="#C2C5D4"/>
<circle cx="416.5" cy="280.5" r="1.5" fill="#C2C5D4"/>
<circle cx="671.5" cy="280.5" r="1.5" fill="#C2C5D4"/>
<circle cx="431.5" cy="280.5" r="1.5" fill="#C2C5D4"/>
<circle cx="686.5" cy="280.5" r="1.5" fill="#C2C5D4"/>
<circle cx="446.5" cy="280.5" r="1.5" fill="#C2C5D4"/>
<circle cx="701.5" cy="280.5" r="1.5" fill="#C2C5D4"/>
<circle cx="461.5" cy="280.5" r="1.5" fill="#C2C5D4"/>
<circle cx="716.5" cy="280.5" r="1.5" fill="#C2C5D4"/>
<circle cx="476.5" cy="280.5" r="1.5" fill="#C2C5D4"/>
<circle cx="731.5" cy="280.5" r="1.5" fill="#C2C5D4"/>
<circle cx="491.5" cy="280.5" r="1.5" fill="#C2C5D4"/>
<circle cx="746.5" cy="280.5" r="1.5" fill="#C2C5D4"/>
<circle cx="506.5" cy="280.5" r="1.5" fill="#C2C5D4"/>
<circle cx="761.5" cy="280.5" r="1.5" fill="#C2C5D4"/>
<circle cx="521.5" cy="280.5" r="1.5" fill="#C2C5D4"/>
<circle cx="776.5" cy="280.5" r="1.5" fill="#C2C5D4"/>
<circle cx="536.5" cy="280.5" r="1.5" fill="#C2C5D4"/>
<circle cx="551.5" cy="280.5" r="1.5" fill="#C2C5D4"/>
<circle cx="566.5" cy="280.5" r="1.5" fill="#C2C5D4"/>
<circle cx="581.5" cy="280.5" r="1.5" fill="#C2C5D4"/>
<circle cx="596.5" cy="280.5" r="1.5" fill="#C2C5D4"/>
<circle cx="11.5" cy="265.5" r="1.5" fill="#C2C5D4"/>
<circle cx="26.5" cy="265.5" r="1.5" fill="#C2C5D4"/>
<circle cx="41.5" cy="265.5" r="1.5" fill="#C2C5D4"/>
<circle cx="56.5" cy="265.5" r="1.5" fill="#C2C5D4"/>
<circle cx="71.5" cy="265.5" r="1.5" fill="#C2C5D4"/>
<circle cx="86.5" cy="265.5" r="1.5" fill="#C2C5D4"/>
<circle cx="101.5" cy="265.5" r="1.5" fill="#C2C5D4"/>
<circle cx="116.5" cy="265.5" r="1.5" fill="#C2C5D4"/>
<circle cx="131.5" cy="265.5" r="1.5" fill="#C2C5D4"/>
<circle cx="146.5" cy="265.5" r="1.5" fill="#C2C5D4"/>
<circle cx="161.5" cy="265.5" r="1.5" fill="#C2C5D4"/>
<circle cx="176.5" cy="265.5" r="1.5" fill="#C2C5D4"/>
<circle cx="191.5" cy="265.5" r="1.5" fill="#C2C5D4"/>
<circle cx="206.5" cy="265.5" r="1.5" fill="#C2C5D4"/>
<circle cx="221.5" cy="265.5" r="1.5" fill="#C2C5D4"/>
<circle cx="236.5" cy="265.5" r="1.5" fill="#C2C5D4"/>
<circle cx="251.5" cy="265.5" r="1.5" fill="#C2C5D4"/>
<circle cx="266.5" cy="265.5" r="1.5" fill="#C2C5D4"/>
<circle cx="281.5" cy="265.5" r="1.5" fill="#C2C5D4"/>
<circle cx="296.5" cy="265.5" r="1.5" fill="#C2C5D4"/>
<circle cx="311.5" cy="265.5" r="1.5" fill="#C2C5D4"/>
<circle cx="326.5" cy="265.5" r="1.5" fill="#C2C5D4"/>
<circle cx="341.5" cy="265.5" r="1.5" fill="#C2C5D4"/>
<circle cx="356.5" cy="265.5" r="1.5" fill="#C2C5D4"/>
<circle cx="611.5" cy="265.5" r="1.5" fill="#C2C5D4"/>
<circle cx="371.5" cy="265.5" r="1.5" fill="#C2C5D4"/>
<circle cx="626.5" cy="265.5" r="1.5" fill="#C2C5D4"/>
<circle cx="386.5" cy="265.5" r="1.5" fill="#C2C5D4"/>
<circle cx="641.5" cy="265.5" r="1.5" fill="#C2C5D4"/>
<circle cx="401.5" cy="265.5" r="1.5" fill="#C2C5D4"/>
<circle cx="656.5" cy="265.5" r="1.5" fill="#C2C5D4"/>
<circle cx="416.5" cy="265.5" r="1.5" fill="#C2C5D4"/>
<circle cx="671.5" cy="265.5" r="1.5" fill="#C2C5D4"/>
<circle cx="431.5" cy="265.5" r="1.5" fill="#C2C5D4"/>
<circle cx="686.5" cy="265.5" r="1.5" fill="#C2C5D4"/>
<circle cx="446.5" cy="265.5" r="1.5" fill="#C2C5D4"/>
<circle cx="701.5" cy="265.5" r="1.5" fill="#C2C5D4"/>
<circle cx="461.5" cy="265.5" r="1.5" fill="#C2C5D4"/>
<circle cx="716.5" cy="265.5" r="1.5" fill="#C2C5D4"/>
<circle cx="476.5" cy="265.5" r="1.5" fill="#C2C5D4"/>
<circle cx="731.5" cy="265.5" r="1.5" fill="#C2C5D4"/>
<circle cx="491.5" cy="265.5" r="1.5" fill="#C2C5D4"/>
<circle cx="746.5" cy="265.5" r="1.5" fill="#C2C5D4"/>
<circle cx="506.5" cy="265.5" r="1.5" fill="#C2C5D4"/>
<circle cx="761.5" cy="265.5" r="1.5" fill="#C2C5D4"/>
<circle cx="521.5" cy="265.5" r="1.5" fill="#C2C5D4"/>
<circle cx="776.5" cy="265.5" r="1.5" fill="#C2C5D4"/>
<circle cx="536.5" cy="265.5" r="1.5" fill="#C2C5D4"/>
<circle cx="551.5" cy="265.5" r="1.5" fill="#C2C5D4"/>
<circle cx="566.5" cy="265.5" r="1.5" fill="#C2C5D4"/>
<circle cx="581.5" cy="265.5" r="1.5" fill="#C2C5D4"/>
<circle cx="596.5" cy="265.5" r="1.5" fill="#C2C5D4"/>
<circle cx="11.5" cy="250.5" r="1.5" fill="#C2C5D4"/>
<circle cx="26.5" cy="250.5" r="1.5" fill="#C2C5D4"/>
<circle cx="41.5" cy="250.5" r="1.5" fill="#C2C5D4"/>
<circle cx="56.5" cy="250.5" r="1.5" fill="#C2C5D4"/>
<circle cx="71.5" cy="250.5" r="1.5" fill="#C2C5D4"/>
<circle cx="86.5" cy="250.5" r="1.5" fill="#C2C5D4"/>
<circle cx="101.5" cy="250.5" r="1.5" fill="#C2C5D4"/>
<circle cx="116.5" cy="250.5" r="1.5" fill="#C2C5D4"/>
<circle cx="131.5" cy="250.5" r="1.5" fill="#C2C5D4"/>
<circle cx="146.5" cy="250.5" r="1.5" fill="#C2C5D4"/>
<circle cx="161.5" cy="250.5" r="1.5" fill="#C2C5D4"/>
<circle cx="176.5" cy="250.5" r="1.5" fill="#C2C5D4"/>
<circle cx="191.5" cy="250.5" r="1.5" fill="#C2C5D4"/>
<circle cx="206.5" cy="250.5" r="1.5" fill="#C2C5D4"/>
<circle cx="221.5" cy="250.5" r="1.5" fill="#C2C5D4"/>
<circle cx="236.5" cy="250.5" r="1.5" fill="#C2C5D4"/>
<circle cx="251.5" cy="250.5" r="1.5" fill="#C2C5D4"/>
<circle cx="266.5" cy="250.5" r="1.5" fill="#C2C5D4"/>
<circle cx="281.5" cy="250.5" r="1.5" fill="#C2C5D4"/>
<circle cx="296.5" cy="250.5" r="1.5" fill="#C2C5D4"/>
<circle cx="311.5" cy="250.5" r="1.5" fill="#C2C5D4"/>
<circle cx="326.5" cy="250.5" r="1.5" fill="#C2C5D4"/>
<circle cx="341.5" cy="250.5" r="1.5" fill="#C2C5D4"/>
<circle cx="356.5" cy="250.5" r="1.5" fill="#C2C5D4"/>
<circle cx="611.5" cy="250.5" r="1.5" fill="#C2C5D4"/>
<circle cx="371.5" cy="250.5" r="1.5" fill="#C2C5D4"/>
<circle cx="626.5" cy="250.5" r="1.5" fill="#C2C5D4"/>
<circle cx="386.5" cy="250.5" r="1.5" fill="#C2C5D4"/>
<circle cx="641.5" cy="250.5" r="1.5" fill="#C2C5D4"/>
<circle cx="401.5" cy="250.5" r="1.5" fill="#C2C5D4"/>
<circle cx="656.5" cy="250.5" r="1.5" fill="#C2C5D4"/>
<circle cx="416.5" cy="250.5" r="1.5" fill="#C2C5D4"/>
<circle cx="671.5" cy="250.5" r="1.5" fill="#C2C5D4"/>
<circle cx="431.5" cy="250.5" r="1.5" fill="#C2C5D4"/>
<circle cx="686.5" cy="250.5" r="1.5" fill="#C2C5D4"/>
<circle cx="446.5" cy="250.5" r="1.5" fill="#C2C5D4"/>
<circle cx="701.5" cy="250.5" r="1.5" fill="#C2C5D4"/>
<circle cx="461.5" cy="250.5" r="1.5" fill="#C2C5D4"/>
<circle cx="716.5" cy="250.5" r="1.5" fill="#C2C5D4"/>
<circle cx="476.5" cy="250.5" r="1.5" fill="#C2C5D4"/>
<circle cx="731.5" cy="250.5" r="1.5" fill="#C2C5D4"/>
<circle cx="491.5" cy="250.5" r="1.5" fill="#C2C5D4"/>
<circle cx="746.5" cy="250.5" r="1.5" fill="#C2C5D4"/>
<circle cx="506.5" cy="250.5" r="1.5" fill="#C2C5D4"/>
<circle cx="761.5" cy="250.5" r="1.5" fill="#C2C5D4"/>
<circle cx="521.5" cy="250.5" r="1.5" fill="#C2C5D4"/>
<circle cx="776.5" cy="250.5" r="1.5" fill="#C2C5D4"/>
<circle cx="536.5" cy="250.5" r="1.5" fill="#C2C5D4"/>
<circle cx="551.5" cy="250.5" r="1.5" fill="#C2C5D4"/>
<circle cx="566.5" cy="250.5" r="1.5" fill="#C2C5D4"/>
<circle cx="581.5" cy="250.5" r="1.5" fill="#C2C5D4"/>
<circle cx="596.5" cy="250.5" r="1.5" fill="#C2C5D4"/>
<circle cx="11.5" cy="235.5" r="1.5" fill="#C2C5D4"/>
<circle cx="26.5" cy="235.5" r="1.5" fill="#C2C5D4"/>
<circle cx="41.5" cy="235.5" r="1.5" fill="#C2C5D4"/>
<circle cx="56.5" cy="235.5" r="1.5" fill="#C2C5D4"/>
<circle cx="71.5" cy="235.5" r="1.5" fill="#C2C5D4"/>
<circle cx="86.5" cy="235.5" r="1.5" fill="#C2C5D4"/>
<circle cx="101.5" cy="235.5" r="1.5" fill="#C2C5D4"/>
<circle cx="116.5" cy="235.5" r="1.5" fill="#C2C5D4"/>
<circle cx="131.5" cy="235.5" r="1.5" fill="#C2C5D4"/>
<circle cx="146.5" cy="235.5" r="1.5" fill="#C2C5D4"/>
<circle cx="161.5" cy="235.5" r="1.5" fill="#C2C5D4"/>
<circle cx="176.5" cy="235.5" r="1.5" fill="#C2C5D4"/>
<circle cx="191.5" cy="235.5" r="1.5" fill="#C2C5D4"/>
<circle cx="206.5" cy="235.5" r="1.5" fill="#C2C5D4"/>
<circle cx="221.5" cy="235.5" r="1.5" fill="#C2C5D4"/>
<circle cx="236.5" cy="235.5" r="1.5" fill="#C2C5D4"/>
<circle cx="251.5" cy="235.5" r="1.5" fill="#C2C5D4"/>
<circle cx="266.5" cy="235.5" r="1.5" fill="#C2C5D4"/>
<circle cx="281.5" cy="235.5" r="1.5" fill="#C2C5D4"/>
<circle cx="296.5" cy="235.5" r="1.5" fill="#C2C5D4"/>
<circle cx="311.5" cy="235.5" r="1.5" fill="#C2C5D4"/>
<circle cx="326.5" cy="235.5" r="1.5" fill="#C2C5D4"/>
<circle cx="341.5" cy="235.5" r="1.5" fill="#C2C5D4"/>
<circle cx="356.5" cy="235.5" r="1.5" fill="#C2C5D4"/>
<circle cx="611.5" cy="235.5" r="1.5" fill="#C2C5D4"/>
<circle cx="371.5" cy="235.5" r="1.5" fill="#C2C5D4"/>
<circle cx="626.5" cy="235.5" r="1.5" fill="#C2C5D4"/>
<circle cx="386.5" cy="235.5" r="1.5" fill="#C2C5D4"/>
<circle cx="641.5" cy="235.5" r="1.5" fill="#C2C5D4"/>
<circle cx="401.5" cy="235.5" r="1.5" fill="#C2C5D4"/>
<circle cx="656.5" cy="235.5" r="1.5" fill="#C2C5D4"/>
<circle cx="416.5" cy="235.5" r="1.5" fill="#C2C5D4"/>
<circle cx="671.5" cy="235.5" r="1.5" fill="#C2C5D4"/>
<circle cx="431.5" cy="235.5" r="1.5" fill="#C2C5D4"/>
<circle cx="686.5" cy="235.5" r="1.5" fill="#C2C5D4"/>
<circle cx="446.5" cy="235.5" r="1.5" fill="#C2C5D4"/>
<circle cx="701.5" cy="235.5" r="1.5" fill="#C2C5D4"/>
<circle cx="461.5" cy="235.5" r="1.5" fill="#C2C5D4"/>
<circle cx="716.5" cy="235.5" r="1.5" fill="#C2C5D4"/>
<circle cx="476.5" cy="235.5" r="1.5" fill="#C2C5D4"/>
<circle cx="731.5" cy="235.5" r="1.5" fill="#C2C5D4"/>
<circle cx="491.5" cy="235.5" r="1.5" fill="#C2C5D4"/>
<circle cx="746.5" cy="235.5" r="1.5" fill="#C2C5D4"/>
<circle cx="506.5" cy="235.5" r="1.5" fill="#C2C5D4"/>
<circle cx="761.5" cy="235.5" r="1.5" fill="#C2C5D4"/>
<circle cx="521.5" cy="235.5" r="1.5" fill="#C2C5D4"/>
<circle cx="776.5" cy="235.5" r="1.5" fill="#C2C5D4"/>
<circle cx="536.5" cy="235.5" r="1.5" fill="#C2C5D4"/>
<circle cx="551.5" cy="235.5" r="1.5" fill="#C2C5D4"/>
<circle cx="566.5" cy="235.5" r="1.5" fill="#C2C5D4"/>
<circle cx="581.5" cy="235.5" r="1.5" fill="#C2C5D4"/>
<circle cx="596.5" cy="235.5" r="1.5" fill="#C2C5D4"/>
<circle cx="11.5" cy="220.5" r="1.5" fill="#C2C5D4"/>
<circle cx="26.5" cy="220.5" r="1.5" fill="#C2C5D4"/>
<circle cx="41.5" cy="220.5" r="1.5" fill="#C2C5D4"/>
<circle cx="56.5" cy="220.5" r="1.5" fill="#C2C5D4"/>
<circle cx="71.5" cy="220.5" r="1.5" fill="#C2C5D4"/>
<circle cx="86.5" cy="220.5" r="1.5" fill="#C2C5D4"/>
<circle cx="101.5" cy="220.5" r="1.5" fill="#C2C5D4"/>
<circle cx="116.5" cy="220.5" r="1.5" fill="#C2C5D4"/>
<circle cx="131.5" cy="220.5" r="1.5" fill="#C2C5D4"/>
<circle cx="146.5" cy="220.5" r="1.5" fill="#C2C5D4"/>
<circle cx="161.5" cy="220.5" r="1.5" fill="#C2C5D4"/>
<circle cx="176.5" cy="220.5" r="1.5" fill="#C2C5D4"/>
<circle cx="191.5" cy="220.5" r="1.5" fill="#C2C5D4"/>
<circle cx="206.5" cy="220.5" r="1.5" fill="#C2C5D4"/>
<circle cx="221.5" cy="220.5" r="1.5" fill="#C2C5D4"/>
<circle cx="236.5" cy="220.5" r="1.5" fill="#C2C5D4"/>
<circle cx="251.5" cy="220.5" r="1.5" fill="#C2C5D4"/>
<circle cx="266.5" cy="220.5" r="1.5" fill="#C2C5D4"/>
<circle cx="281.5" cy="220.5" r="1.5" fill="#C2C5D4"/>
<circle cx="296.5" cy="220.5" r="1.5" fill="#C2C5D4"/>
<circle cx="311.5" cy="220.5" r="1.5" fill="#C2C5D4"/>
<circle cx="326.5" cy="220.5" r="1.5" fill="#C2C5D4"/>
<circle cx="341.5" cy="220.5" r="1.5" fill="#C2C5D4"/>
<circle cx="356.5" cy="220.5" r="1.5" fill="#C2C5D4"/>
<circle cx="611.5" cy="220.5" r="1.5" fill="#C2C5D4"/>
<circle cx="371.5" cy="220.5" r="1.5" fill="#C2C5D4"/>
<circle cx="626.5" cy="220.5" r="1.5" fill="#C2C5D4"/>
<circle cx="386.5" cy="220.5" r="1.5" fill="#C2C5D4"/>
<circle cx="641.5" cy="220.5" r="1.5" fill="#C2C5D4"/>
<circle cx="401.5" cy="220.5" r="1.5" fill="#C2C5D4"/>
<circle cx="656.5" cy="220.5" r="1.5" fill="#C2C5D4"/>
<circle cx="416.5" cy="220.5" r="1.5" fill="#C2C5D4"/>
<circle cx="671.5" cy="220.5" r="1.5" fill="#C2C5D4"/>
<circle cx="431.5" cy="220.5" r="1.5" fill="#C2C5D4"/>
<circle cx="686.5" cy="220.5" r="1.5" fill="#C2C5D4"/>
<circle cx="446.5" cy="220.5" r="1.5" fill="#C2C5D4"/>
<circle cx="701.5" cy="220.5" r="1.5" fill="#C2C5D4"/>
<circle cx="461.5" cy="220.5" r="1.5" fill="#C2C5D4"/>
<circle cx="716.5" cy="220.5" r="1.5" fill="#C2C5D4"/>
<circle cx="476.5" cy="220.5" r="1.5" fill="#C2C5D4"/>
<circle cx="731.5" cy="220.5" r="1.5" fill="#C2C5D4"/>
<circle cx="491.5" cy="220.5" r="1.5" fill="#C2C5D4"/>
<circle cx="746.5" cy="220.5" r="1.5" fill="#C2C5D4"/>
<circle cx="506.5" cy="220.5" r="1.5" fill="#C2C5D4"/>
<circle cx="761.5" cy="220.5" r="1.5" fill="#C2C5D4"/>
<circle cx="521.5" cy="220.5" r="1.5" fill="#C2C5D4"/>
<circle cx="776.5" cy="220.5" r="1.5" fill="#C2C5D4"/>
<circle cx="536.5" cy="220.5" r="1.5" fill="#C2C5D4"/>
<circle cx="551.5" cy="220.5" r="1.5" fill="#C2C5D4"/>
<circle cx="566.5" cy="220.5" r="1.5" fill="#C2C5D4"/>
<circle cx="581.5" cy="220.5" r="1.5" fill="#C2C5D4"/>
<circle cx="596.5" cy="220.5" r="1.5" fill="#C2C5D4"/>
<circle cx="11.5" cy="205.5" r="1.5" fill="#C2C5D4"/>
<circle cx="26.5" cy="205.5" r="1.5" fill="#C2C5D4"/>
<circle cx="41.5" cy="205.5" r="1.5" fill="#C2C5D4"/>
<circle cx="56.5" cy="205.5" r="1.5" fill="#C2C5D4"/>
<circle cx="71.5" cy="205.5" r="1.5" fill="#C2C5D4"/>
<circle cx="86.5" cy="205.5" r="1.5" fill="#C2C5D4"/>
<circle cx="101.5" cy="205.5" r="1.5" fill="#C2C5D4"/>
<circle cx="116.5" cy="205.5" r="1.5" fill="#C2C5D4"/>
<circle cx="131.5" cy="205.5" r="1.5" fill="#C2C5D4"/>
<circle cx="146.5" cy="205.5" r="1.5" fill="#C2C5D4"/>
<circle cx="161.5" cy="205.5" r="1.5" fill="#C2C5D4"/>
<circle cx="176.5" cy="205.5" r="1.5" fill="#C2C5D4"/>
<circle cx="191.5" cy="205.5" r="1.5" fill="#C2C5D4"/>
<circle cx="206.5" cy="205.5" r="1.5" fill="#C2C5D4"/>
<circle cx="221.5" cy="205.5" r="1.5" fill="#C2C5D4"/>
<circle cx="236.5" cy="205.5" r="1.5" fill="#C2C5D4"/>
<circle cx="251.5" cy="205.5" r="1.5" fill="#C2C5D4"/>
<circle cx="266.5" cy="205.5" r="1.5" fill="#C2C5D4"/>
<circle cx="281.5" cy="205.5" r="1.5" fill="#C2C5D4"/>
<circle cx="296.5" cy="205.5" r="1.5" fill="#C2C5D4"/>
<circle cx="311.5" cy="205.5" r="1.5" fill="#C2C5D4"/>
<circle cx="326.5" cy="205.5" r="1.5" fill="#C2C5D4"/>
<circle cx="341.5" cy="205.5" r="1.5" fill="#C2C5D4"/>
<circle cx="356.5" cy="205.5" r="1.5" fill="#C2C5D4"/>
<circle cx="611.5" cy="205.5" r="1.5" fill="#C2C5D4"/>
<circle cx="371.5" cy="205.5" r="1.5" fill="#C2C5D4"/>
<circle cx="626.5" cy="205.5" r="1.5" fill="#C2C5D4"/>
<circle cx="386.5" cy="205.5" r="1.5" fill="#C2C5D4"/>
<circle cx="641.5" cy="205.5" r="1.5" fill="#C2C5D4"/>
<circle cx="401.5" cy="205.5" r="1.5" fill="#C2C5D4"/>
<circle cx="656.5" cy="205.5" r="1.5" fill="#C2C5D4"/>
<circle cx="416.5" cy="205.5" r="1.5" fill="#C2C5D4"/>
<circle cx="671.5" cy="205.5" r="1.5" fill="#C2C5D4"/>
<circle cx="431.5" cy="205.5" r="1.5" fill="#C2C5D4"/>
<circle cx="686.5" cy="205.5" r="1.5" fill="#C2C5D4"/>
<circle cx="446.5" cy="205.5" r="1.5" fill="#C2C5D4"/>
<circle cx="701.5" cy="205.5" r="1.5" fill="#C2C5D4"/>
<circle cx="461.5" cy="205.5" r="1.5" fill="#C2C5D4"/>
<circle cx="716.5" cy="205.5" r="1.5" fill="#C2C5D4"/>
<circle cx="476.5" cy="205.5" r="1.5" fill="#C2C5D4"/>
<circle cx="731.5" cy="205.5" r="1.5" fill="#C2C5D4"/>
<circle cx="491.5" cy="205.5" r="1.5" fill="#C2C5D4"/>
<circle cx="746.5" cy="205.5" r="1.5" fill="#C2C5D4"/>
<circle cx="506.5" cy="205.5" r="1.5" fill="#C2C5D4"/>
<circle cx="761.5" cy="205.5" r="1.5" fill="#C2C5D4"/>
<circle cx="521.5" cy="205.5" r="1.5" fill="#C2C5D4"/>
<circle cx="776.5" cy="205.5" r="1.5" fill="#C2C5D4"/>
<circle cx="536.5" cy="205.5" r="1.5" fill="#C2C5D4"/>
<circle cx="551.5" cy="205.5" r="1.5" fill="#C2C5D4"/>
<circle cx="566.5" cy="205.5" r="1.5" fill="#C2C5D4"/>
<circle cx="581.5" cy="205.5" r="1.5" fill="#C2C5D4"/>
<circle cx="596.5" cy="205.5" r="1.5" fill="#C2C5D4"/>
<circle cx="11.5" cy="190.5" r="1.5" fill="#C2C5D4"/>
<circle cx="26.5" cy="190.5" r="1.5" fill="#C2C5D4"/>
<circle cx="41.5" cy="190.5" r="1.5" fill="#C2C5D4"/>
<circle cx="56.5" cy="190.5" r="1.5" fill="#C2C5D4"/>
<circle cx="71.5" cy="190.5" r="1.5" fill="#C2C5D4"/>
<circle cx="86.5" cy="190.5" r="1.5" fill="#C2C5D4"/>
<circle cx="101.5" cy="190.5" r="1.5" fill="#C2C5D4"/>
<circle cx="116.5" cy="190.5" r="1.5" fill="#C2C5D4"/>
<circle cx="131.5" cy="190.5" r="1.5" fill="#C2C5D4"/>
<circle cx="146.5" cy="190.5" r="1.5" fill="#C2C5D4"/>
<circle cx="161.5" cy="190.5" r="1.5" fill="#C2C5D4"/>
<circle cx="176.5" cy="190.5" r="1.5" fill="#C2C5D4"/>
<circle cx="191.5" cy="190.5" r="1.5" fill="#C2C5D4"/>
<circle cx="206.5" cy="190.5" r="1.5" fill="#C2C5D4"/>
<circle cx="221.5" cy="190.5" r="1.5" fill="#C2C5D4"/>
<circle cx="236.5" cy="190.5" r="1.5" fill="#C2C5D4"/>
<circle cx="251.5" cy="190.5" r="1.5" fill="#C2C5D4"/>
<circle cx="266.5" cy="190.5" r="1.5" fill="#C2C5D4"/>
<circle cx="281.5" cy="190.5" r="1.5" fill="#C2C5D4"/>
<circle cx="296.5" cy="190.5" r="1.5" fill="#C2C5D4"/>
<circle cx="311.5" cy="190.5" r="1.5" fill="#C2C5D4"/>
<circle cx="326.5" cy="190.5" r="1.5" fill="#C2C5D4"/>
<circle cx="341.5" cy="190.5" r="1.5" fill="#C2C5D4"/>
<circle cx="356.5" cy="190.5" r="1.5" fill="#C2C5D4"/>
<circle cx="611.5" cy="190.5" r="1.5" fill="#C2C5D4"/>
<circle cx="371.5" cy="190.5" r="1.5" fill="#C2C5D4"/>
<circle cx="626.5" cy="190.5" r="1.5" fill="#C2C5D4"/>
<circle cx="386.5" cy="190.5" r="1.5" fill="#C2C5D4"/>
<circle cx="641.5" cy="190.5" r="1.5" fill="#C2C5D4"/>
<circle cx="401.5" cy="190.5" r="1.5" fill="#C2C5D4"/>
<circle cx="656.5" cy="190.5" r="1.5" fill="#C2C5D4"/>
<circle cx="416.5" cy="190.5" r="1.5" fill="#C2C5D4"/>
<circle cx="671.5" cy="190.5" r="1.5" fill="#C2C5D4"/>
<circle cx="431.5" cy="190.5" r="1.5" fill="#C2C5D4"/>
<circle cx="686.5" cy="190.5" r="1.5" fill="#C2C5D4"/>
<circle cx="446.5" cy="190.5" r="1.5" fill="#C2C5D4"/>
<circle cx="701.5" cy="190.5" r="1.5" fill="#C2C5D4"/>
<circle cx="461.5" cy="190.5" r="1.5" fill="#C2C5D4"/>
<circle cx="716.5" cy="190.5" r="1.5" fill="#C2C5D4"/>
<circle cx="476.5" cy="190.5" r="1.5" fill="#C2C5D4"/>
<circle cx="731.5" cy="190.5" r="1.5" fill="#C2C5D4"/>
<circle cx="491.5" cy="190.5" r="1.5" fill="#C2C5D4"/>
<circle cx="746.5" cy="190.5" r="1.5" fill="#C2C5D4"/>
<circle cx="506.5" cy="190.5" r="1.5" fill="#C2C5D4"/>
<circle cx="761.5" cy="190.5" r="1.5" fill="#C2C5D4"/>
<circle cx="521.5" cy="190.5" r="1.5" fill="#C2C5D4"/>
<circle cx="776.5" cy="190.5" r="1.5" fill="#C2C5D4"/>
<circle cx="536.5" cy="190.5" r="1.5" fill="#C2C5D4"/>
<circle cx="551.5" cy="190.5" r="1.5" fill="#C2C5D4"/>
<circle cx="566.5" cy="190.5" r="1.5" fill="#C2C5D4"/>
<circle cx="581.5" cy="190.5" r="1.5" fill="#C2C5D4"/>
<circle cx="596.5" cy="190.5" r="1.5" fill="#C2C5D4"/>
<circle cx="11.5" cy="175.5" r="1.5" fill="#C2C5D4"/>
<circle cx="26.5" cy="175.5" r="1.5" fill="#C2C5D4"/>
<circle cx="41.5" cy="175.5" r="1.5" fill="#C2C5D4"/>
<circle cx="56.5" cy="175.5" r="1.5" fill="#C2C5D4"/>
<circle cx="71.5" cy="175.5" r="1.5" fill="#C2C5D4"/>
<circle cx="86.5" cy="175.5" r="1.5" fill="#C2C5D4"/>
<circle cx="101.5" cy="175.5" r="1.5" fill="#C2C5D4"/>
<circle cx="116.5" cy="175.5" r="1.5" fill="#C2C5D4"/>
<circle cx="131.5" cy="175.5" r="1.5" fill="#C2C5D4"/>
<circle cx="146.5" cy="175.5" r="1.5" fill="#C2C5D4"/>
<circle cx="161.5" cy="175.5" r="1.5" fill="#C2C5D4"/>
<circle cx="176.5" cy="175.5" r="1.5" fill="#C2C5D4"/>
<circle cx="191.5" cy="175.5" r="1.5" fill="#C2C5D4"/>
<circle cx="206.5" cy="175.5" r="1.5" fill="#C2C5D4"/>
<circle cx="221.5" cy="175.5" r="1.5" fill="#C2C5D4"/>
<circle cx="236.5" cy="175.5" r="1.5" fill="#C2C5D4"/>
<circle cx="251.5" cy="175.5" r="1.5" fill="#C2C5D4"/>
<circle cx="266.5" cy="175.5" r="1.5" fill="#C2C5D4"/>
<circle cx="281.5" cy="175.5" r="1.5" fill="#C2C5D4"/>
<circle cx="296.5" cy="175.5" r="1.5" fill="#C2C5D4"/>
<circle cx="311.5" cy="175.5" r="1.5" fill="#C2C5D4"/>
<circle cx="326.5" cy="175.5" r="1.5" fill="#C2C5D4"/>
<circle cx="341.5" cy="175.5" r="1.5" fill="#C2C5D4"/>
<circle cx="356.5" cy="175.5" r="1.5" fill="#C2C5D4"/>
<circle cx="611.5" cy="175.5" r="1.5" fill="#C2C5D4"/>
<circle cx="371.5" cy="175.5" r="1.5" fill="#C2C5D4"/>
<circle cx="626.5" cy="175.5" r="1.5" fill="#C2C5D4"/>
<circle cx="386.5" cy="175.5" r="1.5" fill="#C2C5D4"/>
<circle cx="641.5" cy="175.5" r="1.5" fill="#C2C5D4"/>
<circle cx="401.5" cy="175.5" r="1.5" fill="#C2C5D4"/>
<circle cx="656.5" cy="175.5" r="1.5" fill="#C2C5D4"/>
<circle cx="416.5" cy="175.5" r="1.5" fill="#C2C5D4"/>
<circle cx="671.5" cy="175.5" r="1.5" fill="#C2C5D4"/>
<circle cx="431.5" cy="175.5" r="1.5" fill="#C2C5D4"/>
<circle cx="686.5" cy="175.5" r="1.5" fill="#C2C5D4"/>
<circle cx="446.5" cy="175.5" r="1.5" fill="#C2C5D4"/>
<circle cx="701.5" cy="175.5" r="1.5" fill="#C2C5D4"/>
<circle cx="461.5" cy="175.5" r="1.5" fill="#C2C5D4"/>
<circle cx="716.5" cy="175.5" r="1.5" fill="#C2C5D4"/>
<circle cx="476.5" cy="175.5" r="1.5" fill="#C2C5D4"/>
<circle cx="731.5" cy="175.5" r="1.5" fill="#C2C5D4"/>
<circle cx="491.5" cy="175.5" r="1.5" fill="#C2C5D4"/>
<circle cx="746.5" cy="175.5" r="1.5" fill="#C2C5D4"/>
<circle cx="506.5" cy="175.5" r="1.5" fill="#C2C5D4"/>
<circle cx="761.5" cy="175.5" r="1.5" fill="#C2C5D4"/>
<circle cx="521.5" cy="175.5" r="1.5" fill="#C2C5D4"/>
<circle cx="776.5" cy="175.5" r="1.5" fill="#C2C5D4"/>
<circle cx="536.5" cy="175.5" r="1.5" fill="#C2C5D4"/>
<circle cx="551.5" cy="175.5" r="1.5" fill="#C2C5D4"/>
<circle cx="566.5" cy="175.5" r="1.5" fill="#C2C5D4"/>
<circle cx="581.5" cy="175.5" r="1.5" fill="#C2C5D4"/>
<circle cx="596.5" cy="175.5" r="1.5" fill="#C2C5D4"/>
<circle cx="11.5" cy="160.5" r="1.5" fill="#C2C5D4"/>
<circle cx="26.5" cy="160.5" r="1.5" fill="#C2C5D4"/>
<circle cx="41.5" cy="160.5" r="1.5" fill="#C2C5D4"/>
<circle cx="56.5" cy="160.5" r="1.5" fill="#C2C5D4"/>
<circle cx="71.5" cy="160.5" r="1.5" fill="#C2C5D4"/>
<circle cx="86.5" cy="160.5" r="1.5" fill="#C2C5D4"/>
<circle cx="101.5" cy="160.5" r="1.5" fill="#C2C5D4"/>
<circle cx="116.5" cy="160.5" r="1.5" fill="#C2C5D4"/>
<circle cx="131.5" cy="160.5" r="1.5" fill="#C2C5D4"/>
<circle cx="146.5" cy="160.5" r="1.5" fill="#C2C5D4"/>
<circle cx="161.5" cy="160.5" r="1.5" fill="#C2C5D4"/>
<circle cx="176.5" cy="160.5" r="1.5" fill="#C2C5D4"/>
<circle cx="191.5" cy="160.5" r="1.5" fill="#C2C5D4"/>
<circle cx="206.5" cy="160.5" r="1.5" fill="#C2C5D4"/>
<circle cx="221.5" cy="160.5" r="1.5" fill="#C2C5D4"/>
<circle cx="236.5" cy="160.5" r="1.5" fill="#C2C5D4"/>
<circle cx="251.5" cy="160.5" r="1.5" fill="#C2C5D4"/>
<circle cx="266.5" cy="160.5" r="1.5" fill="#C2C5D4"/>
<circle cx="281.5" cy="160.5" r="1.5" fill="#C2C5D4"/>
<circle cx="296.5" cy="160.5" r="1.5" fill="#C2C5D4"/>
<circle cx="311.5" cy="160.5" r="1.5" fill="#C2C5D4"/>
<circle cx="326.5" cy="160.5" r="1.5" fill="#C2C5D4"/>
<circle cx="341.5" cy="160.5" r="1.5" fill="#C2C5D4"/>
<circle cx="356.5" cy="160.5" r="1.5" fill="#C2C5D4"/>
<circle cx="611.5" cy="160.5" r="1.5" fill="#C2C5D4"/>
<circle cx="371.5" cy="160.5" r="1.5" fill="#C2C5D4"/>
<circle cx="626.5" cy="160.5" r="1.5" fill="#C2C5D4"/>
<circle cx="386.5" cy="160.5" r="1.5" fill="#C2C5D4"/>
<circle cx="641.5" cy="160.5" r="1.5" fill="#C2C5D4"/>
<circle cx="401.5" cy="160.5" r="1.5" fill="#C2C5D4"/>
<circle cx="656.5" cy="160.5" r="1.5" fill="#C2C5D4"/>
<circle cx="416.5" cy="160.5" r="1.5" fill="#C2C5D4"/>
<circle cx="671.5" cy="160.5" r="1.5" fill="#C2C5D4"/>
<circle cx="431.5" cy="160.5" r="1.5" fill="#C2C5D4"/>
<circle cx="686.5" cy="160.5" r="1.5" fill="#C2C5D4"/>
<circle cx="446.5" cy="160.5" r="1.5" fill="#C2C5D4"/>
<circle cx="701.5" cy="160.5" r="1.5" fill="#C2C5D4"/>
<circle cx="461.5" cy="160.5" r="1.5" fill="#C2C5D4"/>
<circle cx="716.5" cy="160.5" r="1.5" fill="#C2C5D4"/>
<circle cx="476.5" cy="160.5" r="1.5" fill="#C2C5D4"/>
<circle cx="731.5" cy="160.5" r="1.5" fill="#C2C5D4"/>
<circle cx="491.5" cy="160.5" r="1.5" fill="#C2C5D4"/>
<circle cx="746.5" cy="160.5" r="1.5" fill="#C2C5D4"/>
<circle cx="506.5" cy="160.5" r="1.5" fill="#C2C5D4"/>
<circle cx="761.5" cy="160.5" r="1.5" fill="#C2C5D4"/>
<circle cx="521.5" cy="160.5" r="1.5" fill="#C2C5D4"/>
<circle cx="776.5" cy="160.5" r="1.5" fill="#C2C5D4"/>
<circle cx="536.5" cy="160.5" r="1.5" fill="#C2C5D4"/>
<circle cx="551.5" cy="160.5" r="1.5" fill="#C2C5D4"/>
<circle cx="566.5" cy="160.5" r="1.5" fill="#C2C5D4"/>
<circle cx="581.5" cy="160.5" r="1.5" fill="#C2C5D4"/>
<circle cx="596.5" cy="160.5" r="1.5" fill="#C2C5D4"/>
<circle cx="11.5" cy="145.5" r="1.5" fill="#C2C5D4"/>
<circle cx="26.5" cy="145.5" r="1.5" fill="#C2C5D4"/>
<circle cx="41.5" cy="145.5" r="1.5" fill="#C2C5D4"/>
<circle cx="56.5" cy="145.5" r="1.5" fill="#C2C5D4"/>
<circle cx="71.5" cy="145.5" r="1.5" fill="#C2C5D4"/>
<circle cx="86.5" cy="145.5" r="1.5" fill="#C2C5D4"/>
<circle cx="101.5" cy="145.5" r="1.5" fill="#C2C5D4"/>
<circle cx="116.5" cy="145.5" r="1.5" fill="#C2C5D4"/>
<circle cx="131.5" cy="145.5" r="1.5" fill="#C2C5D4"/>
<circle cx="146.5" cy="145.5" r="1.5" fill="#C2C5D4"/>
<circle cx="161.5" cy="145.5" r="1.5" fill="#C2C5D4"/>
<circle cx="176.5" cy="145.5" r="1.5" fill="#C2C5D4"/>
<circle cx="191.5" cy="145.5" r="1.5" fill="#C2C5D4"/>
<circle cx="206.5" cy="145.5" r="1.5" fill="#C2C5D4"/>
<circle cx="221.5" cy="145.5" r="1.5" fill="#C2C5D4"/>
<circle cx="236.5" cy="145.5" r="1.5" fill="#C2C5D4"/>
<circle cx="251.5" cy="145.5" r="1.5" fill="#C2C5D4"/>
<circle cx="266.5" cy="145.5" r="1.5" fill="#C2C5D4"/>
<circle cx="281.5" cy="145.5" r="1.5" fill="#C2C5D4"/>
<circle cx="296.5" cy="145.5" r="1.5" fill="#C2C5D4"/>
<circle cx="311.5" cy="145.5" r="1.5" fill="#C2C5D4"/>
<circle cx="326.5" cy="145.5" r="1.5" fill="#C2C5D4"/>
<circle cx="341.5" cy="145.5" r="1.5" fill="#C2C5D4"/>
<circle cx="356.5" cy="145.5" r="1.5" fill="#C2C5D4"/>
<circle cx="611.5" cy="145.5" r="1.5" fill="#C2C5D4"/>
<circle cx="371.5" cy="145.5" r="1.5" fill="#C2C5D4"/>
<circle cx="626.5" cy="145.5" r="1.5" fill="#C2C5D4"/>
<circle cx="386.5" cy="145.5" r="1.5" fill="#C2C5D4"/>
<circle cx="641.5" cy="145.5" r="1.5" fill="#C2C5D4"/>
<circle cx="401.5" cy="145.5" r="1.5" fill="#C2C5D4"/>
<circle cx="656.5" cy="145.5" r="1.5" fill="#C2C5D4"/>
<circle cx="416.5" cy="145.5" r="1.5" fill="#C2C5D4"/>
<circle cx="671.5" cy="145.5" r="1.5" fill="#C2C5D4"/>
<circle cx="431.5" cy="145.5" r="1.5" fill="#C2C5D4"/>
<circle cx="686.5" cy="145.5" r="1.5" fill="#C2C5D4"/>
<circle cx="446.5" cy="145.5" r="1.5" fill="#C2C5D4"/>
<circle cx="701.5" cy="145.5" r="1.5" fill="#C2C5D4"/>
<circle cx="461.5" cy="145.5" r="1.5" fill="#C2C5D4"/>
<circle cx="716.5" cy="145.5" r="1.5" fill="#C2C5D4"/>
<circle cx="476.5" cy="145.5" r="1.5" fill="#C2C5D4"/>
<circle cx="731.5" cy="145.5" r="1.5" fill="#C2C5D4"/>
<circle cx="491.5" cy="145.5" r="1.5" fill="#C2C5D4"/>
<circle cx="746.5" cy="145.5" r="1.5" fill="#C2C5D4"/>
<circle cx="506.5" cy="145.5" r="1.5" fill="#C2C5D4"/>
<circle cx="761.5" cy="145.5" r="1.5" fill="#C2C5D4"/>
<circle cx="521.5" cy="145.5" r="1.5" fill="#C2C5D4"/>
<circle cx="776.5" cy="145.5" r="1.5" fill="#C2C5D4"/>
<circle cx="536.5" cy="145.5" r="1.5" fill="#C2C5D4"/>
<circle cx="551.5" cy="145.5" r="1.5" fill="#C2C5D4"/>
<circle cx="566.5" cy="145.5" r="1.5" fill="#C2C5D4"/>
<circle cx="581.5" cy="145.5" r="1.5" fill="#C2C5D4"/>
<circle cx="596.5" cy="145.5" r="1.5" fill="#C2C5D4"/>
<circle cx="11.5" cy="130.5" r="1.5" fill="#C2C5D4"/>
<circle cx="26.5" cy="130.5" r="1.5" fill="#C2C5D4"/>
<circle cx="41.5" cy="130.5" r="1.5" fill="#C2C5D4"/>
<circle cx="56.5" cy="130.5" r="1.5" fill="#C2C5D4"/>
<circle cx="71.5" cy="130.5" r="1.5" fill="#C2C5D4"/>
<circle cx="86.5" cy="130.5" r="1.5" fill="#C2C5D4"/>
<circle cx="101.5" cy="130.5" r="1.5" fill="#C2C5D4"/>
<circle cx="116.5" cy="130.5" r="1.5" fill="#C2C5D4"/>
<circle cx="131.5" cy="130.5" r="1.5" fill="#C2C5D4"/>
<circle cx="146.5" cy="130.5" r="1.5" fill="#C2C5D4"/>
<circle cx="161.5" cy="130.5" r="1.5" fill="#C2C5D4"/>
<circle cx="176.5" cy="130.5" r="1.5" fill="#C2C5D4"/>
<circle cx="191.5" cy="130.5" r="1.5" fill="#C2C5D4"/>
<circle cx="206.5" cy="130.5" r="1.5" fill="#C2C5D4"/>
<circle cx="221.5" cy="130.5" r="1.5" fill="#C2C5D4"/>
<circle cx="236.5" cy="130.5" r="1.5" fill="#C2C5D4"/>
<circle cx="251.5" cy="130.5" r="1.5" fill="#C2C5D4"/>
<circle cx="266.5" cy="130.5" r="1.5" fill="#C2C5D4"/>
<circle cx="281.5" cy="130.5" r="1.5" fill="#C2C5D4"/>
<circle cx="296.5" cy="130.5" r="1.5" fill="#C2C5D4"/>
<circle cx="311.5" cy="130.5" r="1.5" fill="#C2C5D4"/>
<circle cx="326.5" cy="130.5" r="1.5" fill="#C2C5D4"/>
<circle cx="341.5" cy="130.5" r="1.5" fill="#C2C5D4"/>
<circle cx="356.5" cy="130.5" r="1.5" fill="#C2C5D4"/>
<circle cx="611.5" cy="130.5" r="1.5" fill="#C2C5D4"/>
<circle cx="371.5" cy="130.5" r="1.5" fill="#C2C5D4"/>
<circle cx="626.5" cy="130.5" r="1.5" fill="#C2C5D4"/>
<circle cx="386.5" cy="130.5" r="1.5" fill="#C2C5D4"/>
<circle cx="641.5" cy="130.5" r="1.5" fill="#C2C5D4"/>
<circle cx="401.5" cy="130.5" r="1.5" fill="#C2C5D4"/>
<circle cx="656.5" cy="130.5" r="1.5" fill="#C2C5D4"/>
<circle cx="416.5" cy="130.5" r="1.5" fill="#C2C5D4"/>
<circle cx="671.5" cy="130.5" r="1.5" fill="#C2C5D4"/>
<circle cx="431.5" cy="130.5" r="1.5" fill="#C2C5D4"/>
<circle cx="686.5" cy="130.5" r="1.5" fill="#C2C5D4"/>
<circle cx="446.5" cy="130.5" r="1.5" fill="#C2C5D4"/>
<circle cx="701.5" cy="130.5" r="1.5" fill="#C2C5D4"/>
<circle cx="461.5" cy="130.5" r="1.5" fill="#C2C5D4"/>
<circle cx="716.5" cy="130.5" r="1.5" fill="#C2C5D4"/>
<circle cx="476.5" cy="130.5" r="1.5" fill="#C2C5D4"/>
<circle cx="731.5" cy="130.5" r="1.5" fill="#C2C5D4"/>
<circle cx="491.5" cy="130.5" r="1.5" fill="#C2C5D4"/>
<circle cx="746.5" cy="130.5" r="1.5" fill="#C2C5D4"/>
<circle cx="506.5" cy="130.5" r="1.5" fill="#C2C5D4"/>
<circle cx="761.5" cy="130.5" r="1.5" fill="#C2C5D4"/>
<circle cx="521.5" cy="130.5" r="1.5" fill="#C2C5D4"/>
<circle cx="776.5" cy="130.5" r="1.5" fill="#C2C5D4"/>
<circle cx="536.5" cy="130.5" r="1.5" fill="#C2C5D4"/>
<circle cx="551.5" cy="130.5" r="1.5" fill="#C2C5D4"/>
<circle cx="566.5" cy="130.5" r="1.5" fill="#C2C5D4"/>
<circle cx="581.5" cy="130.5" r="1.5" fill="#C2C5D4"/>
<circle cx="596.5" cy="130.5" r="1.5" fill="#C2C5D4"/>
<circle cx="11.5" cy="115.5" r="1.5" fill="#C2C5D4"/>
<circle cx="26.5" cy="115.5" r="1.5" fill="#C2C5D4"/>
<circle cx="41.5" cy="115.5" r="1.5" fill="#C2C5D4"/>
<circle cx="56.5" cy="115.5" r="1.5" fill="#C2C5D4"/>
<circle cx="71.5" cy="115.5" r="1.5" fill="#C2C5D4"/>
<circle cx="86.5" cy="115.5" r="1.5" fill="#C2C5D4"/>
<circle cx="101.5" cy="115.5" r="1.5" fill="#C2C5D4"/>
<circle cx="116.5" cy="115.5" r="1.5" fill="#C2C5D4"/>
<circle cx="131.5" cy="115.5" r="1.5" fill="#C2C5D4"/>
<circle cx="146.5" cy="115.5" r="1.5" fill="#C2C5D4"/>
<circle cx="161.5" cy="115.5" r="1.5" fill="#C2C5D4"/>
<circle cx="176.5" cy="115.5" r="1.5" fill="#C2C5D4"/>
<circle cx="191.5" cy="115.5" r="1.5" fill="#C2C5D4"/>
<circle cx="206.5" cy="115.5" r="1.5" fill="#C2C5D4"/>
<circle cx="221.5" cy="115.5" r="1.5" fill="#C2C5D4"/>
<circle cx="236.5" cy="115.5" r="1.5" fill="#C2C5D4"/>
<circle cx="251.5" cy="115.5" r="1.5" fill="#C2C5D4"/>
<circle cx="266.5" cy="115.5" r="1.5" fill="#C2C5D4"/>
<circle cx="281.5" cy="115.5" r="1.5" fill="#C2C5D4"/>
<circle cx="296.5" cy="115.5" r="1.5" fill="#C2C5D4"/>
<circle cx="311.5" cy="115.5" r="1.5" fill="#C2C5D4"/>
<circle cx="326.5" cy="115.5" r="1.5" fill="#C2C5D4"/>
<circle cx="341.5" cy="115.5" r="1.5" fill="#C2C5D4"/>
<circle cx="356.5" cy="115.5" r="1.5" fill="#C2C5D4"/>
<circle cx="611.5" cy="115.5" r="1.5" fill="#C2C5D4"/>
<circle cx="371.5" cy="115.5" r="1.5" fill="#C2C5D4"/>
<circle cx="626.5" cy="115.5" r="1.5" fill="#C2C5D4"/>
<circle cx="386.5" cy="115.5" r="1.5" fill="#C2C5D4"/>
<circle cx="641.5" cy="115.5" r="1.5" fill="#C2C5D4"/>
<circle cx="401.5" cy="115.5" r="1.5" fill="#C2C5D4"/>
<circle cx="656.5" cy="115.5" r="1.5" fill="#C2C5D4"/>
<circle cx="416.5" cy="115.5" r="1.5" fill="#C2C5D4"/>
<circle cx="671.5" cy="115.5" r="1.5" fill="#C2C5D4"/>
<circle cx="431.5" cy="115.5" r="1.5" fill="#C2C5D4"/>
<circle cx="686.5" cy="115.5" r="1.5" fill="#C2C5D4"/>
<circle cx="446.5" cy="115.5" r="1.5" fill="#C2C5D4"/>
<circle cx="701.5" cy="115.5" r="1.5" fill="#C2C5D4"/>
<circle cx="461.5" cy="115.5" r="1.5" fill="#C2C5D4"/>
<circle cx="716.5" cy="115.5" r="1.5" fill="#C2C5D4"/>
<circle cx="476.5" cy="115.5" r="1.5" fill="#C2C5D4"/>
<circle cx="731.5" cy="115.5" r="1.5" fill="#C2C5D4"/>
<circle cx="491.5" cy="115.5" r="1.5" fill="#C2C5D4"/>
<circle cx="746.5" cy="115.5" r="1.5" fill="#C2C5D4"/>
<circle cx="506.5" cy="115.5" r="1.5" fill="#C2C5D4"/>
<circle cx="761.5" cy="115.5" r="1.5" fill="#C2C5D4"/>
<circle cx="521.5" cy="115.5" r="1.5" fill="#C2C5D4"/>
<circle cx="776.5" cy="115.5" r="1.5" fill="#C2C5D4"/>
<circle cx="536.5" cy="115.5" r="1.5" fill="#C2C5D4"/>
<circle cx="551.5" cy="115.5" r="1.5" fill="#C2C5D4"/>
<circle cx="566.5" cy="115.5" r="1.5" fill="#C2C5D4"/>
<circle cx="581.5" cy="115.5" r="1.5" fill="#C2C5D4"/>
<circle cx="596.5" cy="115.5" r="1.5" fill="#C2C5D4"/>
<circle cx="11.5" cy="100.5" r="1.5" fill="#C2C5D4"/>
<circle cx="26.5" cy="100.5" r="1.5" fill="#C2C5D4"/>
<circle cx="41.5" cy="100.5" r="1.5" fill="#C2C5D4"/>
<circle cx="56.5" cy="100.5" r="1.5" fill="#C2C5D4"/>
<circle cx="71.5" cy="100.5" r="1.5" fill="#C2C5D4"/>
<circle cx="86.5" cy="100.5" r="1.5" fill="#C2C5D4"/>
<circle cx="101.5" cy="100.5" r="1.5" fill="#C2C5D4"/>
<circle cx="116.5" cy="100.5" r="1.5" fill="#C2C5D4"/>
<circle cx="131.5" cy="100.5" r="1.5" fill="#C2C5D4"/>
<circle cx="146.5" cy="100.5" r="1.5" fill="#C2C5D4"/>
<circle cx="161.5" cy="100.5" r="1.5" fill="#C2C5D4"/>
<circle cx="176.5" cy="100.5" r="1.5" fill="#C2C5D4"/>
<circle cx="191.5" cy="100.5" r="1.5" fill="#C2C5D4"/>
<circle cx="206.5" cy="100.5" r="1.5" fill="#C2C5D4"/>
<circle cx="221.5" cy="100.5" r="1.5" fill="#C2C5D4"/>
<circle cx="236.5" cy="100.5" r="1.5" fill="#C2C5D4"/>
<circle cx="251.5" cy="100.5" r="1.5" fill="#C2C5D4"/>
<circle cx="266.5" cy="100.5" r="1.5" fill="#C2C5D4"/>
<circle cx="281.5" cy="100.5" r="1.5" fill="#C2C5D4"/>
<circle cx="296.5" cy="100.5" r="1.5" fill="#C2C5D4"/>
<circle cx="311.5" cy="100.5" r="1.5" fill="#C2C5D4"/>
<circle cx="326.5" cy="100.5" r="1.5" fill="#C2C5D4"/>
<circle cx="341.5" cy="100.5" r="1.5" fill="#C2C5D4"/>
<circle cx="356.5" cy="100.5" r="1.5" fill="#C2C5D4"/>
<circle cx="611.5" cy="100.5" r="1.5" fill="#C2C5D4"/>
<circle cx="371.5" cy="100.5" r="1.5" fill="#C2C5D4"/>
<circle cx="626.5" cy="100.5" r="1.5" fill="#C2C5D4"/>
<circle cx="386.5" cy="100.5" r="1.5" fill="#C2C5D4"/>
<circle cx="641.5" cy="100.5" r="1.5" fill="#C2C5D4"/>
<circle cx="401.5" cy="100.5" r="1.5" fill="#C2C5D4"/>
<circle cx="656.5" cy="100.5" r="1.5" fill="#C2C5D4"/>
<circle cx="416.5" cy="100.5" r="1.5" fill="#C2C5D4"/>
<circle cx="671.5" cy="100.5" r="1.5" fill="#C2C5D4"/>
<circle cx="431.5" cy="100.5" r="1.5" fill="#C2C5D4"/>
<circle cx="686.5" cy="100.5" r="1.5" fill="#C2C5D4"/>
<circle cx="446.5" cy="100.5" r="1.5" fill="#C2C5D4"/>
<circle cx="701.5" cy="100.5" r="1.5" fill="#C2C5D4"/>
<circle cx="461.5" cy="100.5" r="1.5" fill="#C2C5D4"/>
<circle cx="716.5" cy="100.5" r="1.5" fill="#C2C5D4"/>
<circle cx="476.5" cy="100.5" r="1.5" fill="#C2C5D4"/>
<circle cx="731.5" cy="100.5" r="1.5" fill="#C2C5D4"/>
<circle cx="491.5" cy="100.5" r="1.5" fill="#C2C5D4"/>
<circle cx="746.5" cy="100.5" r="1.5" fill="#C2C5D4"/>
<circle cx="506.5" cy="100.5" r="1.5" fill="#C2C5D4"/>
<circle cx="761.5" cy="100.5" r="1.5" fill="#C2C5D4"/>
<circle cx="521.5" cy="100.5" r="1.5" fill="#C2C5D4"/>
<circle cx="776.5" cy="100.5" r="1.5" fill="#C2C5D4"/>
<circle cx="536.5" cy="100.5" r="1.5" fill="#C2C5D4"/>
<circle cx="551.5" cy="100.5" r="1.5" fill="#C2C5D4"/>
<circle cx="566.5" cy="100.5" r="1.5" fill="#C2C5D4"/>
<circle cx="581.5" cy="100.5" r="1.5" fill="#C2C5D4"/>
<circle cx="596.5" cy="100.5" r="1.5" fill="#C2C5D4"/>
<circle cx="11.5" cy="85.5" r="1.5" fill="#C2C5D4"/>
<circle cx="26.5" cy="85.5" r="1.5" fill="#C2C5D4"/>
<circle cx="41.5" cy="85.5" r="1.5" fill="#C2C5D4"/>
<circle cx="56.5" cy="85.5" r="1.5" fill="#C2C5D4"/>
<circle cx="71.5" cy="85.5" r="1.5" fill="#C2C5D4"/>
<circle cx="86.5" cy="85.5" r="1.5" fill="#C2C5D4"/>
<circle cx="101.5" cy="85.5" r="1.5" fill="#C2C5D4"/>
<circle cx="116.5" cy="85.5" r="1.5" fill="#C2C5D4"/>
<circle cx="131.5" cy="85.5" r="1.5" fill="#C2C5D4"/>
<circle cx="146.5" cy="85.5" r="1.5" fill="#C2C5D4"/>
<circle cx="161.5" cy="85.5" r="1.5" fill="#C2C5D4"/>
<circle cx="176.5" cy="85.5" r="1.5" fill="#C2C5D4"/>
<circle cx="191.5" cy="85.5" r="1.5" fill="#C2C5D4"/>
<circle cx="206.5" cy="85.5" r="1.5" fill="#C2C5D4"/>
<circle cx="221.5" cy="85.5" r="1.5" fill="#C2C5D4"/>
<circle cx="236.5" cy="85.5" r="1.5" fill="#C2C5D4"/>
<circle cx="251.5" cy="85.5" r="1.5" fill="#C2C5D4"/>
<circle cx="266.5" cy="85.5" r="1.5" fill="#C2C5D4"/>
<circle cx="281.5" cy="85.5" r="1.5" fill="#C2C5D4"/>
<circle cx="296.5" cy="85.5" r="1.5" fill="#C2C5D4"/>
<circle cx="311.5" cy="85.5" r="1.5" fill="#C2C5D4"/>
<circle cx="326.5" cy="85.5" r="1.5" fill="#C2C5D4"/>
<circle cx="341.5" cy="85.5" r="1.5" fill="#C2C5D4"/>
<circle cx="356.5" cy="85.5" r="1.5" fill="#C2C5D4"/>
<circle cx="611.5" cy="85.5" r="1.5" fill="#C2C5D4"/>
<circle cx="371.5" cy="85.5" r="1.5" fill="#C2C5D4"/>
<circle cx="626.5" cy="85.5" r="1.5" fill="#C2C5D4"/>
<circle cx="386.5" cy="85.5" r="1.5" fill="#C2C5D4"/>
<circle cx="641.5" cy="85.5" r="1.5" fill="#C2C5D4"/>
<circle cx="401.5" cy="85.5" r="1.5" fill="#C2C5D4"/>
<circle cx="656.5" cy="85.5" r="1.5" fill="#C2C5D4"/>
<circle cx="416.5" cy="85.5" r="1.5" fill="#C2C5D4"/>
<circle cx="671.5" cy="85.5" r="1.5" fill="#C2C5D4"/>
<circle cx="431.5" cy="85.5" r="1.5" fill="#C2C5D4"/>
<circle cx="686.5" cy="85.5" r="1.5" fill="#C2C5D4"/>
<circle cx="446.5" cy="85.5" r="1.5" fill="#C2C5D4"/>
<circle cx="701.5" cy="85.5" r="1.5" fill="#C2C5D4"/>
<circle cx="461.5" cy="85.5" r="1.5" fill="#C2C5D4"/>
<circle cx="716.5" cy="85.5" r="1.5" fill="#C2C5D4"/>
<circle cx="476.5" cy="85.5" r="1.5" fill="#C2C5D4"/>
<circle cx="731.5" cy="85.5" r="1.5" fill="#C2C5D4"/>
<circle cx="491.5" cy="85.5" r="1.5" fill="#C2C5D4"/>
<circle cx="746.5" cy="85.5" r="1.5" fill="#C2C5D4"/>
<circle cx="506.5" cy="85.5" r="1.5" fill="#C2C5D4"/>
<circle cx="761.5" cy="85.5" r="1.5" fill="#C2C5D4"/>
<circle cx="521.5" cy="85.5" r="1.5" fill="#C2C5D4"/>
<circle cx="776.5" cy="85.5" r="1.5" fill="#C2C5D4"/>
<circle cx="536.5" cy="85.5" r="1.5" fill="#C2C5D4"/>
<circle cx="551.5" cy="85.5" r="1.5" fill="#C2C5D4"/>
<circle cx="566.5" cy="85.5" r="1.5" fill="#C2C5D4"/>
<circle cx="581.5" cy="85.5" r="1.5" fill="#C2C5D4"/>
<circle cx="596.5" cy="85.5" r="1.5" fill="#C2C5D4"/>
<circle cx="11.5" cy="70.5" r="1.5" fill="#C2C5D4"/>
<circle cx="26.5" cy="70.5" r="1.5" fill="#C2C5D4"/>
<circle cx="41.5" cy="70.5" r="1.5" fill="#C2C5D4"/>
<circle cx="56.5" cy="70.5" r="1.5" fill="#C2C5D4"/>
<circle cx="71.5" cy="70.5" r="1.5" fill="#C2C5D4"/>
<circle cx="86.5" cy="70.5" r="1.5" fill="#C2C5D4"/>
<circle cx="101.5" cy="70.5" r="1.5" fill="#C2C5D4"/>
<circle cx="116.5" cy="70.5" r="1.5" fill="#C2C5D4"/>
<circle cx="131.5" cy="70.5" r="1.5" fill="#C2C5D4"/>
<circle cx="146.5" cy="70.5" r="1.5" fill="#C2C5D4"/>
<circle cx="161.5" cy="70.5" r="1.5" fill="#C2C5D4"/>
<circle cx="176.5" cy="70.5" r="1.5" fill="#C2C5D4"/>
<circle cx="191.5" cy="70.5" r="1.5" fill="#C2C5D4"/>
<circle cx="206.5" cy="70.5" r="1.5" fill="#C2C5D4"/>
<circle cx="221.5" cy="70.5" r="1.5" fill="#C2C5D4"/>
<circle cx="236.5" cy="70.5" r="1.5" fill="#C2C5D4"/>
<circle cx="251.5" cy="70.5" r="1.5" fill="#C2C5D4"/>
<circle cx="266.5" cy="70.5" r="1.5" fill="#C2C5D4"/>
<circle cx="281.5" cy="70.5" r="1.5" fill="#C2C5D4"/>
<circle cx="296.5" cy="70.5" r="1.5" fill="#C2C5D4"/>
<circle cx="311.5" cy="70.5" r="1.5" fill="#C2C5D4"/>
<circle cx="326.5" cy="70.5" r="1.5" fill="#C2C5D4"/>
<circle cx="341.5" cy="70.5" r="1.5" fill="#C2C5D4"/>
<circle cx="356.5" cy="70.5" r="1.5" fill="#C2C5D4"/>
<circle cx="611.5" cy="70.5" r="1.5" fill="#C2C5D4"/>
<circle cx="371.5" cy="70.5" r="1.5" fill="#C2C5D4"/>
<circle cx="626.5" cy="70.5" r="1.5" fill="#C2C5D4"/>
<circle cx="386.5" cy="70.5" r="1.5" fill="#C2C5D4"/>
<circle cx="641.5" cy="70.5" r="1.5" fill="#C2C5D4"/>
<circle cx="401.5" cy="70.5" r="1.5" fill="#C2C5D4"/>
<circle cx="656.5" cy="70.5" r="1.5" fill="#C2C5D4"/>
<circle cx="416.5" cy="70.5" r="1.5" fill="#C2C5D4"/>
<circle cx="671.5" cy="70.5" r="1.5" fill="#C2C5D4"/>
<circle cx="431.5" cy="70.5" r="1.5" fill="#C2C5D4"/>
<circle cx="686.5" cy="70.5" r="1.5" fill="#C2C5D4"/>
<circle cx="446.5" cy="70.5" r="1.5" fill="#C2C5D4"/>
<circle cx="701.5" cy="70.5" r="1.5" fill="#C2C5D4"/>
<circle cx="461.5" cy="70.5" r="1.5" fill="#C2C5D4"/>
<circle cx="716.5" cy="70.5" r="1.5" fill="#C2C5D4"/>
<circle cx="476.5" cy="70.5" r="1.5" fill="#C2C5D4"/>
<circle cx="731.5" cy="70.5" r="1.5" fill="#C2C5D4"/>
<circle cx="491.5" cy="70.5" r="1.5" fill="#C2C5D4"/>
<circle cx="746.5" cy="70.5" r="1.5" fill="#C2C5D4"/>
<circle cx="506.5" cy="70.5" r="1.5" fill="#C2C5D4"/>
<circle cx="761.5" cy="70.5" r="1.5" fill="#C2C5D4"/>
<circle cx="521.5" cy="70.5" r="1.5" fill="#C2C5D4"/>
<circle cx="776.5" cy="70.5" r="1.5" fill="#C2C5D4"/>
<circle cx="536.5" cy="70.5" r="1.5" fill="#C2C5D4"/>
<circle cx="551.5" cy="70.5" r="1.5" fill="#C2C5D4"/>
<circle cx="566.5" cy="70.5" r="1.5" fill="#C2C5D4"/>
<circle cx="581.5" cy="70.5" r="1.5" fill="#C2C5D4"/>
<circle cx="596.5" cy="70.5" r="1.5" fill="#C2C5D4"/>
</g>
<circle cx="510.5" cy="251.5" r="235.5" fill="url(#paint1_radial_1100_24334)"/>
<circle cx="274.5" cy="458.5" r="274.5" fill="url(#paint2_radial_1100_24334)"/>
<g clip-path="url(#clip1_1100_24334)">
<path d="M207.264 33.7901C199.465 36.6038 192.329 36.708 184.19 37.0467C184.047 37.0467 181.729 38.3363 181.586 38.3493C180.323 38.4014 171.013 32.6177 157.535 40.9546C154.775 42.661 149.123 49.1221 148.433 49.4087C143.472 51.4669 138.667 46.8425 139.006 57.5372C140.06 63.2167 153.824 64.4802 158.512 66.6426C150.894 73.9113 159.723 87.3024 157.21 97.5412C147.365 84.098 118.913 56.8858 133.81 39.3263C137.261 35.249 141.584 35.3923 141.935 35.0927C143.303 33.9334 144.123 23.9812 158.837 18.1844C178.721 10.3556 187.237 18.2887 190.688 18.8358C197.433 19.8909 208.215 16.5171 206.288 7.77637C214.635 15.5271 218.19 26.5474 207.264 33.7901Z" fill="#000019"/>
<path d="M207.263 33.7904C205.856 34.7152 204.32 35.8746 202.718 36.3956C180.829 43.4038 177.743 26.0136 179.97 73.1431C173.446 79.4088 168.302 65.9004 163.719 65.6659C153.015 65.1319 158.445 81.9098 158.523 98.8311C157.729 98.8572 157.534 97.9583 157.221 97.5285C159.734 87.3028 150.906 73.8986 158.523 66.6299C153.848 64.4675 140.072 63.204 139.017 57.5244C138.678 46.8298 143.483 51.4541 148.444 49.396C149.135 49.1094 154.786 42.6483 157.547 40.9419C171.037 32.618 180.334 38.3887 181.597 38.3366C181.741 38.3366 184.058 37.047 184.202 37.0339C192.34 36.6953 199.489 36.6041 207.276 33.7773L207.263 33.7904Z" fill="#000019"/>
<path d="M163.709 65.665C151.834 81.5051 168.449 84.3058 168.905 85.5042C169.491 87.0283 165.428 100.745 184.505 105.343C184.609 106.62 184.349 107.975 184.505 109.251C174.296 107.102 162.108 85.6866 163.045 109.903C161.652 109.616 160.584 109.421 159.139 109.251C157.993 106.242 158.501 102.178 158.488 98.8432C158.41 81.922 152.993 65.131 163.683 65.6781L163.709 65.665Z" fill="#FEC4B0"/>
<path d="M184.517 109.238C184.66 110.398 185.337 113.316 185.819 114.436C182.342 117.119 169.451 111.192 163.07 109.89C162.133 85.6736 174.321 107.089 184.53 109.238H184.517Z" fill="#FFB59C"/>
<path d="M202.723 36.3952C205.77 40.6809 205.783 42.5958 205.978 42.8954C185.665 50.4897 192.827 49.1611 209.234 49.3955C211.174 57.3156 211.448 66.7597 211.838 67.9321C213.297 72.2829 224.964 76.8942 211.838 85.166C193.074 82.0918 199.611 90.8585 212.489 90.3635C213.01 105.943 206.239 110.554 184.532 105.318C165.455 100.719 169.518 87.0027 168.932 85.4786C168.476 84.2932 151.848 81.4795 163.737 65.6394C168.32 65.8739 173.477 79.3823 179.987 73.1166C177.774 25.9871 180.847 43.3773 202.736 36.3691L202.723 36.3952Z" fill="#FBDBC6"/>
<path d="M209.22 49.4084C192.812 49.1739 185.651 50.5026 205.964 42.9082C206.134 43.1687 208.608 43.4814 209.871 47.7801C210.366 49.4474 209.194 49.3172 209.22 49.4084Z" fill="#221F14"/>
<path d="M211.827 85.1791C212.53 86.9507 212.413 88.5399 212.478 90.3766C199.6 90.8717 193.063 82.0919 211.827 85.1791Z" fill="#000019"/>
<path d="M198.49 74.1191C204.285 76.008 213.361 75.7344 214.416 82.2476C206.954 86.416 187.813 82.4951 198.49 74.1191Z" fill="#FEC4B0"/>
<path d="M205.002 59.8166C210.301 59.504 214.82 65.9911 199.48 64.0502C200.158 62.1223 203.413 59.9208 205.002 59.8166Z" fill="#221F14"/>
<path d="M162.734 68.9221C166.302 68.375 165.99 75.3702 165.339 75.4223L162.734 68.9221Z" fill="#EE8553"/>
<path d="M380.207 195.747C380.207 196.138 381.405 198.431 380.858 203.55C371.86 191.931 367.068 190.967 353.226 187.293C340.751 190.432 381.613 199.916 377.602 209.738C371.638 217.019 370.284 212.538 366.221 211.366C359.776 209.503 353.109 208.109 346.715 206.168C343.134 205.074 337.209 200.228 333.381 202.586C345.951 207.684 358.521 212.777 371.092 217.866C367.524 219.768 366.625 220.159 362.64 221.123C361.989 218.947 359.932 220.211 358.734 219.82C345.739 215.573 333.407 209.125 320.698 204.214L320.373 205.517C319.214 201.622 318.042 197.779 317.117 193.806C319.435 193.963 329.891 192.569 333.368 192.504C334.644 192.478 347.405 198.053 347.34 187.306L337.262 189.26C339.241 187.593 341.35 184.831 344.085 184.063C352.353 181.718 377.563 185.183 380.168 195.773L380.207 195.747Z" fill="#FBDBC6"/>
<path d="M333.395 192.491C334.124 190.758 335.999 190.328 337.301 189.234L347.38 187.28C347.445 198.04 334.671 192.465 333.408 192.478L333.395 192.491Z" fill="#FFB59C"/>
<path d="M380.858 203.55C380.624 205.674 380.337 208.07 379.556 210.05C377.577 215.118 375.116 215.717 371.105 217.853C358.535 212.756 345.965 207.662 333.395 202.573C337.223 200.202 343.148 205.061 346.729 206.156C353.122 208.109 359.789 209.49 366.235 211.353C370.285 212.525 371.652 217.007 377.616 209.725C381.626 199.916 340.765 190.42 353.239 187.28C367.081 190.967 371.86 191.918 380.871 203.537L380.858 203.55Z" fill="#FFB59C"/>
<path d="M358.761 219.807C359.959 220.198 362.003 218.934 362.667 221.11C336.416 227.454 333.096 217.423 330.491 217.202C328.421 217.032 319.735 223.585 320.413 219.481C327.262 212.512 321.988 213.437 321.715 212.656C321.337 211.574 320.777 209.412 320.413 208.109C323.85 213.02 324.228 212.2 330.491 212.656C331.064 212.695 331.624 210.689 331.793 210.702C333.239 210.832 352.693 223.168 358.774 219.807H358.761Z" fill="#FFB59C"/>
<path d="M358.76 219.807C352.679 223.168 333.225 210.832 331.78 210.701C331.61 210.688 331.05 212.694 330.477 212.655C324.214 212.199 323.849 213.02 320.399 208.109C320.203 207.393 320.607 206.207 320.399 205.504L320.724 204.201C333.433 209.112 345.765 215.56 358.76 219.807Z" fill="#FEC4B0"/>
<path d="M159.164 109.239C160.61 109.408 161.664 109.604 163.071 109.89C169.464 111.206 182.356 117.12 185.819 114.436C186.197 115.322 197.083 126.772 198.828 128.739C201.615 135.5 220.014 173.706 218.985 177.523C216.121 175.752 214.61 173.276 213.139 170.372C209.818 163.845 195.169 122.76 191.679 121.262C190.26 120.65 185.663 133.064 185.832 134.275C186.028 135.669 199.87 152.538 200.781 158.01C200.013 157.137 199.114 156.629 198.177 155.404C185.65 139.095 185.872 130.758 165.675 117.029C161.886 114.449 157.94 112.144 153.969 109.877C156.768 107.689 155.675 108.822 159.164 109.226V109.239Z" fill="#ECF4FF"/>
<path d="M213.127 170.372C209.169 169.655 204.976 163.702 202.723 161.918C203.999 161.722 201.746 159.117 200.77 158.01C199.858 152.539 186.016 135.656 185.821 134.276C185.652 133.064 190.261 120.663 191.668 121.262C195.157 122.76 209.794 163.832 213.127 170.372Z" fill="#0041B2"/>
<path d="M317.141 193.794C318.066 197.754 319.238 201.597 320.397 205.505C320.605 206.208 320.201 207.393 320.397 208.11C320.761 209.412 321.321 211.575 321.699 212.656C315.8 217.046 311.594 223.468 309.992 219.156C310.5 217.059 309.589 212.135 309.341 209.399C308.899 204.541 307.701 199.252 306.737 194.445C306.568 193.585 306.932 192.895 306.086 191.84C310.995 192.139 314.316 193.611 317.141 193.794Z" fill="#F6F7F3"/>
<path d="M217.016 180.129C219.438 181.562 228.566 188.309 229.699 188.583C232.863 189.338 236.795 187.906 237.173 187.932C251.588 188.883 266.029 188.414 280.405 189.234C288.947 189.729 297.606 191.305 306.083 191.84C306.929 192.882 306.565 193.585 306.734 194.445C306.265 200.815 301.434 193.767 293.088 197.376V211.353C265.143 208.409 213.982 198.809 188.733 187.945C181.871 184.988 148.548 166.933 145.501 162.257C143.717 159.521 144.382 157.736 144.199 157.385C158.432 176.898 162.117 164.601 177.678 163.234C190.947 162.074 205.778 173.459 217.016 180.142V180.129Z" fill="#2574E5"/>
<path d="M237.174 187.945C236.796 187.919 232.864 189.352 229.7 188.596C228.567 188.323 219.439 181.575 217.017 180.142C218.332 178.97 218.449 179.452 218.97 177.537C219.999 173.733 201.599 135.514 198.812 128.753C202.498 132.947 207.719 137.09 211.17 141.441C221.978 155.079 228.593 172.808 237.174 187.945Z" fill="#5299FF"/>
<path d="M165.659 117.042C165.971 118.84 158.913 119.608 153.952 120.95C151.374 121.64 148.796 122.474 146.152 122.904C147.767 120.611 151.074 112.157 153.952 109.891C157.924 112.157 161.869 114.476 165.659 117.042Z" fill="#79B0FF"/>
<path d="M194.921 206.794C200.143 208.865 219.05 214.857 224.181 215.899C225.913 239.425 229.155 262.82 232.632 286.137C230.652 287.049 228.517 287.974 227.436 290.045C228.387 288.274 222.97 288.547 217.357 288.743C197.838 289.407 178.397 290.71 158.839 290.045C157.237 277.527 157.315 264.905 157.211 252.321H205L205.326 242.239C189.661 242.382 172.355 240.089 157.211 243.867C157.263 230.88 158.005 217.814 158.513 204.84C165.119 211.561 171.73 218.283 178.345 225.005C183.875 218.934 189.4 212.864 194.921 206.794Z" fill="#79B0FF"/>
<path d="M202.72 161.918C204.972 163.703 209.165 169.656 213.124 170.372C214.608 173.277 216.119 175.752 218.97 177.524C218.45 179.425 218.332 178.956 217.017 180.129C205.78 173.446 190.961 162.061 177.679 163.221C162.118 164.588 158.433 176.872 144.201 157.372C136.232 141.532 136.166 135.305 152.652 126.799C168.017 140.19 186.859 149.321 202.707 161.918H202.72Z" fill="#65A5FF"/>
<path d="M194.921 206.794C189.392 212.864 183.866 218.934 178.345 225.005C171.739 218.283 165.128 211.561 158.513 204.84C158.604 202.443 157.784 187.853 159.49 187.28C168.943 193.95 184.374 202.586 194.921 206.794Z" fill="#65A5FF"/>
<path d="M157.211 252.321C157.185 249.442 157.211 246.733 157.211 243.867C172.355 240.089 189.66 242.395 205.325 242.239L205 252.321H157.211Z" fill="#65A5FF"/>
<path d="M198.163 155.418C187.237 148.722 167.601 126.734 157.848 122.253C156.637 121.692 155.335 120.859 153.941 120.95C158.903 119.608 165.96 118.853 165.648 117.042C185.844 130.772 185.623 139.109 198.15 155.418H198.163Z" fill="#9FC6FF"/>
<path d="M198.161 155.418C199.099 156.642 199.997 157.15 200.766 158.023C201.742 159.13 203.982 161.723 202.719 161.931C186.859 149.334 168.016 140.203 152.664 126.812C154.943 125.639 159.448 125.366 157.86 122.266C167.613 126.747 187.249 148.748 198.174 155.431L198.161 155.418Z" fill="#79B0FF"/>
<path d="M309.341 209.399C308.247 209.62 307.166 209.985 306.085 209.399C305.799 209.243 307.869 206.676 301.215 207.445L301.541 211.991C296.541 212.291 296.423 211.692 293.09 211.34V197.363C301.437 193.754 306.281 200.815 306.736 194.432C307.7 199.238 308.898 204.54 309.341 209.386V209.399Z" fill="#0C5BCC"/>
<path d="M306.085 209.399C306.788 214.271 304.431 211.835 301.54 212.004L301.215 207.458C307.869 206.689 305.798 209.255 306.085 209.412V209.399Z" fill="#98AD99"/>
<path d="M157.862 122.252C159.451 125.366 154.932 125.626 152.666 126.798C136.181 135.305 136.246 141.531 144.215 157.371C144.398 157.736 143.734 159.508 145.517 162.243C148.565 166.92 181.887 184.974 188.749 187.931C213.998 198.795 265.146 208.396 293.104 211.34C296.437 211.691 296.554 212.291 301.555 211.991C304.458 211.822 306.815 214.258 306.099 209.386C307.18 209.972 308.261 209.607 309.355 209.386C309.602 212.121 310.513 217.045 310.006 219.143C309.576 220.914 308.951 221.227 307.727 222.399C283.937 220.536 245.875 220.315 224.181 215.899C219.05 214.857 200.143 208.865 194.921 206.794C184.361 202.586 168.943 193.949 159.49 187.28C157.784 187.853 158.604 202.443 158.513 204.84C158.005 217.814 157.263 230.879 157.211 243.867C157.211 246.732 157.185 249.442 157.211 252.321C157.315 264.904 157.224 277.527 158.839 290.045C178.384 290.722 197.838 289.407 217.357 288.742C222.97 288.547 228.387 288.274 227.436 290.045C227.215 290.462 227.163 293.471 226.134 295.243C223.79 292.585 205.312 294.214 200.781 294.591C197.773 294.839 192.968 294.188 191.353 294.591C189.192 295.125 185.09 300.714 183.228 302.394C180.545 304.817 164.776 320.696 164.373 322.233C162.966 327.613 164.854 417.196 164.373 433.453C163.552 461.238 161.13 489.349 158.526 517.03C158.292 519.518 156.117 522.006 159.177 522.879C156.599 522.931 152.211 523.322 150.075 522.227C146.833 520.56 148.76 518.359 147.471 516.053C146.768 514.789 143.942 513.239 143.564 511.819C142.288 507.013 147.835 426.835 148.109 412.636C148.877 373.896 146.286 334.986 147.458 296.22C146.598 294.24 142.47 296.246 141.611 294.266C140.166 290.957 142.991 246.12 140.96 222.073C138.538 193.35 127.17 163.364 129.254 147.927C131.168 133.846 141.272 129.821 146.156 122.891C148.799 122.461 151.377 121.64 153.955 120.937C155.349 120.845 156.638 121.679 157.862 122.239V122.252Z" fill="#3F8EFF"/>
<path d="M215.067 302.407C208.96 373.062 198.178 443.222 191.016 513.786C187.279 514.425 184.31 513.617 180.612 513.786C180.599 512.796 179.258 514.125 179.31 510.855C179.453 503.183 181.68 478.719 182.565 467.934C184.232 447.691 186.211 427.239 189.063 407.126C193.53 375.733 202.423 332.641 211.812 302.42C215.562 301.756 214.898 302.42 215.067 302.42V302.407Z" fill="#3F8EFF"/>
<path d="M200.768 294.604C201.224 303.931 197.604 306.875 202.722 305.663C203.477 308.308 202.578 313.57 202.071 316.397C199.987 327.991 184.205 396.08 185.169 400.3C185.26 400.704 188.216 401.954 189.075 407.126C186.223 427.239 184.244 447.703 182.577 467.933C181.692 478.719 179.465 503.182 179.322 510.855C179.257 514.112 180.611 512.796 180.624 513.786C180.624 513.916 179.14 513.812 179.322 516.066C179.465 517.798 183.15 516.105 179.322 518.345C178.801 517.342 177.395 518.619 172.824 518.345C172.967 496.057 176.874 473.43 178.02 451.025C180.155 409.64 177.746 358.016 181.926 317.7C182.59 311.278 185.364 302.928 183.228 302.42C185.091 300.739 189.192 295.151 191.354 294.617C192.969 294.213 197.774 294.865 200.781 294.617L200.768 294.604Z" fill="#79B0FF"/>
<path d="M224.82 302.407C224.546 305.403 224.481 308.529 224.168 311.512C224.103 312.151 224.234 312.828 224.168 313.466C220.731 345.759 214.663 377.856 210.522 410.044C207.813 431.082 202.292 495.888 199.467 507.273C198.75 510.178 198.073 512.575 191.016 513.773C198.177 443.222 208.972 373.049 215.066 302.394C218.439 302.186 221.369 301.469 224.82 302.394V302.407Z" fill="#65A5FF"/>
<path d="M172.809 518.333C168.004 518.046 163.239 518.007 158.512 517.03C161.116 489.349 163.538 461.238 164.358 433.453C164.84 417.196 162.952 327.614 164.358 322.234C164.762 320.697 180.531 304.817 183.214 302.395C185.349 302.903 182.576 311.265 181.911 317.674C177.732 358.004 180.141 409.615 178.005 451C176.846 473.392 172.953 496.019 172.809 518.32V518.333Z" fill="#65A5FF"/>
<path d="M226.12 295.256L226.771 295.907C225.143 297.561 225.638 299.789 225.469 301.756C225.469 301.808 224.896 301.534 224.818 302.407C221.367 301.482 218.437 302.199 215.065 302.407C214.908 302.407 215.573 301.743 211.809 302.407C205.559 303.514 203.176 305.546 202.707 305.664C197.59 306.875 201.223 303.931 200.754 294.604C205.285 294.226 223.763 292.598 226.107 295.256H226.12Z" fill="#65A5FF"/>
<path d="M211.822 302.408C202.421 332.629 193.527 375.72 189.074 407.114C188.214 401.929 185.258 400.692 185.167 400.288C184.204 396.08 199.999 327.991 202.069 316.385C202.577 313.558 203.463 308.295 202.72 305.651C203.189 305.534 205.572 303.502 211.822 302.395V302.408Z" fill="#9FC6FF"/>
<path d="M233.921 296.558L226.772 295.907L226.121 295.256C227.137 293.484 227.202 290.475 227.423 290.058C228.504 287.987 230.64 287.075 232.619 286.15C233.14 289.628 233.374 293.093 233.921 296.558Z" fill="#5DAAA2"/>
<path d="M233.919 296.559C234.088 297.614 235.13 296.988 235.221 297.536C235.859 301.496 234.531 302.173 234.57 302.407C231.979 302.316 229.361 302.525 226.77 302.407C226.054 302.368 225.416 302.616 225.468 301.756C225.637 299.789 225.142 297.562 226.77 295.907L233.919 296.559Z" fill="#F6F7F3"/>
<path d="M234.571 302.407C235.288 306.719 245.796 331.404 231.642 334.27C223.711 335.872 226.902 324.89 224.167 313.453C224.232 312.815 224.102 312.138 224.167 311.499C241.447 301.573 221.628 309.063 226.772 302.394C229.363 302.511 231.98 302.303 234.571 302.394V302.407Z" fill="#FBDBC6"/>
<path d="M226.772 302.407C221.629 309.077 241.461 301.587 224.168 311.513C224.467 308.53 224.546 305.403 224.819 302.407C224.897 301.534 225.47 301.808 225.47 301.756C225.418 302.616 226.043 302.368 226.772 302.407Z" fill="#FEC4B0"/>
<path d="M561.592 98.1803C561.462 97.8547 559.652 96.4869 558.337 92.0058C551.566 68.8058 566.189 64.7546 553.467 57.8637C542.919 56.3396 547.008 70.0694 537.216 68.2718C532.176 66.1354 532.528 56.1051 531.044 49.4096C529.885 39.9133 536.734 41.4635 542.424 36.3962C551.552 28.2677 548.115 18.7585 548.597 17.8596C550.133 15.0329 558.389 18.016 559.652 14.9287C578.768 21.8066 576.424 29.2708 577.205 30.2087C577.713 30.8209 581.359 31.6546 582.075 32.4883C602.402 55.8576 571.775 78.1197 561.592 98.1803Z" fill="#000019"/>
<path d="M559.653 14.9413C558.39 18.0285 550.147 15.0325 548.597 17.8722C548.103 18.771 551.553 28.2803 542.425 36.4088C536.748 41.463 529.885 39.9129 531.044 49.4221C530.523 47.0904 528.479 35.6662 527.789 34.7935C526.226 32.7744 521.005 34.3245 518.687 33.8165C500.86 29.9346 503.764 10.851 514.455 0C521.786 15.9704 536.709 6.70859 559.64 14.9543L559.653 14.9413Z" fill="#000019"/>
<path d="M581.099 308.907C580.369 330.362 563.819 398.672 563.546 408.742C563.324 416.61 572.517 451.338 573.95 467.921C574.679 476.375 575.304 505.827 574.601 513.122C573.26 526.969 568.884 523.739 547.62 522.879C543.206 520.886 545.172 518.593 544.69 515.076C548.05 516.066 541.982 523.465 553.792 521.902C550.928 463.934 522.15 414.069 530.393 354.747L538.193 354.422C540.029 354.539 545.706 354.656 546.644 354.422C554.886 352.416 560.186 323.81 560.941 316.046C568.038 317.166 566.033 316.45 570.043 308.243C572.595 307.527 580.552 308.96 581.099 308.894V308.907Z" fill="#7244DC"/>
<path d="M521.942 305.664C528.088 306.693 539.13 303.658 538.844 307.618C538.362 307.683 538.049 308.035 537.541 308.269C534.807 309.52 526.434 321.204 525.835 324.2C524.832 329.242 528.179 335.546 522.905 334.283C524.155 346.397 522.684 353.484 538.179 354.448L530.38 354.773C522.137 414.083 550.928 463.948 553.779 521.928C541.969 523.491 548.037 516.079 544.677 515.102C544.508 513.852 544.143 512.328 544.026 511.194C542.919 500.617 543.193 489.583 541.422 479.006C540.159 471.412 537.281 464.026 535.575 456.562C531.708 439.692 526.655 424.308 524.52 406.801C523.413 397.734 520.926 360.596 520.613 350.214C520.197 336.081 524.611 316.059 518.66 303.71C520.08 304.426 520.014 305.338 521.916 305.664H521.942Z" fill="#592BC3"/>
<path d="M507.629 283.545C507.642 288.339 516.145 298.447 518.684 303.71C524.635 316.059 520.221 336.08 520.638 350.214C520.937 360.596 523.437 397.721 524.544 406.801C526.68 424.308 531.732 439.692 535.599 456.561C536.902 464.052 537.019 510.269 538.204 512.822C538.477 513.409 539.584 513.083 540.157 513.148C534.141 515.753 518.88 513.265 518.046 511.52C517.76 510.921 518.268 508.537 518.046 507.286C516.38 497.79 515.82 440.174 514.14 417.86C511.418 381.516 505.468 345.251 502.434 308.92C503.007 308.79 505.403 307.891 505.689 307.292C504.908 301.039 506.614 284.782 506.34 283.558H507.642L507.629 283.545Z" fill="#7244DC"/>
<path d="M390.606 193.793C390.658 196.829 390.528 199.864 390.606 202.899C387.872 209.633 392.091 211.731 382.806 210.702C382.35 210.65 381.66 209.686 379.551 210.05C380.319 208.07 380.619 205.673 380.853 203.55C381.4 198.431 380.189 196.138 380.202 195.747C380.202 195.513 381.048 194.992 380.527 191.201C392.025 191.67 390.046 193.715 390.606 193.806V193.793Z" fill="#F6F7F3"/>
<path d="M391.256 216.55C386.06 215.964 384.432 219.09 382.805 210.701C392.089 211.717 387.87 209.633 390.605 202.898C390.722 207.484 391.204 211.978 391.256 216.55Z" fill="#BA9EFA"/>
<path d="M560.942 316.06C560.187 323.823 554.874 352.429 546.644 354.435L529.742 348.912C531.122 335.534 536.578 323.107 540.146 310.211C541.644 310.771 559.887 315.89 560.955 316.06H560.942Z" fill="#FBDBC6"/>
<path d="M540.145 310.211C536.578 323.107 531.135 335.534 529.741 348.912L546.643 354.435C545.706 354.67 540.028 354.553 538.192 354.435C522.697 353.471 524.168 346.385 522.918 334.271C528.192 335.534 524.845 329.229 525.848 324.188C526.447 321.192 534.82 309.507 537.554 308.257C538.114 308.869 539.481 309.95 540.159 310.211H540.145Z" fill="#FEC4B0"/>
<path d="M537.542 115.739C533.284 115.843 535.406 110.086 534.937 104.029C535.354 103.924 538.935 100.524 542.737 100.446C541.001 105.544 539.269 110.637 537.542 115.726V115.739Z" fill="#FEC4B0"/>
<path d="M531.044 49.4092C532.528 56.1048 532.177 66.1351 537.216 68.2714C547.008 70.0691 542.92 56.3393 553.467 57.8633C566.202 64.7543 551.566 68.8055 558.337 92.0055C559.639 96.4866 561.462 97.8544 561.592 98.18C562.842 101.45 564.04 104.745 565.499 107.937C555.993 110.672 546.774 111.78 537.542 115.74C539.278 110.642 541.01 105.549 542.737 100.46C538.935 100.525 535.354 103.925 534.937 104.042C534.586 104.133 529.481 104.511 527.788 104.693C525.77 97.5938 524.525 77.9573 522.754 74.4792C518.626 66.3638 507.629 74.4792 506.395 64.98C506.981 61.7784 506.399 61.8136 506.98 58.5147C507.28 55.714 507.332 52.9263 507.631 50.0605L523.231 46.4783L508.282 44.85C510.613 40.0042 515.535 37.8288 518.686 33.7906C521.004 34.2986 526.226 32.7485 527.788 34.7676C528.466 35.6534 530.523 47.0645 531.044 49.3962V49.4092Z" fill="#FBDBC6"/>
<path d="M507.631 50.0608C507.852 47.9766 506.276 49.0187 508.282 44.8633L523.23 46.4916L507.631 50.0738V50.0608Z" fill="#2D1607"/>
<path d="M550.226 61.7578C554.042 61.8229 555.331 65.3791 555.096 68.5836C541.45 84.8406 549.81 73.195 550.226 61.7578Z" fill="#FFB59C"/>
<path d="M508.281 65.0152C506.549 74.4853 519.753 65.6925 523.881 73.7949C525.639 77.26 525.769 97.5942 527.787 104.694C497.551 107.95 505.377 97.4118 503.085 83.5517C502.903 82.4575 498.905 78.8362 499.83 74.4463C500.156 72.8831 504.947 70.1997 506.328 65.0152C506.953 64.937 507.695 65.1454 508.281 65.0152Z" fill="#FBDBC6"/>
<path d="M513.813 83.8777C521.574 83.7605 513.878 89.5182 507.641 86.1574C507.576 84.9459 513.488 83.8908 513.813 83.8777Z" fill="#000019"/>
<path d="M575.253 128.753C567.102 127.946 577.61 131.723 581.751 142.73C588.509 160.707 587.988 231.401 585.006 251.996C583.287 263.863 566.945 312.152 563.221 312.803C562.349 312.959 548.884 309.338 545.994 308.895C548.845 297.797 568.208 252.53 568.742 248.088C569.367 242.955 560.174 162.921 560.942 144.997C561.398 143.017 562.778 141.389 561.919 141.089C560.786 143.03 555.356 145.036 555.096 142.717C561.594 130.342 573.743 117.759 563.221 125.484C554.393 131.971 523.167 167.689 518.688 179.465C520.042 173.186 525.459 148.684 527.139 145.323C530.173 139.239 538.181 138.302 536.892 132.635C549.158 120.898 548.937 116.508 566.802 110.516C566.841 110.607 567.805 110.243 568.104 110.842C570.774 116.274 573.261 122.956 575.253 128.727V128.753Z" fill="#BA9EFA"/>
<path d="M493.335 202.248C487.306 206.846 480.404 212.291 472.852 213.959C461.783 216.395 403.499 217.945 391.259 216.564C391.207 211.979 390.725 207.498 390.608 202.912C390.53 199.877 390.66 196.842 390.608 193.807C396.129 194.667 460.26 195.552 463.75 194.458C467.37 193.325 482.761 161.332 510.888 135.279C506.968 145.609 501.343 155.405 498.53 166.178C496.278 174.84 493.66 193.221 493.335 202.274V202.248Z" fill="#AE8EF9"/>
<path d="M532.347 119.647C531.566 120.676 531.787 121.536 531.696 121.601C531.371 121.835 527.79 122.317 525.198 126.473C524.039 128.323 513.974 161.514 512.841 166.151C504.247 201.518 503.231 238.044 499.832 274.114C500.51 275.755 506.213 282.985 506.33 283.545C506.604 284.782 504.898 301.039 505.679 307.279C505.406 307.878 502.997 308.777 502.424 308.907C501.083 309.22 492.619 309.272 492.02 307.93C493.105 272.264 494.19 236.602 495.275 200.945C496.838 199.72 498.27 200.893 499.181 199.316C500.249 197.454 504.13 165.044 506.33 157.046C508.869 147.823 513.87 139.161 516.734 130.055C521.005 126.525 525.954 121.744 530.707 118.996C531.957 118.279 532.256 119.686 532.334 119.647H532.347Z" fill="#AE8EF9"/>
<path d="M575.255 128.752C579.083 129.13 586.727 134.627 588.901 138.183C600.477 157.007 589.552 249.767 583.055 273.788C580.242 284.183 574.773 298.577 570.046 308.256C566.035 316.463 568.041 317.179 560.944 316.059C559.876 315.889 541.633 310.77 540.136 310.21C539.458 309.949 538.091 308.868 537.531 308.256C538.039 308.021 538.352 307.683 538.833 307.605C541.281 307.24 543.651 308.543 545.982 308.907C548.873 309.35 562.337 312.958 563.21 312.815C566.934 312.164 583.263 263.875 584.995 252.008C587.99 231.413 588.498 160.719 581.739 142.743C577.599 131.722 567.077 127.958 575.242 128.765L575.255 128.752Z" fill="#D1BFFB"/>
<path d="M495.289 200.945C494.716 201.401 493.922 201.805 493.336 202.248C493.661 193.195 496.279 174.814 498.532 166.152C501.344 155.379 506.956 145.583 510.889 135.253C512.855 133.429 514.665 131.762 516.736 130.056C513.871 139.161 508.871 147.824 506.331 157.046C504.118 165.045 500.237 197.454 499.183 199.317C498.284 200.893 496.839 199.708 495.276 200.945H495.289Z" fill="#976EF7"/>
<path d="M566.801 110.542C548.936 116.534 549.17 120.911 536.891 132.661C536.357 130.329 532.307 124.936 531.695 121.601C531.773 121.536 531.565 120.689 532.346 119.647C534.664 118.371 537.06 115.948 537.542 115.739C546.774 111.779 555.994 110.672 565.499 107.937C565.89 108.783 566.372 109.669 566.801 110.542Z" fill="#F3EFFE"/>
<path d="M581.098 308.908C580.551 308.973 572.595 307.54 570.043 308.257C574.77 298.578 580.226 284.184 583.052 273.789C583.507 273.789 584.184 273.619 584.354 274.114C584.914 275.717 584.289 306.355 583.703 307.931C583.651 308.061 581.333 308.882 581.098 308.908Z" fill="#BA9EFA"/>
<path d="M545.992 308.908C543.648 308.556 541.291 307.253 538.843 307.605C539.13 303.658 528.075 306.68 521.941 305.651C531.69 287.336 541.443 269.017 551.201 250.693C551.982 247.866 547.581 249.507 542.099 249.065L541.773 247.762C526.095 248.4 539.742 245.43 550.875 237.354C567.465 225.33 563.233 219.547 552.503 248.739C556.943 254.223 567.308 226.373 563.884 223.702C558.962 227.128 553.532 230.072 548.61 233.459C548.714 201.714 553.87 175.465 560.967 145.01C560.199 162.921 569.392 242.968 568.767 248.101C568.22 252.543 548.857 297.822 546.018 308.908H545.992Z" fill="#A37EF8"/>
<path d="M531.696 121.602C532.308 124.923 536.37 130.329 536.891 132.661C538.18 138.327 530.172 139.265 527.138 145.349C525.458 148.709 520.041 173.212 518.687 179.491C516.799 188.232 514.559 196.568 513.492 205.505C511.096 225.461 511.747 245.652 510.236 265.66C510.041 268.227 511.564 269.972 511.538 270.207C511.473 270.91 507.606 276.121 507.632 283.546H506.33C506.2 282.985 500.509 275.756 499.832 274.114C503.231 238.044 504.233 201.518 512.841 166.152C513.973 161.514 524.039 128.323 525.198 126.473C527.802 122.305 531.37 121.836 531.696 121.602Z" fill="#7244DC"/>
<path d="M560.944 145.01C545.127 165.175 529.306 185.335 513.48 205.491C514.548 196.555 516.801 188.218 518.676 179.478C523.156 167.702 554.381 131.983 563.21 125.496C573.718 117.772 561.582 130.355 555.084 142.73C555.345 145.049 560.788 143.043 561.908 141.102C562.767 141.388 561.387 143.03 560.931 145.01H560.944Z" fill="#A37EF8"/>
<path d="M548.599 233.472C542.205 237.862 536.606 243.645 529.744 247.449C529.796 248.439 539.757 248.882 542.101 249.077C547.583 249.52 551.984 247.879 551.203 250.706C541.454 269.021 531.701 287.34 521.944 305.664C520.042 305.351 520.121 304.426 518.688 303.71C516.162 298.447 507.659 288.339 507.633 283.545C507.607 276.133 511.461 270.922 511.539 270.206C511.565 269.972 510.042 268.213 510.237 265.66C511.735 245.638 511.097 225.46 513.493 205.504C529.309 185.339 545.131 165.179 560.956 145.022C553.872 175.491 548.716 201.726 548.599 233.472Z" fill="#BA9EFA"/>
<path d="M542.1 249.077C539.756 248.895 529.794 248.452 529.742 247.449C536.605 243.645 542.204 237.862 548.597 233.472C553.52 230.085 558.963 227.141 563.872 223.715C567.296 226.385 556.944 254.236 552.491 248.752C563.221 219.572 567.453 225.343 550.863 237.366C539.73 245.443 526.083 248.413 541.761 247.775L542.087 249.077H542.1Z" fill="#A37EF8"/>
<ellipse cx="511.146" cy="61.2853" rx="2.63867" ry="4.22187" fill="white"/>
<circle cx="511.146" cy="60.7578" r="2.63867" fill="#000019"/>
</g>
</g>
<defs>
<radialGradient id="paint0_radial_1100_24334" cx="0" cy="0" r="1" gradientUnits="userSpaceOnUse" gradientTransform="translate(394.5 453.5) rotate(90) scale(384.5)">
<stop/>
<stop offset="1" stop-color="white" stop-opacity="0"/>
</radialGradient>
<radialGradient id="paint1_radial_1100_24334" cx="0" cy="0" r="1" gradientUnits="userSpaceOnUse" gradientTransform="translate(510.5 251.5) rotate(90) scale(235.5)">
<stop stop-color="#E3ECFF"/>
<stop offset="1" stop-color="#E3ECFF" stop-opacity="0"/>
</radialGradient>
<radialGradient id="paint2_radial_1100_24334" cx="0" cy="0" r="1" gradientUnits="userSpaceOnUse" gradientTransform="translate(274.5 458.5) rotate(90) scale(274.5)">
<stop stop-color="#E3ECFF"/>
<stop offset="1" stop-color="#E3ECFF" stop-opacity="0"/>
</radialGradient>
<clipPath id="clip0_1100_24334">
<rect width="794" height="369" fill="white"/>
</clipPath>
<clipPath id="clip1_1100_24334">
<rect width="465" height="369" fill="white" transform="translate(129)"/>
</clipPath>
</defs>
</svg>
