<svg width="517" height="376" viewBox="0 0 517 376" fill="none" xmlns="http://www.w3.org/2000/svg">
<path d="M31.25 367.199C30.1799 367.199 29.2685 366.908 28.5156 366.325C27.7628 365.738 27.1875 364.888 26.7898 363.776C26.392 362.658 26.1932 361.309 26.1932 359.727C26.1932 358.155 26.392 356.813 26.7898 355.7C27.1922 354.583 27.7699 353.731 28.5227 353.143C29.2803 352.552 30.1894 352.256 31.25 352.256C32.3106 352.256 33.2173 352.552 33.9702 353.143C34.7277 353.731 35.3054 354.583 35.7031 355.7C36.1056 356.813 36.3068 358.155 36.3068 359.727C36.3068 361.309 36.108 362.658 35.7102 363.776C35.3125 364.888 34.7372 365.738 33.9844 366.325C33.2315 366.908 32.3201 367.199 31.25 367.199ZM31.25 365.636C32.3106 365.636 33.1345 365.125 33.7216 364.102C34.3087 363.08 34.6023 361.621 34.6023 359.727C34.6023 358.468 34.4673 357.395 34.1974 356.51C33.9323 355.625 33.5488 354.95 33.0469 354.486C32.5497 354.022 31.9508 353.79 31.25 353.79C30.1989 353.79 29.3774 354.308 28.7855 355.345C28.1937 356.377 27.8977 357.838 27.8977 359.727C27.8977 360.987 28.0303 362.057 28.2955 362.938C28.5606 363.818 28.9418 364.488 29.4389 364.947C29.9408 365.407 30.5445 365.636 31.25 365.636Z" fill="#98A8B6"/>
<path d="M1.62678 23V21.7216L6.42791 16.4659C6.99136 15.8504 7.45537 15.3153 7.81996 14.8608C8.18454 14.4015 8.45443 13.9706 8.62962 13.5682C8.80954 13.161 8.8995 12.7348 8.8995 12.2898C8.8995 11.7784 8.7764 11.3357 8.53018 10.9616C8.28871 10.5876 7.95727 10.2988 7.53587 10.0952C7.11447 9.89157 6.64098 9.78977 6.11541 9.78977C5.5567 9.78977 5.06901 9.90578 4.65234 10.1378C4.24041 10.3651 3.92081 10.6847 3.69354 11.0966C3.471 11.5085 3.35973 11.9915 3.35973 12.5455H1.68359C1.68359 11.6932 1.88009 10.9451 2.27308 10.3011C2.66607 9.6572 3.20111 9.1553 3.8782 8.79545C4.56001 8.43561 5.32469 8.25568 6.17223 8.25568C7.0245 8.25568 7.77971 8.43561 8.43786 8.79545C9.096 9.1553 9.6121 9.64062 9.98615 10.2514C10.3602 10.8622 10.5472 11.5417 10.5472 12.2898C10.5472 12.8248 10.4502 13.348 10.256 13.8594C10.0666 14.366 9.7352 14.9318 9.26172 15.5568C8.79297 16.1771 8.14193 16.9347 7.30859 17.8295L4.04155 21.3239V21.4375H10.8029V23H1.62678ZM13.0827 20.017V18.5682L19.4748 8.45455H20.5259V10.6989H19.8157L14.9862 18.3409V18.4545H23.5941V20.017H13.0827ZM19.9293 23V19.5767V18.902V8.45455H21.6055V23H19.9293ZM33.6705 20.2727V19.5057C33.6705 18.9754 33.7794 18.4901 33.9972 18.0497C34.2197 17.6046 34.5417 17.2495 34.9631 16.9844C35.3892 16.7145 35.9053 16.5795 36.5114 16.5795C37.1269 16.5795 37.643 16.7145 38.0597 16.9844C38.4763 17.2495 38.7912 17.6046 39.0043 18.0497C39.2173 18.4901 39.3239 18.9754 39.3239 19.5057V20.2727C39.3239 20.803 39.215 21.2907 38.9972 21.7358C38.7841 22.1761 38.4669 22.5312 38.0455 22.8011C37.6288 23.0663 37.1174 23.1989 36.5114 23.1989C35.8958 23.1989 35.3774 23.0663 34.956 22.8011C34.5346 22.5312 34.215 22.1761 33.9972 21.7358C33.7794 21.2907 33.6705 20.803 33.6705 20.2727ZM35.1193 19.5057V20.2727C35.1193 20.7131 35.2235 21.1084 35.4318 21.4588C35.6402 21.8045 36 21.9773 36.5114 21.9773C37.0085 21.9773 37.3589 21.8045 37.5625 21.4588C37.7708 21.1084 37.875 20.7131 37.875 20.2727V19.5057C37.875 19.0653 37.7756 18.6723 37.5767 18.3267C37.3778 17.9763 37.0227 17.8011 36.5114 17.8011C36.0142 17.8011 35.6567 17.9763 35.4389 18.3267C35.2259 18.6723 35.1193 19.0653 35.1193 19.5057ZM26.4261 11.9489V11.1818C26.4261 10.6515 26.535 10.1662 26.7528 9.72585C26.9754 9.28078 27.2973 8.92566 27.7188 8.66051C28.1449 8.39062 28.661 8.25568 29.267 8.25568C29.8826 8.25568 30.3987 8.39062 30.8153 8.66051C31.232 8.92566 31.5469 9.28078 31.7599 9.72585C31.973 10.1662 32.0795 10.6515 32.0795 11.1818V11.9489C32.0795 12.4792 31.9706 12.9669 31.7528 13.4119C31.5398 13.8523 31.2225 14.2074 30.8011 14.4773C30.3845 14.7424 29.8731 14.875 29.267 14.875C28.6515 14.875 28.133 14.7424 27.7116 14.4773C27.2902 14.2074 26.9706 13.8523 26.7528 13.4119C26.535 12.9669 26.4261 12.4792 26.4261 11.9489ZM27.875 11.1818V11.9489C27.875 12.3892 27.9792 12.7846 28.1875 13.1349C28.3958 13.4806 28.7557 13.6534 29.267 13.6534C29.7642 13.6534 30.1146 13.4806 30.3182 13.1349C30.5265 12.7846 30.6307 12.3892 30.6307 11.9489V11.1818C30.6307 10.7415 30.5312 10.3485 30.3324 10.0028C30.1335 9.65246 29.7784 9.47727 29.267 9.47727C28.7699 9.47727 28.4124 9.65246 28.1946 10.0028C27.9815 10.3485 27.875 10.7415 27.875 11.1818ZM26.9659 23L36.9659 8.45455H38.5852L28.5852 23H26.9659Z" fill="#98A8B6"/>
<path d="M6.96307 180.455V195H5.2017V182.301H5.11648L1.56534 184.659V182.869L5.2017 180.455H6.96307ZM11.1463 195V193.722L15.9474 188.466C16.5109 187.85 16.9749 187.315 17.3395 186.861C17.7041 186.402 17.974 185.971 18.1491 185.568C18.3291 185.161 18.419 184.735 18.419 184.29C18.419 183.778 18.2959 183.336 18.0497 182.962C17.8082 182.588 17.4768 182.299 17.0554 182.095C16.634 181.892 16.1605 181.79 15.6349 181.79C15.0762 181.79 14.5885 181.906 14.1719 182.138C13.7599 182.365 13.4403 182.685 13.2131 183.097C12.9905 183.509 12.8793 183.991 12.8793 184.545H11.2031C11.2031 183.693 11.3996 182.945 11.7926 182.301C12.1856 181.657 12.7206 181.155 13.3977 180.795C14.0795 180.436 14.8442 180.256 15.6918 180.256C16.544 180.256 17.2992 180.436 17.9574 180.795C18.6155 181.155 19.1316 181.641 19.5057 182.251C19.8797 182.862 20.0668 183.542 20.0668 184.29C20.0668 184.825 19.9697 185.348 19.7756 185.859C19.5862 186.366 19.2547 186.932 18.7812 187.557C18.3125 188.177 17.6615 188.935 16.8281 189.83L13.5611 193.324V193.438H20.3224V195H11.1463ZM30.6705 192.273V191.506C30.6705 190.975 30.7794 190.49 30.9972 190.05C31.2197 189.605 31.5417 189.25 31.9631 188.984C32.3892 188.714 32.9053 188.58 33.5114 188.58C34.1269 188.58 34.643 188.714 35.0597 188.984C35.4763 189.25 35.7912 189.605 36.0043 190.05C36.2173 190.49 36.3239 190.975 36.3239 191.506V192.273C36.3239 192.803 36.215 193.291 35.9972 193.736C35.7841 194.176 35.4669 194.531 35.0455 194.801C34.6288 195.066 34.1174 195.199 33.5114 195.199C32.8958 195.199 32.3774 195.066 31.956 194.801C31.5346 194.531 31.215 194.176 30.9972 193.736C30.7794 193.291 30.6705 192.803 30.6705 192.273ZM32.1193 191.506V192.273C32.1193 192.713 32.2235 193.108 32.4318 193.459C32.6402 193.804 33 193.977 33.5114 193.977C34.0085 193.977 34.3589 193.804 34.5625 193.459C34.7708 193.108 34.875 192.713 34.875 192.273V191.506C34.875 191.065 34.7756 190.672 34.5767 190.327C34.3778 189.976 34.0227 189.801 33.5114 189.801C33.0142 189.801 32.6567 189.976 32.4389 190.327C32.2259 190.672 32.1193 191.065 32.1193 191.506ZM23.4261 183.949V183.182C23.4261 182.652 23.535 182.166 23.7528 181.726C23.9754 181.281 24.2973 180.926 24.7188 180.661C25.1449 180.391 25.661 180.256 26.267 180.256C26.8826 180.256 27.3987 180.391 27.8153 180.661C28.232 180.926 28.5469 181.281 28.7599 181.726C28.973 182.166 29.0795 182.652 29.0795 183.182V183.949C29.0795 184.479 28.9706 184.967 28.7528 185.412C28.5398 185.852 28.2225 186.207 27.8011 186.477C27.3845 186.742 26.8731 186.875 26.267 186.875C25.6515 186.875 25.133 186.742 24.7116 186.477C24.2902 186.207 23.9706 185.852 23.7528 185.412C23.535 184.967 23.4261 184.479 23.4261 183.949ZM24.875 183.182V183.949C24.875 184.389 24.9792 184.785 25.1875 185.135C25.3958 185.481 25.7557 185.653 26.267 185.653C26.7642 185.653 27.1146 185.481 27.3182 185.135C27.5265 184.785 27.6307 184.389 27.6307 183.949V183.182C27.6307 182.741 27.5312 182.348 27.3324 182.003C27.1335 181.652 26.7784 181.477 26.267 181.477C25.7699 181.477 25.4124 181.652 25.1946 182.003C24.9815 182.348 24.875 182.741 24.875 183.182ZM23.9659 195L33.9659 180.455H35.5852L25.5852 195H23.9659Z" fill="#98A8B6"/>
<path d="M117.357 333.196L50 357.841V376H507V42L454.143 112.691L386.786 244.994L319.429 274.827L252.072 289.095L184.714 315.685L117.357 333.196Z" fill="url(#paint0_linear_1067_8497)"/>
<path d="M50 359L117.357 334.265L184.714 316.69L252.072 290.002L319.429 275.682L386.786 245.739L454.143 112.951L507 42" stroke="url(#paint1_linear_1067_8497)" stroke-width="5" stroke-linecap="round" stroke-linejoin="round"/>
<path d="M50 0C50 4.47761 50 251.866 50 375H507" stroke="#E1E9F0"/>
<circle cx="508" cy="41" r="9" fill="#C5DDFF" fill-opacity="0.3"/>
<circle cx="508" cy="41" r="4" fill="#4391FF"/>
<defs>
<linearGradient id="paint0_linear_1067_8497" x1="278.5" y1="42" x2="278.5" y2="376" gradientUnits="userSpaceOnUse">
<stop stop-color="#9FC6FF"/>
<stop offset="1" stop-color="white"/>
</linearGradient>
<linearGradient id="paint1_linear_1067_8497" x1="507.468" y1="42.6509" x2="1.54696" y2="223.315" gradientUnits="userSpaceOnUse">
<stop stop-color="#3F8EFF"/>
<stop offset="1" stop-color="white"/>
</linearGradient>
</defs>
</svg>
