<svg width="167" height="40" viewBox="0 0 167 40" fill="none" xmlns="http://www.w3.org/2000/svg">
<path fill-rule="evenodd" clip-rule="evenodd" d="M47.2262 23.4564C47.2262 23.4564 40.3044 31.8856 28.681 33.4836C14.9271 35.3465 7.65066 27.8034 10.2237 19.7288C11.2005 16.6235 10.1348 15.3809 9.42464 15.0254C2.94722 12.1867 -5.74859 28.8681 5.25357 36.5881C8.271 38.7185 13.1513 41.024 22.6461 39.5157C26.7283 38.8954 39.2396 36.2335 47.2262 23.4564Z" fill="#2B73B9"/>
<path fill-rule="evenodd" clip-rule="evenodd" d="M0.0187988 16.6225C0.0187988 16.6225 6.85083 8.10449 18.4761 6.50643C32.229 4.64265 39.5944 12.2737 36.9325 20.3492C35.9566 23.4555 37.1102 24.698 37.7315 24.9637C44.2978 27.8913 52.9936 11.2099 41.9026 3.48993C38.8852 1.36042 34.0049 -1.03574 24.51 0.473438C20.5167 1.09377 7.91651 3.75659 0.0187988 16.6225Z" fill="#2B73B9"/>
<path fill-rule="evenodd" clip-rule="evenodd" d="M17.8548 29.2228C17.8548 29.2228 17.7668 29.3996 18.1214 29.6672C18.8316 30.1987 21.8481 31.5301 27.2608 30.9986C27.2608 30.9986 27.6163 30.9986 27.7042 30.5542C27.7042 29.9339 27.4376 29.1348 28.4144 29.1348L30.6328 29.2237C30.6328 29.2237 31.8753 29.3126 31.8753 27.7155C31.7864 26.2072 31.9633 25.2304 31.9633 25.2304C31.9633 25.2304 31.8753 24.6101 32.3188 24.6101C32.6743 24.6101 33.1169 24.5194 33.3836 24.5194C34.3594 24.4305 34.2705 23.8101 34.0937 23.3676L32.6743 20.0835C32.6743 20.0835 32.2299 19.4632 32.2299 18.4864C32.2299 17.2448 31.254 12.6293 27.5274 10.5007C23.7119 8.37026 15.1929 8.37026 13.0625 16.1791C11.8199 20.9705 15.2809 24.6092 15.2809 24.6092C15.2809 24.6092 18.0316 26.7387 17.8548 29.2228Z" fill="#2B73B9"/>
<path fill-rule="evenodd" clip-rule="evenodd" d="M27.5273 24.8757L23.7118 21.325L23.0017 26.5608L22.3795 21.4148L18.5649 24.8757L21.2268 20.6158L16.1687 20.7936L20.8712 19.1075L16.9677 16.0901L21.5814 17.6882L20.6944 12.9847L23.0017 17.1549L25.3978 12.9847L24.5099 17.865L29.1235 16.0901L25.1312 19.1964L29.9226 20.7936L24.7756 20.5269L27.5273 24.8757Z" fill="white"/>
<path fill-rule="evenodd" clip-rule="evenodd" d="M63.9965 17.4215H60.6245V13.1625H58.0515V17.4215H54.7683V6.50732H58.0515V10.5006H60.6245V6.50732H63.9965V17.4215ZM70.385 17.4215V16.0901C70.0304 17.1549 68.9657 17.5993 67.9009 17.5993C67.1908 17.5993 66.5695 17.4215 66.0371 16.978C65.5048 16.3577 65.4159 15.6466 65.4159 14.9374V9.2581H68.6111V14.2282C68.6111 14.7606 68.5222 15.2929 69.2314 15.2929C69.586 15.2929 69.8527 15.1152 70.0304 14.8495C70.2082 14.5828 70.2082 14.3171 70.2082 13.9615V9.2581H73.3136V17.4215H70.385ZM77.5735 9.25717V10.4117H77.6624C78.1059 9.52475 78.9049 9.08033 79.8808 9.08033C80.8567 9.08033 81.6557 9.52383 82.0992 10.4117C82.7205 9.52475 83.5195 9.08033 84.5842 9.08033C85.2953 9.08033 86.0036 9.34698 86.449 9.79047C87.0693 10.4117 87.0693 11.2098 87.0693 12.0978V17.4215H83.9639V12.5412C83.9639 12.0079 84.0528 11.3876 83.3426 11.3876C82.4557 11.3876 82.4557 12.2746 82.4557 12.8959V17.4215H79.3493V12.5412C79.3493 12.0079 79.3494 11.3876 78.6392 11.3876C77.8402 11.3876 77.8402 11.92 77.8402 12.5412V17.4215H74.7339V9.2581H77.5735V9.25717ZM93.368 13.7828C93.368 14.6698 93.368 15.7355 92.2144 15.7355C91.6829 15.7355 91.3265 15.4689 91.3265 14.9365C91.3265 13.9597 92.6588 13.694 93.368 13.6051V13.7828ZM96.74 17.4215C96.4743 16.8892 96.4743 16.2679 96.4743 15.6466V12.807C96.4743 11.6533 96.6512 10.5886 95.4975 9.79047C94.6985 9.25717 93.5449 9.08033 92.5681 9.08033C90.7052 9.08033 88.7525 9.6127 88.309 11.6543L91.2366 11.9209C91.3255 11.2996 91.8588 11.033 92.4792 11.033C93.1902 11.033 93.3671 11.2997 93.3671 12.0978C92.3023 12.1866 91.2367 12.2746 90.1737 12.6301C89.109 12.9847 88.0433 13.8727 88.0433 15.1152C88.0433 16.8003 89.3747 17.6002 90.882 17.6002C92.0357 17.6002 92.9236 17.2456 93.5439 16.2688C93.5439 16.7123 93.6328 17.0678 93.7208 17.4225H96.74V17.4215ZM100.999 9.25717V10.4117C101.354 9.52475 102.33 9.08033 103.306 9.08033C104.105 9.08033 104.991 9.34698 105.435 9.96824C105.968 10.6784 105.968 11.5654 105.968 12.4524V17.4215H102.773V12.4524C102.773 12.0089 102.773 11.2997 102.153 11.2997C101.265 11.2997 101.176 12.0978 101.176 12.719V17.4215H97.9826V9.2581H100.999V9.25717ZM113.954 13.3393V17.4215H110.672V6.50732H118.568V9.08033H113.954V10.8552H117.504V13.3393H113.954ZM123.804 13.7828C123.804 14.6698 123.715 15.7355 122.562 15.7355C122.03 15.7355 121.674 15.4689 121.674 14.9365C121.674 13.9597 123.005 13.694 123.804 13.6051V13.7828ZM127.087 17.4215C126.821 16.8892 126.821 16.2679 126.821 15.6466V12.807C126.821 11.6533 126.998 10.5886 125.844 9.79047C125.047 9.25717 123.893 9.08033 122.916 9.08033C121.053 9.08033 119.101 9.6127 118.657 11.6543L121.585 11.9209C121.674 11.2996 122.207 11.033 122.827 11.033C123.539 11.033 123.804 11.2997 123.804 12.0978C122.651 12.1866 121.586 12.2746 120.52 12.6301C119.455 12.9857 118.392 13.8727 118.392 15.1152C118.392 16.8003 119.723 17.6002 121.23 17.6002C122.384 17.6002 123.272 17.2456 123.892 16.2688C123.892 16.7123 123.981 17.0678 124.069 17.4225H127.087V17.4215ZM135.782 14.4041C135.517 16.4457 134.008 17.5993 131.878 17.5993C130.724 17.5993 129.749 17.3326 128.95 16.4457C128.062 15.6466 127.708 14.5819 127.708 13.3403C127.708 10.9441 129.393 9.08033 131.878 9.08033C133.919 9.08033 135.517 10.3228 135.782 12.3635L132.944 12.5412C132.855 11.92 132.678 11.2987 131.967 11.2987C130.992 11.2987 130.992 12.6292 130.992 13.3393C130.992 14.1375 130.992 15.38 132.055 15.38C132.766 15.38 133.032 14.7587 133.032 14.1375L135.782 14.4041ZM135.96 11.3876V9.25717H137.291L137.559 6.68417L140.31 6.59528V9.25717H141.907V11.3876H140.31V14.1384C140.31 14.7596 140.31 15.2031 141.019 15.2031C141.376 15.2031 141.641 15.1152 141.907 15.1152V17.3336L140.044 17.6002C139.245 17.6891 138.445 17.4225 137.826 16.8012C137.204 16.091 137.204 15.2939 137.204 14.406V11.3895H135.96V11.3876ZM147.229 11.121C148.294 11.121 148.294 12.5412 148.294 13.3393C148.294 15.4689 147.762 15.6466 147.229 15.6466C146.609 15.6466 146.075 15.4689 146.075 13.3393C146.075 12.5412 146.075 11.121 147.229 11.121ZM147.229 9.08033C144.656 9.08033 142.704 10.8552 142.704 13.4282C142.704 15.9133 144.744 17.5993 147.229 17.5993C149.714 17.5993 151.667 15.9133 151.667 13.4282C151.667 10.8552 149.714 9.08033 147.229 9.08033ZM155.305 10.9441C155.571 9.79047 156.191 8.99237 157.434 9.08033L157.878 9.17014V12.0089C157.7 12.0089 157.522 11.9209 157.256 11.9209C156.725 11.9209 156.279 12.0089 156.014 12.4524C155.748 12.8959 155.748 13.4292 155.748 13.8727V17.4215H152.642V9.2581H155.304V10.9441H155.305ZM160.807 14.7596C160.984 15.5587 161.872 15.6466 162.492 15.6466C162.847 15.6466 163.734 15.6466 163.734 15.1142C163.734 14.7587 162.67 14.6708 162.403 14.6708C160.629 14.4041 158.676 14.0495 158.676 11.8311C158.676 10.9441 159.121 10.234 159.919 9.70159C160.718 9.25809 161.604 9.08033 162.492 9.08033C164.091 9.08033 165.687 9.70159 166.219 11.2098L163.822 11.6533C163.557 11.121 162.936 10.9432 162.403 10.9432C162.137 10.9432 161.338 11.0321 161.338 11.3867C161.338 11.6533 161.604 11.7422 161.872 11.8302C162.137 11.9191 162.847 12.007 163.203 12.007C163.912 12.0959 164.8 12.1848 165.42 12.6283C166.132 13.0718 166.574 13.7819 166.574 14.6698C166.574 16.9771 164.178 17.5984 162.315 17.5984C160.541 17.5984 158.854 16.9771 158.234 15.1133L160.807 14.7596ZM54.7683 24.3424H56.1877V35.3455H54.7683V24.3424ZM62.0448 28.6913C62.4883 27.7145 63.3762 27.0043 64.5289 27.0043C65.5057 27.0043 66.3038 27.4488 66.8362 28.2469C67.2797 28.9579 67.2797 30.0227 67.2797 30.8199V35.3465H65.9492V30.2884C65.9492 29.8449 66.0371 29.2236 65.7714 28.869C65.5048 28.3376 64.8844 28.07 64.3511 28.07C63.7299 28.07 63.1086 28.4265 62.754 28.869C62.2216 29.4912 62.0438 30.2884 62.0438 31.0874V35.3465H60.8022V27.1821H62.0438V28.6913H62.0448ZM75.4431 35.4344L74.2895 35.5233C72.5145 35.5233 71.9822 34.4585 71.9822 32.8614V28.158H70.5628V27.1812H71.9822V25.1415L73.2247 25.0526V27.1812H74.9996V28.158H73.2247V33.0383C73.2247 34.015 73.4913 34.4576 74.5561 34.4576L75.4431 34.3687V35.4344ZM79.791 30.4652C79.791 29.1338 80.678 27.9802 82.0094 27.9802C83.5176 27.9802 84.2278 29.1338 84.2278 30.4652H79.791ZM84.3167 32.8614C83.9621 33.8382 83.163 34.4585 82.0983 34.4585C81.3002 34.4585 80.4123 34.015 80.0576 33.216C79.7021 32.5957 79.7021 31.9735 79.7021 31.3532H85.6472C85.6472 29.1348 84.5824 27.0043 82.0094 27.0043C79.6132 27.0043 78.2827 29.0459 78.2827 31.2652C78.2827 33.5725 79.5243 35.5242 82.0094 35.5242C83.6065 35.5242 85.0268 34.6363 85.4703 33.1281L84.3167 32.8614ZM90.7061 27.1812V29.1338H90.795C91.1496 27.9802 91.8598 27.0034 93.1023 27.0034H93.6337V28.2459H93.368C92.3912 28.2459 91.6829 28.6903 91.2376 29.4903C90.883 30.1106 90.883 30.6421 90.883 31.2643V35.3455H89.6404V27.1812H90.7061ZM98.3372 28.6913H98.4261C98.8696 27.7145 99.7575 27.0043 100.911 27.0043C101.888 27.0043 102.685 27.4488 103.218 28.2469C103.573 28.9579 103.573 30.0227 103.573 30.8199V35.3465H102.33V30.2884C102.33 29.8449 102.33 29.2236 102.065 28.869C101.799 28.3376 101.266 28.07 100.733 28.07C100.111 28.07 99.4908 28.4265 99.0464 28.869C98.5149 29.4912 98.4261 30.2884 98.4261 31.0874V35.3465H97.1835V27.1821H98.3372V28.6913ZM113.066 31.7957C113.066 33.2151 112.003 34.5465 110.493 34.5465C109.607 34.5465 108.719 34.103 108.719 33.1271C108.719 31.442 110.761 31.2643 112.003 31.2643H113.066V31.7957ZM112.003 30.2884C110.938 30.2884 109.785 30.3773 108.897 30.8199C108.455 30.9998 108.076 31.3064 107.807 31.7011C107.539 32.0958 107.393 32.561 107.389 33.0383C107.389 34.6354 108.72 35.5233 110.227 35.5233C111.47 35.5233 112.446 34.9918 113.066 33.8382L113.157 35.3465H114.399C114.309 34.815 114.221 34.1928 114.221 33.6614V30.4662C114.221 29.5783 114.221 28.5154 113.6 27.8043C112.978 27.0951 112.003 27.0053 111.115 27.0053C109.607 27.0053 107.831 27.5386 107.565 29.2236L108.719 29.4005C108.985 28.3376 109.962 27.9811 110.937 27.9811C112.446 27.9811 113.066 28.5144 113.066 29.9338V30.2884H112.003ZM122.207 35.4344L121.054 35.5233C119.278 35.5233 118.746 34.4585 118.746 32.8614V28.158H117.327V27.1812H118.746V25.1415L119.989 25.0526V27.1812H121.763V28.158H119.989V33.0383C119.989 34.015 120.254 34.4576 121.32 34.4576L122.208 34.3687V35.4344H122.207ZM125.757 27.1812H126.998V35.3455H125.757V27.1812ZM125.666 24.3424H127.086V25.7618H125.666V24.3424ZM134.719 34.4576C133.92 34.4576 133.298 34.103 132.944 33.4827C132.589 32.7716 132.5 31.9726 132.5 31.2643C132.5 30.5532 132.589 29.756 132.855 29.2227C133.026 28.8752 133.292 28.5828 133.622 28.3789C133.952 28.175 134.332 28.0676 134.719 28.0691C135.427 28.0691 136.049 28.4255 136.493 28.957C136.848 29.6681 136.937 30.4652 136.937 31.2643C136.937 31.8846 136.937 32.6836 136.582 33.304C136.411 33.6515 136.146 33.9439 135.816 34.1479C135.487 34.3518 135.107 34.4592 134.719 34.4576ZM134.629 35.5233C137.025 35.5233 138.355 33.4836 138.355 31.2643C138.355 29.1338 137.202 27.0034 134.806 27.0034C132.322 27.0034 131.081 28.9561 131.081 31.2643C131.081 33.3929 132.144 35.5233 134.629 35.5233ZM143.502 28.6913C143.947 27.7145 144.834 27.0043 145.987 27.0043C146.964 27.0043 147.763 27.4488 148.295 28.2469C148.738 28.9579 148.738 30.0227 148.738 30.8199V35.3465H147.407V30.2884C147.407 29.8449 147.497 29.2236 147.23 28.869C146.964 28.3376 146.342 28.07 145.81 28.07C145.19 28.07 144.568 28.4265 144.213 28.869C143.68 29.4912 143.502 30.2884 143.502 31.0874V35.3465H142.26V27.1821H143.502V28.6913ZM158.499 31.7957C158.499 33.2151 157.434 34.5465 155.926 34.5465C155.038 34.5465 154.152 34.103 154.152 33.1271C154.152 31.442 156.191 31.2643 157.434 31.2643H158.499V31.7957ZM157.434 30.2884C156.457 30.2884 155.215 30.3773 154.328 30.8199C153.886 30.9998 153.507 31.3064 153.239 31.7011C152.971 32.0958 152.825 32.561 152.82 33.0383C152.82 34.6354 154.152 35.5233 155.659 35.5233C156.902 35.5233 157.877 34.9918 158.498 33.8382L158.587 35.3465H159.829C159.74 34.815 159.652 34.1928 159.652 33.6614V30.4662C159.652 29.5783 159.652 28.5154 159.03 27.8043C158.41 27.0951 157.433 27.0053 156.547 27.0053C155.037 27.0053 153.263 27.5386 152.997 29.2236L154.24 29.4005C154.416 28.3376 155.393 27.9811 156.457 27.9811C157.878 27.9811 158.499 28.5144 158.499 29.9338V30.2884H157.434ZM164 24.3424H165.243V35.3455H164V24.3424Z" fill="#2B2B2D"/>
</svg>
