<svg width="149" height="40" viewBox="0 0 149 40" fill="none" xmlns="http://www.w3.org/2000/svg">
<g clip-path="url(#clip0_1080_17977)">
<path d="M80.0469 20.0471L60.0469 0V40.0471L80.0469 20.0471Z" fill="#666D80"/>
<path d="M40.0469 20.0471L60.0469 0H20.0469L40.0469 20.0471Z" fill="#666D80"/>
<path d="M0 20.0471L20.0471 40.0471V0L0 20.0471Z" fill="#666D80"/>
<path d="M40.0469 20.0469L20.0469 40.0469H60.0469L40.0469 20.0469Z" fill="#666D80"/>
<path d="M97.6011 21.2235H90.354V28.3765H86.7305V11.6235H90.354V18.4941H97.6011V11.6235H101.225V28.3765H97.6011V21.2235Z" fill="#666D80"/>
<path d="M109.975 28.706C106.352 28.706 103.387 27.2472 103.34 23.2472H106.963C107.01 25.0354 108.046 26.1178 110.022 26.1178C111.481 26.1178 113.175 25.3648 113.175 23.7178C113.175 22.4001 112.046 22.0237 110.163 21.459L108.94 21.1295C106.305 20.3766 103.669 19.3413 103.669 16.3295C103.669 12.6119 107.152 11.3413 110.305 11.3413C113.552 11.3413 116.375 12.4707 116.422 16.1884H112.799C112.657 14.6825 111.763 13.7884 110.069 13.7884C108.705 13.7884 107.387 14.4942 107.387 16.0001C107.387 17.2237 108.516 17.6001 110.869 18.3531L112.281 18.7766C115.152 19.6707 116.987 20.659 116.987 23.4825C116.94 27.2472 113.269 28.706 109.975 28.706Z" fill="#666D80"/>
<path d="M119.012 11.6708H124.847C125.929 11.6237 127.059 11.6708 128.141 11.859C130.165 12.3296 131.718 13.6473 131.718 15.9061C131.718 18.0708 130.353 19.1531 128.376 19.6708C130.635 20.0943 132.329 21.2237 132.329 23.7178C132.329 27.5296 128.565 28.3767 125.647 28.3767H119.059L119.012 11.6708ZM124.847 18.6355C126.447 18.6355 128.094 18.3061 128.094 16.3767C128.094 14.6355 126.588 14.1649 125.082 14.1649H122.541V18.6355H124.847V18.6355ZM125.176 25.8825C126.871 25.8825 128.518 25.5061 128.518 23.4355C128.518 21.3649 127.106 20.9884 125.365 20.9884H122.494V25.8825H125.176Z" fill="#666D80"/>
<path d="M141.741 28.7057C136.33 28.7057 133.93 25.2704 133.93 20.141C133.93 15.0116 136.612 11.2939 141.93 11.2939C145.271 11.2939 148.518 12.7998 148.612 16.5645H144.847C144.659 14.8704 143.53 14.0234 141.93 14.0234C138.636 14.0234 137.647 17.5528 137.647 20.2351C137.647 22.9175 138.636 26.0234 141.789 26.0234C143.436 26.0234 144.659 25.1292 144.894 23.4351H148.659C148.283 27.2939 145.224 28.7057 141.741 28.7057Z" fill="#666D80"/>
</g>
<defs>
<clipPath id="clip0_1080_17977">
<rect width="148.659" height="40" fill="white"/>
</clipPath>
</defs>
</svg>
