<svg width="149" height="40" viewBox="0 0 149 40" fill="none" xmlns="http://www.w3.org/2000/svg">
<g clip-path="url(#clip0_135_63)">
<path d="M60.0471 0H20.0471V40H60.0471V0Z" fill="white"/>
<path d="M80.0471 20.0471L60.0471 0V40.0471L80.0471 20.0471Z" fill="#DB0011"/>
<path d="M40.0471 20.0471L60.0471 0H20.0471L40.0471 20.0471Z" fill="#DB0011"/>
<path d="M0 20.0471L20.0471 40.0471V0L0 20.0471Z" fill="#DB0011"/>
<path d="M40.0471 20.0471L20.0471 40.0471H60.0471L40.0471 20.0471Z" fill="#DB0011"/>
<path d="M97.6001 21.2235H90.353V28.3765H86.7295V11.6235H90.353V18.4941H97.6001V11.6235H101.224V28.3765H97.6001V21.2235Z" fill="black"/>
<path d="M109.976 28.7059C106.353 28.7059 103.388 27.2471 103.341 23.2471H106.965C107.012 25.0353 108.047 26.1177 110.023 26.1177C111.482 26.1177 113.176 25.3647 113.176 23.7177C113.176 22.4 112.047 22.0235 110.165 21.4588L108.941 21.1294C106.306 20.3765 103.67 19.3412 103.67 16.3294C103.67 12.6118 107.153 11.3412 110.306 11.3412C113.553 11.3412 116.376 12.4706 116.423 16.1882H112.8C112.659 14.6824 111.765 13.7882 110.07 13.7882C108.706 13.7882 107.388 14.4941 107.388 16C107.388 17.2235 108.518 17.6 110.87 18.353L112.282 18.7765C115.153 19.6706 116.988 20.6588 116.988 23.4824C116.941 27.2471 113.27 28.7059 109.976 28.7059Z" fill="black"/>
<path d="M119.012 11.6705H124.847C125.929 11.6235 127.059 11.6705 128.141 11.8588C130.165 12.3294 131.718 13.647 131.718 15.9058C131.718 18.0705 130.353 19.1529 128.376 19.6705C130.635 20.0941 132.329 21.2235 132.329 23.7176C132.329 27.5294 128.565 28.3764 125.647 28.3764H119.059L119.012 11.6705ZM124.847 18.6352C126.447 18.6352 128.094 18.3058 128.094 16.3764C128.094 14.6352 126.588 14.1647 125.082 14.1647H122.541V18.6352H124.847ZM125.176 25.8823C126.871 25.8823 128.518 25.5058 128.518 23.4352C128.518 21.3647 127.106 20.9882 125.365 20.9882H122.494V25.8823H125.176Z" fill="black"/>
<path d="M141.741 28.7058C136.329 28.7058 133.929 25.2705 133.929 20.1411C133.929 15.0117 136.612 11.2941 141.929 11.2941C145.271 11.2941 148.518 12.8 148.612 16.5647H144.847C144.659 14.8705 143.529 14.0235 141.929 14.0235C138.635 14.0235 137.647 17.5529 137.647 20.2352C137.647 22.9176 138.635 26.0235 141.788 26.0235C143.435 26.0235 144.659 25.1294 144.894 23.4352H148.659C148.282 27.2941 145.224 28.7058 141.741 28.7058Z" fill="black"/>
</g>
<defs>
<clipPath id="clip0_135_63">
<rect width="148.659" height="40" fill="white"/>
</clipPath>
</defs>
</svg>
