<svg width="120" height="120" viewBox="0 0 120 120" fill="none" xmlns="http://www.w3.org/2000/svg">
<g filter="url(#filter0_d_607_40)">
<rect x="30" y="18" width="60" height="60" rx="12" fill="white"/>
<g filter="url(#filter1_b_607_40)">
<path d="M75.68 35H45.32C44.5899 35 44 35.4826 44 36.08V60.92C44 61.5174 44.5899 62 45.32 62H75.68C76.4101 62 77 61.5174 77 60.92V36.08C77 35.4826 76.4101 35 75.68 35ZM60.5454 48.7059L52.6254 54.1396C52.4109 54.2881 52.085 54.1632 52.085 53.9337V51.8176C52.085 51.74 52.1304 51.6624 52.2046 51.6118L56.7339 48.5L52.2046 45.3882C52.1667 45.3637 52.1362 45.3324 52.1155 45.2967C52.0947 45.261 52.0843 45.2219 52.085 45.1824V43.0663C52.085 42.8368 52.4109 42.7119 52.6254 42.8604L60.5454 48.2907C60.7062 48.3987 60.7062 48.5979 60.5454 48.7059ZM68.915 53.9337C68.915 54.0822 68.7747 54.2037 68.6056 54.2037H60.9744C60.8052 54.2037 60.665 54.0822 60.665 53.9337V52.3138C60.665 52.1653 60.8052 52.0438 60.9744 52.0438H68.6056C68.7747 52.0438 68.915 52.1653 68.915 52.3138V53.9337Z" fill="#40CAF4"/>
<path d="M51.085 45.177C51.0833 45.4027 51.1446 45.6163 51.2508 45.7991C51.3543 45.9773 51.4943 46.1166 51.646 46.2177L54.9679 48.5L51.6413 50.7855C51.6407 50.7859 51.64 50.7864 51.6394 50.7868C51.3456 50.9879 51.085 51.351 51.085 51.8176V53.9338C51.085 54.5851 51.5504 54.9723 51.918 55.1127C52.2926 55.2557 52.78 55.2478 53.1925 54.9632C53.1932 54.9628 53.1939 54.9623 53.1946 54.9618L61.1085 49.5323C61.4304 49.3136 61.666 48.9427 61.666 48.4983C61.666 48.0538 61.4303 47.6828 61.1083 47.4642L53.1946 42.0382L53.1909 42.0356L53.1921 42.0365C52.7796 41.7522 52.2924 41.7444 51.918 41.8873C51.5504 42.0277 51.085 42.4149 51.085 43.0662V45.177ZM51.085 45.177C51.085 45.1728 51.0851 45.1686 51.0852 45.1644L52.085 45.1824H51.085V45.177ZM52.0562 53.3174C52.0573 53.3166 52.0585 53.3158 52.0596 53.315L52.0562 53.3174ZM52.0599 43.6851L52.085 43.7024V43.7015C52.0766 43.6963 52.0682 43.6908 52.0599 43.6851ZM45.32 36H75.68C75.8289 36 75.9315 36.0498 75.9806 36.0899C75.9895 36.0973 75.9958 36.1033 76 36.1078V60.8922C75.9958 60.8967 75.9895 60.9027 75.9806 60.9101C75.9315 60.9502 75.8289 61 75.68 61H45.32C45.1711 61 45.0685 60.9502 45.0194 60.9101C45.0105 60.9027 45.0042 60.8967 45 60.8922V36.1078C45.0042 36.1033 45.0105 36.0973 45.0194 36.0899C45.0685 36.0498 45.1711 36 45.32 36ZM76.0079 36.1179C76.0078 36.118 76.0072 36.1171 76.0063 36.1153C76.0076 36.117 76.008 36.1179 76.0079 36.1179ZM76.0079 60.8821C76.008 60.8821 76.0076 60.883 76.0063 60.8847C76.0072 60.8829 76.0078 60.882 76.0079 60.8821ZM44.9921 60.8821C44.9922 60.882 44.9928 60.8829 44.9937 60.8847C44.9924 60.883 44.992 60.8821 44.9921 60.8821ZM44.9921 36.1179C44.992 36.1179 44.9924 36.117 44.9937 36.1153C44.9928 36.1171 44.9922 36.118 44.9921 36.1179ZM68.6056 55.2038C69.1926 55.2038 69.915 54.76 69.915 53.9338V52.3138C69.915 51.4875 69.1926 51.0438 68.6056 51.0438H60.9744C60.3874 51.0438 59.665 51.4875 59.665 52.3138V53.9338C59.665 54.76 60.3874 55.2038 60.9744 55.2038H68.6056Z" stroke="#161042" stroke-width="2"/>
</g>
</g>
<defs>
<filter id="filter0_d_607_40" x="0" y="0" width="120" height="120" filterUnits="userSpaceOnUse" color-interpolation-filters="sRGB">
<feFlood flood-opacity="0" result="BackgroundImageFix"/>
<feColorMatrix in="SourceAlpha" type="matrix" values="0 0 0 0 0 0 0 0 0 0 0 0 0 0 0 0 0 0 127 0" result="hardAlpha"/>
<feOffset dy="12"/>
<feGaussianBlur stdDeviation="15"/>
<feComposite in2="hardAlpha" operator="out"/>
<feColorMatrix type="matrix" values="0 0 0 0 0.0862745 0 0 0 0 0.0627451 0 0 0 0 0.258824 0 0 0 0.1 0"/>
<feBlend mode="normal" in2="BackgroundImageFix" result="effect1_dropShadow_607_40"/>
<feBlend mode="normal" in="SourceGraphic" in2="effect1_dropShadow_607_40" result="shape"/>
</filter>
<filter id="filter1_b_607_40" x="24" y="15" width="73" height="67" filterUnits="userSpaceOnUse" color-interpolation-filters="sRGB">
<feFlood flood-opacity="0" result="BackgroundImageFix"/>
<feGaussianBlur in="BackgroundImageFix" stdDeviation="10"/>
<feComposite in2="SourceAlpha" operator="in" result="effect1_backgroundBlur_607_40"/>
<feBlend mode="normal" in="SourceGraphic" in2="effect1_backgroundBlur_607_40" result="shape"/>
</filter>
</defs>
</svg>
