<svg width="130" height="130" viewBox="0 0 130 130" fill="none" xmlns="http://www.w3.org/2000/svg">
<g filter="url(#filter0_d_607_40)">
<rect x="30" y="18" width="70" height="70" rx="12" fill="white"/>
<g filter="url(#filter1_b_607_40)">
<path d="M82.48 36H47.52C46.6792 36 46 36.5899 46 37.32V67.68C46 68.4101 46.6792 69 47.52 69H82.48C83.3208 69 84 68.4101 84 67.68V37.32C84 36.5899 83.3208 36 82.48 36ZM65.0523 52.7516L55.9323 59.3929C55.6853 59.5744 55.31 59.4217 55.31 59.1412V56.5549C55.31 56.46 55.3623 56.3651 55.4478 56.3033L60.6633 52.5L55.4478 48.6967C55.4041 48.6668 55.369 48.6285 55.3451 48.5849C55.3212 48.5413 55.3092 48.4934 55.31 48.4451V45.8588C55.31 45.5783 55.6853 45.4256 55.9323 45.6071L65.0523 52.2442C65.2375 52.3762 65.2375 52.6196 65.0523 52.7516ZM74.69 59.1412C74.69 59.3227 74.5285 59.4712 74.3338 59.4712H65.5463C65.3515 59.4712 65.19 59.3227 65.19 59.1412V57.1613C65.19 56.9798 65.3515 56.8313 65.5463 56.8313H74.3338C74.5285 56.8313 74.69 56.9798 74.69 57.1613V59.1412Z" fill="#40CAF4"/>
<path d="M54.31 45.8588V48.4398C54.3082 48.6627 54.365 48.8771 54.4679 49.0651C54.5687 49.2492 54.7083 49.3987 54.8665 49.5105L58.966 52.5L54.8615 55.4931C54.8609 55.4935 54.8604 55.4939 54.8598 55.4943C54.5519 55.7179 54.31 56.0973 54.31 56.5549V59.1412C54.31 59.7827 54.7461 60.2022 55.1529 60.3671C55.5595 60.5319 56.0869 60.5188 56.5221 60.2004C56.5228 60.1998 56.5236 60.1993 56.5244 60.1987L65.6381 53.5621C65.9737 53.3204 66.1912 52.9333 66.1912 52.4979C66.1912 52.0625 65.9736 51.6753 65.6378 51.4336L56.5244 44.8013C56.5236 44.8007 56.5229 44.8002 56.5221 44.7996C56.087 44.4812 55.5596 44.4681 55.1529 44.6329C54.7461 44.7978 54.31 45.2173 54.31 45.8588ZM47.52 37H82.48C82.6681 37 82.8131 37.0661 82.8996 37.1412C82.9839 37.2145 83 37.2799 83 37.32V67.68C83 67.7201 82.9839 67.7855 82.8996 67.8588C82.8131 67.9339 82.6681 68 82.48 68H47.52C47.3319 68 47.1869 67.9339 47.1004 67.8588C47.0161 67.7855 47 67.7201 47 67.68V37.32C47 37.2799 47.0161 37.2145 47.1004 37.1412C47.1869 37.0661 47.3319 37 47.52 37ZM74.3337 60.4712C75.0051 60.4712 75.69 59.9478 75.69 59.1412V57.1613C75.69 56.3547 75.0051 55.8312 74.3337 55.8312H65.5462C64.8749 55.8312 64.19 56.3547 64.19 57.1613V59.1412C64.19 59.9478 64.8749 60.4712 65.5462 60.4712H74.3337Z" stroke="#161042" stroke-width="2"/>
</g>
</g>
<defs>
<filter id="filter0_d_607_40" x="0" y="0" width="130" height="130" filterUnits="userSpaceOnUse" color-interpolation-filters="sRGB">
<feFlood flood-opacity="0" result="BackgroundImageFix"/>
<feColorMatrix in="SourceAlpha" type="matrix" values="0 0 0 0 0 0 0 0 0 0 0 0 0 0 0 0 0 0 127 0" result="hardAlpha"/>
<feOffset dy="12"/>
<feGaussianBlur stdDeviation="15"/>
<feComposite in2="hardAlpha" operator="out"/>
<feColorMatrix type="matrix" values="0 0 0 0 0.0862745 0 0 0 0 0.0627451 0 0 0 0 0.258824 0 0 0 0.1 0"/>
<feBlend mode="normal" in2="BackgroundImageFix" result="effect1_dropShadow_607_40"/>
<feBlend mode="normal" in="SourceGraphic" in2="effect1_dropShadow_607_40" result="shape"/>
</filter>
<filter id="filter1_b_607_40" x="26" y="16" width="78" height="73" filterUnits="userSpaceOnUse" color-interpolation-filters="sRGB">
<feFlood flood-opacity="0" result="BackgroundImageFix"/>
<feGaussianBlur in="BackgroundImageFix" stdDeviation="10"/>
<feComposite in2="SourceAlpha" operator="in" result="effect1_backgroundBlur_607_40"/>
<feBlend mode="normal" in="SourceGraphic" in2="effect1_backgroundBlur_607_40" result="shape"/>
</filter>
</defs>
</svg>
