<?xml version="1.0" encoding="utf-8"?>
<!-- Generator: Adobe Illustrator 21.0.2, SVG Export Plug-In . SVG Version: 6.00 Build 0)  -->
<svg version="1.1" id="Layer_1" xmlns="http://www.w3.org/2000/svg" xmlns:xlink="http://www.w3.org/1999/xlink" x="0px" y="0px"
	 viewBox="0 0 40 65" style="enable-background:new 0 0 40 65;" xml:space="preserve">
<g>
	<path style="fill-rule:evenodd;clip-rule:evenodd;fill:#FFFFFF;" d="M17.1,7.9c1.1-0.4,4-0.7,5,0.5c-5.1,1.6-10.5,3-16.4,3.9
		c-1.7,0.3-4,1.1-5.6-0.3c0.5-1.5,2.6-1.2,4.1-1.4C7.8,10,15,9.3,17.3,7.4c2-1.7-0.5-3.4-2-4.8c-0.5,0.2-0.3,1.5-1,1.3
		c0.2-1.4-0.9-2.5-0.2-3.8C17.7,0.3,22.6,7,17.1,7.9z"/>
	<path style="fill-rule:evenodd;clip-rule:evenodd;fill:#FFFFFF;" d="M16.6,10.9c0.3,0,0.3,0.2,0.2,0.2c-2.3,2.4-3.8,5.7-4,10.4
		c2.1-2.9,3.5-6.5,8.2-6.5c1.8,2.1-0.2,5.7-1.5,7c0.3,0.3,1.1,0.2,1.1,0.9c-0.7,1.6-2.4,1.4-4.1,2.2c-1.3,0.5-3.5,2.5-4.9,2.1
		c-1.8-0.5-0.2-8,0.2-9.9C12.6,14,14.4,12.4,16.6,10.9z M14.1,23.9c2.8-1.2,5.6-3.4,5.7-7.1C17,18,15,21,14.1,23.9z"/>
	<path style="fill-rule:evenodd;clip-rule:evenodd;fill:#FFFFFF;" d="M38.8,23.5c-0.9,0.9-3-0.9-3.4-1.8c-1.3-3.3,2.1-6.3,3.4-7.9
		c-1.5-1.7-5.5-1-8.5-1.1c-0.4,0.3,0.4,0.8,0.3,1.3c-1.4-0.1-2.7-1.7-1-2.4c2.7-1.2,10.2,0.2,10.3,2.3c0.1,2.2-4,3.4-3,7.1
		C37.2,22,38.4,22.1,38.8,23.5z"/>
	<path style="fill-rule:evenodd;clip-rule:evenodd;fill:#FFFFFF;" d="M28.9,14.6c0.7,8.1,1,16.7,1.5,25c0.4,6.1,1.1,12.7,0.2,19.4
		c-0.1,1-0.3,2.1-0.4,3.2c-0.1,0.9,0.1,2.1-0.6,2.8c-0.4-0.8-0.1-1.7,0-2.5c0.3-2.8,0.1-5.5,0-8.3c-0.1-7.1-1.1-14-1.5-21
		c-0.3-5.2,0.3-10.5,0-16c-0.1-1.4-0.7-3.5,0.1-4.5c0.8,0.8,1,2.1,1.8,2.9C29.7,15.6,29.3,14.8,28.9,14.6z"/>
	<path style="fill-rule:evenodd;clip-rule:evenodd;fill:#FFFFFF;" d="M12.3,28.7c0.2,0.6-0.7,1.2-0.8,2.1c2.6,1.3,4.5-3.3,8-2.1
		c1,3.4-3.2,5.9-1.5,9.6c1.4-1,2.7-2.2,3.9-3.3c1.2-1.2,2-3,3.9-3.3c-0.4,1.7-1.9,2.7-3.3,4.3c-1,1.1-3.3,3.1-3.5,4.3
		c-0.2,1.5,1.6,4.4,1.2,7.2c-0.2,1.6-1.1,3.6-2.6,3.7c-0.8,0.1-2.1-0.8-3.1-1.2c-0.9-0.4-1.9-0.9-3-1.1c-0.9-0.2-3.7-0.2-3.9-1.4
		c-0.4-1.7,3.5-3.4,4.6-4.1c1.9-1.3,3.1-2.6,4.6-3.9c-1.6-3.7,0.7-7,1.9-9.9c-1.7-0.3-4.2,3.2-6.4,2.9C10,32,10.9,29.6,12.3,28.7z
		 M17.2,41.7c-1.9,2.2-4.6,3.5-6.7,5.4c2.2,0.9,3.8,2.3,6.4,2.8C18.9,48.5,18.6,43.6,17.2,41.7z"/>
</g>
<g>
</g>
<g>
</g>
<g>
</g>
<g>
</g>
<g>
</g>
<g>
</g>
<g>
</g>
<g>
</g>
<g>
</g>
<g>
</g>
<g>
</g>
<g>
</g>
<g>
</g>
<g>
</g>
<g>
</g>
</svg>
