<svg width="40" height="40" viewBox="0 0 40 40" fill="none" xmlns="http://www.w3.org/2000/svg">
<rect width="40" height="40" rx="9" fill="#0F77FF"/>
<path d="M20 0H31C35.9706 0 40 4.02944 40 9V20H20V0Z" fill="#5CADFF"/>
<path d="M20 20H40V31C40 35.9706 35.9706 40 31 40H20V20Z" fill="#0C5BCC"/>
<path fill-rule="evenodd" clip-rule="evenodd" d="M13.8986 2.33938C13.8986 2.62208 14.4387 3.45756 15.0983 4.19649C16.24 5.47421 16.2331 5.58686 14.9574 6.53221C14.2204 7.078 12.5152 7.83512 11.1677 8.21438C9.82089 8.59363 8.00926 8.90502 7.14316 8.90711C6.27637 8.90921 5.38334 9.39693 5.15818 9.99101C4.93302 10.5851 4.95029 11.275 5.19686 11.5241C5.44274 11.7732 7.47468 11.31 9.71245 10.4941C11.9495 9.67823 14.351 9.15412 15.0486 9.32906C15.7454 9.50399 17.8126 9.06316 19.6415 8.34872C21.4704 7.63499 22.956 6.76102 22.9436 6.40695C22.9305 6.05219 22.2011 5.66943 21.3226 5.55607C20.4434 5.44202 19.4239 4.65481 19.0565 3.80673C18.6027 2.75923 17.6676 2.19314 16.1433 2.0448C14.9084 1.92374 13.8986 2.05669 13.8986 2.33938ZM28.8233 8.83154C27.5745 10.1519 26.4543 10.7292 25.5861 10.499C24.4382 10.1953 24.2586 10.5305 24.2586 12.9824C24.2586 14.5421 23.9388 16.6693 23.5486 17.7098C23.1584 18.7503 22.994 19.7586 23.1839 19.9511C23.3739 20.1435 23.8408 19.4703 24.222 18.455C24.6033 17.439 25.0785 16.6084 25.2774 16.6084C25.477 16.6084 25.6351 18.1038 25.6296 19.9322C25.6213 22.4729 25.4459 23.0089 24.8844 22.2063C24.3298 21.4128 24.2628 21.6689 24.6095 23.2559C24.8623 24.4105 25.3969 28.4256 25.7981 32.1776C26.2001 35.9296 26.7948 39 27.1201 39C27.4454 39 27.712 36.4369 27.712 33.3041V27.6083L31.4582 28.0001C34.4052 28.308 35.2886 28.1681 35.6022 27.341C35.8211 26.763 36 25.0696 36 23.5785C36 21.3281 35.5966 20.5402 33.6303 18.9511L31.2606 17.0353L33.4369 13.0552C35.2997 9.64814 35.4792 8.91201 34.6857 7.94358C34.1759 7.32151 33.0778 6.8121 32.2462 6.8121C31.414 6.8121 29.8738 7.72106 28.8233 8.83154ZM17.0066 10.124C16.2469 10.3164 14.773 11.0868 13.7308 11.8362C12.6885 12.5856 11.5234 13.002 11.1408 12.7627C10.7429 12.5136 10.4453 13.0978 10.4453 14.1279C10.4453 15.1173 10.8341 16.6322 11.3086 17.4929C11.7838 18.3536 12.4137 19.2387 12.7093 19.4612C13.0049 19.6831 12.4613 20.2275 11.5006 20.6704C10.4715 21.1455 9.75458 22.0573 9.75458 22.8914C9.75458 23.6688 9.98803 24.2957 10.2726 24.2831C10.5571 24.2712 11.3942 23.7989 12.1312 23.2335C12.8688 22.6688 13.7135 22.2063 14.0091 22.2063C14.304 22.2063 14.3765 22.6534 14.1693 23.1999C13.9228 23.8507 14.3475 24.2817 15.4001 24.4483C16.7621 24.6645 16.4548 24.9941 13.3806 26.6154C11.3866 27.6671 9.75458 28.8076 9.75458 29.1498C9.75458 29.492 11.3093 30.904 13.2093 32.2867C15.11 33.6701 16.9244 34.8016 17.2428 34.8016C17.5605 34.8016 18.1814 33.9997 18.6221 33.0193C19.0634 32.039 19.4239 29.8733 19.4239 28.2066C19.4239 26.3194 19.8287 24.8359 20.4979 24.274C21.0885 23.7772 21.8965 22.7563 22.293 22.0048C22.7778 21.0867 22.782 20.7837 22.3047 21.0825C21.9145 21.3274 21.4946 20.8138 21.3723 19.9427C21.2459 19.0414 20.7031 18.3997 20.1146 18.455C19.5448 18.5082 18.457 18.7699 17.6973 19.0358C16.644 19.4046 16.7669 19.1261 18.2153 17.863C19.2596 16.9513 20.1146 15.8198 20.1146 15.3482C20.1146 14.8766 20.4745 13.9067 20.9144 13.193C21.3544 12.4793 21.5194 11.3814 21.2812 10.753C21.0436 10.1254 20.2949 9.64744 19.618 9.69222C18.9419 9.737 17.7663 9.93083 17.0066 10.124ZM30.188 14.2475C29.2059 16.0276 28.4026 18.0744 28.4026 18.7958C28.4026 19.7181 28.9006 20.1071 30.0803 20.1071C31.0023 20.1071 32.2614 20.6179 32.8775 21.2414C33.4929 21.8655 33.9038 22.8627 33.7899 23.4581C33.6759 24.0529 32.7179 24.8317 31.6605 25.1879C30.6031 25.5448 29.2826 25.6595 28.7252 25.4433C27.9558 25.1438 27.712 23.7499 27.712 19.6495C27.712 15.0683 27.9399 14.004 29.2135 12.6297C30.0395 11.7396 30.9989 11.0105 31.3449 11.0105C31.6909 11.0105 31.1708 12.4674 30.188 14.2475ZM16.4499 14.9186C15.3842 15.8478 14.0637 16.6084 13.5146 16.6084C12.9662 16.6084 12.5173 16.0339 12.5173 15.3321C12.5173 14.4455 13.3081 13.8473 15.1073 13.3721C16.5321 12.9964 17.8527 12.8102 18.0426 12.9586C18.2325 13.1069 17.5156 13.9893 16.4499 14.9186ZM18.495 21.1266C18.2698 21.7207 17.3768 22.1958 16.51 22.1832L14.9346 22.1594L16.5867 20.7663C17.4949 19.9993 18.3879 19.5242 18.571 19.7097C18.754 19.8951 18.7202 20.5325 18.495 21.1266ZM21.496 22.2063C21.496 22.5912 21.0111 22.9061 20.4192 22.9061C19.8273 22.9061 19.5345 22.5912 19.7693 22.2063C20.0041 21.8215 20.4883 21.5066 20.846 21.5066C21.2038 21.5066 21.496 21.8215 21.496 22.2063ZM17.3519 29.1624C17.3519 30.2946 17.0232 31.426 16.6219 31.6773C16.2206 31.9285 15.0907 31.9306 14.1106 31.6815L12.3294 31.2287L14.2792 29.1666C15.3518 28.0323 16.4817 27.1045 16.7904 27.1045C17.0992 27.1045 17.3519 28.0302 17.3519 29.1624Z" fill="white"/>
</svg>
