<svg width="520" height="377" viewBox="0 0 520 377" fill="none" xmlns="http://www.w3.org/2000/svg">
<g clip-path="url(#clip0_1066_5815)">
<path d="M268.115 199.643L267.58 201.159L268.471 201.964L266.306 203.895L264.498 202.735L262.333 203.895L261.255 203.124L257.647 202.354L256.204 204.285L255.126 203.895L254.039 204.285L254.769 205.835L258.012 206.606L258.174 209.587L261.977 210.477L262.164 213.306L261.196 215.584L253.903 221.886L255.652 225.037L254.413 225.799H251.798L246.085 221.463L247.044 218.396L248.708 218.905L257.282 215.847L257.044 214.314L255.61 214.06L251.331 215.593L249.667 214.83L248.241 208.19L252.29 207.173L252.044 205.894L250.856 205.64L247.519 206.919L247.052 204.115L244.429 197.475L243.716 197.221L242.527 198.245L239.904 195.95L240.15 189.826L238.716 187.014L237.527 187.522V186.506H237.052L237.527 184.583L237.85 184.49L238.02 184.507L244.684 181.093L248.292 175.291L258.607 174.52L258.386 170.259L259.472 167.939L259.116 166.778L257.673 166.389V165.228L265.254 163.297L265.975 164.068L264.94 165.863L265.262 168.32L267.784 168.709L269.592 167.549V169.87L268.505 171.03L266.34 171.42L265.619 173.36L267.784 176.07L265.975 177.231L265.254 179.162L266.697 182.643L266.332 183.804L264.897 184.574L262.732 187.666L263.454 195.408L265.975 196.568V197.729L268.115 199.643ZM227.993 182.414L231.559 182.923L234.895 184.964L234.649 190.072L236.313 192.621L236.075 194.154L237.264 195.942L238.452 196.45L237.502 200.532L237.739 201.549L239.403 202.828L238.936 204.869L240.125 207.165L238.69 209.46L239.166 211.247L238.206 211.502L237.493 214.305L235.829 215.33L235.116 218.142H233.69L231.78 215.593H230.116L229.403 216.609H228.452L226.788 215.847L226.075 214.06H224.165L223.452 214.822L223.689 217.371L220.837 217.626L217.738 213.289L218.697 209.46L219.886 207.927L219.411 206.648L218.697 207.41L218.222 207.156L218.46 206.14H219.181V205.623L218.231 205.877V202.557L219.657 202.303L218.468 201.54L214.903 201.032L213.952 199.499V197.204H212.042L211.329 195.162V193.375L212.042 192.096L211.091 189.284L209.902 188.005L210.14 186.98L213.952 184.684L216.091 184.43L216.813 182.643L218.477 182.897L218.952 184.684L220.387 184.939L223.002 183.151H225.863L226.576 182.389H227.993V182.414Z" fill="#ECF4FF"/>
<path d="M333.045 210.088L325.472 211.248L322.951 208.927L321.142 209.706L317.534 209.317L316.813 208.546L314.648 208.156L308.875 212.027L306.354 210.088L304.91 209.706L303.824 210.867H302.381V208.927L301.302 208.546V205.446L299.138 204.285L299.859 200.804L298.416 199.644H297.338V198.094L295.895 196.162L299.138 194.612L301.667 195.392L305.921 194.612L305.632 192.291L306.354 191.521H307.797L308.875 193.062L311.04 192.681L312.848 189.581L313.926 190.36L319.699 189.971L321.142 189.191L322.22 189.581L324.394 189.191L324.75 187.65H326.559L328.358 186.489H331.601L331.355 193.587L333.35 206.581L333.045 210.088Z" fill="#ECF4FF"/>
<path d="M238.006 184.49L238.226 183.177L237.513 181.128L235.849 179.849L235.136 178.07L231.8 175.774H230.374L227.513 177.307L226.799 178.324L223.463 178.578V179.086L221.086 179.34L220.373 180.103H218.463L217.75 181.128L212.987 178.315L208.938 177.807L204.659 180.103L203.224 181.636L202.986 182.915L200.363 183.423L197.502 182.915L196.068 181.128L192.986 181.382L191.551 180.873L190.838 181.898H189.412L187.502 183.94L184.887 184.448L183.936 186.244L178.944 185.473L178.223 186.244H177.272L176.083 188.031L175.608 187.777L175.132 189.047L172.042 188.793L170.837 189.818L168.239 190.326V190.852L165.412 190.326L164.436 189.632L164.563 186.498L167.815 184.177L171.058 179.925L173.944 179.535L175.022 178.764L175.387 177.604L175.022 176.443L171.779 177.223L170.692 176.443L169.614 172.962L167.806 172.573V169.472L169.249 168.702L170.692 169.472L171.779 169.083L174.666 165.601L178.995 167.922H181.169L180.447 164.051L181.89 161.731L187.663 163.662L189.106 162.112L194.149 162.501L195.957 162.112V159.791L197.044 157.851L201.008 155.141L202.443 154.751L203.53 155.522L205.695 151.651L206.773 152.04L209.659 151.651L213.267 147.78L214.702 147.001L216.867 147.39L219.04 148.94H220.84L225.178 145.459L227.343 142.367L230.586 141.978L231.672 142.749L232.029 143.909H233.116L234.194 143.138L235.637 143.528L237.802 142.749L238.523 141.198L241.41 138.878L243.218 139.648H246.105V138.488L248.269 136.167L248.626 133.846L248.567 135.295L252.276 133.982L266.59 134.583L267.031 138.098L274.4 138.124L276.573 138.725L279.468 137.429L284.341 137.937L283.985 141.19L285.428 142.74L285.784 145.451V148.161L284.341 148.94L285.071 153.972L284.341 155.132L281.098 157.453L280.012 159.774L277.49 161.714L275.325 164.424L271.361 165.585L269.553 167.524L267.744 168.685L265.223 168.295L264.9 165.839L265.936 164.043L265.214 163.272L257.633 165.203V166.364L259.076 166.753L259.433 167.914L258.346 170.235L258.567 174.495L248.252 175.266L244.644 181.068L238.006 184.49ZM173.019 228.35L137.32 227.969L139.468 225.292L140.894 221.972L142.083 221.717L143.042 222.48L143.518 221.717L148.509 219.676L149.223 218.651L151.608 218.397L151.37 215.847L153.034 215.339L154.223 214.06H156.846L158.51 211.002L159.232 211.257V212.536L162.093 211.511L160.904 207.936H161.855L163.043 208.961V210.748L162.806 212.027L161.142 213.306V215.094L159.478 216.373V217.652L162.814 216.373L165.191 213.823V213.061L167.339 210.249L170.667 207.699L172.102 207.445L173.766 205.912L174.954 205.658L175.905 204.641L176.38 202.854L177.815 202.346L178.053 203.625L179.479 203.879L179.725 203.117L179.012 201.583L179.963 201.075L179.725 198.526L180.201 198.017L182.815 199.042L184.004 198.788L185.906 199.805L189.004 202.871L189.242 204.912L191.619 208.741L188.758 210.02L189.234 212.832L190.668 213.857V214.619L189.947 215.898H189.234L188.996 218.194L187.807 219.981L189.471 221.26L189.709 222.285L187.807 221.523L185.43 224.58L181.856 224.326L181.618 226.114L180.43 226.622L178.766 225.859L178.528 224.58L176.38 222.285L175.905 219.735L174.716 218.456H173.29L173.044 217.948L171.142 218.202L171.856 220.244L171.618 221.26H172.093L172.569 224.326L173.282 225.089L173.019 228.35ZM193.724 189.301L194.2 190.835L196.577 189.81L197.765 190.064L197.519 191.08H196.339V193.376L195.388 193.884L194.913 195.163L195.626 196.442L197.061 196.188L198.487 198.483V199.5L192.536 202.312L191.823 200.271L190.634 199.5V198.221L188.724 196.942L188.257 195.663L190.634 195.409L190.872 194.9L191.11 192.351L189.683 191.843L190.397 190.055L191.831 189.285H193.724V189.301Z" fill="#ECF4FF"/>
<path d="M268.117 199.643H270.282L271.368 197.704L272.812 198.483L274.603 197.704L277.854 199.254L279.298 197.323H280.376L281.462 196.162L283.627 198.093L285.792 198.483L287.592 197.704L290.122 198.093L290.478 199.643L289.4 201.193V202.354L291.565 203.896L293.008 207.377V211.637L291.208 216.279L290.122 215.508H280.376L279.663 216.279L280.698 217.448L279.298 217.829L276.377 220.175L275.69 218.6L273.89 217.05L272.438 218.6L272.413 220.142L267.268 216.364H265.596L264.407 218.397L266.793 219.938L267.743 221.463L264.891 224.275L265.366 225.808L264.653 227.079H263.694L261.792 224.783L256.554 224.529L255.654 225.037L253.914 221.887L261.207 215.585L262.174 213.306L261.979 210.477L258.176 209.588L258.014 206.606L254.771 205.835L254.05 204.285L255.137 203.896L256.206 204.285L257.658 202.354L261.266 203.125L262.344 203.896L264.509 202.735L266.309 203.896L268.474 201.964L267.582 201.16L268.117 199.643Z" fill="#ECF4FF"/>
<path d="M317.533 209.317V217.44L315.724 219.371L321.497 225.173L322.219 226.723L321.293 226.977L317.49 224.783L317.006 223.767L316.055 223.504L314.154 221.463L313.678 223.25L315.58 225.292L317.006 225.808L318.679 228.104L319.621 228.358V229.12L322.957 231.424V232.186L324.859 231.932L325.818 232.441L325.572 233.203L326.523 233.974V235.244L327.915 236.523L327.958 237.54L326.761 238.565L324.384 236.777L322.007 233.72L319.392 231.932L312.252 224.275L309.867 222.742L308.678 223.767L308.203 225.808H307.727V226.825L306.539 227.85L306.293 228.866L307.481 231.162V232.695L308.203 232.949L307.481 239.073L305.104 240.86H304.153V241.368L302.252 241.114L301.301 241.622L300.825 243.156L300.324 243.164L300.214 238.717L298.414 237.557V236.007L292.65 228.273L290.477 222.471L289.755 219.76L291.207 216.279L293.006 211.637V207.377L291.563 203.896L289.398 202.354V201.193L290.477 199.643L290.12 198.093L291.207 196.162H295.893L297.336 198.093V199.643H298.414L299.857 200.804L299.136 204.285L301.301 205.446V208.546L302.379 208.927V210.867H303.822L304.909 209.706L306.352 210.087L308.873 212.027L314.646 208.156L316.811 208.546L317.533 209.317Z" fill="#ECF4FF"/>
<path d="M197.063 157.851L195.976 159.791V162.111L194.168 162.501L189.125 162.111L187.682 163.662L181.909 161.73L180.466 164.051L181.187 167.922H179.014L174.684 165.601L171.798 169.083L170.711 169.472L169.268 168.701L167.825 169.472V172.572L169.633 172.962L170.711 176.443L171.798 177.223L175.041 176.443L175.406 177.604L175.041 178.764L173.963 179.535L171.076 179.925L167.833 184.177L164.582 186.498L164.454 189.632L165.431 190.326L164.446 190.843L161.823 189.818L160.872 190.326L159.437 190.072L157.535 188.285L157.06 186.498L154.199 183.431L151.347 184.456L150.396 181.136L146.346 182.669L145.158 183.948L141.346 184.465L140.157 182.932L138.723 182.677L138.256 181.915L135.633 181.661L134.682 179.874L134.919 178.857H133.96L133.485 177.07H132.772V179.111H132.296L131.829 180.899L130.641 182.178H128.731L126.354 183.457L125.878 182.178L124.214 181.153L124.452 183.448L125.165 184.219L124.69 185.498H122.313L121.837 184.99L122.313 183.457L121.599 182.178L119.698 180.136L117.55 179.882L116.124 178.095H114.46L114.214 179.374L114.935 180.136V182.169L113.747 182.94L109.935 183.711L107.32 180.899L106.845 181.669L108.033 184.219L108.271 186.514L108.984 186.769L109.46 186.26L110.419 187.793L109.46 188.048L109.222 189.327H108.746L107.32 187.031L105.885 186.777L105.172 185.761L104.222 186.015L105.172 190.614L104.222 191.122L103.271 190.106L103.984 188.827H103.024L102.787 190.106L100.639 189.852L98.0242 187.81L97.3026 186.277L96.8357 187.04L95.6386 187.294L94.6878 185.761L92.0646 184.736L91.3514 183.973L91.8269 182.957L91.3514 180.916H90.4006L89.4498 178.874L88.4905 179.128L86.3511 184.998H85.3918L84.9164 183.211L86.1049 179.891L85.3324 178.358L83.244 178.103L82.2932 179.637L79.9076 179.891L78.9568 180.653L73.7188 177.849L74.1942 176.316L73.0057 173.513L72.0548 174.021V175.037L71.3417 175.545L68.9647 171.463L69.2533 169.642L70.2041 169.387L70.4418 168.617L71.4012 168.871L73.0651 167.338L74.2536 161.459L73.532 158.647L69.0156 156.352L68.7694 153.794L68.0563 153.285V152.269L69.2448 151.507L69.0071 148.44L67.3432 146.907L65.4415 147.161L64.0068 145.628L62.1052 145.882L58.2934 144.857L57.5803 143.578L62.3429 136.938H63.2937L63.7691 135.659L67.5724 132.846L68.5317 129.272H70.9088L75.4337 127.231L80.9094 127.993L81.6225 126.968L83.9996 126.46L85.1881 125.435L89.0508 124.656L88.8301 129.568L89.5517 131.118L94.968 124.537L97.8544 118.345L115.529 118.735V119.895L116.608 120.666L127.432 121.056L128.51 120.666L129.597 121.445L132.84 120.666L133.57 119.895L137.899 119.124V120.285L136.456 122.606V124.927L138.977 128.408L140.064 128.018L146.915 128.408L147.272 134.219L148.358 134.998H150.523L151.245 135.769L151.61 143.9H184.795V141.579L185.517 140.809H192.011L192.733 141.579L192.368 143.9L190.203 144.29L189.846 145.45V151.252H196.341L197.428 152.032L197.063 157.851ZM39.0223 165.813L40.2108 167.084H42.834L43.7849 168.108V169.133L42.5963 170.15L42.3586 171.937L43.0717 173.978L42.3586 176.274L41.3993 177.299H39.9731L39.26 176.528L39.9731 172.953L40.9239 172.699L40.6862 170.15L38.0714 168.363L36.6367 168.108V165.813H39.0223ZM112.804 209.723L113.042 211.256L115.411 212.019L115.181 213.552L113.993 214.831L111.624 214.323L111.845 210.494L112.804 209.723ZM46.1619 197.475L47.3504 198.754H48.0721V197.983L48.7852 197.729L49.2606 199.262L48.3013 200.279L48.5475 202.066L48.0721 202.574H47.3504L46.1619 198.492L44.498 197.983L44.9649 196.967L46.1619 197.475ZM126.846 203.345L127.805 205.386L127.084 206.149L126.846 208.19L125.182 209.977L125.428 206.657L126.371 206.149L126.846 203.345ZM44.498 194.663V192.367L45.9242 191.859L46.6373 193.392L44.498 194.663Z" fill="#ECF4FF"/>
<path d="M333.045 210.087L338.096 209.706L340.626 215.119L341.704 219.371L342.791 220.531H344.226L347.112 222.471H348.555L349.277 221.31L350.364 221.692L349.642 224.792L347.834 226.723L350.364 227.113L351.798 228.654L348.92 233.296L347.112 234.456L347.834 236.777L349.277 237.167L349.642 238.327L350.72 238.717V241.038L351.798 242.198L352.163 245.68L349.277 244.9L348.555 246.061L349.277 246.831L348.555 247.611L349.642 249.932L348.19 251.863L349.277 252.634L349.642 254.184L350.805 253.87L350.092 254.641H349.141L345.576 253.625L344.862 252.6L345.092 250.304L340.813 246.476L338.674 242.647L334.149 239.073L332.476 237.285L332.001 235.761L328.435 232.695L327.96 230.653L325.107 229.12H322.009L321.296 226.977L322.221 226.723L321.499 225.173L315.727 219.371L317.535 217.439V209.316L321.143 209.706L322.951 208.927L325.472 211.248L333.045 210.087Z" fill="#ECF4FF"/>
<path d="M300.327 243.164L300.115 244.18L298.927 244.689L297.492 243.155L295.828 242.901L292.967 245.968L292.738 246.984L291.065 248.263L288.451 247.501L287.024 248.009L286.074 247.746L285.123 246.476H283.45L285.598 245.459L285.352 243.672H283.688V241.622L284.877 241.368L284.41 237.286L282.737 237.54L281.549 238.819L279.647 239.327L275.598 241.885L275.122 238.056L275.835 237.031L275.122 234.99L274.647 227.587L277.262 227.079V226.571L275.122 222.742L272.414 220.142L272.44 218.6L273.891 217.05L275.691 218.6L276.379 220.175L279.299 217.829L280.7 217.448L279.664 216.279L280.377 215.508H290.123L291.21 216.279L289.758 219.76L290.48 222.471L292.653 228.273L298.417 236.007V237.557L300.217 238.717L300.327 243.164Z" fill="#ECF4FF"/>
<path d="M151.36 302.6L152.31 303.363L155.171 303.617L155.885 304.896L157.073 303.871L157.548 304.896L158.728 305.15L158.737 305.658L156.835 306.42L157.548 307.954L157.302 308.716H156.589L156.835 309.224L154.45 310.757L151.835 311.274L150.171 313.315L150.646 314.84L146.835 315.865L145.408 319.431H142.785L142.072 318.669V317.39L140.884 316.881V316.373H139.457L137.31 317.644L136.834 318.923L135.883 319.431L134.449 319.177L133.498 319.939L133.031 322.235L131.367 321.726L130.416 322.235L130.662 319.939L130.187 319.177L128.039 319.431L125.178 317.39V316.373L126.613 315.357L128.277 311.782L124.711 307.699L123.047 307.445L122.58 306.175L123.531 305.15L123.777 302.6L125.441 301.33L126.154 299.034L123.531 296.993L122.343 297.247L121.392 296.222L119.015 295.968L117.818 296.993L115.916 297.501L115.441 298.772L112.826 299.797L111.867 299.543L109.727 301.076L109.481 302.346L109.956 302.6L109.243 303.363L107.579 303.109L106.62 304.133H105.669V304.642L104.71 303.879L104.948 302.346L103.521 301.838L101.144 302.346V301.838H100.431L92.0945 304.642L91.6276 305.921H90.6683L89.7174 307.191L87.3404 306.937L86.1519 307.699L85.6765 309.233L84.7256 309.995L80.6761 311.528L79.2414 311.02L78.2906 309.233L76.1428 309.741L75.9051 310.757L75.1834 311.011L74.708 313.307L72.331 314.069V316.11L76.8559 317.381V316.619L78.7575 315.348V315.856L82.5693 317.127L83.0447 317.635L82.5778 322.751L84.2417 323.776L83.9955 324.284L81.3808 324.03L79.9461 324.793L78.9952 324.538L77.8067 325.047V325.555L74.2411 326.58L73.5195 326.072L73.2818 324.801H72.0933L71.3802 322.76L69.2323 322.506L68.5192 322.76L67.8061 326.842H66.8553L66.1422 327.605L65.1913 326.588L62.8143 325.826L60.4372 323.276L59.2487 323.793L58.7733 321.752H58.0602L57.347 320.473H55.4369L54.97 319.965L54.4946 317.415L53.5438 316.398L54.2569 314.611L54.9785 314.357L54.7323 313.078H51.3959L51.1582 313.586L50.6828 312.053L49.2566 311.799V314.095L47.3464 315.374L46.1579 314.857V313.586L43.7808 313.84L40.453 316.644L39.7314 318.94L37.8297 319.956L38.7805 323.268L37.3458 323.785L36.6327 322.76H34.9688L33.3048 324.293H32.5917L30.6901 327.605L29.5015 328.113V329.384L28.7884 329.638V330.654L27.8291 331.679L27.3537 331.171L25.452 331.679L25.6898 329.638L24.0258 329.384L22.5996 329.638L21.8865 330.663L19.7386 330.408L19.5009 331.171L16.64 331.679L15.6807 332.704V333.72L17.1154 334.491V335.516H16.1646L15.6891 336.787L13.3121 335.77H11.6481L10.6973 336.787L10.9435 338.057L9.98421 338.311L8.55798 336.016L10.6973 334.745L10.7058 331.433H12.6075L12.8452 329.392L12.132 328.63H10.6973L10.2304 329.392L9.98421 328.63L8.58344 328.121L8.32027 327.105L6.18092 326.08L6.41863 324.293L5.94322 323.268L6.66482 321.481H7.61564L7.86184 318.423L4.52547 315.619V310.012L5.00088 309.25L4.75469 308.741L4.04157 308.995V307.462L5.47629 305.929L6.42712 301.084L9.76348 300.322L13.0999 303.642V304.404L14.0507 304.659L15.9523 301.347L15.2392 299.051V296.248L14.0507 295.485L15.01 292.682L16.4362 292.427L18.1002 291.148H21.6657L24.5267 288.853L24.289 285.278L22.1412 284.762L22.6166 283.491L19.9933 282.983L19.7556 284.008H18.8048L18.3379 284.77H15.9353L14.9845 282.729V281.196L17.3531 279.663L17.837 277.875L19.7386 277.621L21.4026 276.596L23.5504 276.85L24.5012 278.892H25.936L26.8868 276.85L28.0753 276.088L29.2638 273.539H29.7392L30.2147 270.735L31.8786 269.71L35.4527 269.964L37.1166 268.685L39.4937 268.431L40.9199 266.39L42.83 267.152L43.0677 268.677L44.027 268.931V270.21L45.691 269.447V266.644L44.9694 266.39L44.0186 264.602L44.2563 261.545L49.4943 259.249L51.1582 257.462L50.9205 255.937L51.6336 253.642L51.1582 252.109H51.6336V251.092L53.0599 250.838L53.3061 248.797L53.7815 249.559L55.9208 249.042L56.167 250.83H58.0686L58.3064 249.551L59.4949 248.788V247.763L62.1181 248.017L62.5935 248.78L63.3067 248.526L64.0198 250.059H65.6837V249.034L67.8316 248.526L68.5447 247.509L69.7332 247.255L69.9709 248.017L72.5942 248.526L72.8319 249.288L75.2089 249.034L76.8729 250.313L77.586 251.838V254.387L78.5453 254.895L79.2584 256.429H79.9715L79.7338 257.445L80.4469 257.699L81.1685 259.232H82.3571L83.3079 258.47L84.9718 258.978L84.2587 257.191L85.668 255.404L85.9226 254.641L85.4472 254.387L89.2505 247.501H90.9145L91.6361 246.222H93.0623L93.7754 247.501H96.1525L96.8741 246.222L103.301 245.459L106.875 243.164L110.924 242.656L116.629 240.869L122.546 237.548L124.72 235.253V234.49L126.867 232.703L130.917 230.662L135.442 229.899L137.343 227.985L173.042 228.366V230.416L173.763 231.441L171.616 232.72H170.181L168.992 230.425L166.378 229.391L166.131 230.145L163.024 232.212L157.803 231.695L156.852 234.253L155.418 234.507L156.131 236.295L155.418 238.336H158.279L158.992 240.377L157.09 241.394L154.942 241.648L154.467 243.689L155.664 244.451L157.328 243.689L158.516 244.968L159.238 243.181L160.189 242.927L161.139 243.943L161.853 242.41L162.803 242.156L163.754 245.476L165.664 248.026V249.305H164.926L164.688 248.543L161.598 249.051L159.688 247.01H158.737L158.262 247.772L159.212 249.559H159.925L158.024 251.092L158.737 254.413L159.45 255.437H161.114L161.589 256.2L161.343 258.495L160.63 259.004L161.819 261.299L160.155 261.807L160.401 263.34L159.679 263.849L161.343 265.382V266.652L160.392 267.931V269.21L161.106 269.718L160.155 270.989L160.401 272.522L158.491 272.014L156.351 273.547L153.728 273.039L152.777 272.277H150.867L150.154 269.981L147.539 269.727L146.818 268.194L144.678 266.915H142.768L140.867 269.464L141.342 271.506L144.203 273.039L143.957 275.08L146.58 275.843L147.055 277.113L148.244 277.875L150.392 282.72H151.343L152.056 283.737V285.524L150.154 285.778L148.49 286.803L148.252 287.565L146.351 288.328L142.777 288.836L141.588 291.64L136.596 293.935V295.468L138.26 295.977L138.727 296.739L140.875 295.722L141.35 297.51H142.301L143.965 299.297L144.916 302.101L145.875 302.609L148.252 302.863L149.679 300.822L150.63 301.076L151.36 302.6ZM248.938 353.346L248.692 351.559L247.265 350.288L246.552 350.542L245.831 352.076L243.454 351.821L242.74 350.797L240.126 349.78L239.404 347.739L240.593 343.91L241.79 343.656L242.257 344.164L243.445 342.123L244.88 341.869V337.532L245.355 335.745L246.068 335.491L246.306 330.391L245.831 329.883H246.781L247.028 328.867L245.126 328.104L244.43 327.08L244.642 326.055L245.831 325.801L245.593 323.759L246.306 323.243V322.48L245.117 321.201L245.593 319.931L244.88 319.168V317.381H244.404L244.642 316.11L242.503 315.602L241.552 314.586H239.404L238.691 318.152H229.887V316.11L231.322 314.577V313.552L233.937 310.749L236.789 309.478L236.56 308.716H235.125L234.888 307.699V306.937L236.314 305.912L236.263 304.633L233.224 303.363L232.511 301.83L235.567 300.55L236.322 299.28L238.224 299.026L240.372 297.755H241.807L242.757 295.206L243.47 295.46L243.717 296.73L246.094 296.984L246.569 298.255L247.282 298.509L247.045 301.83L245.134 302.338L244.897 303.871L245.61 306.92L247.749 307.691L249.608 309.224L249.659 311.52L249.184 312.028L250.143 312.282L252.045 315.086L254.668 315.594L254.906 314.323L257.283 313.561L259.422 315.602L259.185 318.152L257.996 318.406L257.529 317.898L258.242 320.193L254.906 320.701L250.856 325.038L250.381 327.588L252.758 330.391L253.709 329.883V327.588L255.61 326.825L257.988 324.784L262.512 324.53L266.562 326.063V324.793L267.521 324.538L267.759 322.751L269.423 323.005V322.243L270.849 321.735H272.038L272.997 324.03L278.235 323.776L279.423 325.555L278.948 327.342L277.76 327.85L276.809 329.638L274.185 329.892L272.522 327.596L271.333 327.342L270.62 328.359H269.431L269.907 328.867L269.661 330.146H268.472L268.005 331.162L267.054 330.908L266.817 333.712L265.39 333.966L264.915 334.991L262.054 334.483L261.816 337.032L263.964 336.778L264.677 337.803L264.915 340.353L269.202 347.747L269.44 350.551L268.481 350.043L268.243 348.764L267.054 348.51V348.001L265.62 348.255L263.718 345.706L262.529 345.452L261.816 344.181L260.382 343.673L259.431 342.657L259.185 341.123L257.283 342.657V343.673L259.906 349.026L259.66 353.617L257.283 352.601L255.135 348.518L251.807 351.838V353.117L249.897 353.871L248.938 353.346ZM68.5362 224.529L72.8149 223.513L73.2903 222.75L84.4709 218.922L88.7581 219.684L86.6103 220.447V221.726L89.9467 220.963L91.3729 221.217L91.6191 220.709L93.0453 221.217L93.5207 219.938L94.7093 220.447L94.947 219.684H95.6601V222.742L94.7093 224.783L93.9961 225.037L94.2338 226.054L91.6191 230.137L90.6598 230.653V231.932L89.9467 232.695L89.4713 236.015L90.4221 237.802L88.5204 239.844L87.5696 239.327L87.8073 242.901L89.2335 246.476L84.7171 250.559H83.9955L83.2824 249.288L79.0037 249.034L69.9539 245.714H68.5277L68.2815 246.222V245.714L64.0028 245.459L62.1012 246.222L57.814 246.476L55.4369 247.501H51.8713L51.3959 246.476L48.5434 247.238L49.0104 245.959L50.6743 245.451L52.3383 242.385L54.4861 240.852L54.9615 239.573L52.8137 236.769V234.728L50.4366 233.703L47.5756 234.211L47.3379 233.186L49.4858 232.678L50.1989 230.636L53.2976 230.12L68.5362 224.529ZM357.705 368.652V367.627L359.844 365.332L356.983 366.094L356.033 365.077V364.053L356.746 362.519L357.705 362.011L358.418 359.208L362.221 355.125L367.935 353.854L368.181 351.559L369.845 351.305L370.083 350.797L370.796 351.051L371.509 352.829L374.845 354.617L375.558 357.674H376.034L375.083 361.503L377.222 364.815V367.619L374.132 368.127L372.231 367.364L370.083 367.619L369.845 366.085L368.894 365.831L368.181 367.356L366.033 369.143V371.185L363.656 373.48L361.754 374.242H361.033L360.795 373.48L362.943 370.676V369.914L361.033 368.889L357.705 368.652ZM356.516 368.389L356.27 369.152L355.319 369.406V370.168L357.459 369.914L357.705 368.635L356.516 368.389ZM157.548 331.679H159.925L160.639 331.171L161.827 327.85H163.975L165.877 326.317L164.45 323.259L161.589 322.751L160.876 320.964V320.202L162.54 320.456L163.262 319.948L163.5 318.16L164.45 317.906L164.204 316.636L163.016 316.127L163.729 314.34L165.393 313.324L165.639 312.561H168.967L169.442 313.07L170.155 311.799L171.819 311.037V312.316L173.008 312.824V313.586L172.295 314.857L169.918 316.39H172.779L173.016 317.661L170.155 318.94H168.491L167.057 320.21L167.294 322.506L168.721 325.055L170.868 326.588L172.295 326.842L173.254 325.563H174.68L175.156 326.842L176.582 327.859L175.393 328.884V330.417L173.016 331.442L172.779 333.229L171.828 332.721L170.639 330.425H169.926L169.451 331.188H168.024L165.877 332.975V333.991L164.688 334.754H163.262V336.287L162.311 336.033L162.073 336.541H160.409L160.163 335.27L157.786 335.524L157.548 333.483L156.835 332.975V331.95L157.548 331.679ZM167.541 278.883V279.646L170.402 279.129L176.115 279.891L177.779 279.383L179.681 280.145L180.869 281.933L179.681 287.032L181.107 288.302L182.295 290.852L181.82 293.656L180.631 294.926L179.205 295.434L176.582 293.647L176.115 291.606L174.68 289.819V287.523L171.59 286.761V285.482L170.877 285.228L170.155 283.695L165.639 283.44L164.45 280.891H165.877L165.639 279.104L167.541 278.883ZM66.6345 359.724L67.1015 361.511L69.2493 361.257L70.4378 362.02L70.2001 363.807L67.3477 364.315L67.5854 366.865L69.0201 367.119L69.2578 369.16L70.2086 370.177L69.7332 370.685L68.5447 369.923L66.8807 370.177L66.4053 371.71H65.2168L64.7414 370.947L63.0774 371.71L61.6512 371.456L61.1758 372.726L58.561 373.489L58.0856 372.464L56.4217 371.955V371.193L55.2417 370.685L55.9378 367.881L58.7987 366.348H60.4627L60.9381 367.619H61.8889L62.3643 366.085L63.0774 366.594L64.5122 365.323V364.053L63.5783 363.544L64.0368 360.741L65.4715 359.716H66.6345V359.724ZM131.605 342.64L131.129 341.361H129.465L128.99 340.336L127.326 340.082L126.613 338.811L127.326 334.474L130.9 330.9L133.048 331.154L135.187 333.449L134.949 334.466L135.663 335.745L134.712 336.253V337.786H135.663L135.9 337.024L137.326 337.278L137.089 342.123L134.228 343.148L133.752 344.418L131.605 342.64ZM360.804 342.385L362.23 343.919L361.763 349.018L360.328 350.542L357.467 352.076L356.041 350.797L354.377 351.051L353.664 350.026H352.705V352.321L351.745 352.575V351.296L350.557 350.026L351.032 347.222L350.557 343.91L360.804 342.385ZM179.681 248.263L180.394 250.559L177.057 252.6L176.582 254.133L177.533 254.895L178.246 253.362H181.582L182.541 256.166L180.394 259.486H178.492L176.123 260.765L175.877 259.486L174.451 258.724L173.738 257.445L173.976 255.92L172.312 254.133L172.549 252.6L171.828 250.813L179.681 248.263ZM62.3473 344.173V344.681L64.9706 345.706L65.9214 348.001L67.8316 348.51L68.0693 347.747H69.2578L70.6925 349.789H71.6433L72.3565 349.026L73.0781 349.28L74.5043 351.322L74.0289 353.363H73.0781L72.8319 352.347L71.1679 351.076L70.4548 351.33L71.1679 352.863L70.701 354.142L69.504 353.888L69.0371 351.847L68.5617 352.863H67.3731L67.1269 351.593L67.6023 350.83L66.8892 349.56L64.0283 350.068V351.601L62.8397 351.855V352.872L60.6919 352.364V350.576L61.6512 349.306L60.9381 348.289V346.756L61.4135 344.461L62.3473 344.173ZM188.722 273.522L190.157 275.055L189.443 277.858L185.394 280.925L182.771 280.162L181.811 278.892L182.533 275.826L183.722 275.571L184.435 274.038L188.722 273.522ZM390.789 342.131L391.51 343.402L389.846 346.722L390.322 348.001L389.846 350.297L388.887 351.059L385.797 350.551L384.837 349.534L384.362 345.714L385.551 344.952L386.748 345.46L387.461 342.657L388.887 342.402L389.846 343.165L390.789 342.131ZM209.665 253.362V257.699H206.1L205.149 255.658L206.813 254.125H208.477L209.665 253.362ZM402.453 350.034L401.978 350.797H401.256L400.543 349.272L401.978 348.51V347.747L402.928 346.985L403.404 343.664L404.839 343.156L404.592 346.468L402.453 350.034ZM1.89373 316.627L2.13993 317.135L3.07377 316.627L3.80387 317.39L3.32845 319.177L2.13993 319.939L1.42681 319.685V318.406L0.238281 317.898L0.475987 316.627H1.89373ZM258.454 309.233V311.274L257.028 312.036L255.364 311.528L256.315 309.487L257.512 308.724H258.701L258.454 309.233ZM76.8644 372.472L77.1021 374.768L76.1513 376.038H75.1919L74.7165 374.259L76.1513 372.472H76.8644ZM192.534 250.304L193.493 251.583V252.6L191.583 253.108L191.345 252.083L190.157 251.321L192.534 250.304ZM57.8225 357.429L58.2979 357.683L57.8225 359.47L56.1585 358.953L55.9123 359.978H54.7238L54.0107 359.216L54.2484 358.708L57.1008 358.2L57.8225 357.429ZM76.6267 351.059L77.3398 352.33L78.766 353.092L78.5283 354.108H77.569L76.3805 353.092L75.9136 351.305L76.6267 351.059ZM60.9211 355.396L61.3965 357.92L60.6749 358.2L59.7241 357.691L59.4779 356.421L60.9211 355.396Z" fill="#ECF4FF"/>
<path d="M328.672 34.4974L329.861 33.2183L331.763 29.1272L335.328 30.4062L336.041 29.3813L338.189 28.3564L338.435 26.315H339.386L341.534 27.8482L343.911 26.8232L344.149 25.5442L345.583 24.5193L346.297 19.6658L348.198 17.3619V14.8038L348.92 14.2871L349.387 11.9917L350.338 11.7376L351.051 12.4999L352.01 11.475L353.436 11.7291L353.912 12.2373V14.7954L355.1 16.0744L356.535 15.0495L356.289 13.5163H358.437L359.396 14.7954H360.109L360.347 11.7291L362.724 11.9832L363.437 13.0081L364.396 12.4999H365.109V13.0081L362.248 15.8203L362.495 16.5826L365.585 14.7954L366.773 15.0495L366.06 16.3285L363.683 16.8367L363.437 18.8781L361.298 21.182L361.535 21.9443L362.97 22.461L364.634 21.4361L365.101 20.1571L367.011 20.4112L367.962 21.6902L366.298 24.5024V26.0355L367.257 25.5273L368.216 23.4859L370.594 23.74L371.307 25.2732L370.831 27.0604L368.683 27.3145L367.495 28.8477L366.782 30.889L367.495 33.9553H369.643L370.356 32.6762H372.504L372.979 33.7012H375.832L377.258 31.9139L376.307 30.889L376.774 29.8641L378.438 31.3972L382.963 30.6349L380.586 34.9802L381.299 36.5133L382.963 36.0051L384.389 34.2178L386.053 33.447L387.012 33.7012L387.25 35.7425L386.537 35.9966V36.7674L383.922 38.3005L383.447 40.6045L381.749 40.8925L381.511 43.1964H380.789V45.2377H380.076L379.117 43.4505L377.453 42.6797V42.1715L375.543 41.9174V42.9423H376.264L375.543 44.7295L377.453 44.9836L376.494 48.304L377.682 49.583H378.158V48.304L379.822 47.7958L385.773 47.2791L386.01 48.2617L385.06 49.5746H388.625L388.863 51.1077L389.822 51.6159V49.8287L392.199 49.312L392.675 50.3369H393.388L394.101 52.6408L396.003 52.8949L397.2 51.6159L396.24 51.1077V50.3369L397.429 49.0579L396.24 47.5247H395.289L394.339 45.9916H398.617L399.33 45.2293H400.29L401.003 45.7375L401.241 47.0165L402.675 47.7873L403.388 45.4834L404.102 44.4585H405.29L405.765 42.163L407.429 40.6299L407.676 39.3509L406.716 38.0718L407.192 35.0056L406.232 34.2348L406.47 33.2099L412.183 35.5138L413.847 38.5801L413.134 39.0883L413.372 39.8506H415.52L417.184 41.6379L416.938 42.6628H415.987L415.027 44.7041L413.839 45.2123L413.126 46.4914L409.314 47.5163L407.888 49.8202H406.962L405.265 48.5412L403.363 49.0494L401.937 51.6074H400.502L396.928 53.9114L397.641 55.1904H399.305L401.453 57.4774L402.879 58.0025L404.068 56.4694L406.928 54.9363H409.306L410.969 53.6573H415.257L419.773 51.87L421.921 51.6159L424.069 49.0579L428.076 47.2706L428.594 48.6598L426.785 49.8202L425.699 52.1411L422.456 54.4619L418.848 54.8516L412.718 59.1122L411.275 61.0519L409.11 61.8311L401.173 67.2521H400.094L396.486 65.3124H394.322L393.235 63.7624L385.662 59.5018L380.255 59.1122L377.725 60.6622H375.203L374.125 59.883L372.682 61.0434H370.517L370.874 62.2038L370.152 62.9831L367.979 63.3727L357.52 62.9831L355.711 61.433L352.103 56.4016L349.582 54.8516L349.225 52.9203L347.417 53.31L346.696 54.0892L347.052 56.4101L346.331 57.1809L345.244 56.7913L343.079 58.7225L340.914 59.4933L339.471 62.5935L338.028 64.1435L335.566 64.9313L334.844 65.7105L334.114 69.1919L330.515 66.4813H328.35L324.742 65.3209L320.047 66.1002L314.274 63.7708L309.945 63.3812L308.51 61.8311L306.337 62.2208L302.007 60.6707L298.042 61.0603L295.156 62.2208L291.548 65.3209L289.383 71.5212H288.296L287.218 69.5815L286.132 69.1919L282.889 69.9711L282.524 66.1002L276.759 67.2606H272.795L271.708 68.4211V69.5815L273.873 73.0713V75.3921L271.351 74.6213L269.543 76.1714L269.187 77.7215L267.743 79.6612L263.414 81.2113L257.284 85.8615L256.198 86.2511L254.033 85.8615L251.146 87.7927L246.095 88.572L243.93 85.8615H242.852L240.679 83.5406L239.601 83.151L234.193 85.0822L230.228 84.6926L227.707 86.6323L224.821 87.4031L218.326 87.7927V75.0025L220.847 68.8107V65.3209L221.578 64.1605L219.769 61.45L219.048 59.1291L220.482 57.1894L219.761 52.158L218.674 51.3872V49.0663L219.404 48.2871L220.482 48.6767L221.569 47.1266L220.126 45.5766V43.6369L219.404 42.8576L220.482 37.8262L218.674 36.2761H217.596L215.788 38.597L214.345 38.9866L216.501 35.0903L216.144 33.5572L211.458 29.6777L211.102 28.5173L217.231 26.1964L220.117 22.7067H222.639L225.848 25.4002L230.211 24.6464L230.568 26.1964L229.846 27.3569L230.933 27.7465L232.376 26.9672L233.463 25.0275L234.906 24.6379L235.984 23.4775L236.341 26.9672L237.427 28.9069L239.592 29.6777L241.035 28.9069L242.479 26.9672V25.0275H246.087L246.808 23.4775H247.886L247.53 21.9274L250.781 19.6065L251.503 20.3773H252.581L254.381 18.4376L261.954 17.2772L263.04 16.5064L266.648 18.8272L269.891 18.0564L270.613 16.896L269.891 16.1167L273.499 13.4062L273.143 11.8562L271.334 11.0854L273.143 8.75602V6.82478L274.951 6.43515L276.029 7.20595L277.116 6.43515L277.837 2.56421L280.376 0.234863L281.819 0.624499L282.906 2.17457H283.984L285.427 0.624499H287.592L289.757 1.78493H292.278L293.721 1.01413L295.164 2.56421L295.529 5.27471L296.973 6.04551L301.659 5.65588L306.345 6.81631L307.432 6.03704L315.004 4.09734L317.526 5.64741L318.612 4.87661L325.82 6.42668H328.35L333.036 9.91646L334.844 10.3061L337.722 13.4062L336.279 15.7271V17.6245L334.615 17.8786V18.3868L333.656 17.1078L329.139 17.616L328.18 19.4032L326.992 19.9114L326.278 23.7485L325.09 24.5193L324.844 25.5442L324.131 26.315L321.27 25.8068L320.794 26.8317L321.04 28.3648H321.516V29.6439L320.556 30.9229L321.032 34.4974H321.983L322.229 33.4725L325.319 33.7266L326.983 31.9393L327.458 32.1934V33.9807L328.672 34.4974ZM393.176 6.63844L393.889 7.14666L393.176 9.19648L393.889 10.2214L399.364 10.7296L405.078 10.2214L407.455 10.9922L413.406 11.2463L411.98 11.5004L410.545 13.5333L408.881 13.7959V14.3041L406.029 12.771L405.782 14.3041L403.643 14.05L403.397 15.5831L402.208 16.608L397.446 12.5168L396.257 13.2876L395.544 12.7794L394.356 14.0584L393.88 16.8706L396.495 17.6414L396.741 19.4286L397.93 21.2159L401.495 24.028L403.643 23.5198L404.11 25.0529L402.446 28.1192L398.634 27.611L398.872 25.0529L398.405 24.5447L396.495 24.7988L394.593 26.5861H389.355L388.396 26.8402V27.3399L386.503 26.8317V25.5527L388.404 24.0196V21.9697H390.552L391.503 20.6907H392.216L391.741 21.9697H392.929L393.889 21.2074L392.7 18.9035L391.036 17.8786V17.1078L387.224 14.2956V13.2792H389.372L390.085 12.5084L388.421 10.467L388.668 8.1631H389.381L390.332 6.62997H393.176V6.63844ZM416.258 22.9947L417.447 26.315V28.3564L416.496 28.6105L416.25 32.4475L417.685 35.0056H416.963L416.25 36.2846H415.061L414.586 34.7515H412.209L410.307 32.7101L406.029 30.9229L405.782 26.8317L407.217 25.0445L409.832 26.5776L411.496 30.4062L413.16 30.6603L414.586 28.1023L413.873 25.5442L414.111 23.757L414.824 22.9862H416.258V22.9947ZM406.496 18.6494L408.159 20.4366L404.832 23.2488L403.397 22.9947L403.159 20.1825L405.061 18.6494H406.496ZM335.812 20.4451L336.525 21.47L335.812 23.5113L334.624 24.2821H332.96L331.763 21.9782L333.664 21.7241L335.812 20.4451ZM387.462 37.8262L387.7 38.3344L389.364 38.5885L389.126 39.8676L386.265 39.3593L386.019 38.0803L387.462 37.8262ZM425.3 18.1411L426.251 19.6743L425.784 20.9533L424.833 21.2074L423.873 18.6494L425.3 18.1411Z" fill="#ECF4FF"/>
<path d="M251.163 87.7842L250.077 91.2655L245.925 96.4832L245.637 97.9401L243.591 99.7866L238.149 107.054L237.453 109.468L238.905 113.729L241.044 117.176L241.672 122.165L248.201 130.339L248.634 133.854L248.277 136.175L246.112 138.496V139.656H243.226L241.426 138.886L238.54 141.207L237.818 142.757L235.653 143.536L234.21 143.146L233.132 143.917H232.045L231.688 142.757L230.602 141.986L227.359 142.367L225.194 145.467L220.856 148.948H219.065L216.891 147.398L214.727 147.017L213.292 147.788L209.684 151.659L206.789 152.049L205.711 151.659L203.546 155.53L202.468 154.759L201.024 155.14L197.06 157.851L197.416 152.049L196.33 151.269H189.844V145.467L190.2 144.307L192.365 143.917L192.722 141.596L192.009 140.825H185.514L184.793 141.596V143.917H151.607L151.242 135.786L150.521 135.015H148.356L147.269 134.244L146.913 128.433L140.061 128.052L138.975 128.433L136.453 124.952V122.631L137.897 120.302V119.141L133.567 119.921L132.845 120.691L129.602 121.471L128.516 120.691L127.438 121.081L116.614 120.691L115.535 119.921V118.76L97.8603 118.371L94.9738 124.562L89.5575 131.144L88.8359 129.594L89.0567 124.681L89.2349 124.444L95.4238 120.353L96.3831 117.286V114.737L98.7601 111.154L101.85 109.112L102.097 105.538L103.523 104.005H106.138L112.089 99.9221L116.605 99.4055L122.089 96.3392L122.318 95.3228L123.753 94.0437L124.466 89.9526L126.368 86.124L129.704 83.5659L130.655 81.7787L132.081 81.5246L132.794 79.4748H133.983L135.418 77.9501L136.131 75.6462L137.082 74.6213L138.27 69.7678L139.696 68.9969L141.598 66.4474L142.549 66.9556L145.172 66.7015L146.598 68.2346L152.074 69.5136L151.361 77.1793H149.459L149.213 81.7787L148.262 82.541V83.3118L149.935 82.541L150.164 84.3367L154.451 88.6735H155.402L157.074 86.8863L158.976 87.403L159.927 86.124L158.263 84.0741L157.304 83.82L159.451 81.2705H161.115L162.312 80.2456H163.73L165.64 81.2705L166.591 82.8036L165.64 88.9361L166.116 90.2067L167.067 89.6984L167.304 86.124L167.78 85.6073H169.69L173.731 87.1404L174.919 88.4194L178.009 89.6984L178.018 90.2067L179.92 91.2316L179.444 88.9361L178.018 88.6735L174.919 86.3781L170.403 84.3367L168.73 82.8036L168.255 81.2705L166.353 81.0079L162.075 75.9003L161.115 76.1544V77.4334L158.738 77.6875L156.115 79.4748L155.173 82.0328H154.689L154.451 86.8863H153.976V82.2869L152.787 81.2705H151.836L150.164 79.2206L151.361 78.9665L152.074 79.9914L153.976 79.4748L155.173 78.2042V76.6626L158.501 74.8838L160.402 74.6213L160.886 73.6048L163.501 72.5799L163.73 70.7927H163.263L163.017 68.4887L164.689 66.9556L165.165 63.3811L169.282 58.7309L170.717 58.3497L175.047 53.3099L176.49 53.6995L177.933 52.1495L183.349 53.6995L189.479 53.3099L192.009 50.5994V47.8889L193.087 44.7887L196.695 41.6971L201.39 40.147L204.998 39.7574L208.954 42.4679L214.37 38.9781L215.813 38.5969L217.621 36.2676H218.691L220.499 37.8176L219.421 42.8575L220.143 43.6283V45.568L221.586 47.1181L220.499 48.6681L219.421 48.2785L218.691 49.0578V51.3787L219.778 52.1495L220.499 57.1893L219.065 59.1205L219.778 61.4499L221.586 64.1604L220.856 65.3208V68.8021L218.335 75.0024V87.7842L224.829 87.3945L227.715 86.6237L230.237 84.684L234.21 85.0736L239.618 83.1339L240.696 83.5236L242.869 85.8444H243.947L246.112 88.555L251.163 87.7842Z" fill="#ECF4FF"/>
<path d="M322.485 86.124L321.297 88.1653L321.772 90.2067L320.821 92.7647L321.067 94.806L323.682 96.0851L325.83 95.831L326.305 96.5933H329.396L331.06 98.6346L332.248 99.1429L334.15 98.8887V100.168L330.576 100.676L329.387 100.168L329.149 98.1264L328.19 97.8723L326.288 99.6596L327.477 101.142L331.756 102.726L332.231 103.751L331.272 104.776L327.944 104.005L328.419 105.538L327.231 106.309L326.042 104.522L321.993 104.267L321.526 103.243L322.714 102.726L322.952 101.193L321.526 100.939L320.091 101.709H318.427L317.714 100.176L318.189 98.6431L320.329 98.389V97.8808L319.862 97.3726H317.952L315.575 96.0935L315.337 94.8145H314.378L312.238 97.11L312.476 99.668L311.05 101.201L307.713 102.734L303.426 101.464L298.434 100.947L297.246 101.718L297 103.759L295.098 104.267L294.385 105.546L295.811 108.553L297.721 109.883H299.623V111.162L301.525 112.441L303.672 112.958L305.574 111.933L309.14 112.187L310.574 112.695L310.812 113.974L312.001 115.253L315.337 116.024L316.05 116.795V118.582L315.091 119.353V120.124L316.526 120.632L317.239 122.928L319.616 123.436L320.465 124.207L319.599 125.477L316.772 125.155L316.008 128.12L315.396 128.069L314.564 125.689H313.758L312.867 127.468L311.831 132.745L300.845 132.779L300.005 135.43L291.736 135.176L290.599 135.633L289.792 137.454H285.726L284.333 137.979L279.46 137.471L276.566 138.767L274.392 138.166L267.023 138.14L266.582 134.625L252.269 134.024L248.559 135.337L248.618 133.888L248.185 130.373L241.657 122.199L241.029 117.21L238.881 113.754L237.438 109.494L238.134 107.088L243.575 99.8205L245.63 97.974L245.918 96.5171L250.07 91.2993L251.157 87.8095L254.043 85.8783L256.208 86.268L257.294 85.8783L263.424 81.2281L267.753 79.678L269.197 77.7383L269.553 76.1882L271.361 74.6382L273.883 75.409V73.0881L271.718 69.5983V68.421L272.805 67.2605H276.769L282.534 66.1001L282.899 69.971L286.142 69.1918L287.228 69.5814L288.306 71.5211H289.393L291.558 65.3208L295.166 62.2207L298.052 61.0602L302.017 60.6706L306.347 62.2207L308.52 61.831L309.955 63.3811L314.284 63.7707L320.057 66.1001L324.752 65.3208L328.36 66.4812H330.525L334.124 69.1918L334.854 65.7104L335.576 64.9312L338.097 64.1604L339.541 62.6103L340.984 59.5102L343.149 58.7394L345.313 56.8081L346.4 57.1978L347.122 56.427L346.765 54.1061L347.487 53.3268L349.295 52.9372L349.652 54.8684L352.173 56.4185L355.781 61.4499L357.589 62.9999L368.048 63.3896L370.222 62.9999L370.943 62.2207L370.587 61.0602H372.751L374.195 59.8998L375.273 60.6791H377.794L380.324 59.129L385.732 59.5186L393.304 63.7792L394.391 65.3293H396.556L400.164 67.269H401.242L409.18 61.848L411.345 61.0687L412.788 59.129L418.917 54.8684L422.525 54.4788L425.768 52.1579L426.855 49.837L428.663 48.6766L428.145 47.2875L430.319 48.3124L430.556 50.3537L425.556 54.699H424.605L422.22 57.2571L420.793 57.5112L418.892 60.3233L416.039 62.6273L415.326 64.4145L412.949 65.9476L411.973 67.7264L410.309 68.7513L408.883 67.9805L406.735 68.2346L405.784 70.0218L406.972 70.7927V71.555L405.784 72.0632L405.546 72.834L403.882 73.8589H402.218L398.882 76.417L395.079 76.9252L393.415 79.4747L390.792 80.2455L390.325 81.0163L386.275 81.7787L385.087 83.0577L383.652 83.3118L381.988 84.5908L378.66 83.82L376.283 84.3367L375.094 85.8698L375.808 86.3865L376.996 86.1324L376.283 87.6656L371.045 89.9695L369.61 91.7567L366.996 92.7816L363.659 97.8893L360.094 100.956L359.38 99.9306L356.995 100.185L356.757 101.21L354.856 101.718L353.667 103.505H353.192V99.4139H353.905V98.6431L342.724 87.1489L341.06 86.6406V84.8534L339.872 83.3203L335.593 84.3452L333.683 86.6406L329.404 87.4114L328.929 86.9032L327.978 87.1573L327.74 84.5993L326.789 83.0662H325.125L324.404 84.8534L323.215 85.1075L322.485 86.124ZM352.479 120.607L353.192 119.59L356.995 118.828L357.717 117.803H358.667L359.389 117.041L361.053 119.853L370.816 118.32L371.767 118.066L371.996 117.303L372.48 119.09L374.118 120.878L374.619 127.264L371.758 131.864H373.422L373.66 133.905L376.037 135.438V136.209L377.225 137.234L377.472 139.275H377.938L378.185 136.717L377.472 135.438L378.422 131.864L379.611 130.585L383.898 129.052L385.8 126.494L388.414 124.706L388.177 122.919L386.988 122.665L386.029 123.173L386.275 121.132L384.84 119.853L384.603 117.041L383.643 116.27L382.693 113.458V112.179L384.357 110.9L384.603 109.875L381.266 109.367L380.078 110.137L379.365 109.112V107.579L381.029 107.071L383.643 102.472L385.791 101.701L387.217 99.6596L389.586 100.684L390.308 102.98H391.496L391.734 95.831L392.447 95.3227L393.636 95.831L395.07 97.8723L398.636 97.3641L398.874 99.1513H400.537L401.734 96.8559L400.784 91.4857L402.923 90.7149L403.874 86.6237L405.538 85.3447L406.489 83.5574L410.3 82.2784L412.202 78.9581L413.161 78.4498H416.252L417.211 75.3836H418.162L419.596 78.4498L420.309 78.7039L419.121 80.9994L419.834 82.7866L422.211 83.2949L423.875 81.7617H425.785L426.023 84.5654L424.597 84.3198L424.121 85.0821L423.646 89.1733L422.457 90.9605L422.933 92.4936H424.359L426.023 90.1982L428.884 91.2231L430.31 90.7149L429.843 88.4109L431.507 87.386L432.696 84.0657L432.229 82.0243L431.04 81.262V80.4912L432.933 80.2371L433.171 77.9416L434.606 76.4085L435.794 77.1793L437.221 81.7787L436.983 84.5908L440.073 91.7483L437.212 93.7896L435.31 93.5355L432.22 91.24L431.499 91.7483L432.449 94.0437L430.786 99.1513L432.22 101.709L431.974 105.03L434.597 106.055L434.835 108.096L432.458 112.433L428.408 112.179V113.458L430.786 116.016L431.261 117.549L430.786 120.615H430.31L428.884 123.427L430.072 123.681L431.736 122.402L431.49 120.869L431.966 120.107H434.827V116.532H435.302L436.728 113.72L438.638 113.204L439.801 114.229L439.589 116.787L441.253 119.345L442.433 123.427L442.212 125.215L439.835 125.977L440.073 127.51L441.262 128.789H446.5L445.073 127.51L444.827 126.231L446.262 125.977L445.073 123.681V119.082L445.549 118.057L445.303 114.991L446.737 112.95L446.016 111.925H445.303L445.549 113.966H444.352L443.639 110.9L445.073 106.046L443.885 104.767V103.488L445.311 102.463L446.5 102.971L447.934 102.717L448.172 101.692L449.361 100.668L450.549 101.438H451.984L450.549 97.6097L451.016 96.8474L450.549 94.2894L451.024 93.0103H451.984L453.885 94.7976L456.976 95.3058V96.8389L459.573 99.1344L459.115 102.963L456.492 106.029V108.071L457.443 108.841L457.68 110.79L456.789 109.832L454.624 110.603L454.267 111.764L454.989 114.864L453.911 117.185L454.632 118.735L456.441 119.895L455.719 123.766L457.884 126.087L455.354 133.058V135.379L452.833 136.929L451.755 139.25L447.06 143.51L444.538 143.9L443.452 143.129V140.808L441.287 139.648H438.401L432.271 132.296L431.185 131.906L428.646 135.396L425.047 135.777L421.439 134.227L419.274 132.296L417.831 130.356L420.004 128.416L418.917 127.646L416.752 127.256L414.953 124.935L407.015 123.385L404.494 125.325L405.215 129.196L403.407 131.906L404.494 133.456L402.329 135.006L398.364 134.227L396.199 135.006L393.313 133.846L388.983 135.006L388.262 136.167L387.532 141.198L384.289 144.298L383.202 146.619H381.037L379.95 145.848L375.264 150.49H362.64L361.919 151.65L357.954 154.361V150.49L359.397 147.39L358.676 146.611V144.29L357.233 142.74V138.098L353.981 136.158L355.424 128.416V124.545L353.616 123.775L354.703 120.293L352.479 120.607ZM450.294 69.7677L453.86 71.0468L454.811 73.0881L453.86 76.4085L455.762 77.9416L457.196 80.2371L456.008 83.0492L453.86 83.82L453.614 85.3531L454.335 85.8614L453.86 87.6486L452.671 87.9027L451.712 89.69L448.851 88.9192L449.327 83.5574H448.367L448.613 80.4912L447.654 79.4663L445.99 79.7204L444.564 75.6292L444.802 74.3502H445.761L446.474 73.0712L447.663 72.8171L448.376 71.0298L450.294 69.7677ZM510.502 8.67969L510.264 12.4575L510.739 12.7709L510.977 15.583L511.69 16.3453H512.641L515.502 19.4116L516.928 18.6408L519.789 19.4116V20.4365L518.83 20.9447L518.117 22.4779L513.838 22.9861L513.592 22.2238L509.789 19.9198L508.125 20.1739L506.936 18.6408L505.977 16.3369L506.452 14.8037L505.264 13.5247V12.7624L506.223 11.9916L506.698 9.95024L510.502 8.67969ZM341.052 95.3227L342.24 95.831L342.953 97.6182L340.576 101.455L339.15 102.734L336.051 103.505L335.338 104.53L333.674 104.013L333.207 102.734L336.06 100.947L336.781 97.8808L339.634 95.3227H341.052ZM449.819 52.6492L452.68 53.6741L454.582 52.9033L454.819 54.1823L452.442 55.4613V56.9945L451.491 57.5027V60.569L451.016 61.0856H448.393L447.926 60.5774L448.393 59.5525L447.204 58.7817V58.0194L446.253 57.7653V57.0029L447.917 56.4863V54.9531L447.196 54.699V53.9367L448.63 53.6826L449.819 52.6492ZM332.002 90.9775L333.437 92.5106L333.674 94.0437H330.813L330.346 92.2565L332.002 90.9775ZM425.777 74.8838L426.49 75.392V77.9501L426.244 78.7124L425.293 78.9665L425.047 75.6461L425.777 74.8838ZM332.723 111.925L333.199 113.458H332.723L332.486 114.483H331.773V111.925L332.01 111.416H333.207L332.723 111.925ZM460.286 72.0717V72.8425H461.246V73.6048L459.106 73.0966L458.86 72.0717H460.286Z" fill="#ECF4FF"/>
<path d="M331.603 186.489H328.36L326.56 187.649H324.752L324.396 189.191L322.222 189.581L321.144 189.191L319.701 189.97L316.093 190.36H313.928L312.85 189.581L311.042 192.681L308.877 193.062L307.799 191.52H306.355L305.634 192.291L305.922 194.612L301.669 195.391L299.139 194.612L295.896 196.162H291.21L290.123 198.093L287.594 197.704L285.794 198.483L283.629 198.093L281.464 196.162L280.378 197.323H279.299L277.856 199.254L274.605 197.704L272.813 198.483L271.37 197.704L270.284 199.643H268.119L265.954 197.704V196.543L263.433 195.391L262.711 187.649L264.876 184.549L266.31 183.779L266.676 182.618L265.232 179.137L265.954 177.206L267.754 176.045L265.597 173.335L266.31 171.395L268.475 171.014L269.562 169.853V167.532L271.37 165.593L275.335 164.432L277.5 161.722L280.021 159.791L281.108 157.47L284.351 155.14L285.072 153.98L284.351 148.948L285.794 148.178V145.467L285.437 142.757L283.986 141.207L284.351 137.954L285.743 137.429H289.809L290.607 135.608L291.745 135.15L300.014 135.404L300.863 132.745L311.84 132.711L312.884 127.434L313.775 125.664H314.582L315.414 128.044L316.025 128.095L316.789 125.138L319.616 125.46L320.482 124.19L323.674 127.51H326.526L325.822 129.806L326.051 134.659L324.862 138.488L326.297 140.021H327.01L328.199 142.57L319.149 151.769L318.207 154.065L316.772 154.327L316.305 155.852L314.157 157.385L313.444 159.172L310.821 160.959V161.73L309.157 163.009L308.919 164.28L307.484 165.559V166.33L304.157 169.896L303.206 170.15L303.443 170.666L305.354 170.15L306.542 168.625L307.484 168.371L308.444 167.346L308.919 165.559L310.592 164.534L311.78 162.493L313.682 161.468L313.444 160.705L314.395 160.451L315.583 158.664L317.961 156.877L319.149 154.327L320.821 153.302L321.772 151.515L322.723 151.261L324.862 148.957L329.387 143.087L331.764 142.833L332.002 141.554L331.051 140.021L331.764 139.258L331.535 137.471L332.24 136.955L333.199 133.126L332.953 131.593H333.666L333.912 129.035L336.527 124.19L339.626 123.165L342.24 124.19L342.716 122.657L344.142 122.394L346.519 120.353V118.057L345.093 117.032V116.016L346.052 115.753L346.765 116.27L347.708 114.737L350.093 114.991L351.757 117.032H352.708L353.183 116.27L354.38 116.778L354.143 117.286H352.946L351.282 119.082V120.353L352.479 120.607L354.695 120.302L353.608 123.792L355.416 124.562V128.433L353.964 136.175L357.216 138.115V142.757L358.659 144.307V146.628L359.381 147.398L357.938 150.499V154.37V157.851L359.381 159.401V160.561H352.886L353.608 162.882L351.086 166.753L349.278 167.143L348.557 169.464L347.113 171.014L344.227 173.335L342.427 173.716L341.706 174.495L337.019 174.876L335.568 176.045L334.855 178.366L332.69 181.847L333.046 186.489H331.603Z" fill="#ECF4FF"/>
<path d="M294.398 256.429L294.636 255.404L298.448 255.149V254.641L298.923 254.895L300.825 253.362L302.964 253.879L303.44 252.092L305.825 250.813L307.727 248.263L310.342 247.746L312.49 246.222L315.342 246.476L315.58 245.705H316.768L318.432 246.984L320.58 246.73L321.531 248.009H324.621V248.517L327.007 249.28L327.482 250.304H329.146L330.81 251.567L331.761 251.583L335.572 254.133L336.048 256.429L337.474 257.445L340.81 256.683L342.712 255.404L343.671 255.666L345.089 257.708L347.237 258.724L349.139 260.765L349.852 264.086L351.04 265.356H351.753L349.852 268.931L350.089 270.464L352.229 268.931L351.991 267.652L352.704 266.381L353.893 268.931L355.319 269.185L356.754 270.955L358.18 271.226L358.418 272.505L362.467 276.071V277.096L361.516 277.604V282.449L360.803 282.958L361.992 284.999L359.377 289.082L357.705 288.319L356.558 289.819L353.604 283.957L351.083 283.567L348.918 281.636L346.023 280.865H344.588L341.702 282.797H339.894L337.729 280.476L330.878 280.095L327.27 278.934L325.826 276.994L321.862 277.384L318.619 278.934L316.811 278.155L313.924 279.315L311.819 279.104L312.634 273.428L318.865 268.49L318.814 265.72L314.646 261.917L313.924 262.688V263.84L311.505 265.322L309.331 262.807L306.717 256.886L302.565 258.961L302.362 258.012L300.791 257.038L294.398 256.429Z" fill="#ECF4FF"/>
<path d="M285.026 258.216L286.181 260.858L286.155 264.238L284.746 265.754L284.016 268.846V274.258L282.208 277.35L280.748 278.544L279.661 278.155L277.853 278.926L276.409 278.536L274.601 276.986H273.166L271.723 280.078L267.037 282.78L265.95 282.009L266.307 279.688L263.786 277.367L264.142 276.207L262.334 272.725L261.256 271.955L259.447 268.092L256.926 265.771L254.396 264.221H250.432L247.545 265.771L243.216 265.839L241.314 264.069L241.789 260.24L243.216 258.199L249.167 256.157L249.642 254.116L251.79 253.608L252.741 252.583H254.651L255.118 251.304L256.306 250.542L258.93 250.796L261.544 249.517L267.504 249.771L270.365 251.05L271.316 250.025H272.504L272.98 251.05H273.693V251.812H280.119L279.882 255.895L281.07 256.657L284.16 257.165L285.026 258.216ZM239.421 254.387L240.372 254.895L240.609 256.174L237.281 257.199L237.035 255.412L238.224 255.158V254.396H239.421V254.387Z" fill="#ECF4FF"/>
<path d="M311.822 279.104L301.329 282.382L297 281.611L295.556 280.061H294.113L293.757 281.221L292.678 281.611L287.984 280.442L282.211 277.35L284.011 274.258V268.846L284.741 265.754L286.15 264.238L286.176 260.85L285.029 258.216L288.688 257.962L288.926 255.149H291.549L292.254 257.191H293.451L294.402 256.428L300.794 257.038L302.365 258.012L302.569 258.961L306.72 256.886L309.335 262.807L311.508 265.322L313.928 263.84V262.688L314.649 261.917L318.818 265.72L318.869 268.49L312.637 273.428L311.822 279.104Z" fill="#ECF4FF"/>
<path d="M377.935 183.94L380.312 185.473L380.788 187.514L379.837 188.793L380.075 191.088L378.411 192.368L378.173 194.917H377.46L376.025 193.892L374.599 190.826L372.935 191.08L373.173 189.801L374.361 189.547L374.124 188.785L368.886 189.039L369.361 186.235L371.263 185.727L372.213 184.702L373.164 181.381L372.689 180.102L370.787 179.848L370.312 180.357L369.599 179.848L370.074 176.782L368.886 175.503H368.172L368.41 177.036L367.451 178.061V179.594L367.213 179.086L365.549 178.832L365.795 181.636L364.836 182.144L365.074 184.185H362.697L362.459 184.947V185.71L363.885 186.735L364.361 188.522L358.647 191.326L359.369 191.58L360.32 190.817L361.279 191.58L363.894 191.326L364.14 189.284L364.853 189.03L365.566 190.563L367.468 191.072L370.091 193.63L372.468 194.138L371.993 196.687H371.517L370.091 199.491L370.329 201.787L370.804 202.041L370.329 203.565L371.05 205.861L372.944 206.369L374.141 209.181L373.894 211.985L375.304 214.026L375.091 219.642L376.28 220.404L378.895 220.658L380.559 222.954L383.895 222.183L384.362 221.421L385.559 221.167H386.501L387.214 222.7H388.403L389.838 221.421L390.788 225.249V228.316L392.699 229.078V231.89L391.985 232.144L391.264 234.44H392.928L393.174 236.989L395.076 236.735L394.829 234.44L395.78 234.186L395.543 233.677L397.207 232.144L398.87 232.652L399.346 231.89L400.526 232.398L400.772 231.636H402.198L403.149 232.915L402.911 234.448L404.575 235.465L404.822 236.489H405.535L407.436 238.531V239.293L409.338 240.572V243.376L407.912 243.63L408.625 245.163L408.387 247.459L407.199 248.729H404.338L403.862 249.746L401.961 250.508L400.772 253.312L399.108 253.566L394.583 252.295L394.108 251.533H393.395L393.87 250.77L393.395 249.746H391.018L389.116 251.787L389.354 254.082L391.255 253.574L390.78 255.615L388.641 256.64L388.878 258.428L389.838 259.707L391.264 260.215L395.076 259.961L395.789 260.469L395.313 262.502L396.026 262.51L396.977 262.002L397.453 260.469L398.641 259.453L401.731 259.707L401.018 260.732L399.592 261.24L399.83 263.789L400.543 264.298L401.018 267.355L402.682 268.118V269.905L403.871 269.143L405.535 269.905L404.83 272.963L403.395 273.979H402.207L399.83 272.192L399.354 272.954V274.233L400.067 274.742L399.83 276.783L399.592 277.545L398.157 277.799L396.281 276.266L396.01 274.479L395.059 273.2L391.722 272.183V271.675L390.534 271.167L390.058 268.872H388.632L387.444 268.109L384.82 268.363L384.345 267.601H383.632L383.394 268.617H383.87L384.107 269.896L381.73 271.175V273.725L381.255 273.471L378.878 276.537L377.918 275.521L375.779 275.775L376.017 274.242L375.066 273.734L374.591 271.692L372.68 269.905V269.143L374.828 266.847L377.689 267.101V266.076L375.788 265.822L375.55 265.06H374.837L376.025 263.781V262.756H375.074L373.164 264.797L371.738 265.051V265.56L369.361 265.051L368.41 263.772L368.886 261.477L370.787 259.436L370.312 256.886L372.222 253.057L371.976 249.229L369.836 247.442L370.074 245.654L368.172 242.851L367.926 240.555L362.688 239.793L362.934 238.006L362.213 237.497L360.787 237.752L361.5 239.539L361.262 240.818H361.737L361.491 242.351L358.63 243.884L356.729 246.95L353.392 250.008L353.868 251.033L352.441 252.566H351.482L350.769 253.837L349.597 254.15L349.241 252.6L348.154 251.829L349.597 249.898L348.519 247.577L349.241 246.806L348.519 246.036L349.241 244.875L352.119 245.646L351.762 242.165L350.684 241.004V238.683L349.597 238.294L349.241 237.133L347.798 236.744L347.076 234.423L348.884 233.262L351.771 228.621L350.328 227.07L347.798 226.689L349.606 224.758L350.328 221.666L349.241 221.277L348.519 222.437H347.076L344.19 220.506H342.755L341.668 219.346L340.59 215.093L338.06 209.681L333.018 210.07L333.323 206.564L331.328 193.57L331.574 186.464H333.018L332.661 181.822L334.826 178.341L335.547 176.02L336.991 174.859L341.677 174.47L342.398 173.69L344.198 173.301L347.085 170.98L348.528 169.43L349.249 167.109L351.058 166.719L353.579 162.848L352.857 160.528H359.352V159.367L357.909 157.817V154.336L361.873 151.625L362.595 150.465H375.219L379.905 145.823L380.992 146.594H383.156L384.243 144.273L387.486 141.173L388.216 136.141L388.938 134.981L393.267 133.821L396.154 134.981L398.319 134.202L402.283 134.981L404.448 133.431L403.361 131.881L405.17 129.17L404.448 125.299L406.969 123.36L414.907 124.91L416.707 127.231L418.872 127.62L419.958 128.391L417.785 130.331L419.228 132.27L421.393 134.202L425.001 135.752L428.601 135.371L431.139 131.881L432.226 132.27L438.355 139.623H441.241L443.406 140.783V143.104L444.493 143.875L447.014 143.485L451.709 139.225L452.787 136.904L455.309 135.354V133.033L457.838 126.062L455.674 123.741L456.395 119.87L454.587 118.709L453.865 117.159L454.944 114.839L454.222 111.738L454.578 110.578L456.743 109.807L457.635 110.764L458.823 114.178L460.258 114.949L460.971 114.44L462.873 114.695L464.061 113.161H464.783L465.496 114.949L468.832 115.711L471.447 113.924L473.349 113.416L476.685 113.67L477.16 111.882L478.111 111.112L477.874 114.432L478.349 115.194L480.497 113.915L481.685 116.982L482.161 116.473L484.538 116.982L485.005 115.703L486.669 116.211L483.808 118.769V120.81L482.857 121.064V121.572H481.668L481.193 122.597L482.152 123.106L482.39 124.376L483.103 124.893L482.865 128.721L484.292 129.492L484.529 130.771L485.956 130.517L486.669 131.279H487.628V133.067L488.817 133.837L488.341 135.625L489.292 136.133L489.53 137.666L487.866 138.691L485.489 138.437L483.825 138.954L484.071 138.437L482.882 137.675L482.636 136.65L480.021 135.371L479.775 133.075L478.349 130.78L475.259 131.55L474.07 131.296L473.111 130.017H472.152L469.537 134.1L467.873 133.592L465.971 136.404L465.725 137.937L467.16 139.216L466.914 140.749L465.963 141.003L464.299 139.216L462.864 140.749V141.774L463.586 142.282L463.11 147.136L461.676 148.669L459.299 148.923L458.585 149.948L459.299 150.965L460.487 151.219L460.733 152.752H461.913L462.635 151.473L463.815 151.981L464.061 150.702H465.021L466.209 152.997L467.873 152.743L469.299 155.293V157.588L470.963 157.334L471.685 159.376L473.824 157.588V159.113L475.259 158.867L476.923 159.892V166.533L478.111 170.107L476.923 171.124H474.537L474.3 171.632L476.677 175.969L477.39 176.223L477.865 178.519L476.914 179.543L477.152 180.822L476.439 181.331L473.578 181.077L472.389 179.798L471.676 176.477L470.955 176.223L469.766 173.928V171.886L467.627 173.673L466.438 173.419L465.963 172.394L464.774 171.886L463.586 173.673L464.299 176.994L467.16 178.527L467.398 179.298L468.586 179.552L468.824 181.847L467.389 183.635L465.012 183.38L463.348 186.447L466.209 186.955L467.16 188.234L463.594 188.488L463.832 189.767L462.643 190.538L462.406 192.317L460.496 192.325L460.258 193.604L458.356 193.087L457.881 191.808L455.02 191.038L454.069 193.079L456.446 193.596L457.168 194.612L456.93 195.891L455.742 195.383L455.266 196.662L453.874 196.154L453.602 195.129L452.414 194.875L451.463 193.596L450.274 194.104L450.75 196.145L450.274 200.228L451.225 200.736L451.701 203.54L450.274 204.057L450.028 207.368L449.315 208.139L447.167 208.91L445.979 207.631L445.512 206.098L445.749 203.032L444.315 202.015L443.848 198.441L442.888 197.933L443.602 196.916L443.126 195.129L444.077 194.358L443.602 191.292L442.651 191.546V192.571H441.462V195.374L440.274 195.883L439.552 194.866L438.126 195.12L437.65 196.908L436.224 198.441L432.412 194.104L432.175 192.317L431.47 191.546L431.462 190.784L434.56 191.038L434.085 189.25L432.421 188.996L430.757 186.955H428.38L425.765 183.889L425.527 182.356L426.962 181.585V179.289L427.913 179.035L427.438 177.502L428.388 176.223L428.151 173.673L428.864 172.14V169.845L426.716 171.378L426.478 170.607L424.814 169.836L421.953 169.328L418.617 166.77L418.15 164.475L417.428 164.729V165.5L414.814 166.27L414.338 164.483L415.289 161.925L414.568 162.179L413.379 164.475L411.477 163.458L412.912 159.884H413.863V156.309L415.051 156.055L414.101 155.284L408.149 156.309L407.912 158.605L406.477 160.392V161.163L408.141 162.442L407.903 163.467L405.28 162.959L402.903 164.238L402.436 162.704H401.001V163.213L397.911 164.229L397.665 161.934L396.001 159.376L394.099 160.4L391.247 159.892L390.534 157.851L389.345 156.826V155.039L388.632 154.531L385.296 153.76L383.87 155.039L383.623 156.055H382.435L381.722 155.039L380.533 154.785L379.345 156.572V159.13H378.869V161.934L379.829 163.695L374.828 168.828L375.074 169.599L376.738 169.345L377.893 171.641L376.976 172.657L376.73 174.444L375.304 175.977L375.066 178.273L376.017 179.806V181.593L376.976 182.101L377.451 183.889H377.935V183.94ZM398.879 172.2L399.354 167.346L400.789 166.838L404.117 168.117L404.592 169.396L404.117 171.691L404.592 172.454L405.305 172.2L406.027 170.412L405.305 166.838L406.969 168.117L408.88 167.355L410.781 167.609L411.019 168.888L409.83 170.929H410.544L411.503 169.396L413.88 169.142L414.831 171.183L413.642 173.225L413.88 175.012L415.781 177.307L416.732 180.628L415.781 184.964L416.257 185.735L419.356 186.506L420.306 187.785L422.93 189.064L421.97 191.614L422.208 194.417L421.257 195.95L421.495 196.975L421.257 197.484L419.593 197.738L420.306 199.525L419.831 202.591L420.306 203.362L421.495 203.616L422.208 205.912L425.307 209.994V212.552L425.061 215.873H423.397L421.962 217.914H421.249L420.06 216.635L419.101 217.143L417.675 216.889L417.428 217.397L415.765 217.143L414.576 212.036L413.625 211.019V208.724L412.19 206.428L413.15 204.387V202.6H414.576L414.822 201.575H413.158L411.97 199.533L410.781 199.279L410.068 201.321L408.88 201.829L407.445 200.042L405.068 199.279L404.355 197.746L403.395 197.229L402.92 194.934H402.453L401.731 193.147L402.207 190.851L403.395 190.343L404.108 188.556L403.395 185.744L404.108 185.49L404.355 184.473L402.691 180.39L401.027 179.882L399.601 178.603L399.838 175.8L398.879 172.2ZM396.018 281.179L397.444 281.687L396.977 283.22L396.264 283.474V285.008L396.74 285.262L396.493 286.024L397.928 286.786L398.166 288.574L396.264 290.361L396.502 292.148L395.789 292.91L395.551 294.952L394.116 295.206L391.264 294.444L391.026 295.714H390.551L391.026 296.476L390.78 297.747L388.641 298.763L387.452 297.747V296.985L388.641 295.714L387.928 294.689L385.78 294.435L384.116 293.673L383.156 292.402L381.968 292.148L382.443 289.344L381.73 287.557L382.919 286.795L384.583 283.991L386.73 282.712L387.444 283.729H389.345V282.458H390.058L391.247 280.925L392.682 280.671L392.919 279.654H394.583L396.001 278.892L395.543 280.163L396.018 281.179ZM456.005 220.701L455.758 222.996L457.66 224.275L458.619 226.571L458.144 228.866L459.095 229.891L460.521 230.145L459.57 231.932L457.193 232.449L457.66 234.236L457.193 235.515L454.095 234.499L454.808 231.695L454.341 230.933L452.431 230.171L451.004 226.85L451.48 223.022L453.381 222.768L455.283 220.726H456.005V220.701ZM394.363 172.962L394.6 173.47L395.56 173.216L395.797 173.987H392.707L393.896 176.028L393.649 177.815L395.313 179.094L394.838 179.349L395.313 180.374L396.977 180.628V182.415L395.789 182.669L395.313 183.694L396.026 189.056L396.748 189.826V191.614L395.789 192.893L394.6 192.384V190.851L395.56 190.343V189.318L394.125 188.302L392.936 188.556L393.182 186.769L392.223 185.752L392.461 183.457L389.846 181.669L388.658 179.628H387.944L390.559 177.587L390.322 176.824L391.272 175.545L390.797 174.783L391.994 172.996L394.609 171.979L394.363 172.962ZM447.668 217.38L447.914 218.388L445.053 221.971L444.807 225.8L443.381 226.054L443.135 227.07H441.233L440.758 226.308L440.52 229.374H439.34L438.381 227.841V225.292L439.815 223.759L439.569 221.971L440.528 219.93L441.955 218.397H443.619L444.578 219.422L446.004 217.38H447.668ZM454.808 206.665L455.045 205.132L457.193 205.386L457.66 206.149V207.682L456.709 209.723L455.75 210.231V211.765L456.709 213.044V213.806L455.75 214.06V215.085L453.135 213.552H450.512L451.471 211.256L450.758 210.748L451.225 206.157L453.373 205.395L453.848 206.411L454.808 206.665ZM394.829 212.019L401.018 217.634L401.256 220.438L400.543 221.209L395.78 220.438L394.116 219.159L394.363 218.397L393.412 217.889L392.699 215.339L393.412 213.552L393.174 212.535L394.829 212.019ZM418.634 170.667L418.872 171.437H420.773L422.675 173.225L424.11 173.479L424.585 175.52L424.339 176.799H423.388L423.626 180.374L422.191 181.39L421.724 178.07L421.003 177.815V174.495L421.478 174.241L419.814 173.225V175.012L418.625 176.545L418.388 175.52L416.486 174.504L416.953 173.995L416.715 172.716H417.191L416.715 171.183L417.666 171.437V170.667H418.634ZM442.676 267.144L443.143 269.439L441.479 271.989V274.284L439.815 275.563H437.438L438.151 274.801L438.627 270.972L440.528 269.702L440.766 268.169L442.676 267.144ZM459.324 208.961L459.808 210.494H460.767L464.095 214.068L466.243 214.831L465.768 216.11H462.907L460.292 215.093L459.103 212.027L459.341 210.24L458.628 209.986L458.866 208.969H459.324V208.961ZM443.865 276.58L444.332 279.646L444.807 279.9L444.569 283.22L443.856 283.983L441.946 283.729L440.758 284.237L440.044 283.474V280.163L442.422 280.417L442.897 277.096L443.865 276.58ZM411.494 261.79L412.445 263.061L412.683 265.102L411.97 265.865H411.019L410.781 264.586L409.117 263.823V263.315L410.068 262.036L411.494 261.79ZM428.388 206.665L430.052 209.732L428.864 210.494H427.2L426.487 208.707H426.962L427.429 206.92L428.388 206.665ZM382.223 166.067L384.362 167.346L384.124 169.133L382.698 168.879L382.46 167.6L381.509 167.854L381.034 166.321L382.223 166.067ZM458.144 216.364L458.857 217.897L455.767 218.151L456.013 216.872L458.144 216.364ZM472.661 145.899L473.136 148.711H472.177L471.71 146.153L472.661 145.899ZM438.151 281.941L438.864 283.22L439.815 283.474V284.491L437.905 283.983L437.667 281.941H438.151ZM458.619 271.989L459.766 273.522L459.808 274.547H459.095L457.906 273.014V272.251L458.619 271.989ZM387.461 171.429V173.216L386.985 173.724L385.797 173.47L385.55 172.699L386.747 172.445L387.461 171.429ZM508.835 87.6572L509.556 89.9612H508.835L507.646 88.428V87.6657H508.835V87.6572ZM388.887 167.6V168.108H389.846V169.642L388.182 168.363L388.887 167.6ZM387.936 182.415L387.461 184.202L386.51 183.186L387.936 182.415Z" fill="#ECF4FF"/>
<path d="M332.006 330.146L332.719 332.187L333.432 332.441L334.391 334.229L333.916 337.032L330.104 338.049L328.203 337.541L327.252 338.303L324.875 338.557L322.973 336.007L322.735 332.696L323.448 331.162L322.973 325.038L325.545 322.235L325.825 320.193L324.162 317.39H323.448V316.627H322.489L321.776 317.644H320.341L319.39 318.669L319.866 319.694L318.431 321.735L314.857 321.481L313.669 323.522L312.709 324.03L310.808 323.776L310.332 321.735L311.054 318.931L311.521 318.677L311.767 319.185L312.955 317.652L314.382 317.906L314.857 317.398V316.128L313.669 313.832L310.808 313.578L307.717 311.283V310.258L309.857 311.283H310.808L311.283 310.52L310.094 306.437L311.521 305.675V302.109L310.808 300.068L309.381 298.535L305.332 300.576L303.184 299.043L301.52 295.985L301.995 294.198L302.955 293.69L302.479 292.156L301.045 291.648L300.807 292.156L297.717 291.902L295.569 292.419L294.856 293.436L295.094 294.46L292.946 296.502L291.519 299.305L291.282 302.617L290.322 303.896V305.167L288.888 305.929L284.371 302.871L284.125 301.847L284.847 300.313L283.65 299.805L283.183 296.231L282.224 294.698L280.56 294.189L279.609 290.361L266.518 289.598L262.944 289.09L262.706 288.582L260.083 289.344L258.181 288.836L256.747 286.032L254.845 285.008L254.369 280.925L252.23 279.392L251.509 276.842L249.369 274.293L246.746 268.169L243.885 266.89L243.172 265.856L247.501 265.788L250.388 264.238H254.353L256.882 265.788L259.404 268.109L261.212 271.972L262.29 272.743L264.098 276.224L263.742 277.384L266.263 279.705L265.907 282.026L266.993 282.797L271.68 280.095L273.123 277.003H274.557L276.366 278.553L277.809 278.943L279.617 278.172L280.704 278.562L282.164 277.367L287.937 280.459L292.632 281.619L293.71 281.23L294.066 280.069H295.51L296.953 281.619L301.282 282.39L311.775 279.112L313.881 279.332L316.767 278.172L318.575 278.943L321.818 277.393L325.783 277.003L327.226 278.934L330.834 280.095L337.685 280.476L339.85 282.797H341.658L344.545 280.866H345.98L348.866 281.636L351.031 283.568L353.552 283.957L356.506 289.819L355.751 290.869L353.612 290.361L353.365 291.123L355.276 294.181L357.177 294.943L357.415 296.476L356.939 297.239L359.563 300.042L358.603 302.846L357.89 303.1V304.125L359.554 304.379L359.792 304.887L363.841 304.633L364.317 304.125L365.276 304.633L365.03 305.912L364.079 306.675L361.702 306.166L361.456 307.183H359.079L358.366 306.421H357.406L356.456 307.7L357.406 308.462V309.732L359.554 311.774L360.514 314.069L360.98 318.152L360.514 323.251L363.841 322.743L364.317 324.276L365.981 325.038L365.268 326.826L365.505 329.375L364.555 329.629L363.357 328.613V327.588L364.317 327.334L364.563 326.309L362.177 326.563L361.227 325.801L360.514 327.579H359.079L358.119 326.309L353.128 327.334L349.316 325.547L348.603 322.997L349.791 322.235L350.037 320.964L349.078 318.669V316.881L348.603 316.373L346.455 316.627L345.029 315.094L345.266 314.332L343.365 312.545L344.553 308.716L343.602 307.7V303.617L342.881 301.321L342.168 300.813L342.881 297.755L339.791 295.206H336.701L335.75 295.968L334.79 291.377L333.364 290.615V295.46H334.79L338.127 298.264L339.078 303.363L338.831 305.404L338.594 305.912L335.784 306.421L334.315 303.871L333.356 303.363L331.692 306.166L328.831 306.675L328.593 309.478L326.691 310.749L325.97 312.79L326.216 315.34L327.88 315.848L328.355 316.873L330.732 317.635L332.88 319.423L332.643 322.226L331.454 321.972L330.732 324.013L329.306 324.522L332.006 330.146ZM277.257 291.123L277.979 291.377L278.216 293.419L280.594 296.222V298.518L279.88 300.305H279.405L279.167 302.092L280.594 302.855L281.069 306.937H280.11L278.683 305.404L277.733 301.576H275.831L274.642 300.551H273.692L272.741 297.747L270.364 298.509V297.493H268.7L267.74 294.172L266.552 293.41V292.648L268.216 291.631L273.208 292.14L277.257 291.123ZM302.488 299.289L304.39 300.822V301.584L302.963 303.117L301.529 302.863L300.578 303.879H299.381L297.479 301.584L297.725 300.305L302.488 299.289ZM300.349 316.89L302.726 318.16L302.972 320.456L302.012 320.202L301.299 320.964L299.865 320.456L298.914 317.136L300.349 316.89ZM363.892 308.724L364.139 310.004L363.663 310.512L361.031 309.487L361.507 308.724H363.892Z" fill="#ECF4FF"/>
<circle cx="330.625" cy="288.125" r="13.125" fill="#A37FF8"/>
<circle cx="316.875" cy="249.375" r="9.375" fill="#A37FF8"/>
<circle cx="294.375" cy="233.125" r="4.375" fill="#A37FF8"/>
<circle cx="285.625" cy="206.875" r="4.375" fill="#A37FF8"/>
<circle cx="255.625" cy="190.625" r="4.375" fill="#A37FF8"/>
<circle cx="159.375" cy="196.875" r="4.375" fill="#A37FF8"/>
<circle cx="224.375" cy="118.125" r="4.375" fill="#A37FF8"/>
<circle cx="345.625" cy="63.125" r="4.375" fill="#A37FF8"/>
<circle cx="364.375" cy="181.875" r="4.375" fill="#A37FF8"/>
<circle cx="320.625" cy="313.125" r="4.375" fill="#A37FF8"/>
<circle cx="305.625" cy="276.875" r="4.375" fill="#A37FF8"/>
<circle cx="396.875" cy="300.625" r="4.375" fill="#A37FF8"/>
<circle cx="123.125" cy="261.875" r="4.375" fill="#A37FF8"/>
<circle cx="344.375" cy="255.625" r="15.625" fill="#A37FF8"/>
<circle cx="376.875" cy="285.625" r="9.375" fill="#A37FF8"/>
</g>
<defs>
<clipPath id="clip0_1066_5815">
<rect width="520" height="376.25" fill="white"/>
</clipPath>
</defs>
</svg>
