<svg width="71" height="71" viewBox="0 0 71 71" fill="none" xmlns="http://www.w3.org/2000/svg">
<rect width="71" height="71" rx="24" fill="white"/>
<rect x="11" y="21" width="31" height="35" rx="4" fill="#85D7F9"/>
<rect x="30" y="15" width="31" height="37" rx="4" fill="#43029C"/>
<g filter="url(#filter0_b_528_53)">
<path fill-rule="evenodd" clip-rule="evenodd" d="M35.2 21C36.7729 21.0001 38.3024 21.5186 39.5552 22.4763C40.8079 23.434 41.7149 24.7783 42.1376 26.3038L42.2208 26.6341L45.2128 25.8817C45.4315 25.8269 45.6592 25.8192 45.8811 25.8591C46.1029 25.8991 46.3139 25.9858 46.5001 26.1136C46.6864 26.2414 46.8437 26.4073 46.9618 26.6006C47.08 26.7938 47.1562 27.01 47.1856 27.235L47.2 27.4444V30.3606C48.102 31.2314 48.8413 32.2584 49.3824 33.3927L49.6032 33.8889H50.4C50.7919 33.8889 51.1701 34.0338 51.463 34.296C51.7559 34.5583 51.9429 34.9196 51.9888 35.3115L52 35.5V40.3333C52 40.5985 51.9351 40.8596 51.8109 41.0934C51.6867 41.3273 51.5071 41.5266 51.288 41.6738L51.1152 41.7737L49.2464 42.7162C48.4813 44.2066 47.3731 45.491 46.0144 46.462L45.6 46.7423V48.3889C45.5999 48.7835 45.4561 49.1644 45.1957 49.4593C44.9352 49.7542 44.5764 49.9426 44.1872 49.9887L44 50H39.2C38.8081 49.9999 38.4299 49.8551 38.137 49.5928C37.8441 49.3306 37.6571 48.9693 37.6112 48.5774L37.6 48.3889H36C35.9999 48.7835 35.8561 49.1644 35.5957 49.4593C35.3352 49.7542 34.9764 49.9426 34.5872 49.9887L34.4 50H29.6C29.2081 49.9999 28.8299 49.8551 28.537 49.5928C28.2441 49.3306 28.0571 48.9693 28.0112 48.5774L28 48.3889V46.7423C26.8441 45.9982 25.8457 45.0315 25.062 43.8976C24.2784 42.7637 23.725 41.4851 23.4336 40.1352C22.4901 39.8524 21.6557 39.2846 21.0433 38.5086C20.4309 37.7325 20.07 36.7858 20.0096 35.7964L20 35.5V34.6944C20.0005 34.2838 20.1566 33.8888 20.4366 33.5902C20.7165 33.2916 21.0991 33.112 21.5062 33.0879C21.9133 33.0638 22.3142 33.1972 22.6269 33.4608C22.9397 33.7243 23.1406 34.0982 23.1888 34.5059L23.2 34.6944V35.5C23.2 35.7384 23.2512 35.9656 23.344 36.1686C23.5882 34.7181 24.133 33.3357 24.9429 32.1113C25.7528 30.8869 26.8097 29.8479 28.0448 29.062C27.9313 28.0478 28.0317 27.0209 28.3395 26.0484C28.6473 25.076 29.1555 24.1799 29.831 23.4189C30.5064 22.6579 31.3338 22.049 32.259 21.6322C33.1842 21.2154 34.1864 20.9999 35.2 21ZM42.4 33.8889C41.9757 33.8889 41.5687 34.0586 41.2686 34.3608C40.9686 34.6629 40.8 35.0727 40.8 35.5C40.8 35.9273 40.9686 36.3371 41.2686 36.6392C41.5687 36.9414 41.9757 37.1111 42.4 37.1111C42.8243 37.1111 43.2313 36.9414 43.5314 36.6392C43.8314 36.3371 44 35.9273 44 35.5C44 35.0727 43.8314 34.6629 43.5314 34.3608C43.2313 34.0586 42.8243 33.8889 42.4 33.8889ZM35.2 24.2222C34.2309 24.2222 33.2947 24.5765 32.5655 25.2192C31.8362 25.862 31.3635 26.7494 31.2352 27.7167C32.0106 27.5354 32.804 27.4441 33.6 27.4444H39.0032L39.1152 27.4171C38.9255 26.5132 38.4329 25.7024 37.7201 25.1207C37.0072 24.5391 36.1175 24.2218 35.2 24.2222Z" fill="white" fill-opacity="0.32"/>
<path d="M30.349 28.6942L30.4917 27.6181C30.6437 26.4721 31.2039 25.4195 32.0695 24.6566C32.9352 23.8936 34.0475 23.4723 35.1997 23.4722L30.349 28.6942ZM30.349 28.6942L31.406 28.447M30.349 28.6942L31.406 28.447M31.406 28.447C32.1253 28.2788 32.8613 28.1941 33.5996 28.1944H33.6M31.406 28.447L33.6 28.1944M33.6 28.1944H39.0032H39.0936M33.6 28.1944H39.0936M39.0936 28.1944L39.1814 28.173M39.0936 28.1944L39.1814 28.173M39.1814 28.173L39.2934 28.1456L39.9983 27.9732M39.1814 28.173L39.9983 27.9732M39.9983 27.9732L39.8492 27.263M39.9983 27.9732L39.8492 27.263M39.8492 27.263C39.6244 26.1919 39.0405 25.2302 38.1942 24.5397M39.8492 27.263L38.1942 24.5397M38.1942 24.5397C37.3479 23.8491 36.2908 23.4718 35.2 23.4722L38.1942 24.5397ZM39.0997 23.0722C40.2198 23.9285 41.0323 25.1305 41.4125 26.4957L41.4935 26.8173L41.6766 27.5442L42.4037 27.3614L45.3951 26.6092C45.5107 26.5802 45.6309 26.5762 45.7481 26.5973C45.8652 26.6184 45.9769 26.6642 46.0758 26.7321C46.1747 26.7999 46.2587 26.8883 46.3219 26.9917C46.3818 27.0897 46.4217 27.1989 46.4392 27.3129L46.45 27.4702V30.3606V30.679L46.6791 30.9001C47.5141 31.7063 48.1991 32.6568 48.7013 33.7068L48.918 34.1938L49.116 34.6389H49.6032H50.3999C50.3999 34.6389 50.4 34.6389 50.4 34.6389C50.6066 34.6389 50.8069 34.7153 50.9627 34.8548C51.1142 34.9904 51.2134 35.1768 51.2416 35.3807L51.25 35.5222V40.3333V40.3334C51.25 40.4761 51.2151 40.6163 51.1485 40.7416C51.0854 40.8605 50.9957 40.9622 50.8873 41.0391L50.7584 41.1136L48.9087 42.0465L48.6907 42.1565L48.5792 42.3737C47.87 43.7552 46.8436 44.9457 45.586 45.8463L45.1798 46.1211L44.85 46.3442V46.7423V48.3888C44.85 48.3888 44.85 48.3889 44.85 48.3889C44.8499 48.6013 44.7725 48.8054 44.6335 48.9628C44.4987 49.1154 44.3154 49.2137 44.117 49.2416L43.9774 49.25L39.2001 49.25C39.2001 49.25 39.2 49.25 39.2 49.25C38.9934 49.2499 38.7931 49.1736 38.6373 49.0341C38.4858 48.8985 38.3866 48.7121 38.3584 48.5082L38.3487 48.3444L38.3068 47.6389H37.6H36H35.2501L35.25 48.3888C35.25 48.6012 35.1725 48.8054 35.0335 48.9628C34.8987 49.1154 34.7154 49.2137 34.517 49.2416L34.3774 49.25L29.6001 49.25C29.6001 49.25 29.6 49.25 29.6 49.25C29.3934 49.2499 29.1931 49.1736 29.0373 49.0341C28.8858 48.8985 28.7866 48.7121 28.7584 48.5082L28.75 48.3666V46.7423V46.3332L28.406 46.1117C27.3334 45.4213 26.4066 44.524 25.679 43.4712C24.9514 42.4184 24.4374 41.2309 24.1667 39.9769L24.0733 39.5439L23.6489 39.4167C22.8536 39.1784 22.1494 38.6995 21.632 38.044C21.1168 37.391 20.8118 36.5944 20.7588 35.761L20.75 35.4879V34.6949C20.7503 34.474 20.8344 34.2624 20.9837 34.1032C21.1329 33.9441 21.3358 33.8493 21.5505 33.8366C21.7652 33.8239 21.9773 33.8941 22.1436 34.0342C22.3054 34.1706 22.412 34.3634 22.4416 34.5756L22.45 34.7167V35.5C22.45 35.8462 22.5244 36.1797 22.6619 36.4804L23.6779 38.7029L24.0836 36.2931C24.3104 34.9458 24.8165 33.6619 25.5685 32.5251C26.3204 31.3882 27.3015 30.424 28.4474 29.6948L28.8422 29.4436L28.7901 28.9786C28.6883 28.0685 28.7784 27.1471 29.0545 26.2747C29.3307 25.4024 29.7865 24.5989 30.3919 23.9167C30.9973 23.2346 31.7386 22.6893 32.5671 22.316C33.3955 21.9428 34.2927 21.7499 35.1999 21.75C36.6077 21.7501 37.9774 22.2142 39.0997 23.0722ZM42.4 33.1389C41.7751 33.1389 41.1768 33.3889 40.7365 33.8323C40.2963 34.2755 40.05 34.8755 40.05 35.5C40.05 36.1245 40.2963 36.7245 40.7365 37.1677C41.1768 37.6111 41.7751 37.8611 42.4 37.8611C43.0249 37.8611 43.6232 37.6111 44.0635 37.1677C44.5037 36.7245 44.75 36.1245 44.75 35.5C44.75 34.8755 44.5037 34.2755 44.0635 33.8323C43.6232 33.3889 43.0249 33.1389 42.4 33.1389Z" stroke="white" stroke-opacity="0.72" stroke-width="1.5"/>
</g>
<defs>
<filter id="filter0_b_528_53" x="0" y="1" width="72" height="69" filterUnits="userSpaceOnUse" color-interpolation-filters="sRGB">
<feFlood flood-opacity="0" result="BackgroundImageFix"/>
<feGaussianBlur in="BackgroundImageFix" stdDeviation="10"/>
<feComposite in2="SourceAlpha" operator="in" result="effect1_backgroundBlur_528_53"/>
<feBlend mode="normal" in="SourceGraphic" in2="effect1_backgroundBlur_528_53" result="shape"/>
</filter>
</defs>
</svg>
