<svg width="70" height="70" viewBox="0 0 70 70" fill="none" xmlns="http://www.w3.org/2000/svg">
<rect width="70" height="70" rx="12" fill="white"/>
<path d="M46.9168 32.9C46.9168 33.3153 46.7922 33.7214 46.5587 34.0667C46.3252 34.412 45.9933 34.6812 45.605 34.8402C45.2167 34.9991 44.7895 35.0407 44.3773 34.9597C43.9651 34.8786 43.5865 34.6786 43.2893 34.3849C42.9921 34.0912 42.7897 33.7171 42.7077 33.3097C42.6257 32.9023 42.6678 32.4801 42.8286 32.0964C42.9895 31.7126 43.2618 31.3847 43.6113 31.1539C43.9607 30.9232 44.3716 30.8 44.7919 30.8C45.3554 30.8 45.8959 31.0213 46.2944 31.4151C46.6929 31.8089 46.9168 32.3431 46.9168 32.9ZM39.8336 23.8H32.7504C32.3747 23.8 32.0144 23.9475 31.7487 24.2101C31.483 24.4726 31.3338 24.8287 31.3338 25.2C31.3338 25.5713 31.483 25.9274 31.7487 26.19C32.0144 26.4525 32.3747 26.6 32.7504 26.6H39.8336C40.2093 26.6 40.5697 26.4525 40.8353 26.19C41.101 25.9274 41.2503 25.5713 41.2503 25.2C41.2503 24.8287 41.101 24.4726 40.8353 24.2101C40.5697 23.9475 40.2093 23.8 39.8336 23.8ZM54 32.2C54 31.8287 53.8508 31.4726 53.5851 31.2101C53.3194 30.9475 52.9591 30.8 52.5834 30.8H51.9353C51.6335 30.8003 51.3396 30.7054 51.0963 30.5292C50.8529 30.3529 50.6729 30.1044 50.5824 29.82C49.7707 27.2603 48.1526 25.024 45.9641 23.4373C43.7756 21.8506 41.1313 20.9967 38.417 21H32.7504C30.2761 20.9999 27.8552 21.7113 25.783 23.0474C23.7107 24.3835 22.0767 26.2867 21.08 28.5248C20.0834 30.7629 19.7673 33.2393 20.1702 35.6519C20.5731 38.0645 21.6777 40.3091 23.3493 42.112C23.4771 42.2494 23.5758 42.4106 23.6397 42.5863L25.9576 49H28.2101L28.8865 47.1293C28.9847 46.8574 29.1656 46.6222 29.4043 46.4559C29.643 46.2895 29.9279 46.2002 30.2199 46.2H42.3641C42.6562 46.2002 42.9411 46.2895 43.1798 46.4559C43.4184 46.6222 43.5993 46.8574 43.6975 47.1293L44.3739 49H46.6264L49.8333 40.1293C49.9315 39.8574 50.1124 39.6222 50.3511 39.4559C50.5898 39.2895 50.8746 39.2002 51.1667 39.2H52.5834C52.9591 39.2 53.3194 39.0525 53.5851 38.79C53.8508 38.5274 54 38.1713 54 37.8V32.2Z" fill="#40CAF4"/>
<path d="M47.0645 33.4375C47.0645 33.8454 46.9396 34.2442 46.7057 34.5834C46.4717 34.9225 46.1392 35.1869 45.7502 35.343C45.3612 35.4991 44.9331 35.54 44.5201 35.4604C44.1071 35.3808 43.7278 35.1844 43.43 34.8959C43.1323 34.6075 42.9295 34.24 42.8473 33.8399C42.7652 33.4398 42.8074 33.0251 42.9685 32.6482C43.1296 32.2713 43.4025 31.9492 43.7526 31.7226C44.1028 31.496 44.5144 31.375 44.9355 31.375C45.5001 31.375 46.0416 31.5923 46.4409 31.9791C46.8402 32.3659 47.0645 32.8905 47.0645 33.4375ZM39.9677 24.5H32.871C32.4945 24.5 32.1335 24.6449 31.8673 24.9027C31.6011 25.1606 31.4516 25.5103 31.4516 25.875C31.4516 26.2397 31.6011 26.5894 31.8673 26.8473C32.1335 27.1051 32.4945 27.25 32.871 27.25H39.9677C40.3442 27.25 40.7052 27.1051 40.9714 26.8473C41.2375 26.5894 41.3871 26.2397 41.3871 25.875C41.3871 25.5103 41.2375 25.1606 40.9714 24.9027C40.7052 24.6449 40.3442 24.5 39.9677 24.5ZM57 32.75V38.25C57 39.344 56.5514 40.3932 55.7528 41.1668C54.9543 41.9404 53.8712 42.375 52.7419 42.375H52.3232L49.4472 50.1747C49.2503 50.7089 48.8877 51.1711 48.409 51.4979C47.9304 51.8247 47.3591 52.0001 46.7735 52H44.5168C43.9312 52.0001 43.3599 51.8247 42.8812 51.4979C42.4026 51.1711 42.0399 50.7089 41.843 50.1747L41.5024 49.25H31.3363L30.9956 50.1747C30.7987 50.7089 30.4361 51.1711 29.9574 51.4979C29.4788 51.8247 28.9075 52.0001 28.3219 52H26.0652C25.4796 52.0001 24.9083 51.8247 24.4296 51.4979C23.951 51.1711 23.5883 50.7089 23.3914 50.1747L21.1613 44.1316C19.0397 41.8054 17.7112 38.9014 17.3574 35.8162C16.8994 36.0493 16.5158 36.3992 16.2481 36.8282C15.9804 37.2571 15.8389 37.7488 15.8387 38.25C15.8387 38.6147 15.6892 38.9644 15.423 39.2223C15.1568 39.4801 14.7958 39.625 14.4194 39.625C14.0429 39.625 13.6819 39.4801 13.4157 39.2223C13.1495 38.9644 13 38.6147 13 38.25C13.0022 37.0238 13.4273 35.8334 14.2078 34.8681C14.9882 33.9027 16.0794 33.2177 17.3077 32.9219C17.6248 29.1326 19.4013 25.5974 22.2845 23.0183C25.1677 20.4392 28.9466 19.0048 32.871 19H51.3226C51.699 19 52.06 19.1449 52.3262 19.4027C52.5924 19.6606 52.7419 20.0103 52.7419 20.375C52.7419 20.7397 52.5924 21.0894 52.3262 21.3473C52.06 21.6051 51.699 21.75 51.3226 21.75H47.5276C49.8831 23.351 51.7356 25.5519 52.8803 28.1094C52.9566 28.2813 53.0311 28.4531 53.1021 28.625C54.1678 28.7126 55.1605 29.1856 55.8827 29.9499C56.605 30.7142 57.0038 31.7138 57 32.75ZM54.1613 32.75C54.1613 32.3853 54.0117 32.0356 53.7455 31.7777C53.4794 31.5199 53.1183 31.375 52.7419 31.375H52.0926C51.7903 31.3753 51.4958 31.2821 51.252 31.109C51.0081 30.9359 50.8278 30.6919 50.7371 30.4125C49.9239 27.8985 48.3026 25.7021 46.1099 24.1438C43.9172 22.5854 41.2678 21.7467 38.5484 21.75H32.871C30.3919 21.7499 27.9664 22.4486 25.8902 23.7608C23.8139 25.0731 22.1767 26.9423 21.1782 29.1404C20.1796 31.3386 19.8629 33.7707 20.2666 36.1402C20.6703 38.5098 21.777 40.7143 23.4518 42.485C23.5798 42.6199 23.6788 42.7783 23.7427 42.9508L26.0652 49.25H28.3219L28.9997 47.4127C29.0981 47.1457 29.2792 46.9147 29.5184 46.7513C29.7576 46.5879 30.043 46.5001 30.3356 46.5H42.503C42.7957 46.5001 43.0811 46.5879 43.3203 46.7513C43.5594 46.9147 43.7406 47.1457 43.839 47.4127L44.5168 49.25H46.7735L49.9866 40.5377C50.085 40.2707 50.2662 40.0397 50.5053 39.8763C50.7445 39.7129 51.0299 39.6251 51.3226 39.625H52.7419C53.1183 39.625 53.4794 39.4801 53.7455 39.2223C54.0117 38.9644 54.1613 38.6147 54.1613 38.25V32.75Z" fill="#161042"/>
</svg>
