<svg width="236" height="218" viewBox="0 0 236 218" fill="none" xmlns="http://www.w3.org/2000/svg">
<g clip-path="url(#clip0_406_434)">
<g opacity="0.21">
<path d="M-34.3702 182.869L-38.431 164.443C-42.4918 146.017 -50.3284 108.95 -40.3732 96.0719C-30.133 82.9784 -2.10095 94.0733 17.1776 92.9666C36.1713 92.0747 46.4115 78.9813 51.2019 59.2531C55.9923 39.525 55.9029 12.7324 61.9845 -5.28337C68.3511 -23.514 80.8888 -32.9678 101.459 -32.3621C121.743 -31.5416 150.06 -20.6616 163.889 -28.403C177.718 -36.1444 177.629 -62.937 179.837 -86.0899C182.33 -109.458 187.12 -129.186 206.399 -130.293C225.392 -131.184 258.874 -113.455 275.473 -104.483L292.071 -95.5105" stroke="#43029C" stroke-width="2"/>
<path d="M35.9477 276.125L38.9052 260.486C42.1476 244.632 48.0625 213.355 63.2864 193.83C78.5103 174.306 102.473 166.963 130.589 164.536C158.704 162.108 190.402 165.024 214.65 157.467C238.899 149.91 255.127 132.31 263.905 104.237C272.683 76.1641 273.441 38.0479 283.509 11.6845C293.576 -14.6788 312.382 -28.8595 322.071 -36.1647L331.474 -43.2551" stroke="#43029C" stroke-width="2"/>
<path d="M-28.2767 190.952L-31.6889 173.748L-33.1448 112.245C-23.6726 98.8577 1.85608 105.184 20.6647 102.005C38.3739 100.101 48.5728 87.7267 54.1225 69.7135C59.6721 51.7002 61.0791 27.666 68.0663 11.5427C76.8677 -4.90778 91.5315 -12.9909 112.485 -13.3259C133.184 -13.47 160.11 -5.81821 173.376 -15.8211C186.153 -24.2659 186.38 -49.8643 188.66 -72.2145C191.193 -94.7556 195.777 -114.049 213.454 -116.523C231.437 -120.269 263.224 -106.171 279.022 -99.0505L294.788 -91.906" stroke="#43029C" stroke-width="2"/>
<path d="M-21.7135 199.655L-24.539 183.592L-25.7055 128.697C-17.0205 114.99 6.08641 116.655 24.46 111.451C40.9209 108.583 51.0638 96.9082 57.329 80.5519C63.5942 64.1956 66.4249 42.8234 74.2831 28.5468C85.4879 13.8346 102.286 7.13335 123.671 5.92163C144.834 4.87702 170.456 9.41746 183.16 -2.84585C194.889 -11.9885 195.354 -36.4981 197.641 -58.131C200.149 -79.9309 204.478 -98.8542 220.587 -102.65C237.592 -109.209 267.803 -98.5834 282.861 -93.235L297.855 -87.8389" stroke="#43029C" stroke-width="2"/>
<path d="M-15.1503 208.359L-17.3071 193.545L-17.9362 145.587C-10.0032 131.607 10.6049 128.509 28.5075 121.231C43.679 117.345 53.7835 106.393 60.8145 91.7601C67.8455 77.1275 72.1829 58.5273 80.9464 46.1429C94.577 33.199 113.476 27.835 135.224 25.6555C156.781 23.6193 180.997 24.9107 193.156 10.4103C203.842 0.575424 204.655 -22.6988 207.04 -43.4927C209.615 -64.4298 213.762 -82.8867 228.269 -88.0492C244.273 -97.4506 272.761 -90.4937 287.005 -87.0152L301.153 -83.4651" stroke="#43029C" stroke-width="2"/>
<path d="M-8.11926 217.685L-9.72419 203.965L-10.1591 162.488C-3.03588 148.158 15.1588 140.411 32.6336 131.116C46.5688 126.282 56.6115 116.022 64.3426 103.026C72.0738 90.0302 77.8101 74.0592 87.439 63.514C103.478 52.3156 124.544 48.3757 146.756 45.3631C168.809 42.4699 191.756 40.695 203.33 23.9049C212.959 13.3597 213.959 -8.89343 216.307 -29.0283C218.813 -49.2826 222.669 -67.4187 235.614 -73.8951C250.634 -86.1164 277.599 -82.5609 291.13 -80.819L304.533 -78.9816" stroke="#43029C" stroke-width="2"/>
<path d="M-1.08626 227.01L-2.0696 214.477L-2.10681 179.751C4.2421 165.119 19.9756 152.659 36.9979 141.315C49.6659 135.492 59.6604 125.942 68.1302 114.634C76.5999 103.325 83.798 90.0667 94.315 81.3908C112.771 71.9488 135.962 69.3781 158.577 65.4514C181.065 61.6201 202.662 56.6717 213.678 37.6259C222.259 26.3825 223.541 5.27908 225.934 -14.0885C228.454 -33.5516 232.084 -51.279 243.444 -59.0995C257.472 -74.1514 282.797 -74.1551 295.554 -74.2286L308.153 -74.1827" stroke="#43029C" stroke-width="2"/>
<path d="M6.88235 237.579L6.49386 226.197L6.78762 198.134C12.3398 183.17 25.6028 165.985 42.1729 152.592C53.5794 145.788 63.5223 136.943 72.7226 127.311C81.923 117.68 90.5707 107.118 101.977 100.313C122.865 92.646 148.216 91.4922 171.262 86.6881C194.213 81.9557 214.479 73.8594 224.91 52.5227C232.431 40.565 233.955 20.5556 236.355 1.90604C238.851 -16.8151 242.223 -34.1764 251.997 -43.3429C265.019 -61.2443 288.738 -64.76 300.74 -66.6253L312.553 -68.3473" stroke="#43029C" stroke-width="2"/>
<path d="M15.3207 248.77L15.6041 238.641L16.4009 217.469C21.2365 202.279 32.1049 180.469 48.2381 165.048C58.3775 157.255 68.2759 149.125 78.2176 141.185C88.1594 133.244 98.2711 125.398 110.545 120.435C133.792 114.449 161.165 114.527 184.555 108.73C207.882 102.98 226.781 91.6892 236.733 68.2022C243.244 55.597 245.139 36.8531 247.664 19.077C250.253 1.25302 253.471 -15.6033 261.682 -26.0863C273.768 -46.7428 295.798 -53.8826 307.003 -57.5957L317.986 -61.1417" stroke="#43029C" stroke-width="2"/>
<path d="M25.0336 261.652L25.9022 252.661L27.0127 238.13C31.0385 222.59 39.4169 196.029 55.0926 178.552C63.969 169.775 73.8155 162.351 84.489 156.089C95.1624 149.827 106.726 144.68 119.896 141.597C145.589 137.406 175.148 138.934 198.981 132.276C222.783 125.641 240.352 111.203 249.699 85.3992C255.141 72.0671 257.259 54.3937 259.776 37.3135C262.323 20.2094 265.269 3.69862 271.887 -8.13896C282.952 -31.6649 303.383 -42.3076 313.836 -47.808L324.036 -53.1174" stroke="#43029C" stroke-width="2"/>
</g>
</g>
<defs>
<clipPath id="clip0_406_434">
<rect width="236" height="218" rx="81" fill="white"/>
</clipPath>
</defs>
</svg>
