<svg width="114" height="40" viewBox="0 0 114 40" fill="none" xmlns="http://www.w3.org/2000/svg">
<g clip-path="url(#clip0_135_262)">
<path d="M90.1606 2.90089H93.1309V1.80677H82.7788V2.90089H85.7654V23.7231H82.7788V24.8079H93.1309V23.7231H90.1606V2.90089Z" fill="black"/>
<path d="M108.999 24.8077V23.7276H105.826V2.66932C110.675 2.42735 111.504 3.46537 112.126 7.8664H113.191L112.813 1.80665H94.3952L94.02 7.8664H95.113C95.7395 3.46537 96.5578 2.42735 101.416 2.66932V23.7276H98.241V24.8077H108.999Z" fill="black"/>
<path d="M80.8087 2.89247V1.80653H72.3246L67.3379 17.538L62.5231 1.80653H54.0705V2.89247H57.0431V23.7287L53.8321 23.7252C50.8489 23.7977 50.8034 21.2552 50.8162 20.7292C50.8571 15.1218 49.6052 13.0809 44.2316 12.2509V12.1761C47.4368 11.8371 51.5339 10.9254 51.5339 7.03984C51.5339 2.25657 47.0686 1.80653 43.3023 1.80653H32.2126V2.89247H35.1817V23.7252H32.2126V24.8076H42.5589V23.7252H39.5898V12.7419C41.4975 12.6659 43.6471 13.1534 44.6174 13.988C45.5139 14.7478 45.9967 17.109 45.9967 19.9589C45.9967 23.4762 47.8121 24.8076 51.2955 24.8076H61.2665V23.7287H58.3617V3.24899H58.433L65.2806 24.8076H66.4437L73.3345 3.24899H73.4386V23.7287H70.4765V24.8076H80.8087V23.7287H77.8443V2.89247H80.8087ZM39.5898 11.6676V2.89247H42.5858C45.653 2.89247 46.7857 3.6628 46.7857 7.53079C46.7857 10.6156 45.5139 11.6676 42.4128 11.6676H39.5898Z" fill="black"/>
<path d="M13.9053 0.442192H10.471V3.23243H4.7526V9.05021H0.450928V17.5939H4.7526V23.4129H10.471V26.1949H13.4986C20.5729 26.1949 26.8139 20.4847 26.8139 13.3507C26.8139 6.26582 20.9914 0.442192 13.9053 0.442192Z" fill="#E42A20"/>
<path d="M35.1817 31.7667C35.1817 31.575 35.0789 31.4861 34.9012 31.4861H34.3518V30.3873H35.6411C36.2163 30.3873 36.4594 30.6305 36.4594 31.2056V36.1993C36.4594 37.5517 37.3139 38.3583 38.6172 38.3583C39.9194 38.3583 40.7763 37.5517 40.7763 36.1864V31.2056C40.7763 30.6305 41.0311 30.3873 41.605 30.3873H42.8827V31.4861H42.3333C42.1544 31.4861 42.0539 31.575 42.0539 31.7667V36.2495C42.0539 38.2157 40.6863 39.5576 38.6301 39.5576C36.5611 39.5576 35.1817 38.2157 35.1817 36.2495V31.7667Z" fill="black"/>
<path d="M43.7473 38.3059H44.2955C44.4756 38.3059 44.5773 38.203 44.5773 38.0253V30.3875H45.7392L49.7498 36.0966C50.0818 36.5817 50.5037 37.3228 50.5037 37.3228H50.5283C50.5283 37.3228 50.4395 36.6074 50.4395 36.0966V31.2058C50.4395 30.6307 50.6814 30.3875 51.2694 30.3875H52.547V31.4863H51.9976C51.8188 31.4863 51.7171 31.5752 51.7171 31.7669V39.4047H50.5669L46.5446 33.6968C46.2126 33.2093 45.8035 32.4694 45.8035 32.4694H45.7778C45.7778 32.4694 45.8549 33.1976 45.8549 33.6968V38.5864C45.8549 39.1615 45.6106 39.4047 45.0366 39.4047H43.7473V38.3059Z" fill="black"/>
<path d="M53.9329 38.3059H54.8142V31.4863H53.9329V30.3875H56.909V31.4863H56.0276V38.3059H56.909V39.4047H53.9329V38.3059Z" fill="black"/>
<path d="M58.3002 31.7667C58.2242 31.5365 58.0956 31.4862 57.8805 31.4862H57.7017V30.3874H58.4159C59.0541 30.3874 59.2727 30.5288 59.4761 31.1285L61.4551 36.6844C61.6223 37.1695 61.8011 37.9223 61.8011 37.9223H61.8268C61.8268 37.9223 61.9916 37.1695 62.1717 36.6844L64.1507 31.1285C64.3669 30.5288 64.5715 30.3874 65.2097 30.3874H65.9251V31.4862H65.7474C65.516 31.4862 65.4026 31.5365 65.3254 31.7667L62.4896 39.4045H61.136L58.3002 31.7667Z" fill="black"/>
<path d="M67.4972 31.4858H66.6685V30.3882H71.9696C72.5435 30.3882 72.7855 30.6302 72.7855 31.2053V32.3415H71.6224V31.7664C71.6224 31.5747 71.5207 31.4858 71.3418 31.4858H68.776V34.3088H71.9287V35.4064H68.776V38.0248C68.776 38.2025 68.8777 38.3054 69.0566 38.3054H71.6867C71.8667 38.3054 71.9696 38.2025 71.9696 38.0248V37.4497H73.1432V38.5859C73.1432 39.1622 72.9012 39.4042 72.3261 39.4042H68.3155C67.7404 39.4042 67.4972 39.1622 67.4972 38.5859V31.4858Z" fill="black"/>
<path d="M77.8731 34.7177C78.8433 34.7177 79.4173 34.0911 79.4173 33.0823C79.4173 32.0724 78.8433 31.4856 77.8977 31.4856H76.2121V34.7177H77.8731ZM74.9344 31.4856H74.1045V30.388H78.038C79.6219 30.388 80.7335 31.3839 80.7335 33.0321C80.7335 34.5377 79.7504 35.2799 79.111 35.419V35.4448C79.111 35.4448 79.3425 35.5593 79.4933 35.8539L80.5804 38.0117C80.709 38.2806 80.9124 38.3063 81.2186 38.3063H81.3858V39.4039H80.7581C80.0567 39.4039 79.8007 39.3151 79.5085 38.7271L78.2823 36.3016C78.052 35.8796 77.8848 35.8153 77.3869 35.8153H76.2121V39.4039H74.9344V31.4856Z" fill="black"/>
<path d="M83.0194 37.3098C83.0194 37.3098 83.9393 38.3957 85.2789 38.3957C86.1229 38.3957 86.8266 37.8837 86.8266 37.0538C86.8266 35.1636 82.47 35.457 82.47 32.6481C82.47 31.2944 83.6576 30.2342 85.3573 30.2342C86.3158 30.2342 87.9231 30.6691 87.9231 31.8941V32.6364H86.7495V32.2144C86.7495 31.741 86.0726 31.3961 85.3573 31.3961C84.3859 31.3961 83.7734 31.9327 83.7734 32.6095C83.7734 34.4365 88.1159 34.0274 88.1159 36.9895C88.1159 38.37 87.0417 39.5576 85.2556 39.5576C83.3385 39.5576 82.2666 38.2157 82.2666 38.2157L83.0194 37.3098Z" fill="black"/>
<path d="M89.4551 38.3059H90.3365V31.4863H89.4551V30.3875H92.4323V31.4863H91.5498V38.3059H92.4323V39.4047H89.4551V38.3059Z" fill="black"/>
<path d="M96.4939 31.4858H94.6797C94.5008 31.4858 94.3991 31.5747 94.3991 31.7664V32.3415H93.2629V31.1538C93.2629 30.5799 93.4535 30.3882 94.0286 30.3882H100.237C100.81 30.3882 101.002 30.5799 101.002 31.1538V32.3415H99.8662V31.7664C99.8662 31.5747 99.7645 31.4858 99.5845 31.4858H97.7703V39.4042H96.4939V31.4858Z" fill="black"/>
<path d="M104.644 35.4708L102.358 31.8051C102.192 31.5362 102.076 31.4859 101.807 31.4859H101.552V30.3871H102.139C102.753 30.3871 102.995 30.4772 103.354 31.078L104.72 33.3516C105.015 33.8484 105.269 34.3604 105.269 34.3604H105.295C105.295 34.3604 105.537 33.8484 105.843 33.3516L107.199 31.078C107.555 30.4772 107.811 30.3871 108.41 30.3871H108.998V31.4859H108.754C108.488 31.4859 108.36 31.5362 108.194 31.8051L105.919 35.4708V39.4043H104.644V35.4708Z" fill="black"/>
</g>
<defs>
<clipPath id="clip0_135_262">
<rect width="113.641" height="40" fill="white"/>
</clipPath>
</defs>
</svg>
