<svg width="520" height="520" viewBox="0 0 520 520" fill="none" xmlns="http://www.w3.org/2000/svg">
<mask id="mask0_1042_9163" style="mask-type:alpha" maskUnits="userSpaceOnUse" x="0" y="0" width="520" height="520">
<circle cx="260" cy="260" r="260" fill="url(#paint0_radial_1042_9163)"/>
</mask>
<g mask="url(#mask0_1042_9163)">
<path d="M207.935 162.097C212.793 171.242 221.355 180.151 230.859 184.401L228.381 193.694C227.972 193.794 224.998 195.479 224.663 195.553C219.199 196.78 211.789 197.164 206.387 198.651C166.797 209.592 161.072 224.399 136.699 254.398C139.016 247.596 140.59 220.521 151.568 197.722C162.039 175.975 177.379 165.703 201.12 162.729C203.4 162.444 205.569 161.775 207.935 162.11V162.097Z" fill="#00004C"/>
<path d="M471.806 305.796C468.745 327.53 465.425 349.276 461.274 370.837C461.038 370.837 460.679 371.456 458.176 371.456C458.882 364.282 460.27 357.492 461.274 350.392C463.454 334.952 465.66 318.757 469.018 303.938L471.806 305.796Z" fill="#3F11A9"/>
<path d="M456.314 385.694C455.905 385.682 455.484 385.669 455.075 385.694C454.865 385.694 455.088 384.492 450.738 385.694C451.222 384.653 453.068 383.402 451.358 382.596C453.105 379.176 454.307 375.385 456.314 372.064C457.628 372.064 457.69 371.444 458.173 371.444C458.099 372.188 460.887 372.696 456.314 385.694Z" fill="#B2D2FF"/>
<path d="M391.27 254.386C360.503 211.674 351.272 203.533 297.742 196.16C292.86 195.491 286.764 195.058 286.59 193.682C286.987 191.563 286.256 187.995 286.59 185.628C286.603 185.529 287.507 185.901 287.21 183.769C296.144 178.677 304.111 171.924 308.894 162.705C329.154 162.928 360.354 161.143 374.555 178.503C386.512 193.112 392.584 235.217 391.283 254.374L391.27 254.386Z" fill="#00004C"/>
<path d="M455.075 385.694C450.118 385.111 452.274 400.613 451.357 409.237C443.774 406.35 440.23 403.785 439.586 403.661C445.373 399.175 447.789 392.075 450.738 385.694C455.087 384.492 454.852 385.694 455.075 385.694Z" fill="#D9E8FF"/>
<path d="M455.073 411.716C451.665 410.799 452.087 409.51 451.355 409.237C452.272 400.613 450.116 385.112 455.073 385.694C455.482 385.67 455.903 385.682 456.312 385.694C456.795 385.719 459.856 383.489 461.268 386.624L455.073 411.703V411.716Z" fill="#65A5FF"/>
<path d="M450.737 385.694C447.788 392.076 445.384 399.164 439.585 403.661C439.188 403.587 438.742 403.711 438.346 403.661C436.921 403.488 422.634 405.21 417.9 405.52C416.711 405.595 412.572 404.479 412.944 406.759C408.173 406.127 400.107 407.416 404.58 399.944C412.981 397.516 437.404 399.672 441.121 398.705C443.426 398.11 449.82 385.583 451.344 382.597C453.054 383.402 451.208 384.654 450.724 385.694H450.737Z" fill="#8CBBFF"/>
<path d="M485.421 371.445C485.421 371.519 486.66 371.928 486.66 372.374C486.635 381.457 485.359 390.453 489.138 398.693C490.836 406.065 478.68 392.695 473.03 412.323C465.57 412.645 462.547 413.723 455.062 411.703L461.258 386.624C459.845 383.489 456.785 385.719 456.302 385.694C460.874 372.696 458.086 372.188 458.16 371.445C460.663 371.445 461.023 370.825 461.258 370.825C469.225 370.825 477.391 372.114 485.421 371.445Z" fill="#79B0FF"/>
<path d="M504.623 358.446C509.989 358.446 515.367 358.446 520.732 358.446C522.962 358.446 535.081 358.025 535.911 359.066C536.84 363.539 536.766 368.161 536.84 372.696C536.989 381.531 537.571 393.55 532.503 400.563C532.479 400.601 532.293 400.7 531.884 401.183C522.727 405.185 500.51 404.764 491.006 401.183C490.597 400.625 489.209 398.841 489.147 398.705C485.368 390.452 486.644 381.469 486.669 372.386C486.669 371.94 485.43 371.531 485.43 371.457C485.43 370.738 486.669 370.168 486.669 369.908C486.706 367.95 485.603 359.314 487.598 358.446C493.273 358.446 498.948 358.446 504.636 358.446H504.623Z" fill="#A37EF8"/>
<path d="M520.729 358.446C515.363 358.446 509.985 358.446 504.62 358.446C500.308 353.453 497.148 345.795 499.974 339.86C506.367 344.196 499.391 335.894 505.549 333.044C509.341 337.381 505.797 331.88 510.506 328.088C514.967 333.429 513.009 325.238 516.082 324.99C521.608 327.952 516.751 333.429 522.587 331.496C518.994 347.889 531.583 318.745 526.305 341.408L527.234 342.338C531.93 335.039 529.378 351.792 520.729 358.446Z" fill="#8CBBFF"/>
<path d="M38.8389 351.631C37.5626 355.708 37.6494 366.327 36.9803 371.457C35.7907 380.576 34.4153 393.19 32.6434 401.802C32.3212 403.339 31.9743 407.192 31.714 407.378C29.9669 408.605 -9.27561 408.605 -11.0227 407.378C-11.2954 407.18 -11.4069 404.516 -11.9521 402.422C-14.2073 393.711 -15.5455 380.205 -16.9085 370.837C-17.8007 364.679 -18.2591 358.359 -19.3867 352.25C0.0176926 352.044 19.4262 351.837 38.8389 351.631Z" fill="#7244DC"/>
<path d="M-0.18565 314.47C2.62712 317.159 4.7336 333.205 5.39033 333.986C6.00988 334.717 7.68268 334.048 8.4881 334.296C11.5239 335.225 12.0196 334.296 12.2054 334.296C12.9861 334.345 13.9154 334.383 14.6836 334.296C14.8323 334.283 17.0255 335.399 17.7814 334.296C18.9957 332.524 19.702 319.55 22.1183 313.851C22.2546 314.123 23.1343 312.698 23.3574 315.709C23.5061 317.667 19.6772 328.955 19.9498 334.296L46.2685 335.225C47.9908 352.164 40.6181 348.261 39.1436 349.165C38.4745 349.574 39.0321 350.999 38.8338 351.643C19.4294 351.85 0.0208664 352.056 -19.3918 352.263C-19.5777 351.284 -18.9953 348.422 -19.7016 347.926C-21.8328 346.414 -29.2055 353.353 -27.446 335.225L3.2095 334.296C2.03235 327.493 0.495855 320.666 -2.67626 314.47C-2.55235 314.47 -1.77171 313.058 -0.198044 314.47H-0.18565Z" fill="#3F11A9"/>
<path d="M71.6768 248.81C76.6085 248.872 80.3878 249.9 80.9701 255.005C82.9032 272.03 50.6492 282.526 38.5431 287.21C30.0924 273.468 54.0567 248.587 71.6768 248.81Z" fill="#8CBBFF"/>
<path d="M18.4059 305.177C18.2076 305.028 19.0502 302.315 14.6885 305.796C14.4903 304.966 7.97257 300.852 12.2103 289.998C15.0974 282.613 33.0521 275.909 31.7262 288.449C44.9599 282.402 21.9869 302.513 19.9547 307.036C18.0837 306.924 18.505 305.251 18.4059 305.177Z" fill="#8CBBFF"/>
<path d="M4.77036 273.58C7.94247 286.516 9.51614 318.733 12.205 334.284C12.0191 334.284 11.5235 335.213 8.48768 334.284C8.93376 325.982 6.87684 317.68 6.00947 309.502C5.83599 307.841 6.05903 306.02 5.38991 300.828C4.17559 291.448 3.84103 283.208 1.05304 274.2C0.991086 274.014 1.115 273.766 1.05304 273.58L4.15081 272.96C4.37385 273.828 4.75797 273.543 4.77036 273.58Z" fill="#3F11A9"/>
<path d="M18.404 305.177C16.5826 305.709 17.2393 307.754 17.1649 309.513C16.8428 317.778 17.4871 326.031 17.7845 334.296C17.0286 335.398 14.8354 334.283 14.6867 334.296C14.4513 328.15 15.3063 308.386 14.6867 305.809C19.0484 302.327 18.2058 305.04 18.404 305.189V305.177Z" fill="#3F11A9"/>
<path d="M14.6911 263.679C14.2078 264.211 13.8733 269.044 4.77824 273.591C4.77824 273.554 4.38172 273.839 4.15868 272.972C2.43633 266.405 -12.7551 232.354 -14.7377 233.333C-16.7203 234.312 -0.017107 270.283 1.06092 273.591C1.12287 273.777 0.99896 274.025 1.06092 274.211C-24.3903 273.059 -25.8897 235.811 -18.7648 228.376C-8.10847 217.262 15.3726 238.091 14.6787 263.679H14.6911Z" fill="#8CBBFF"/>
<path d="M4.1594 272.96L1.06163 273.579C-0.0163956 270.271 -16.7072 234.299 -14.737 233.32C-12.7668 232.342 2.43704 266.405 4.1594 272.96Z" fill="#3F11A9"/>
<path d="M64.2383 297.742C53.6811 312.363 41.2405 317.53 23.3602 315.709C23.1372 312.698 22.2574 314.123 22.1211 313.85C28.2051 299.501 53.2227 284.743 64.8579 294.954L64.2383 297.742Z" fill="#8CBBFF"/>
<path d="M38.8362 306.416C34.8834 310.171 32.9504 309.948 32.6406 310.134C36.3084 306.652 36.4323 307.841 36.6677 301.46C38.4025 301.336 35.0569 306.206 38.8362 306.416Z" fill="#3F11A9"/>
<path d="M38.832 306.416C41.2359 304.124 43.5902 302.786 43.4787 298.981C44.8169 303.913 43.1689 304.83 38.832 306.416Z" fill="#3F11A9"/>
<path d="M48.1289 300.84C52.7508 297.024 48.8476 292.042 52.4658 299.291C50.0743 300.902 48.3396 300.741 48.1289 300.84Z" fill="#3F11A9"/>
<path d="M48.1275 300.84C47.2353 301.584 46.1449 303.492 44.4102 302.389C45.4758 301.571 47.0371 301.324 48.1275 300.84Z" fill="#3F11A9"/>
<path d="M32.6345 310.133C32.4734 310.232 32.0645 310.951 30.1562 311.991C32.5849 309.749 32.5229 310.244 32.6345 310.133Z" fill="#3F11A9"/>
<path d="M56.4912 294.644C58.2012 296.775 55.7849 298.485 56.1815 294.954L56.4912 294.644Z" fill="#3F11A9"/>
<path d="M30.1594 311.991C30.0727 312.041 29.4408 313.999 28.3008 312.921C29.1434 311.669 30.0851 312.066 30.1594 311.991Z" fill="#3F11A9"/>
<path d="M-16.9083 285.352C-7.5654 285.575 1.48008 292.452 5.39566 300.84C6.06478 306.032 5.84174 307.841 6.01521 309.514C3.9459 313.442 3.87156 313.343 1.05879 311.992C1.319 310.456 -0.130756 310.233 -0.180321 310.134C-3.8109 303.343 -8.96559 302.947 -5.7563 296.194C-8.27169 293.406 -5.29783 301.286 -9.47362 298.982C-10.5764 296.008 -12.7696 294.124 -11.9518 296.813L-9.47362 298.982C-7.50344 304.335 -12.559 299.973 -12.5714 301.77C-12.5714 302.649 -6.72281 300.171 -4.51719 306.107C-16.5985 308.015 -4.54198 306.8 -3.58786 307.036C-3.36483 307.085 -2.27441 308.721 -0.180321 310.134C-0.0935841 310.196 -0.63879 311.175 1.05879 311.992C1.29422 313.157 2.85549 313.306 -0.180321 314.471C-1.75399 313.058 -2.53462 314.471 -2.65854 314.471C-17.7756 313.901 -29.5472 286.492 -16.9083 285.364V285.352Z" fill="#8CBBFF"/>
<path d="M1.05624 311.992C-0.641337 311.187 -0.0837391 310.196 -0.182868 310.134C-0.133303 310.233 1.31645 310.456 1.05624 311.992Z" fill="#3F11A9"/>
<path d="M368.986 411.715C368.577 413.945 367.14 419.273 365.888 421.008C365.281 421.851 359.68 425.779 358.763 425.965C348.516 428.108 177.916 424.849 149.404 425.965C146.641 424.936 143.803 423.053 142.279 420.389C141.015 418.171 140.346 414.305 139.801 411.715H368.974H368.986Z" fill="#A37EF8"/>
<path d="M341.102 282.873C344.175 282.897 344.633 282.253 344.819 282.253C348.945 282.303 371.633 282.538 372.996 282.873C377.693 284.037 377.494 289.316 377.643 292.785H124.927C124.741 289.935 124.878 283.926 128.335 282.873C130.454 282.228 166.214 282.91 172.62 282.873C175.731 282.848 176.152 282.253 176.338 282.253C231.143 281.881 286.284 282.327 341.102 282.873Z" fill="#A37EF8"/>
<path d="M377.66 292.786C378.156 304.359 374.934 330.529 373.943 344.196C373.807 346.043 374.079 347.926 373.943 349.772C372.989 362.733 371.415 375.831 370.225 388.792C370.089 390.217 370.362 391.704 370.225 393.129C369.94 396.251 370.25 397.837 370.225 398.085C369.866 401.753 369.172 410.712 368.986 411.715H139.814C138.711 406.461 138.128 400.377 137.335 394.987C137.112 393.438 137.558 391.592 137.335 390.031C137.125 388.519 136.988 387.639 136.096 386.314C135.477 371.11 133.283 355.906 129.901 341.099C129.64 339.959 129.876 336.452 128.662 333.044C128.092 331.446 127.906 330.727 126.803 329.327C128.637 327.753 127.633 321.05 127.422 317.865C127.385 317.382 126.221 317.729 126.183 317.246C125.874 312.946 127.831 294.384 124.325 293.703C124.139 292.6 124.944 292.835 124.944 292.773H377.66V292.786Z" fill="#C5AEFA"/>
<path d="M249.75 348.533C269.501 344.853 270.344 375.905 250.369 372.076C238.635 369.821 238.796 350.577 249.75 348.533Z" fill="#F6F7F3"/>
<path d="M574.633 494.712C574.633 494.923 574.633 495.121 574.633 495.332H-59.6406C-59.6406 495.121 -59.6406 494.923 -59.6406 494.712H574.621H574.633Z" fill="#1B202B"/>
<path d="M370.231 398.086C370.255 397.838 369.946 396.252 370.231 393.129C389.189 386.835 408.569 382.312 428.456 380.119C439.583 383.328 437.948 393.464 430.005 394.988C426.288 395.707 384.443 395.422 370.231 398.086Z" fill="#79B0FF"/>
<path d="M428.445 380.119C408.557 382.3 389.177 386.835 370.219 393.13C370.355 391.705 370.083 390.218 370.219 388.793C384.816 384.666 397.628 380.379 412.956 379.499C418.557 379.177 422.918 378.52 428.445 380.119Z" fill="#3F8EFF"/>
<path d="M574.982 468C574.958 485.325 575.032 502.675 574.982 520H-59.9825C-60.0321 502.675 -59.9577 485.325 -59.9825 468H574.97H574.982Z" fill="#65A5FF"/>
<path d="M365.89 420.997C371.454 421.703 372.209 423.623 369.917 429.051C357.563 431.008 348.84 426.895 347.303 432.768H158.389C157.608 424.739 128.489 436.547 142.281 420.377C143.805 423.041 146.642 424.924 149.406 425.953C177.917 424.838 348.518 428.097 358.765 425.953C359.67 425.767 365.283 421.839 365.89 420.997Z" fill="#0C5BCC"/>
<path d="M347.303 432.769C347.228 433.041 347.773 437.217 346.993 438.345C284.434 438.551 221.876 438.758 159.318 438.964C156.17 436.597 158.426 433.116 158.388 432.769H347.303Z" fill="#0C5BCC"/>
<path d="M-11.946 402.423C-11.4008 404.517 -11.2893 407.181 -11.0167 407.38C-9.26957 408.606 29.9729 408.606 31.7201 407.38C31.9803 407.194 32.3272 403.352 32.6494 401.804C61.4586 400.143 53.6647 413.922 50.9262 414.814C47.0974 416.066 -25.6877 415.781 -29.5909 414.814C-36.6166 413.067 -39.1692 397.913 -11.9336 402.423H-11.946Z" fill="#A37EF8"/>
<path d="M91.5006 381.358C92.2069 382.226 91.9591 384.022 93.0495 384.456C95.6145 385.472 123.99 381.879 137.335 390.032C137.558 391.581 137.112 393.44 137.335 394.989C128.302 394.307 92.5911 395.893 89.3322 394.989C85.0325 393.787 83.6075 383.651 91.5006 381.358Z" fill="#79B0FF"/>
<path d="M110.714 380.739C119.388 381.185 128.272 382.25 136.103 386.315C136.995 387.64 137.132 388.52 137.342 390.032C123.997 381.879 95.6216 385.484 93.0567 384.456C91.9663 384.022 92.2141 382.226 91.5078 381.358C95.7951 380.119 105.943 380.491 110.714 380.739Z" fill="#3F8EFF"/>
<path d="M110.703 380.739C105.945 380.491 95.7844 380.119 91.4971 381.358C83.604 383.651 85.029 393.787 89.3287 394.989C92.5875 395.893 128.311 394.307 137.332 394.989C138.125 400.379 138.695 406.463 139.81 411.717C140.355 414.294 141.024 418.172 142.288 420.39C128.497 436.548 157.603 424.752 158.396 432.781C158.434 433.128 156.166 436.61 159.326 438.977C221.884 438.77 284.443 438.564 347.001 438.357C347.782 437.23 347.236 433.054 347.311 432.781C348.835 426.92 357.57 431.022 369.924 429.064C372.217 423.637 371.461 421.716 365.897 421.01C367.136 419.275 368.586 413.947 368.995 411.717C369.181 410.725 369.875 401.767 370.234 398.086C384.434 395.422 426.291 395.707 430.009 394.989C437.951 393.465 439.587 383.341 428.46 380.119C422.933 378.521 418.572 379.178 412.971 379.5C413.814 376.935 423.293 379.289 415.449 376.092C414.929 370.454 418.46 371.991 420.406 370.826C432.289 371.297 444.457 372.065 456.327 372.065C454.32 375.386 453.118 379.178 451.371 382.598C449.847 385.584 443.453 398.099 441.148 398.706C437.431 399.672 413.008 397.516 404.607 399.945C400.134 407.417 408.2 406.128 412.971 406.76C421.174 407.851 429.402 408.235 437.443 410.477C431.533 407.033 424.383 407.38 417.927 405.521C422.648 405.211 436.935 403.489 438.373 403.662C454.035 416.636 460.404 413.427 473.055 413.575C483.166 413.699 547.03 414.542 550.784 413.575C556.633 412.076 555.555 402.659 545.828 401.184C540.326 400.354 532.768 402.634 532.508 400.565C537.576 393.551 536.993 381.52 536.844 372.697C536.671 372.102 537.377 370.888 537.464 370.838H574.625C574.6 403.253 574.724 435.669 574.625 468.084H-59.6367C-59.7359 435.669 -59.612 403.253 -59.6367 370.838H-16.8999C-15.5369 380.218 -14.1987 393.725 -11.9435 402.423C-39.1667 397.913 -36.6265 413.067 -29.6008 414.814C-25.6976 415.781 47.0875 416.066 50.9164 414.814C53.6548 413.922 61.4612 400.143 32.6395 401.804C34.4115 393.192 35.7869 380.565 36.9764 371.458C59.4786 371.656 81.9932 371.185 104.495 371.458C106.354 371.483 105.437 369.872 106.664 370.219C107.407 370.43 109.712 378.806 116.267 379.202L110.691 380.751L110.703 380.739Z" fill="#B2D2FF"/>
<path d="M439.598 403.662C440.242 403.773 443.786 406.35 451.369 409.238C452.1 409.51 451.679 410.799 455.087 411.716C462.571 413.736 465.582 412.658 473.054 412.335C472.967 412.658 473.103 413.178 473.054 413.574C460.402 413.426 454.033 416.647 438.371 403.662C438.768 403.711 439.214 403.587 439.61 403.662H439.598Z" fill="#65A5FF"/>
<path d="M387.877 423.475C393.601 422.248 486.931 425.432 504.948 423.475C511.664 425.346 510.623 433.858 504.328 435.246C498.405 436.547 406.178 434.267 387.257 435.246C381.148 433.536 381.384 424.875 387.877 423.475Z" fill="#A37EF8"/>
<path d="M55.2665 412.334L87.4709 412.954C89.7632 414.391 90.2465 438.48 86.8513 439.582C57.4349 438.951 53.792 445.939 55.2665 412.334Z" fill="#8C5EF6"/>
<path d="M417.929 405.52C424.385 407.378 431.522 407.031 437.445 410.476C429.403 408.233 421.176 407.849 412.973 406.759C412.601 404.479 416.74 405.594 417.929 405.52Z" fill="#65A5FF"/>
<path d="M66.4182 440.822C69.169 442.272 78.3508 440.326 77.8799 442.99C77.5826 444.7 65.4145 444.081 66.4182 440.822Z" fill="#7244DC"/>
<path d="M491.008 401.184C491.119 401.332 490.289 402.15 492.557 404.282C496.931 408.371 524.389 407.64 529.717 404.282C531.886 402.919 531.762 401.332 531.886 401.184C532.295 400.701 532.481 400.601 532.505 400.564C532.766 402.634 540.324 400.354 545.826 401.184C555.553 402.658 556.631 412.063 550.782 413.575C547.015 414.541 483.164 413.699 473.053 413.575C473.103 413.178 472.966 412.658 473.053 412.336C478.703 392.721 490.847 406.091 489.161 398.706C489.223 398.842 490.611 400.626 491.02 401.184H491.008Z" fill="#8C5EF6"/>
<path d="M531.887 401.184C531.763 401.333 531.887 402.919 529.719 404.282C524.39 407.64 496.919 408.371 492.558 404.282C490.29 402.151 491.12 401.333 491.009 401.184C500.525 404.765 522.73 405.186 531.887 401.184Z" fill="#7244DC"/>
<path d="M129.884 341.099C133.267 355.906 135.46 371.11 136.079 386.314C128.236 382.25 119.364 381.184 110.69 380.738L116.266 379.189C109.724 378.805 107.406 370.416 106.663 370.206C105.436 369.859 106.353 371.469 104.495 371.445L100.158 367.108C94.0489 350.305 100.715 340.269 110.69 327.469C117.092 332.012 123.494 336.556 129.896 341.099H129.884Z" fill="#FBDBC6"/>
<path d="M420.394 370.825C418.449 371.99 414.917 370.453 415.438 376.091C423.281 379.288 413.802 376.934 412.959 379.499C397.632 380.379 384.819 384.666 370.223 388.792C371.412 375.831 372.986 362.721 373.94 349.773C378.81 346.006 384.212 343.082 389.429 339.86C397.334 334.965 409.378 328.287 416.057 323.751C426.168 335.263 436.54 361.135 420.394 370.825Z" fill="#FBDBC6"/>
<path d="M235.186 186.866C233.712 187.263 235.112 188.056 235.186 188.725C235.322 190.125 235 191.674 235.186 193.062C233.786 192.789 229.61 193.372 228.371 193.681L230.849 184.388C232.745 185.231 234.951 186.804 235.186 186.866Z" fill="#00004C"/>
<path d="M328.713 104.491C327.883 107.688 326.607 109.125 327.474 110.067C327.115 110.178 325.702 110.637 325.615 110.686L325.925 108.828C322.01 109.509 318.429 110.897 316.942 107.589C314.463 102.087 314.216 94.4293 309.507 92.0998C308.119 85.4706 306.521 80.1052 305.17 72.8936C308.677 80.8487 315.021 88.3329 324.066 90.2411C327.4 88.1222 311.589 79.1511 309.507 70.7252C340.101 59.9821 321.266 59.028 312.915 64.2199C311.18 65.2979 303.931 75.1364 307.648 64.5296C307.933 63.7242 313.608 57.9128 315.083 55.8559C306.558 52.1633 298.12 48.1239 290.611 42.5355C291.193 49.524 304.204 55.3355 310.127 58.3341C289.124 72.8812 260.525 62.6462 255.308 36.9595C251.616 39.2395 259.075 54.2203 261.194 57.095C265.692 63.179 272.656 66.2024 279.161 69.4861C241.183 72.3112 219.473 70.3782 211.023 29.2275L209.474 28.2982C208.495 43.6135 219.511 59.1643 219.077 60.8123C218.594 62.671 216.202 60.4034 214.74 61.4319C213.451 62.3364 210.849 75.0001 202.969 90.5385C200.85 94.7267 193.304 109.237 191.817 106.957C191.333 104.255 190.045 101.368 189.338 94.5656C189.314 76.7844 200.441 70.2667 199.251 68.247C193.118 68.5691 190.999 78.135 186.241 74.7523C180.553 61.246 177.084 41.4203 190.268 30.7764C198.458 24.1719 207.442 25.758 208.235 25.2004C210.465 23.6267 206.265 -0.858029 250.972 2.27691C289.186 4.96577 295.703 22.6354 298.045 23.9613C300.92 25.5721 342.418 26.4519 338.614 65.7687C337.498 77.2553 330.163 84.5164 329.94 85.5945C329.655 86.9575 331.724 92.7689 328.701 104.491H328.713Z" fill="#000033"/>
<path d="M305.187 72.8943C304.802 70.8622 304.654 67.5909 303.638 67.9379C278.496 76.4753 243.429 78.9783 219.713 65.4596C217.383 64.1338 217.272 61.7175 215.996 64.5303C215.55 82.0637 200.891 99.1881 199.887 106.648C198.747 115.061 203.443 130.699 204.224 140.401C204.794 147.489 204.559 143.375 203.605 142.879C198.76 136.275 196.232 115.928 191.833 111.914C192.304 110.538 192.031 109.584 191.833 108.196C191.771 107.8 191.907 107.354 191.833 106.957C193.308 109.237 200.854 94.7397 202.985 90.5392C210.866 74.9884 213.468 62.3247 214.757 61.4325C216.219 60.4041 218.598 62.6717 219.093 60.813C219.527 59.1526 208.511 43.6018 209.49 28.2988L211.039 29.2282C219.49 70.3789 241.199 72.3119 279.178 69.4867C272.672 66.2031 265.709 63.1921 261.211 57.0957C259.092 54.2209 251.632 39.2401 255.325 36.9602C260.542 62.6469 289.14 72.8695 310.143 58.3348C304.22 55.3361 291.222 49.5247 290.627 42.5362C298.136 48.1245 306.574 52.164 315.099 55.8566C313.625 57.9011 307.95 63.7249 307.665 64.5303C303.947 75.1371 311.196 65.2986 312.931 64.2205C321.283 59.0287 340.117 59.9828 309.523 70.7258C311.593 79.1518 327.416 88.1229 324.083 90.2418C315.037 88.3336 308.693 80.8494 305.187 72.8943Z" fill="#000019"/>
<path d="M316.956 107.588C318.443 110.897 322.024 109.509 325.939 108.827L325.629 110.686C319.248 114.354 317.488 128.393 315.097 134.539C308.629 151.217 311.937 136.831 312.619 128.034C313.226 120.277 313.424 115.444 312.619 107.588H316.956Z" fill="#000019"/>
<path d="M316.954 107.588H312.617C312.369 105.123 311.812 102.595 311.378 100.154C310.907 97.4773 310.077 94.7885 309.52 92.0996C314.228 94.4291 314.476 102.087 316.954 107.588Z" fill="#000019"/>
<path d="M189.356 94.5781C188.575 87.0691 189.591 78.953 189.356 78.1599C189.294 77.9369 187.485 77.6643 186.258 74.7524C191.016 78.1351 193.122 68.5816 199.268 68.2471C200.458 70.2668 189.331 76.7845 189.356 94.5657V94.5781Z" fill="#221616"/>
<path d="M416.678 322.512C416.678 322.512 416.121 323.714 416.059 323.751C409.38 328.286 397.336 334.952 389.431 339.859C388.476 338.36 389.121 337.294 388.191 335.522C391.475 333.924 412.404 319.141 413.89 319.414C414.572 319.538 415.117 322.14 416.678 322.512Z" fill="#0041B2"/>
<path d="M128.662 333.045C129.877 336.452 129.641 339.959 129.901 341.099C123.499 336.555 117.097 332.012 110.695 327.469C110.757 327.394 110.633 326.465 111.315 325.61C112.405 324.234 113.731 323.07 115.032 321.893C119.576 325.61 124.119 329.327 128.662 333.045Z" fill="#0C5BCC"/>
<path d="M126.808 329.327C127.911 330.727 128.097 331.446 128.667 333.044C124.124 329.327 119.58 325.61 115.037 321.892C115.037 321.892 114.901 321.198 115.656 321.273C117.689 322.921 125.458 327.604 126.808 329.327Z" fill="#A45A2A"/>
<path d="M219.715 65.4716C209.48 103.785 199.629 92.6205 206.704 140.723L204.226 140.413C203.445 130.711 198.762 115.073 199.889 106.66C200.893 99.2001 215.551 82.0757 215.997 64.5423C217.274 61.7295 217.385 64.1458 219.715 65.4716Z" fill="#FBF1E8"/>
<path d="M281.025 186.867C264.756 193.992 252.848 194.575 236.43 186.867C236.69 186.929 238.437 185.541 241.696 186.248C242.39 186.396 248.201 189.507 255.326 189.965C267.853 190.771 273.343 186.372 281.025 186.867Z" fill="#FBEDD4"/>
<path d="M311.386 100.154C311.82 102.595 312.365 105.123 312.625 107.589C313.431 115.432 313.232 120.277 312.625 128.034C308.226 127.179 310.89 108.419 309.527 98.6177L311.386 100.167V100.154Z" fill="#FBF1E8"/>
<path d="M191.839 111.926C196.237 115.94 198.765 136.287 203.61 142.891C202.012 142.048 200.252 141.801 199.893 141.652C199.719 141.578 199.174 139.818 198.964 139.793C197.935 139.669 188.567 146.175 181.306 134.527C171.121 118.171 181.381 102.347 191.839 111.913V111.926Z" fill="#FBEDD4"/>
<path d="M196.178 131.119L187.504 130.5C175.535 109.695 193.142 112.892 196.178 131.119Z" fill="#FEC4B0"/>
<path d="M196.174 131.12C197.549 139.422 193.311 140.599 187.5 130.5L196.174 131.12Z" fill="#A9907F"/>
<path d="M286.606 185.627C270.956 196.308 251.874 199.431 235.196 188.725C235.121 188.056 233.721 187.263 235.196 186.866C235.543 186.965 236.088 186.78 236.435 186.866C252.853 194.574 264.761 193.991 281.03 186.866C283.174 185.925 285.194 184.921 287.226 183.769C287.523 185.9 286.619 185.528 286.606 185.627Z" fill="#000033"/>
<path d="M286.611 185.627C286.276 187.982 287.007 191.563 286.611 193.682C281.939 218.972 238.57 218.513 235.2 193.062C235.014 191.674 235.336 190.125 235.2 188.725C251.866 199.431 270.961 196.309 286.611 185.627Z" fill="#FBDBC6"/>
<path d="M305.191 72.8941C306.541 80.1057 308.14 85.471 309.527 92.1003C310.085 94.7891 310.903 97.478 311.386 100.154L309.527 98.6056C310.89 108.407 308.214 127.167 312.625 128.022C311.944 136.82 308.635 151.206 315.103 134.527C317.483 128.381 319.242 114.342 325.636 110.674C325.723 110.625 327.135 110.166 327.494 110.055C342.785 105.545 338.77 134.763 329.043 140.401C322.154 144.403 317.235 140.116 316.652 140.401C316.008 140.71 314.41 148.827 313.864 150.313C312.39 154.328 310.878 158.913 308.908 162.705C304.137 171.911 296.17 178.677 287.224 183.769C285.191 184.922 283.184 185.925 281.028 186.867C273.346 186.372 267.856 190.77 255.329 189.965C248.204 189.506 242.393 186.396 241.699 186.248C238.44 185.541 236.693 186.929 236.433 186.867C236.086 186.78 235.54 186.966 235.193 186.867C234.958 186.805 232.752 185.232 230.857 184.389C221.353 180.151 212.79 171.23 207.933 162.085C204.501 155.617 202.729 148.356 199.879 141.64C200.226 141.788 201.998 142.036 203.596 142.879C204.55 143.375 204.786 147.488 204.216 140.401L206.694 140.71C199.619 92.6083 209.457 103.773 219.705 65.4595C243.434 78.9781 278.488 76.4751 303.629 67.9377C304.645 67.5907 304.794 70.862 305.178 72.8941H305.191Z" fill="#FBDBC6"/>
<path d="M280.411 135.457C289.556 133.437 285.826 132.062 289.704 129.881C299.568 124.33 307.25 141.256 298.068 146.609C290.646 150.933 273.683 146.795 274.215 136.386C276.235 135.184 278.28 135.928 280.411 135.457Z" fill="#FEC4B0"/>
<path d="M220.956 129.881C222.604 131.541 223.83 134.837 226.841 135.457C229.221 135.952 231.216 134.763 232.727 134.837C234.945 134.936 236.209 134.267 237.684 136.386C243.136 150.19 196.818 158.9 216.309 125.544C217.511 125.048 218.477 127.378 220.956 129.881Z" fill="#FEC4B0"/>
<path d="M293.419 110.068C278.909 106.437 274.82 112.36 272.354 107.899C271.945 103.067 273.469 103.228 276.691 101.394C285.737 99.6342 302.266 103.29 293.419 110.068Z" fill="#000019"/>
<path d="M235.815 126.782L232.717 126.473C237.996 140.76 216.312 132.767 225.902 123.685C231.144 122.198 232.358 122.644 235.815 126.782Z" fill="#000019"/>
<path d="M246.961 167.673C253.169 172.22 266.08 172.195 270.504 165.194L268.336 172.009C261.892 177.102 248.572 177.697 246.961 167.673Z" fill="#FBDBC6"/>
<path d="M245.106 162.717C252.157 169.011 257.968 168.689 266.171 165.195C268.03 164.402 272.429 160.015 270.508 165.195C266.084 172.196 253.173 172.221 246.965 167.673C243.012 164.786 241.885 160.709 245.106 162.717Z" fill="#000019"/>
<path d="M237.671 108.827C226.469 108.17 222.541 109.967 217.226 110.686C207.3 100.674 242.417 95.5314 237.671 108.827Z" fill="#000019"/>
<path d="M237.666 108.828C242.412 95.5321 207.296 100.674 217.221 110.686C209.786 111.69 212.946 103.202 216.911 100.773C224.048 96.4118 246.811 98.7537 237.666 108.828Z" fill="#FBF1E8"/>
<path d="M293.423 110.067C302.27 103.289 285.74 99.6338 276.695 101.393C276.781 101.344 276.434 100.39 277.004 100.154C283.448 97.4406 301.91 99.2373 298.379 109.757C293.918 114.354 293.732 110.141 293.423 110.067Z" fill="#F6F7F3"/>
<path d="M266.17 165.195C257.967 168.689 252.156 169.011 245.105 162.717C254.039 164.687 262.564 162.878 266.17 165.195Z" fill="#F6F7F3"/>
<path d="M225.911 123.685C216.32 132.767 238.004 140.759 232.726 126.473L235.824 126.782C236.74 127.885 242.341 128.306 232.726 134.837C231.214 134.762 229.231 135.952 226.84 135.456C223.841 134.837 222.602 131.541 220.954 129.88C220.459 125.779 223.358 124.416 225.911 123.685Z" fill="#F6F7F3"/>
<path d="M289.698 129.88C285.82 132.061 289.549 133.437 280.405 135.456C274.383 133.449 269.761 128.542 277.307 124.304C272.165 141.887 296.625 132.755 283.503 122.446C288.124 122.347 289.996 125.259 289.698 129.88Z" fill="#F6F7F3"/>
<path d="M259.353 151.565C261.559 151.169 261.745 149.013 264.619 149.706C262.637 159.83 243.802 153.622 247.582 149.087C253.158 151.863 252.873 152.742 259.353 151.565Z" fill="#000019"/>
<path d="M259.354 151.565C252.873 152.742 253.158 151.862 247.582 149.087C249.292 147.03 256.838 151.243 259.354 151.565Z" fill="#F6F7F3"/>
<path d="M331.822 118.74C324.586 120.152 319.406 130.648 326.246 135.468C314.933 144.501 319.877 120.289 326.556 116.262C330.67 113.783 330.757 115.01 331.822 118.74Z" fill="#FEC4B0"/>
<path d="M331.822 118.74C333.197 123.56 332.032 124.588 330.583 128.653C325.787 126.583 323.458 130.239 328.104 132.989C328.005 133.113 328.761 133.46 326.246 135.468C319.406 130.648 324.585 120.152 331.822 118.74Z" fill="#CBAF9C"/>
<path d="M330.583 128.64C329.654 131.254 329.592 131.031 328.105 132.977C323.458 130.238 325.788 126.571 330.583 128.64Z" fill="#A98F7F"/>
<path d="M283.504 122.446C296.626 132.755 272.166 141.887 277.308 124.304C280.319 122.619 279.477 122.533 283.504 122.446Z" fill="#000019"/>
<path d="M285.669 126.163L285.979 126.473L286.289 126.783L286.598 127.092L286.289 127.402H285.669L285.359 127.092V126.473L285.669 126.163Z" fill="#9FB2BF"/>
<path d="M224.664 195.54C224.392 236.269 296.136 237.149 297.759 196.159C351.288 203.532 360.52 211.673 391.287 254.385C399.341 265.574 421.657 297.816 425.969 308.893C412.488 317.121 399.242 325.002 386.95 334.902C381.486 339.313 374.856 345.757 373.939 344.195C374.931 330.528 378.152 304.358 377.657 292.785C377.508 289.315 377.706 284.037 373.01 282.872C371.647 282.537 348.959 282.302 344.833 282.252C345.465 277.581 346.766 271.385 348.55 267.073C351.028 261.113 363.531 245.203 354.746 254.682C348.885 261.002 346.01 269.911 343.284 277.916C341.475 277.593 342.355 255.773 342.355 253.133C342.355 226.964 341.747 223.184 341.115 251.894C340.892 262.179 340.88 272.575 341.115 282.86C286.297 282.314 231.169 281.868 176.351 282.24L176.971 246.628H175.732L174.802 271.1C171.184 263.133 168.644 254.521 163.031 247.557C169.821 261.993 173.786 265.71 172.634 282.86C166.228 282.897 130.467 282.215 128.348 282.86C124.891 283.9 124.755 289.923 124.941 292.772C124.941 292.822 124.135 292.599 124.321 293.702C127.828 294.371 125.87 312.945 126.18 317.245C126.217 317.728 127.382 317.381 127.419 317.864C127.63 321.036 128.633 327.752 126.799 329.326C125.449 327.616 117.692 322.92 115.648 321.272C110.629 317.195 105.982 312.549 100.159 309.5C100.283 308.608 99.9728 307.419 100.159 306.712C100.952 303.627 134.532 260.742 136.7 254.373C161.061 224.386 166.798 209.566 206.387 198.625C211.777 197.138 219.2 196.754 224.664 195.527V195.54Z" fill="#79B0FF"/>
<path d="M115.645 321.272C114.89 321.198 115.063 321.867 115.026 321.892C113.725 323.069 112.399 324.233 111.309 325.609C102.35 317.579 98.7316 319.289 100.157 309.5C105.968 312.549 110.627 317.195 115.645 321.272Z" fill="#0041B2"/>
<path d="M416.671 322.511C415.11 322.14 414.565 319.55 413.883 319.414C412.397 319.129 391.468 333.924 388.184 335.522C387.788 334.766 387.862 334.754 386.945 334.902C399.237 324.99 412.483 317.121 425.965 308.894C426.547 310.38 428.79 313.602 428.443 314.779C428.059 316.043 418.369 321.347 416.671 322.524V322.511Z" fill="#000066"/>
<path d="M235.178 193.062C238.548 218.513 281.917 218.972 286.588 193.681C286.762 195.057 292.858 195.491 297.74 196.16C296.129 237.149 224.373 236.27 224.645 195.54C224.98 195.466 227.954 193.781 228.363 193.681C229.602 193.372 233.778 192.789 235.178 193.062Z" fill="#B2D2FF"/>
<path d="M388.176 335.521C389.105 337.293 388.461 338.359 389.415 339.858C384.211 343.08 378.796 346.004 373.926 349.771C374.062 347.925 373.79 346.041 373.926 344.195C374.843 345.756 381.46 339.313 386.937 334.902C387.854 334.753 387.779 334.765 388.176 335.521Z" fill="#0C5BCC"/>
<path d="M176.352 282.253C176.166 282.253 175.744 282.847 172.634 282.872C173.787 265.723 169.834 262.006 163.031 247.57C168.644 254.521 171.185 263.133 174.803 271.113L175.732 246.641H176.971L176.352 282.253Z" fill="#000E7F"/>
<path d="M342.341 253.146C342.341 255.773 341.461 277.606 343.27 277.928C345.984 269.924 348.871 261.027 354.732 254.695C363.517 245.216 351.014 261.114 348.536 267.086C346.752 271.398 345.451 277.594 344.819 282.265C344.633 282.265 344.175 282.909 341.102 282.885C340.866 272.588 340.879 262.204 341.102 251.919L342.341 253.159V253.146Z" fill="#000E7F"/>
<path d="M342.337 253.146L341.098 251.907C341.73 223.197 342.337 226.976 342.337 253.146Z" fill="#000E7F"/>
<rect x="355.09" y="83.0557" width="100.467" height="178.148" rx="16" fill="white"/>
<g filter="url(#filter0_d_1042_9163)">
<rect x="361.305" y="90.3062" width="88.0383" height="162.612" rx="9" fill="#F0F5FE"/>
</g>
<rect x="366.48" y="105.842" width="39.3583" height="9.3217" rx="4.66085" fill="#C5DDFF"/>
<rect x="366.48" y="125.521" width="22.7864" height="9.3217" rx="4.66085" fill="#C5DDFF"/>
<rect x="366.48" y="145.2" width="13.4647" height="9.3217" rx="4.66085" fill="#C5DDFF"/>
</g>
<defs>
<filter id="filter0_d_1042_9163" x="281.305" y="30.3062" width="248.039" height="322.612" filterUnits="userSpaceOnUse" color-interpolation-filters="sRGB">
<feFlood flood-opacity="0" result="BackgroundImageFix"/>
<feColorMatrix in="SourceAlpha" type="matrix" values="0 0 0 0 0 0 0 0 0 0 0 0 0 0 0 0 0 0 127 0" result="hardAlpha"/>
<feOffset dy="20"/>
<feGaussianBlur stdDeviation="40"/>
<feComposite in2="hardAlpha" operator="out"/>
<feColorMatrix type="matrix" values="0 0 0 0 0 0 0 0 0 0 0 0 0 0 0 0 0 0 0.05 0"/>
<feBlend mode="normal" in2="BackgroundImageFix" result="effect1_dropShadow_1042_9163"/>
<feBlend mode="normal" in="SourceGraphic" in2="effect1_dropShadow_1042_9163" result="shape"/>
</filter>
<radialGradient id="paint0_radial_1042_9163" cx="0" cy="0" r="1" gradientUnits="userSpaceOnUse" gradientTransform="translate(260 260) rotate(90) scale(260)">
<stop stop-color="#D9D9D9"/>
<stop offset="1" stop-color="#737373"/>
</radialGradient>
</defs>
</svg>
