<svg width="520" height="520" viewBox="0 0 520 520" fill="none" xmlns="http://www.w3.org/2000/svg">
<mask id="mask0_1042_9701" style="mask-type:alpha" maskUnits="userSpaceOnUse" x="0" y="0" width="520" height="520">
<circle cx="260" cy="260" r="260" fill="url(#paint0_radial_1042_9701)"/>
</mask>
<g mask="url(#mask0_1042_9701)">
<path d="M145.688 371.397C142.773 372.169 135.698 373.749 134.799 377.064C134.036 379.88 139.585 407.125 140.693 412.438C141.656 417.052 148.612 447.204 149.312 448.947C150.828 452.734 155.088 453.543 158.611 454.387C181.797 455.459 238.378 462.824 256.578 462.098C256.796 462.098 260.138 460.581 260.655 460.736C261.146 460.881 259.793 462.606 269.047 463.914C275.804 464.868 281.226 464.005 287.874 463.46L364.752 449.401C374.724 449.983 378.965 448.938 379.719 448.947C383.088 448.975 386.33 448.956 389.7 448.947C397.41 448.929 405.121 449.011 412.831 448.947C441.775 448.702 470.728 447.322 499.69 448.039L502.642 424.453C503.033 424.117 507.31 417.996 509.444 416.743C509.417 440.174 509.553 463.615 509.444 487.046C497.211 486.555 484.923 487.5 472.708 487.5C472.545 487.5 472.245 487.046 469.53 487.046C387.139 487.046 304.739 487.5 222.348 487.5C220.514 487.5 218.416 487.046 216.454 487.046C203.912 487.046 191.333 487.5 178.81 487.5C178.719 487.5 179.309 487.046 176.993 487.046C151.137 487.046 125.29 487.046 99.4339 487.046C87.9453 487.046 76.4567 487.046 64.9682 487.046C58.3384 487.046 51.6087 486.664 45.0153 487.5C44.9517 474.349 45.0425 461.19 45.0153 448.039H79.0269C79.5718 451.054 80.4709 455.768 81.7515 458.474C85.8656 467.166 112.294 465.358 114.864 460.291C115.155 459.709 117.28 449.456 117.589 447.594L147.522 446.913C143.427 435.197 140.221 423 137.541 410.858C136.624 406.68 131.148 379.653 131.193 377.972C131.239 376.192 132.919 373.214 134.372 372.305C137.296 370.462 142.4 370.843 145.706 371.397H145.688Z" fill="#D1BFFB"/>
<rect x="94.582" y="480.277" width="365.926" height="42.1296" fill="#D1BFFB"/>
<path d="M279.034 387.271C278.317 387.117 277.018 386.89 276.31 386.817C270.07 373.067 263.958 359.254 258.164 345.313L260.662 344.178C266.792 358.4 274.012 373.249 279.034 387.262V387.271Z" fill="#000E7F"/>
<path d="M165.648 370.035C190.778 373.177 216.452 370.925 241.164 376.837C250.455 380.942 249.692 390.85 251.372 399.514C253.788 412.002 255.94 424.635 258.174 437.159C258.965 441.572 260.327 446.122 260.899 450.536C261.299 453.633 258.665 456.73 262.261 458.928C258.883 463.051 268.056 462.134 269.064 463.914C259.809 462.615 261.162 460.881 260.672 460.735C260.145 460.581 256.803 462.088 256.594 462.098C238.394 462.824 181.814 455.459 158.628 454.387C155.113 453.533 150.845 452.734 149.328 448.947C154.414 451.926 160.59 452.325 166.338 453.025C194.728 456.503 223.636 456.403 252.062 459.827C255.677 459.618 259.173 456.04 258.638 452.344C255.722 442.017 247.785 387.263 245.487 383.403C244.633 381.977 240.955 379.198 239.366 378.644C226.996 374.303 164.35 373.994 145.704 371.388C142.39 370.834 137.286 370.452 134.37 372.296C128.313 368.318 129.43 375.22 127.568 381.142C125.388 388.071 122.873 394.973 120.312 401.776C120.248 401.721 120.184 401.867 118.949 400.867C131.255 353.133 150.545 306.189 150.018 256.184C155.486 291.494 139.801 333.87 130.747 368.436L165.666 370.025L165.648 370.035Z" fill="#000066"/>
<path d="M149.327 448.956C148.627 447.212 141.671 417.06 140.708 412.447C139.6 407.125 134.051 379.888 134.814 377.073C135.704 373.758 142.779 372.169 145.703 371.406C164.348 374.012 226.995 374.321 239.365 378.662C240.954 379.216 244.632 381.995 245.486 383.421C247.783 387.272 255.73 442.036 258.636 452.362C259.172 456.058 255.676 459.636 252.061 459.845C223.644 456.421 194.736 456.521 166.337 453.043C160.597 452.334 154.413 451.935 149.327 448.965V448.956Z" fill="#A37EF8"/>
<path d="M119.841 428.539C119.096 434.324 118.415 442.534 117.57 447.583C117.261 449.445 115.145 459.708 114.845 460.28C103.875 461.806 92.1317 463.422 81.7329 458.463C80.4524 455.757 79.5624 451.053 79.0084 448.028C78.9721 447.829 79.1355 447.847 79.0084 447.12C78.191 442.379 77.3464 435.486 76.7379 430.564C76.52 428.766 77.2102 428.248 77.192 428.066L119.822 428.521L119.841 428.539Z" fill="#A37EF8"/>
<path d="M114.859 460.289C112.298 465.366 85.8693 467.164 81.7461 458.473C92.1448 463.431 103.879 461.815 114.859 460.289Z" fill="#00004C"/>
<path d="M122.113 411.766C122.158 414.663 120.433 423.963 119.843 428.549L77.2122 428.095C77.2122 428.023 76.3404 427.251 76.304 426.96C75.6229 421.266 74.8873 415.154 75.3958 409.496C81.4081 411.357 112.904 410.213 122.34 409.95C122.967 410.467 122.095 410.749 122.113 411.766Z" fill="#F3EFFE"/>
<path d="M118.944 400.877C120.17 401.876 120.242 401.73 120.306 401.785C120.678 402.121 121.832 403.274 122.122 403.601L122.577 405.19C121.45 408.269 79.5103 408.869 74.043 405.418C76.2408 400.023 78.1207 396.417 84.7051 395.436C86.0129 395.246 107.909 395.246 109.199 395.436C112.632 395.954 116.292 398.724 118.953 400.877H118.944Z" fill="#F3EFFE"/>
<path d="M123.932 410.857C122.188 411.203 123.65 412.728 122.115 411.766C122.097 410.758 122.969 410.467 122.342 409.949C112.906 410.213 81.4104 411.357 75.3982 409.495C69.6039 407.697 73.9087 405.726 74.0359 405.417C79.4941 408.869 121.434 408.269 122.569 405.19L122.115 403.601C122.76 404.337 124.513 403.329 123.932 410.857Z" fill="#00004C"/>
<path d="M131.175 136.911C129.776 139.59 120.93 144.976 120.285 146.665C119.613 148.436 119.813 164.929 110.759 164.357C113.719 138.609 86.2556 141.706 90.8057 162.086C91.9318 167.108 95.8915 170.787 99.4244 174.101C96.5999 174.982 93.2941 174.483 90.3516 174.556C85.0296 168.652 81.1516 150.089 85.3656 143.032C91.3142 133.06 115.617 139.4 131.175 136.911Z" fill="#000033"/>
<path d="M102.151 175.464C97.7739 175.755 93.3601 175.446 89.0008 175.01C88.9735 174.356 89.6547 174.574 90.3631 174.556C93.3056 174.483 96.6114 174.983 99.4359 174.102C100.117 174.747 101.552 174.774 102.16 175.464H102.151Z" fill="#221F14"/>
<path d="M181.977 121.036C171.388 124.787 153.079 122.652 142.743 117.857C144.978 128.047 141.971 135.185 131.182 136.902C115.625 139.39 91.3218 133.051 85.3732 143.023C81.1683 150.08 85.0372 168.643 90.3591 174.546C89.6507 174.564 88.9696 174.346 88.9969 175C88.3339 174.937 88.1976 174.864 87.6346 174.546C87.2713 171.386 72.2045 151.16 69.9431 127.602C68.2175 109.602 72.9219 84.1633 96.4712 91.0928C101.83 54.7471 190.269 79.8676 193.756 103.108C195.019 111.536 189.751 118.266 181.968 121.027L181.977 121.036Z" fill="#000033"/>
<path d="M134.137 113.325L139.35 115.822C139.114 116.549 134.337 114.487 134.137 113.325Z" fill="#45181D"/>
<path d="M102.595 177.734C103.658 182.012 103.694 185.518 106.228 190.431C110.451 212.173 129.141 221.318 130.268 223.089C130.013 223.997 125.69 231.626 125.282 231.935C124.156 232.771 122.176 232.898 120.977 232.616C117.172 231.708 94.7211 211.419 91.27 207.214C84.2043 198.477 87.4102 187.043 87.1923 176.826C92.0692 178.588 97.482 177.389 102.613 177.734H102.595Z" fill="#FBDBC6"/>
<path d="M131.167 211.746C131.076 214.798 131.012 220.401 130.258 223.08C129.132 221.309 110.442 212.164 106.219 190.422C111.405 200.503 122.294 205.561 131.167 211.737V211.746Z" fill="#FEC4B0"/>
<path d="M88.9823 175.009C93.3416 175.445 97.7554 175.754 102.133 175.463C103.223 176.698 102.56 177.616 102.587 177.734C97.4557 177.389 92.0429 178.588 87.1659 176.826C87.1296 175.018 87.6382 174.7 87.62 174.555C88.174 174.873 88.3193 174.946 88.9823 175.009Z" fill="#FEC4B0"/>
<path d="M181.966 143.259C181.803 144.34 183.201 149.135 180.15 148.245C169.206 147.954 173.656 143.631 181.966 143.259Z" fill="#000019"/>
<path d="M181.968 121.035C182.994 126.429 183.394 136.819 182.876 142.123C182.849 142.395 181.977 143.186 181.968 143.258C173.667 143.64 169.217 147.963 180.152 148.244C180.079 159.933 177.727 170.958 176.973 181.13C174.33 189.567 170.498 199.856 165.185 206.986C154.604 221.172 145.913 217.403 131.173 211.745C122.3 205.569 111.411 200.51 106.225 190.429C103.7 185.507 103.655 182.001 102.593 177.733C102.565 177.624 103.228 176.707 102.138 175.463C101.53 174.772 100.104 174.745 99.4138 174.1C95.881 170.776 91.9213 167.107 90.7951 162.085C86.2451 141.696 113.718 138.608 110.748 164.355C119.803 164.937 119.603 148.444 120.275 146.664C120.911 144.984 129.756 139.598 131.164 136.91C141.953 135.184 144.959 128.055 142.725 117.865C153.061 122.651 171.37 124.795 181.959 121.044L181.968 121.035Z" fill="#FBDBC6"/>
<path d="M152.715 141.895C156.366 141.505 162.269 142.558 165.184 144.847C167.981 153.502 158.055 143.376 145.458 148.252C142.452 144.82 150.226 142.168 152.715 141.904V141.895Z" fill="#000019"/>
<path d="M157.918 156.536L161.112 158.55C162.703 178.801 144.7 165.746 157.918 156.536Z" fill="white"/>
<path d="M158.612 156.862L161.109 158.452C162.353 174.427 148.276 164.128 158.612 156.862Z" fill="#000019"/>
<path d="M142.281 186.342C150.873 192.309 155.677 195.006 166.548 192.917C160.427 198.639 145.151 194.207 142.281 186.342Z" fill="#000019"/>
<path d="M175.975 154.719L179.22 156.832C181.155 176.947 164.99 164.632 175.975 154.719Z" fill="white"/>
<path d="M175.387 156.407L177.885 157.997C179.374 173.127 166.932 163.863 175.387 156.407Z" fill="#000019"/>
<path d="M166.771 157.316C168.224 166.616 173.673 176.861 173.8 177.95C174.736 186.16 161.467 186.487 159.969 179.086C162.766 183.763 171.421 184.689 172.438 179.767C172.956 177.26 166.689 165.454 166.771 157.316Z" fill="#000019"/>
<path d="M103.738 156.407C104.201 157.96 104.464 168.132 101.921 167.741C98.8516 164.118 100.841 159.441 103.738 156.407Z" fill="#FEC4B0"/>
<path d="M99.6491 149.605C99.7763 149.605 100.285 150.159 102.147 150.287C94.0456 152.039 92.0657 161.403 97.1607 167.524L96.4795 168.205C91.7025 164.173 92.3473 149.996 99.6582 149.605H99.6491Z" fill="#FEC4B0"/>
<path d="M148.637 196.777C155.448 199.474 160.924 196.85 161.106 197.458C157.492 200.237 151.234 201.281 148.637 196.777Z" fill="#000019"/>
<path d="M82.6483 194.054C88.3971 207.15 95.5082 219.892 99.8857 233.515C97.1975 236.575 80.1599 245.594 80.3869 248.709C98.7595 295.834 114.29 338.547 111.229 390.213C114.172 392.793 114.181 386.199 114.408 384.546C115.57 384.855 115.543 382.984 115.77 381.822C120.529 375.128 124.534 363.531 126.659 355.294C130.891 338.837 135.06 299.24 133.916 282.729C133.225 272.757 129.729 262.84 129.384 252.795C129.384 252.623 128.466 252.051 128.475 251.887C128.548 250.57 130.047 251.043 130.292 245.312C130.473 241.053 131.345 233.315 131.2 229.891C141.871 237.529 149.836 246.157 152.969 259.144C158.673 282.793 160.743 342.17 165.666 370.033L130.746 368.444C139.801 333.878 155.485 291.502 150.018 256.192C150.544 306.197 131.264 353.141 118.949 400.876C116.288 398.723 112.637 395.944 109.195 395.435C107.905 395.245 86.0086 395.245 84.7008 395.435C78.1164 396.416 76.2456 400.022 74.0387 405.416C73.9115 405.725 69.6067 407.705 75.4009 409.494C74.8924 415.152 75.628 421.255 76.3091 426.959C76.3455 427.249 77.2082 428.021 77.2173 428.094C77.2355 428.276 76.5453 428.793 76.7632 430.591C77.3717 435.514 78.2072 442.398 79.0337 447.148C67.6935 443.218 56.3563 439.289 45.0221 435.359C45.0039 423.871 45.0311 412.382 45.0221 400.894C75.5099 385.173 60.2524 342.761 62.2595 320.846C62.868 314.243 66.4462 307.441 67.6995 300.893C70.4695 286.444 69.8792 271.477 69.0618 256.9C66.0194 237.656 68.1354 266.264 66.3372 280.486C65.1203 290.14 60.8881 300.521 59.5349 307.695C53.5136 339.546 65.9558 376.445 45.0221 397.27C27.4732 374.106 9.40727 329.453 10.9298 290.694C12.417 252.836 33.1545 220.629 44.6371 217.268C47.9611 214.707 65.0982 208.842 65.0982 208.842C65.0982 208.842 76.6997 195.343 81.059 190.884C81.2406 190.884 82.4394 193.6 82.6483 194.063V194.054Z" fill="#79B0FF"/>
<path d="M45 400.875C45 399.667 45 398.46 45 397.243C65.9337 376.418 53.4916 339.518 59.5128 307.668C60.866 300.484 65.0982 290.104 66.3152 280.459C68.1043 266.246 65.9882 237.629 69.0397 256.873C69.8571 271.449 70.4474 286.416 67.6775 300.866C66.4242 307.423 62.8368 314.225 62.2374 320.819C60.2303 342.733 75.4879 385.155 45 400.866V400.875Z" fill="#002899"/>
<path d="M79.0285 447.139C79.1557 447.866 78.9922 447.848 79.0285 448.048H45.0078C45.0078 443.815 45.0078 439.583 45.0078 435.351C56.3481 439.281 67.6853 443.21 79.0195 447.139H79.0285Z" fill="#000066"/>
<path d="M123.93 410.857C126.437 410.358 133.82 411.221 137.535 410.857C140.205 423.009 143.42 435.197 147.516 446.912L117.582 447.594C118.427 442.544 119.099 434.325 119.853 428.549C120.443 423.962 122.168 414.663 122.123 411.766C123.658 412.728 122.196 411.202 123.939 410.857H123.93Z" fill="#000066"/>
<path d="M134.357 372.304C132.913 373.212 131.224 376.2 131.178 377.971C131.142 379.642 136.609 406.67 137.526 410.856C133.812 411.22 126.428 410.357 123.922 410.856C124.503 403.328 122.759 404.336 122.105 403.6C121.824 403.273 120.661 402.129 120.289 401.784C122.85 394.981 125.366 388.079 127.545 381.15C129.407 375.228 128.299 368.326 134.348 372.304H134.357Z" fill="#79B0FF"/>
<path d="M100.335 236.239C94.5895 240.399 88.8437 244.555 83.0979 248.709C93.7146 276.345 111.815 325.796 114.394 353.931C114.657 356.847 114.258 360.216 114.394 363.231C114.712 369.997 115.311 377.808 114.394 384.546C114.167 386.199 114.167 392.802 111.215 390.213C114.276 338.547 98.746 295.835 80.3733 248.709C80.1463 245.594 97.193 236.575 99.8721 233.515C100.39 235.131 100.235 235.949 100.326 236.239H100.335Z" fill="#000E7F"/>
<path d="M91.2619 207.213C94.713 211.418 117.163 231.707 120.969 232.615C122.168 232.906 124.156 232.77 125.274 231.934C125.682 231.635 130.005 223.997 130.259 223.089C130.959 224.187 131.104 228.465 131.168 229.891C131.313 233.315 130.441 241.052 130.259 245.312C122.077 228.42 123.076 231.971 117.336 250.752C118.308 251.914 121.405 250.262 121.641 254.158C121.768 256.328 119.298 276.435 118.916 283.637C117.699 306.678 117.863 329.801 115.738 352.805C115.738 351.325 115.974 350.017 115.283 350.08C115.329 335.713 116.101 320.592 114.829 306.315C113.394 290.24 105.221 252.341 100.316 236.239C100.226 235.948 100.38 235.14 99.8624 233.515C95.4849 219.892 88.3829 207.15 82.625 194.054C89.2639 190.657 81.8894 195.807 91.2437 207.204L91.2619 207.213Z" fill="#ECF4FF"/>
<path d="M130.272 245.312C130.027 251.043 128.528 250.571 128.456 251.888C128.456 252.051 129.355 252.614 129.364 252.796C129.709 262.84 133.205 272.758 133.896 282.73C135.04 299.241 130.871 338.838 126.639 355.294C124.523 363.54 120.509 375.129 115.75 381.822C117.012 375.201 115.795 360.961 115.75 352.796C117.866 329.792 117.703 306.67 118.929 283.629C119.31 276.427 121.78 256.32 121.653 254.149C121.417 250.262 118.311 251.915 117.348 250.743C123.088 231.962 122.089 228.411 130.272 245.303V245.312Z" fill="#0041B2"/>
<path d="M115.757 352.796C115.802 360.961 117.019 375.201 115.757 381.822C115.539 382.985 115.557 384.856 114.395 384.547C115.312 377.808 114.712 369.998 114.395 363.232C115.893 363.313 115.285 355.167 115.303 350.081C115.993 350.008 115.748 351.325 115.757 352.806V352.796Z" fill="#3F8EFF"/>
<path d="M115.306 350.081C115.288 355.176 115.896 363.313 114.398 363.231C114.261 360.225 114.661 356.847 114.398 353.931C111.818 325.787 93.7274 276.345 83.1016 248.709C88.8474 244.549 94.5932 240.393 100.339 236.239C105.243 252.341 113.417 290.24 114.852 306.315C116.123 320.592 115.342 335.722 115.306 350.081Z" fill="#79B0FF"/>
<path d="M426.447 171.832C426.447 171.832 425.948 171.941 425.993 171.378C429.308 169.071 432.069 166.146 434.158 162.759C434.221 162.659 434.621 162.904 435.52 160.942C440.415 150.226 436.782 139.609 426.901 140.081C426.901 139.782 427.028 139.3 426.674 139.173C425.675 138.828 414.777 138.646 411.48 137.811C398.411 134.487 396.976 116.396 407.629 108.331C394.143 115.533 372.737 114.797 356.835 116.042C351.113 116.487 345.055 117.976 339.37 118.312C315.866 119.683 335.065 95.1261 348.216 85.6537C372.501 68.1529 425.775 59.6704 429.853 91.5478C468.814 89.3591 458.47 160.643 426.447 171.823V171.832Z" fill="#000033"/>
<path d="M426.905 140.091C423.745 140.245 422.891 140.881 421.011 143.27C419.168 145.613 419.041 146.585 418.287 149.391C420.93 168.099 412.701 153.469 411.484 137.83C414.781 138.665 425.679 138.838 426.678 139.192C427.033 139.319 426.905 139.8 426.905 140.1V140.091Z" fill="#000033"/>
<path d="M425.989 171.377C425.943 171.94 426.443 171.795 426.443 171.831C426.425 172.367 425.507 175.219 425.535 175.682C425.553 176.027 426.425 175.791 426.443 176.136C426.77 183.093 426.325 190.049 425.989 196.997C425.971 197.36 426.897 197.179 426.897 197.224C426.761 199.649 426.325 202.582 425.081 204.707C423.082 208.14 395.101 233.161 389.252 237.593C388.326 235.949 387.5 236.331 387.436 236.231C385.384 232.734 383.204 225.714 380.18 223.08C380.198 222.435 380.18 221.872 380.18 221.264C380.18 220.828 380.634 220.782 380.634 220.356C397.481 215.887 423.854 208.24 421.003 185.89C423.409 179.669 422.483 172.676 422.819 172.058C423.119 171.504 425.78 171.522 425.998 171.377H425.989Z" fill="#FBDBC6"/>
<path d="M380.631 220.364C380.649 217.894 380.095 215.569 380.177 213.108C380.222 213.108 380.022 212.263 380.404 212.2C392.819 210.247 416.277 198.123 421 185.89C423.852 208.24 397.478 215.887 380.631 220.355V220.364Z" fill="#FEC4B0"/>
<path d="M340.266 141.898C336.933 142.661 339.794 137.693 339.812 137.366C349.411 131.762 356.277 140.835 353.189 141.898C347.704 139.455 345.098 140.79 340.266 141.898Z" fill="#000019"/>
<path d="M426.898 140.09C436.779 139.618 440.403 150.235 435.517 160.951C436.053 155.221 435.199 144.867 428.487 142.806C425.554 141.907 424.836 143.224 424.637 143.26C423.556 143.442 422.148 143.133 421.004 143.26C422.884 140.871 423.738 140.236 426.898 140.081V140.09Z" fill="#FFB59C"/>
<path d="M435.518 160.951C434.628 162.913 434.219 162.667 434.156 162.767L433.248 162.994C434.201 154.685 433.638 146.247 424.629 143.269C424.829 143.232 425.546 141.915 428.48 142.814C435.191 144.876 436.045 155.22 435.509 160.96L435.518 160.951Z" fill="#FEC4B0"/>
<path d="M411.477 137.82C412.694 153.468 420.932 168.09 418.28 149.381C419.024 146.575 419.152 145.594 421.004 143.26C422.139 143.133 423.556 143.442 424.637 143.26C433.646 146.239 434.209 154.676 433.256 162.986L434.164 162.759C432.075 166.146 429.314 169.071 425.999 171.377C425.79 171.523 423.12 171.505 422.821 172.059C422.485 172.676 423.411 179.669 421.004 185.89C416.282 198.124 392.832 210.248 380.408 212.2C380.027 212.264 380.227 213.1 380.181 213.109C375.268 213.744 365.441 211.701 360.909 209.031C356.005 206.143 348.476 196.289 346.17 191.112C345.479 189.568 340.375 172.622 340.275 171.613C339.794 167.009 340.384 148.636 340.275 141.907C345.116 140.799 347.723 139.464 353.199 141.907C356.287 140.844 349.421 131.762 339.821 137.375C340.175 131.145 339.903 124.56 339.367 118.33C345.043 117.994 351.101 116.514 356.832 116.06C372.734 114.815 394.14 115.551 407.627 108.349C396.983 116.414 398.418 134.505 411.477 137.829V137.82Z" fill="#FBDBC6"/>
<path d="M373.612 135.549C380.678 134.341 391.122 138.792 386.763 142.352C381.014 139.936 374.33 139.727 368.617 142.352C364.985 139.373 371.024 135.985 373.603 135.549H373.612Z" fill="#000019"/>
<path d="M386.762 180.904L387.443 181.585C368.398 200.303 352.959 184.337 355.012 183.629C364.321 191.912 377.789 187.943 386.762 180.904Z" fill="#653018"/>
<path d="M346.075 148.365L349.156 149.977C354.522 173.49 335.634 162.94 346.075 148.365Z" fill="white"/>
<path d="M345.937 150.516L348.435 151.651C352.785 168.208 337.473 160.779 345.937 150.516Z" fill="#000019"/>
<path d="M375.856 148.365C391.655 157.624 371.403 176.618 372.918 150.748L375.856 148.365Z" fill="white"/>
<path d="M376.335 150.971C387.324 157.146 373.238 169.816 374.291 152.56L376.335 150.971Z" fill="#000019"/>
<path d="M377.234 189.977C376.027 194.21 370.142 195.608 366.345 194.963C356.519 193.301 369.615 193.365 370.877 193.147C372.857 192.811 375.818 191.567 377.225 189.968L377.234 189.977Z" fill="#653018"/>
<path d="M356.379 174.102C359.576 178.044 364.78 179.878 368.621 175.918C370.247 180.532 358.005 181.722 356.379 174.102Z" fill="#781D12"/>
<path d="M424.405 150.971C434.45 155.666 421.354 170.224 426.903 159.362C427.856 151.561 422.489 152.487 424.405 150.971Z" fill="#781D12"/>
<circle cx="395.539" cy="169.252" r="7.2655" fill="#FEC4B0"/>
<path d="M297.185 423.554C296.168 424.053 295.16 424.762 294.007 424.916C293.998 424.852 292.908 425.761 292.644 424.689C292.272 423.181 292.472 416.315 292.644 414.027C292.708 414.163 294.715 415.516 294.915 416.07C295.705 418.223 294.179 424.053 297.185 423.554Z" fill="#FFB59C"/>
<path d="M385.169 428.086C386.913 434.979 388.33 441.972 389.701 448.947C386.332 448.956 383.099 448.974 379.72 448.947C379.938 447.875 379.357 447.567 379.266 447.131C377.577 439.175 376.66 431.01 374.734 423.091C375.198 423.009 381.046 419.331 383.58 421.275C384.488 421.974 384.806 426.642 385.169 428.077V428.086Z" fill="#3F8EFF"/>
<path d="M379.275 447.14C379.366 447.576 379.947 447.875 379.729 448.956C378.966 448.956 374.734 449.991 364.762 449.41C355.063 448.847 345.372 446.94 335.737 445.777C325.438 444.533 315.184 442.435 304.895 441.246C305.004 440.029 305.394 438.748 305.803 437.613C330.16 441.909 354.491 446.586 379.275 447.14Z" fill="#FEC4B0"/>
<path d="M299.913 425.371C299.341 426.488 296.144 434.598 295.154 434.444C293.774 434.226 294.864 428.877 294.473 426.734C296.181 426.525 298.951 424.1 299.913 425.371Z" fill="#FFB59C"/>
<path d="M276.327 386.818C277.035 386.891 278.334 387.118 279.051 387.272C282.911 388.099 286.072 390.288 288.578 393.166C297.933 403.919 291.021 407.943 290.849 408.815C290.749 409.323 292.275 413.156 292.665 414.028C292.493 416.316 292.293 423.182 292.665 424.69C292.929 425.761 294.018 424.844 294.027 424.917C294.227 426.088 294.445 426.515 294.482 426.733C294.872 428.876 293.782 434.226 295.163 434.444C296.162 434.598 299.349 426.488 299.922 425.371C300.575 424.09 302.837 422.71 301.738 421.293C311.492 417.451 324.47 415.898 334.85 417.215C345.349 418.541 353.196 423.772 354.576 424.018C358.109 424.635 370.697 423.827 374.756 423.109C376.682 431.029 377.599 439.193 379.288 447.149C354.504 446.595 330.164 441.918 305.816 437.622C308.095 431.365 312.355 426.86 318.966 425.153C310.484 425.044 305.58 433.953 303.999 441.255C290.749 439.729 277.371 438.985 264.084 437.622C263.095 435.252 270.923 416.67 272.022 416.307C274.102 415.608 286.344 416.807 289.941 416.988C281.513 414.536 272.676 415.962 264.084 416.08C264.084 416.897 270.542 415.263 270.433 417.442C267.327 423.954 264.475 430.62 262.722 437.622C261.478 437.468 260.869 437.459 259.544 437.168C259.135 437.077 258.617 437.223 258.181 437.168C255.947 424.644 253.795 412.011 251.379 399.524C253.531 397.299 252.932 393.857 255.457 391.359C255.448 394.147 258.381 390.796 259.089 389.543C263.249 387.799 271.958 386.364 276.327 386.818Z" fill="#FBDBC6"/>
<path d="M259.09 389.543C258.381 390.796 255.448 394.147 255.457 391.359C255.602 391.214 258.027 389.988 259.09 389.543Z" fill="#FFB59C"/>
<path d="M264.073 437.614C264.01 437.614 264.346 437.814 262.711 437.614C264.464 430.612 267.315 423.937 270.421 417.434C270.521 415.254 264.073 416.898 264.073 416.072C272.665 415.954 281.501 414.528 289.929 416.98C286.333 416.798 274.1 415.608 272.011 416.299C270.912 416.662 263.083 435.244 264.073 437.614Z" fill="#FFB59C"/>
<path d="M274.738 397.698C281.241 396.981 288.715 399.061 288.797 406.771C289.478 407.316 291.894 403.883 291.976 401.785C293.383 404.038 289.451 408.96 287.898 408.134C288.988 398.262 279.279 397.272 271.569 399.061C270.887 399.224 259.935 403.565 267.491 399.969C268.426 399.524 273.903 397.798 274.747 397.698H274.738Z" fill="#FFB59C"/>
<path d="M305.809 437.613C305.4 438.748 305.009 440.029 304.9 441.246C304.601 441.209 304.292 441.282 303.992 441.246C305.572 433.944 310.477 425.035 318.959 425.144C312.338 426.851 308.088 431.365 305.809 437.613Z" fill="#FFB59C"/>
<path d="M299.91 425.371C298.947 424.1 296.168 426.524 294.47 426.733C294.433 426.515 294.215 426.088 294.016 424.917C295.169 424.772 296.177 424.063 297.194 423.555C298.656 422.828 300.246 421.875 301.726 421.284C302.825 422.71 300.573 424.09 299.91 425.362V425.371Z" fill="#FEC4B0"/>
<path d="M385.165 428.086C384.801 426.651 384.483 421.983 383.575 421.284C381.041 419.34 375.193 423.018 374.729 423.1C370.67 423.817 358.082 424.626 354.55 424.008C353.16 423.763 345.313 418.532 334.824 417.206C344.051 413.855 357.547 397.934 359.09 397.707C360.852 397.444 384.474 415.635 388.343 416.979C388.189 415.734 388.561 413.954 388.343 412.901C388.107 411.775 381.205 399.769 377.908 392.494C376.619 389.642 370.125 371.015 369.062 370.498C366.937 369.453 327.604 370.461 321.664 370.044C322.427 368.899 321.937 367.973 322.118 367.546C322.772 365.984 323.453 366.502 323.48 366.411C338.145 366.338 352.809 366.262 367.473 366.184C358.418 341.063 351.453 305.535 353.868 279.107C354.322 274.157 356.039 264.485 357.946 260.28C357.102 262.015 356.257 275.32 356.13 278.199C354.095 324.38 367.764 366.184 387.653 407.234C392.366 359.527 414.608 303.056 432.781 258.246C433.853 257.219 435.042 257.655 434.597 260.062C434.034 263.095 414.672 308.523 412.374 317.659C428.222 323.871 434.833 310.33 444.805 301.103L446.395 301.784C437.422 313.082 428.394 325.606 412.156 320.157C401.412 351.68 389.76 384.13 390.614 417.896C398.088 420.275 394.464 420.448 395.146 422.882C397.452 431.074 400.286 439.129 402.402 447.376L400.359 448.057C398.252 444.851 393.347 422.555 392.421 421.529C391.585 420.602 385.782 420.357 384.029 419.939C383.639 420.103 386.736 427.123 385.165 428.104V428.086Z" fill="#000E7F"/>
<path d="M412.837 448.957L413.064 447.594C433.208 448.312 488.38 436.605 502.639 424.463L499.687 448.049C470.725 447.322 441.772 448.712 412.828 448.957H412.837Z" fill="#000E7F"/>
<path d="M509.444 263.449C509.462 314.553 509.498 365.648 509.444 416.752C507.309 418.005 503.032 424.126 502.641 424.462C488.383 436.605 433.21 448.311 413.067 447.594L412.84 448.956C405.129 449.02 397.419 448.938 389.708 448.956C388.328 441.981 386.92 434.979 385.176 428.095C386.747 427.114 383.651 420.094 384.041 419.93C385.794 420.348 391.597 420.593 392.433 421.52C393.359 422.546 398.263 444.851 400.37 448.048L402.414 447.367C400.298 439.12 397.455 431.065 395.157 422.873C394.476 420.439 398.1 420.266 390.625 417.887C389.772 384.12 401.424 351.671 412.168 320.148C428.415 325.597 437.433 313.082 446.406 301.775L444.817 301.094C434.845 310.321 428.233 323.862 412.386 317.65C414.683 308.514 434.046 263.086 434.609 260.053C435.054 257.646 433.873 257.21 432.793 258.236C414.62 303.046 392.378 359.518 387.665 407.225C367.775 366.184 354.107 324.371 356.142 278.189C356.269 275.31 357.113 262.005 357.958 260.271C359.057 258.019 376.875 240.427 361.137 255.058C360.274 256.947 358.83 258.373 357.958 260.271C356.042 264.467 354.325 274.148 353.88 279.098C351.464 305.535 358.439 341.063 367.485 366.175C352.821 366.247 338.156 366.323 323.492 366.402C326.671 355.422 325.917 291.939 334.826 267.3C341.529 248.764 352.491 243.696 362.717 235.323C365.269 233.234 371.145 225.923 380.181 221.264C380.181 221.873 380.199 222.436 380.181 223.081C379.709 242.906 380.599 262.678 379.727 282.494C375.876 310.92 379.173 339.474 384.259 367.537L386.075 367.083C388.764 352.07 393.286 333.335 393.786 318.322C393.895 315.153 393.913 312.446 393.786 309.249C397.755 287.317 404.966 266.092 412.831 245.295C436.943 264.685 439.958 259.163 413.285 243.478C419.878 226.332 431.467 205.08 431.884 202.882C432.293 200.712 431.458 199.222 431.43 199.032C431.303 197.978 430.658 197.615 431.203 197.215C437.906 202.292 448.64 216.869 449.803 217.622C452.464 219.366 484.269 229.747 496.066 239.846C503.976 246.612 506.483 253.777 509.444 263.431V263.449Z" fill="#79B0FF"/>
<path d="M465.68 250.753C465.162 258.209 462.474 265.402 461.375 272.749C458.469 292.166 453.428 358.446 457.742 374.793C463.882 398.061 481.119 386.881 500.6 388.171L500.827 389.76C499.51 391.586 461.112 390.614 456.153 394.519C447.598 374.221 451.73 352.261 452.747 331.246C453.41 317.705 453.655 296.453 455.472 284.529C456.425 278.262 461.92 255.657 465.68 250.735V250.753Z" fill="#002899"/>
<path d="M402.631 419.931C403.112 424.19 410.105 443.789 410.114 445.106C410.123 446.858 409.161 448.448 407.844 446.922C407.544 444.724 397.354 418.142 402.631 419.94V419.931Z" fill="#000E7F"/>
<path d="M412.84 245.312C412.876 245.222 412.831 244.713 413.294 243.496C439.967 259.171 436.952 264.702 412.84 245.312Z" fill="#000066"/>
<path d="M357.957 260.28C358.82 258.382 360.273 256.947 361.136 255.067C376.875 240.445 359.056 258.028 357.957 260.28Z" fill="#032E3E"/>
<path d="M364.758 449.41L287.88 463.469C281.232 464.014 275.811 464.877 269.054 463.923C268.046 462.143 258.873 463.06 262.251 458.937C262.397 459.028 262.951 458.846 263.16 458.937C269.617 461.616 281.36 461.153 288.334 460.299C293.475 459.664 331.9 451.49 337.322 449.864C349.919 446.095 336.841 447.403 332.109 448.048L335.742 445.777C345.378 446.94 355.068 448.847 364.768 449.41H364.758Z" fill="#8C5EF6"/>
<path d="M334.827 417.206C324.446 415.898 311.477 417.442 301.714 421.284C300.225 421.865 298.636 422.828 297.182 423.554C294.185 424.054 295.702 418.223 294.912 416.071C294.712 415.517 292.705 414.172 292.642 414.027C292.26 413.155 290.725 409.323 290.825 408.814C290.998 407.942 297.909 403.919 288.555 393.166C293.831 387.844 319.606 373.122 321.667 370.035C327.607 370.452 366.931 369.444 369.066 370.489C370.128 371.006 376.622 389.633 377.911 392.485C381.208 399.76 388.11 411.775 388.346 412.892C388.564 413.945 388.192 415.735 388.346 416.97C384.468 415.617 360.856 397.425 359.094 397.698C357.55 397.934 344.063 413.846 334.827 417.197V417.206Z" fill="#79B0FF"/>
<path d="M312.375 381.378C327.215 384.393 335.461 392.903 343.444 405.191L342.763 405.872C332.183 393.893 328.677 388.099 312.375 382.74V381.378Z" fill="#000E7F"/>
<path d="M431.424 199.05C431.451 199.24 432.286 200.73 431.878 202.9C431.46 205.098 419.871 226.35 413.278 243.496C412.815 244.713 412.86 245.222 412.824 245.313C404.959 266.11 397.748 287.326 393.779 309.267C393.779 309.131 392.88 306.952 392.871 306.77C392.562 299.75 389.375 257.11 390.146 254.613C390.437 253.677 395.668 250.998 395.587 248.719C395.568 248.155 391.681 242.37 391.055 241.235C390.428 240.1 389.892 238.765 389.238 237.602C395.087 233.17 423.068 208.159 425.066 204.717C426.301 202.592 426.746 199.658 426.883 197.233C428.872 197.07 430.343 201.084 431.415 199.05H431.424Z" fill="#F6F7F3"/>
<path d="M387.431 236.24C378.294 255.004 384.606 251.407 385.16 254.386C385.469 256.021 383.289 263.404 382.89 265.72C381.936 271.287 380.465 276.927 379.711 282.503C380.583 262.687 379.693 242.916 380.165 223.09C383.189 225.724 385.369 232.744 387.421 236.24H387.431Z" fill="#F6F7F3"/>
<path d="M393.779 318.332C393.279 333.335 388.756 352.08 386.068 367.093L384.252 367.547C379.166 339.484 375.869 310.93 379.72 282.504C380.474 276.937 381.945 271.297 382.899 265.721C385.051 265.04 383.398 260.063 386.077 259.6C386.123 270.625 387.594 290.414 389.71 300.877C390.046 302.557 391.908 302.502 391.98 302.693C392.271 303.429 393.27 316.162 393.797 318.341L393.779 318.332Z" fill="#0041B2"/>
<path d="M391.064 241.227C391.7 242.362 395.578 248.147 395.596 248.711C395.678 250.99 390.447 253.669 390.156 254.605C389.384 257.102 392.572 299.742 392.881 306.762C392.881 306.934 393.78 309.123 393.789 309.259C393.916 312.447 393.898 315.154 393.789 318.332C393.271 316.153 392.263 303.42 391.973 302.684C391.9 302.493 390.047 302.548 389.702 300.868C387.586 290.405 386.115 270.616 386.069 259.591C383.399 260.054 385.043 265.031 382.891 265.712C383.29 263.396 385.461 256.003 385.161 254.378C395.533 252.343 396.532 249.8 390.147 241.454L391.055 241.227H391.064Z" fill="#002899"/>
<path d="M389.25 237.603C389.904 238.765 390.422 240.082 391.066 241.236L390.158 241.463C396.543 249.809 395.535 252.361 385.172 254.386C384.609 251.417 378.306 255.013 387.443 236.241C387.497 236.341 388.333 235.959 389.259 237.603H389.25Z" fill="#0041B2"/>
<path d="M262.71 437.613C264.345 437.813 264 437.613 264.072 437.613C277.35 438.975 290.737 439.72 303.987 441.246C304.287 441.282 304.596 441.209 304.895 441.246C315.185 442.435 325.438 444.542 335.737 445.778L332.105 448.048C309.064 451.181 286.813 461.326 263.164 458.029C262.501 455.613 262.873 447.24 259.531 437.168C260.857 437.459 261.466 437.468 262.71 437.622V437.613Z" fill="#7244DC"/>
<path d="M259.53 437.159C262.872 447.23 262.5 455.604 263.163 458.02C263.227 458.256 263.127 458.637 263.163 458.928C262.954 458.837 262.4 459.019 262.255 458.928C258.658 456.73 261.292 453.633 260.893 450.536C260.32 446.122 258.958 441.572 258.168 437.159C258.604 437.213 259.122 437.068 259.53 437.159Z" fill="#A88A63"/>
<path d="M263.154 458.928C263.117 458.637 263.217 458.256 263.154 458.02C286.803 461.316 309.053 451.172 332.094 448.039C336.826 447.394 349.913 446.086 337.307 449.855C331.894 451.472 293.46 459.654 288.32 460.29C281.354 461.153 269.611 461.607 263.145 458.928H263.154Z" fill="#79B0FF"/>
<circle cx="142.148" cy="173.793" r="7.2655" fill="#FEC4B0"/>
<rect x="212" y="150" width="96.5349" height="171.175" rx="16" fill="white"/>
<g filter="url(#filter0_d_1042_9701)">
<rect x="217.973" y="156.967" width="84.5924" height="156.247" rx="9" fill="#F0F5FE"/>
</g>
<rect x="222.945" y="227.588" width="37.8178" height="8.95684" rx="4.47842" fill="#C5DDFF"/>
<rect x="222.945" y="246.497" width="21.8945" height="8.95684" rx="4.47842" fill="#C5DDFF"/>
<rect x="222.945" y="265.406" width="12.9377" height="8.95684" rx="4.47842" fill="#C5DDFF"/>
<path d="M277.701 194.588C277.701 205.173 269.119 213.755 258.534 213.755C247.949 213.755 239.367 205.173 239.367 194.588C239.367 184.003 247.949 175.421 258.534 175.421C269.119 175.421 277.701 184.003 277.701 194.588Z" fill="#002899"/>
<path d="M268.681 185.566L255.676 198.586L250.308 193.233L247.598 195.943L255.68 204.006L271.392 188.276L268.681 185.566Z" fill="#F3EFFE"/>
</g>
<defs>
<filter id="filter0_d_1042_9701" x="137.973" y="96.9668" width="244.594" height="316.247" filterUnits="userSpaceOnUse" color-interpolation-filters="sRGB">
<feFlood flood-opacity="0" result="BackgroundImageFix"/>
<feColorMatrix in="SourceAlpha" type="matrix" values="0 0 0 0 0 0 0 0 0 0 0 0 0 0 0 0 0 0 127 0" result="hardAlpha"/>
<feOffset dy="20"/>
<feGaussianBlur stdDeviation="40"/>
<feComposite in2="hardAlpha" operator="out"/>
<feColorMatrix type="matrix" values="0 0 0 0 0 0 0 0 0 0 0 0 0 0 0 0 0 0 0.05 0"/>
<feBlend mode="normal" in2="BackgroundImageFix" result="effect1_dropShadow_1042_9701"/>
<feBlend mode="normal" in="SourceGraphic" in2="effect1_dropShadow_1042_9701" result="shape"/>
</filter>
<radialGradient id="paint0_radial_1042_9701" cx="0" cy="0" r="1" gradientUnits="userSpaceOnUse" gradientTransform="translate(260 260) rotate(90) scale(260)">
<stop stop-color="#D9D9D9"/>
<stop offset="1" stop-color="#737373"/>
</radialGradient>
</defs>
</svg>
