<svg width="71" height="71" viewBox="0 0 71 71" fill="none" xmlns="http://www.w3.org/2000/svg">
<rect x="0.5" y="0.5" width="70" height="70" rx="15.5" fill="white" stroke="#CEDCF1"/>
<path d="M30.5578 46.9237C30.6823 46.8417 30.8309 46.8048 30.9554 46.7023C30.9876 46.6736 31.0157 46.6449 31.0478 46.6162C31.0478 46.6121 31.0478 46.608 31.0438 46.6039C30.8952 46.1448 31.3893 45.8742 31.7267 45.6693C31.8592 45.5955 32.0038 45.5668 32.1364 45.4725C32.2971 45.3577 32.4336 45.2143 32.6023 45.1077C32.8433 44.9601 33.1165 44.9396 33.3535 44.7961C33.6266 44.624 33.8034 44.337 34.0885 44.2099C34.5746 43.9886 35.0767 43.8205 35.5547 43.5991C35.6069 43.554 35.6591 43.5295 35.7073 43.5295C35.7555 43.5049 35.8077 43.4885 35.8519 43.4639C36.1853 43.2876 36.4544 43.0826 36.7115 42.7957C36.7878 42.7055 36.9927 42.4759 37.1052 42.5579C37.3381 42.7383 37.2578 43.6114 37.2538 43.8738C37.2538 44.1566 37.2578 44.4395 37.2618 44.7182C37.3301 48.0756 37.7318 51.1787 37.9808 54.1138C38.0089 54.4582 38.0411 54.8025 38.0692 55.1427C38.0812 55.319 38.0491 55.3682 38.013 55.5199C37.9848 55.6469 38.0411 55.7822 37.9567 55.897C37.8242 56.0856 37.5992 56.2946 37.4185 56.4463C37.3944 56.4668 37.3663 56.4873 37.3381 56.5078C37.3422 56.6103 37.3663 56.7087 37.306 56.8029C37.1815 56.9997 36.9646 57.217 36.7959 57.3809C36.3299 57.8278 35.8158 58.2008 35.2775 58.5492C34.9321 58.7747 34.5545 59.0166 34.2492 59.2953C33.9118 59.6069 33.4258 60.0988 33.2731 59.4511C33.1325 58.8731 32.9759 58.2951 32.8273 57.7048C32.4979 56.4299 32.1725 55.114 31.7387 53.7941C31.1563 52.0191 30.5417 50.2318 30.0878 48.4199C30.0476 48.2518 29.9834 48.0633 29.9191 47.9034C29.7464 47.4443 30.2284 47.145 30.5578 46.9237Z" fill="#8C5EF6"/>
<path d="M34.2014 60.2711C35.3663 59.3406 35.7881 58.9183 36.6678 58.037C37.4832 57.2253 39.3992 55.3438 40.2869 54.1222C40.789 53.4253 41.0621 52.9826 40.6163 52.3308C40.4435 52.0807 40.0941 52.0479 39.8169 52.1053C39.3952 52.1955 39.0658 52.4251 38.7203 52.6915C37.6719 53.5032 35.6073 55.2946 34.6353 56.1923C34.2014 56.594 33.6511 57.1884 33.2374 57.6189C32.1087 58.7954 31.3294 60.021 32.0645 60.7384C32.7313 61.3779 33.6672 60.6974 34.2014 60.2711Z" fill="#8C5EF6"/>
<path d="M23.7935 40.2456C23.8738 40.1185 23.91 39.9668 24.0104 39.8356C24.0385 39.8028 24.0666 39.7742 24.0948 39.7414C24.0988 39.7455 24.1068 39.7455 24.1108 39.7455C24.5607 39.9012 24.8258 39.3929 25.0267 39.0445C25.099 38.9133 25.1271 38.7616 25.2235 38.6264C25.3359 38.4624 25.4765 38.323 25.577 38.1508C25.7216 37.9049 25.7457 37.6261 25.8863 37.3843C26.0509 37.1055 26.3321 36.9292 26.4607 36.6341C26.6776 36.1381 26.8422 35.6298 27.0592 35.1379C27.1033 35.0846 27.1274 35.0272 27.1274 34.978C27.1515 34.9288 27.1676 34.8755 27.1917 34.8304C27.3644 34.4943 27.5653 34.2155 27.8464 33.9532C27.9308 33.8794 28.1557 33.6703 28.0754 33.5596C27.9027 33.3219 27.0431 33.4039 26.786 33.408C26.5089 33.408 26.2317 33.3998 25.9626 33.3957C22.6768 33.326 19.6361 32.916 16.7561 32.666C16.4187 32.6373 16.0812 32.6004 15.7479 32.5758C15.5791 32.5594 15.5269 32.5963 15.3823 32.6291C15.2578 32.6578 15.1252 32.6004 15.0128 32.6865C14.824 32.8259 14.6231 33.0554 14.4745 33.2358C14.4544 33.2604 14.4344 33.2891 14.4143 33.3219C14.3179 33.3137 14.2175 33.2891 14.1251 33.3547C13.9323 33.4858 13.7194 33.7031 13.5627 33.8753C13.1249 34.3549 12.7594 34.8796 12.4139 35.4248C12.193 35.7773 11.956 36.1627 11.6829 36.4742C11.3695 36.8186 10.8875 37.3105 11.5222 37.4704C12.0845 37.6138 12.6509 37.7737 13.2333 37.9254C14.4826 38.2615 15.7679 38.5936 17.0694 39.0363C18.8087 39.6266 20.556 40.2579 22.3354 40.717C22.5001 40.7621 22.6808 40.8236 22.8455 40.8892C23.2793 41.0695 23.5726 40.5776 23.7935 40.2456Z" fill="#8C5EF6"/>
<path d="M10.713 36.5235C11.6208 35.3347 12.0385 34.9043 12.8981 34.0065C13.6975 33.1744 15.5372 31.2231 16.7382 30.3172C17.421 29.8007 17.8549 29.526 18.4935 29.981C18.7386 30.1532 18.7747 30.514 18.7144 30.7968C18.6261 31.2231 18.4011 31.5593 18.14 31.9118C17.3407 32.9817 15.5894 35.0888 14.7097 36.0808C14.3161 36.5235 13.7296 37.0892 13.3119 37.5073C12.159 38.6592 10.958 39.4545 10.2591 38.7043C9.62845 38.0238 10.2952 37.0728 10.713 36.5235Z" fill="#8C5EF6"/>
<path d="M51.8695 19.5689C51.4799 19.1631 51.5723 18.4334 52.0824 17.9415C53.5204 16.6297 54.9785 15.2934 56.4527 13.9529C56.6817 13.7397 56.8584 13.502 57.0994 13.3134C57.5694 12.9486 58.0313 12.5509 58.4772 12.1451C58.8708 11.7844 59.2645 11.2966 59.7585 11.0875C60.1401 10.9276 60.7306 10.9809 60.9194 11.2966C61.2929 11.9032 60.2767 12.883 59.7826 13.3216C58.8507 14.1415 57.9871 15.0392 57.1074 15.9124C55.9024 17.1093 54.7134 18.294 53.5044 19.4418C52.9942 19.9256 52.2632 19.9829 51.8695 19.5689Z" fill="#8C5EF6"/>
<path d="M35.8461 23.451C36.9587 22.4262 38.1155 21.4547 39.3125 20.5446C40.2203 19.8601 41.0518 19.2862 41.7146 18.8639C42.8031 18.1671 43.9279 17.5235 45.0807 16.9373C46.5629 16.183 48.0129 15.5845 49.4068 15.1254C50.9291 14.6212 52.5238 14.2153 53.8895 14.0555C54.8616 13.9407 55.8457 13.9407 56.5406 14.3383C57.3158 14.7769 57.6573 15.896 57.605 16.9414C57.5006 18.9541 56.9142 21.2497 55.9461 23.6109C55.4812 24.7588 54.9362 25.8712 54.3153 26.9395C49.4027 35.3923 41.4816 41.8691 32.9339 46.5587C32.0542 47.0342 31.1022 47.4237 30.1864 47.9812C30.1502 48.0058 30.1101 48.014 30.0699 48.0386C29.8731 48.137 29.7526 48.1861 29.7245 48.1779C28.2463 48.7191 26.1174 48.0632 24.4665 46.3333C22.7995 44.6116 22.2171 42.4553 22.7955 40.9468C22.7955 40.9468 22.8517 40.8361 22.9561 40.6353C26.2821 34.3101 30.576 28.2923 35.8461 23.451Z" fill="#79B0FF"/>
<path d="M57.845 21.7291C57.8932 21.4913 57.9173 21.2371 57.9776 21.0486C58.311 19.9541 58.4917 18.8801 58.5118 17.7486C58.5279 16.773 58.3672 15.74 58.066 14.8259C57.837 14.1208 57.359 13.0878 56.6561 12.8295C55.8206 12.5221 54.965 12.6122 54.0934 12.6778C53.29 12.7393 52.4666 12.7598 51.7074 12.9689C50.9321 13.1779 50.1649 13.6453 49.5745 14.1905C49.3616 14.3872 48.9398 14.7562 48.8956 15.0636C48.8394 15.4448 49.2732 16.0597 49.4419 16.3918C49.8838 17.2608 50.6389 17.9044 51.2374 18.6587C52.0488 19.6999 52.9928 20.3968 54.0934 21.1265C54.716 21.5364 55.3265 21.9832 56.0013 22.2907C56.3669 22.4587 57.2305 22.6145 57.5679 22.3235C57.7245 22.18 57.7968 21.9627 57.845 21.7291Z" fill="#8C5EF6"/>
<path d="M44.5572 23.693C44.359 23.8817 44.1991 24.1084 44.087 24.3603C43.9748 24.6121 43.9124 24.8841 43.9035 25.1606C43.8945 25.4371 43.9391 25.7127 44.0348 25.9715C44.1304 26.2304 44.2752 26.4675 44.4608 26.6691C44.646 26.8711 44.8684 27.0339 45.1153 27.148C45.3622 27.2621 45.6288 27.3254 45.8997 27.3341C46.1706 27.3429 46.4406 27.297 46.6941 27.199C46.9476 27.1011 47.1797 26.953 47.377 26.7634C47.5754 26.5743 47.7353 26.347 47.8474 26.0946C47.9595 25.8423 48.0216 25.5698 48.0302 25.2929C48.0388 25.0159 47.9937 24.74 47.8974 24.4809C47.8012 24.2218 47.6557 23.9847 47.4694 23.7832C46.6982 22.9346 45.3927 22.8936 44.5572 23.693Z" fill="white"/>
<path d="M41.9091 32.0087C42.7407 31.2125 42.7824 29.8791 42.0022 29.0304C41.2221 28.1817 39.9155 28.1392 39.0839 28.9353C38.2523 29.7315 38.2106 31.0649 38.9907 31.9136C39.7709 32.7623 41.0775 32.8049 41.9091 32.0087Z" fill="white"/>
<path d="M33.6084 34.1748C32.7809 34.9701 32.7327 36.3023 33.516 37.1509C33.8907 37.5587 34.4087 37.7981 34.9562 37.8165C35.5037 37.835 36.036 37.631 36.4362 37.2493C37.2677 36.4499 37.3079 35.1177 36.5286 34.2691C36.1534 33.8619 35.6351 33.6232 35.0876 33.6055C34.5401 33.5879 34.0081 33.7926 33.6084 34.1748Z" fill="white"/>
<path d="M22.6462 49.469C23.8071 48.5385 24.2288 48.1122 25.1125 47.2349C25.9279 46.4233 27.8399 44.5417 28.7276 43.316C29.2338 42.6191 29.4989 42.1764 29.057 41.5246C28.8843 41.2746 28.5348 41.2418 28.2577 41.2992C27.8399 41.3853 27.5106 41.6189 27.1611 41.8854C26.1127 42.697 24.0481 44.4843 23.076 45.3862C22.6422 45.7879 22.0879 46.3823 21.6782 46.8127C20.5535 47.9892 19.7702 49.2149 20.5053 49.9282C21.1721 50.5759 22.112 49.8954 22.6462 49.469Z" fill="#8C5EF6"/>
</svg>
