<svg width="120" height="120" viewBox="0 0 120 120" fill="none" xmlns="http://www.w3.org/2000/svg">
<g filter="url(#filter0_d_607_38)">
<rect x="30" y="18" width="60" height="60" rx="12" fill="white"/>
<g filter="url(#filter1_b_607_38)">
<path d="M72.6092 34H48.3908C46.5179 34 45 35.7292 45 37.8619V55.517C45 57.6492 46.5179 59.3796 48.3908 59.3796H50.9651C51.5174 59.3796 51.9651 59.8273 51.9651 60.3796V63.1789C51.9651 64.1209 53.1485 64.5404 53.7418 63.8087L57.033 59.7497C57.2229 59.5156 57.5083 59.3796 57.8097 59.3796H72.6092C74.4826 59.3796 76 57.6492 76 55.517V37.8619C75.9995 35.7292 74.4821 34 72.6092 34Z" fill="#40CAF4"/>
<path d="M48.3908 35H72.6092C73.8112 35 74.9995 36.1549 75 37.8619C75 37.862 75 37.8621 75 37.8622V55.517C75 57.2236 73.8116 58.3796 72.6092 58.3796H57.8097C57.2068 58.3796 56.636 58.6516 56.2562 59.1199L52.9651 63.1789L52.9651 60.3796C52.9651 59.275 52.0696 58.3796 50.9651 58.3796H48.3908C47.1888 58.3796 46 57.2235 46 55.517V37.8619C46 36.1552 47.1885 35 48.3908 35Z" stroke="#161042" stroke-width="2"/>
</g>
</g>
<defs>
<filter id="filter0_d_607_38" x="0" y="0" width="120" height="120" filterUnits="userSpaceOnUse" color-interpolation-filters="sRGB">
<feFlood flood-opacity="0" result="BackgroundImageFix"/>
<feColorMatrix in="SourceAlpha" type="matrix" values="0 0 0 0 0 0 0 0 0 0 0 0 0 0 0 0 0 0 127 0" result="hardAlpha"/>
<feOffset dy="12"/>
<feGaussianBlur stdDeviation="15"/>
<feComposite in2="hardAlpha" operator="out"/>
<feColorMatrix type="matrix" values="0 0 0 0 0.0862745 0 0 0 0 0.0627451 0 0 0 0 0.258824 0 0 0 0.1 0"/>
<feBlend mode="normal" in2="BackgroundImageFix" result="effect1_dropShadow_607_38"/>
<feBlend mode="normal" in="SourceGraphic" in2="effect1_dropShadow_607_38" result="shape"/>
</filter>
<filter id="filter1_b_607_38" x="25" y="14" width="71" height="70.1809" filterUnits="userSpaceOnUse" color-interpolation-filters="sRGB">
<feFlood flood-opacity="0" result="BackgroundImageFix"/>
<feGaussianBlur in="BackgroundImageFix" stdDeviation="10"/>
<feComposite in2="SourceAlpha" operator="in" result="effect1_backgroundBlur_607_38"/>
<feBlend mode="normal" in="SourceGraphic" in2="effect1_backgroundBlur_607_38" result="shape"/>
</filter>
</defs>
</svg>
