<svg width="530" height="451" viewBox="0 0 530 451" fill="none" xmlns="http://www.w3.org/2000/svg">
<g opacity="0.21">
<path d="M-103.621 289.958L-109.708 262.337C-115.795 234.717 -127.543 179.154 -112.62 159.849C-97.2697 140.222 -55.2497 156.853 -26.3512 155.194C2.12023 153.857 17.4702 134.23 24.6511 104.658C31.8319 75.0851 31.6979 34.9231 40.8142 7.91757C50.3577 -19.4101 69.1516 -33.5813 99.9856 -32.6734C130.393 -31.4434 172.84 -15.1343 193.569 -26.7387C214.298 -38.343 214.164 -78.505 217.474 -113.211C221.211 -148.239 228.392 -177.812 257.29 -179.471C285.762 -180.808 335.951 -154.231 360.832 -140.782L385.713 -127.332" stroke="#85D7F9" stroke-width="3"/>
<path d="M1.78465 429.747L6.21786 406.305C11.0782 382.54 19.9446 335.655 42.7652 306.388C65.5859 277.121 101.506 266.115 143.651 262.476C185.796 258.836 233.312 263.208 269.659 251.88C306.007 240.552 330.333 214.17 343.491 172.088C356.65 130.007 357.787 72.871 372.877 33.3525C387.968 -6.16602 416.159 -27.4229 430.682 -38.3734L444.777 -49.0018" stroke="#85D7F9" stroke-width="3"/>
<path d="M-94.487 302.073L-99.6018 276.285L-101.784 184.093C-87.5855 164.025 -49.318 173.507 -21.1239 168.742C5.42201 165.888 20.7102 147.339 29.0291 120.338C37.3481 93.3358 39.457 57.3086 49.9308 33.1398C63.1241 8.48066 85.1051 -3.63586 116.514 -4.13808C147.542 -4.35402 187.904 7.11592 207.789 -7.87839C226.942 -20.5371 227.283 -58.9089 230.7 -92.4118C234.497 -126.201 241.369 -155.121 267.866 -158.83C294.823 -164.445 342.471 -143.313 366.152 -132.639L389.786 -121.929" stroke="#85D7F9" stroke-width="3"/>
<path d="M-84.6481 315.12L-88.8835 291.041L-90.6321 208.754C-77.6133 188.207 -42.9762 190.703 -15.4342 182.901C9.24057 178.603 24.4448 161.102 33.8363 136.584C43.2279 112.066 47.4711 80.0295 59.2505 58.6289C76.0463 36.5754 101.227 26.5302 133.282 24.7138C165.005 23.148 203.413 29.9541 222.456 11.5714C240.038 -2.13335 240.735 -38.8731 244.163 -71.3008C247.922 -103.979 254.413 -132.345 278.56 -138.034C304.05 -147.866 349.336 -131.939 371.907 -123.922L394.384 -115.833" stroke="#85D7F9" stroke-width="3"/>
<path d="M-74.8108 328.167L-78.0438 305.961L-78.9868 234.071C-67.0952 213.116 -36.2039 208.472 -9.36797 197.562C13.3741 191.736 28.5208 175.32 39.0602 153.385C49.5996 131.451 56.1013 103.57 69.2378 85.0055C89.6701 65.6025 118 57.562 150.599 54.2949C182.914 51.2426 219.213 53.1785 237.439 31.4424C253.457 16.7 254.676 -18.1879 258.251 -49.3579C262.111 -80.7427 268.328 -108.409 290.074 -116.148C314.064 -130.241 356.767 -119.812 378.118 -114.598L399.327 -109.276" stroke="#85D7F9" stroke-width="3"/>
<path d="M-64.2702 342.146L-66.676 321.58L-67.3279 259.406C-56.6502 237.926 -29.3765 226.313 -3.18182 212.38C17.707 205.134 32.7609 189.754 44.3499 170.273C55.9389 150.792 64.5376 126.852 78.9713 111.045C103.014 94.2582 134.591 88.3523 167.887 83.8364C200.945 79.4995 235.341 76.839 252.692 51.6707C267.126 35.8635 268.624 2.50611 272.144 -27.676C275.901 -58.0371 281.68 -85.223 301.085 -94.9312C323.6 -113.251 364.021 -107.921 384.303 -105.31L404.395 -102.556" stroke="#85D7F9" stroke-width="3"/>
<path d="M-53.7286 356.125L-55.2026 337.337L-55.2584 285.284C-45.7414 263.351 -22.1569 244.673 3.35939 227.669C22.3487 218.94 37.3305 204.625 50.0265 187.673C62.7226 170.721 73.5126 150.847 89.2775 137.842C116.943 123.688 151.706 119.835 185.606 113.949C219.316 108.206 251.689 100.788 268.202 72.2385C281.065 55.3847 282.987 23.7507 286.574 -5.28126C290.351 -34.4564 295.792 -61.0295 312.822 -72.7524C333.849 -95.3153 371.811 -95.3208 390.934 -95.4309L409.82 -95.3621" stroke="#85D7F9" stroke-width="3"/>
<path d="M-41.7836 371.968L-42.3659 354.905L-41.9256 312.84C-33.6028 290.409 -13.7217 264.648 11.1168 244.573C28.2151 234.372 43.1195 221.115 56.9107 206.677C70.702 192.239 83.6649 176.406 100.763 166.206C132.073 154.713 170.075 152.984 204.621 145.783C239.024 138.689 269.403 126.552 285.038 94.5687C296.312 76.6441 298.597 46.6501 302.195 18.6946C305.936 -9.36836 310.991 -35.3928 325.643 -49.1334C345.162 -75.9675 380.717 -81.2376 398.708 -84.0336L416.415 -86.615" stroke="#85D7F9" stroke-width="3"/>
<path d="M-29.1344 388.742L-28.7096 373.559L-27.5153 341.823C-20.2666 319.053 -3.97503 286.36 20.2086 263.244C35.4076 251.562 50.2452 239.375 65.1478 227.473C80.0505 215.57 95.208 203.808 113.606 196.369C148.454 187.396 189.486 187.513 224.547 178.823C259.514 170.204 287.844 153.279 302.761 118.072C312.522 99.177 315.362 71.0801 319.147 44.4337C323.028 17.7157 327.853 -7.55187 340.161 -23.2658C358.277 -54.2299 391.3 -64.9324 408.096 -70.4983L424.56 -75.8138" stroke="#85D7F9" stroke-width="3"/>
<path d="M-14.5747 408.053L-13.2726 394.576L-11.608 372.793C-5.57341 349.5 6.98574 309.684 30.4837 283.487C43.7893 270.33 58.5491 259.201 74.5486 249.814C90.5482 240.427 107.882 232.712 127.624 228.09C166.138 221.808 210.447 224.099 246.172 214.118C281.851 204.173 308.187 182.53 322.198 143.85C330.355 123.866 333.531 97.3733 337.303 71.7702C341.122 46.1313 345.537 21.3816 355.458 3.63713C372.043 -31.6282 402.67 -47.5815 418.339 -55.8266L433.629 -63.7854" stroke="#85D7F9" stroke-width="3"/>
</g>
</svg>
